G04 DipTrace 2.3.0.3*
%INBottom.gbr*%
%MOIN*%
%ADD13C,0.015*%
%ADD14C,0.007*%
%ADD15C,0.025*%
%ADD16C,0.0236*%
%ADD17C,0.05*%
%ADD18C,0.024*%
%ADD19C,0.02*%
%ADD22R,0.12X0.12*%
%ADD23C,0.25*%
%ADD26C,0.1417*%
%ADD27C,0.252*%
%ADD31C,0.072*%
%ADD32R,0.072X0.072*%
%ADD33C,0.064*%
%ADD34R,0.064X0.064*%
%ADD35R,0.0787X0.0787*%
%ADD36C,0.0787*%
%ADD37R,0.07X0.07*%
%ADD38C,0.07*%
%ADD39C,0.04*%
%FSLAX44Y44*%
G04*
G70*
G90*
G75*
G01*
%LNBottom*%
%LPD*%
X43690Y9565D2*
D13*
X43693Y9568D1*
Y18753D1*
X36440Y17940D2*
X37379Y17001D1*
X42313D1*
X42190Y18753D2*
X43693D1*
Y19720D1*
X43913Y19940D1*
X48690D1*
X39344Y10355D2*
X40997D1*
X38690Y18753D2*
X35975D1*
X35755Y18533D1*
Y16324D1*
X39344Y12736D1*
Y10355D1*
X40190Y18753D2*
X39435D1*
X38690D1*
X20940Y13940D2*
D14*
X21440Y14440D1*
Y24315D1*
X22190Y25065D1*
X29565D1*
X29965Y25465D1*
X31560D1*
X39940Y22940D2*
D15*
Y26940D1*
X33565Y19627D2*
Y22565D1*
X33940Y22940D1*
X36440D1*
X14940Y16435D2*
X14815Y16310D1*
Y14565D1*
X15565D1*
X31440Y7940D2*
X31190D1*
X29440D2*
X29190Y7690D1*
X27440Y7940D2*
X26940D1*
X25440D2*
X25190D1*
X23940Y16435D2*
Y8940D1*
X36440Y16940D2*
X38379Y15001D1*
X40813D1*
X42126Y13688D1*
Y9504D1*
X42940Y8690D1*
X7940Y61940D2*
X8440D1*
X6940Y59940D2*
Y59690D1*
X11315Y60065D2*
X11190Y60190D1*
Y60315D1*
X16690Y60065D2*
Y60315D1*
X11065Y62690D2*
X10815Y62440D1*
Y62253D1*
X16565Y62690D2*
X16190D1*
X21002D2*
Y62315D1*
X25315Y62753D2*
Y62440D1*
X30252Y60128D2*
Y60440D1*
X25690Y60128D2*
X25502Y60315D1*
Y60502D1*
X21252Y60128D2*
X21127Y60252D1*
Y60628D1*
X40627Y62690D2*
X40315Y63002D1*
X46127Y62753D2*
X45940Y62940D1*
X45877D1*
X50690Y62690D2*
X50565Y62815D1*
X50440D1*
X55252Y62690D2*
X55065Y62877D1*
X54877D1*
X60253Y62690D2*
X60128Y62815D1*
X60002D1*
X65753Y62690D2*
X65503Y62940D1*
X65565Y63002D1*
X71378Y62690D2*
X71128Y62940D1*
X70877D1*
X75690Y62690D2*
X75503Y62877D1*
X75440D1*
X80252Y62690D2*
X80065Y62877D1*
X80003D1*
X85128Y62690D2*
X84878Y62940D1*
X84690D1*
X90190Y62628D2*
X89940Y62877D1*
Y62940D1*
X95627Y62628D2*
X95502Y62753D1*
Y62877D1*
X101338Y62690D2*
X101150Y62877D1*
X100378D1*
X100128D1*
X100627Y62628D2*
X100378Y62877D1*
X105627Y62690D2*
X105440Y62877D1*
X105378D1*
X109752Y62628D2*
X109627Y62753D1*
Y62877D1*
X115003Y62690D2*
X114940Y62753D1*
X114565D1*
X118002Y62690D2*
X117815Y62877D1*
Y62940D1*
X35752Y60128D2*
X35690Y60190D1*
X35440D1*
X40563Y60131D2*
X40438Y60256D1*
Y60318D1*
X40563Y60131D1*
X50752D2*
X50564Y60318D1*
Y60381D1*
X55190Y60193D2*
X55065Y60318D1*
Y60381D1*
X55190Y60193D1*
X60190Y60131D2*
X60003Y60318D1*
X59940D1*
X65691Y60131D2*
X65628Y60193D1*
X65441D1*
X71191Y60256D2*
X71004Y60443D1*
Y60568D1*
X75692Y60193D2*
X75504Y60381D1*
X75379D1*
X80130Y60131D2*
X80005Y60256D1*
Y60443D1*
X85318Y60193D2*
X85193Y60318D1*
Y60443D1*
X90006Y60193D2*
Y60443D1*
X95569Y60068D2*
Y60381D1*
X100445Y60256D2*
Y60506D1*
X105633Y60193D2*
X105383Y60443D1*
X105320D1*
X109696Y60256D2*
X109508Y60443D1*
X109383D1*
X114884Y60256D2*
X114509Y60631D1*
X118571Y60193D2*
Y60506D1*
X16076Y43413D2*
Y58715D1*
X21940Y58940D2*
X22104Y58776D1*
Y58495D1*
X22244D1*
X22104Y58355D1*
Y43413D1*
X30459Y36516D2*
X29989Y36986D1*
Y39538D1*
X29669Y39858D1*
X24260D1*
X23940Y39538D1*
Y34505D1*
X64810Y58440D2*
D16*
X64091Y59159D1*
X60940D1*
X32560Y19470D2*
D15*
X32005Y18915D1*
X30813D1*
X30493Y19235D1*
Y20245D1*
X101440Y59112D2*
D16*
X96440D1*
X80755Y59073D2*
X80149D1*
X79544Y58468D1*
D15*
X79516Y58440D1*
X75276D1*
X29669Y39858D2*
Y41438D1*
X29479Y41628D1*
X106440Y59179D2*
D16*
X110440D1*
X115690D2*
D15*
X118144Y56725D1*
X119199D1*
X119339Y56585D1*
Y42435D1*
X54715Y58537D2*
X55065D1*
Y45580D1*
X55205Y45440D1*
X71195D1*
X71335Y45580D1*
D16*
Y58335D1*
X71838Y58838D1*
X79544Y58468D2*
D3*
D15*
Y43225D1*
X90838Y58838D2*
X86901D1*
X86761Y58698D1*
D16*
X86621Y58838D1*
X86042D1*
X85940Y58940D1*
X41417Y36516D2*
D15*
X34188D1*
X26440Y58940D2*
X29058D1*
X55205Y45440D2*
Y43493D1*
X54885Y43173D1*
X44569D1*
X43025Y41628D1*
X71335Y45580D2*
X71655Y45260D1*
Y42830D1*
X22244Y58495D2*
X24620D1*
X16076Y58715D2*
X15856Y58495D1*
X10776D1*
X36440Y59072D2*
X36350Y58982D1*
X30940D1*
X41338Y59072D2*
X36440D1*
X46940Y59159D2*
X44954D1*
X44866Y59072D1*
X41338D1*
X51440Y59159D2*
X46940D1*
X54715Y58537D2*
X51440D1*
Y59159D1*
X60940D2*
X55337D1*
X54715Y58537D1*
X86761Y58698D2*
Y42905D1*
X96440Y59112D2*
X94733D1*
X94458Y58838D1*
X90838D1*
X119339Y42435D2*
X121940Y39834D1*
Y5940D1*
X119199Y56725D2*
X119339Y56865D1*
Y59041D1*
X110440Y59179D2*
X115690D1*
X119339Y59041D2*
X119734Y58646D1*
Y57365D1*
X120054Y57045D1*
X120642D1*
X122756Y59159D1*
X79544Y43225D2*
X79814D1*
X80014Y43025D1*
Y42905D1*
X86761D2*
X96815D1*
X34188Y36516D2*
Y30025D1*
X8215Y20245D2*
X8208Y20252D1*
X7940D1*
Y13940D1*
X35563Y62756D2*
X35313Y63006D1*
X9565Y56128D2*
D14*
X10315Y56877D1*
X61440Y56880D2*
X62076Y56245D1*
X65081D1*
X91104Y56968D2*
X91132Y56940D1*
X93740D1*
X18940Y13940D2*
X19440Y14440D1*
Y23690D1*
X19690Y23940D1*
X12405Y39085D2*
Y34035D1*
X12940Y33500D1*
Y38615D2*
Y34505D1*
X15405Y37971D2*
Y34115D1*
X15265Y33975D1*
X14410D1*
X13940Y33505D1*
X14405Y37501D2*
Y34970D1*
X13940Y34505D1*
X29339Y39323D2*
Y36351D1*
X29479Y36211D1*
X30831D1*
X30971Y36351D1*
Y42403D1*
X30831Y42543D1*
X23635D1*
X23495Y42403D1*
Y36165D1*
X23405Y36075D1*
Y32295D1*
X23265Y32155D1*
X19290D1*
X17940Y33505D1*
Y38170D2*
Y34505D1*
X18940Y37852D2*
Y34505D1*
X22405Y42088D2*
Y33970D1*
X21940Y33505D1*
Y39851D2*
Y34505D1*
X48545Y40043D2*
X81410D1*
X81550Y40183D1*
Y57468D1*
X39557Y38658D2*
X44995D1*
X47873Y41537D1*
X72409D1*
X72549Y41677D1*
Y59277D1*
X72689Y59417D1*
X101605D1*
X101745Y59277D1*
Y57855D1*
X63295Y42098D2*
X72104D1*
X72244Y42238D1*
Y57358D1*
X30666Y38657D2*
Y42098D1*
X36103Y39433D2*
X41769D1*
X41909Y39573D1*
Y57468D1*
X19100Y38823D2*
Y56609D1*
X17964Y57745D1*
X40060Y38963D2*
X44638D1*
X48618Y42943D1*
X63535D1*
X38229Y39128D2*
X34393D1*
X34253Y39268D1*
Y57745D1*
X33627Y57503D2*
X33940Y57190D1*
Y38798D1*
X34080Y38658D1*
X36746D1*
X51744Y57358D2*
Y51635D1*
X42501Y42393D1*
Y39409D1*
X42361Y39268D1*
X39449D1*
X38839Y38658D1*
X81245Y40573D2*
X49245D1*
X46330Y37352D2*
X110604D1*
X110744Y37492D1*
Y57358D1*
X118944Y42905D2*
Y35660D1*
X118804Y35520D1*
X46025D1*
X44090Y36355D2*
X42182D1*
X41187Y37350D1*
X36432D1*
X42182Y36355D2*
X42042Y36215D1*
Y28240D1*
Y26940D2*
Y27630D1*
X36432Y37350D2*
X33862D1*
X33660Y28240D2*
D13*
Y31970D1*
X33440Y32190D1*
X32000D1*
X31780Y31970D1*
Y31680D1*
X31560Y31460D1*
X26598Y12683D2*
X25327D1*
X25107Y12463D1*
Y10623D1*
X30666Y37528D2*
X30259Y37936D1*
Y39218D1*
X30359Y39318D1*
Y41203D1*
X34558D2*
Y40156D1*
X20055Y35525D2*
Y40577D1*
X14940Y19847D2*
Y17435D1*
X78940Y35215D2*
X48940D1*
X31560Y31460D2*
Y32860D1*
X24585D1*
X23940Y33505D1*
X33660Y27630D2*
Y24482D1*
X33065Y23887D1*
Y19185D1*
X33285Y18965D1*
X34315D1*
X34535Y18745D1*
Y15647D1*
X31560Y32860D2*
X31837Y33137D1*
Y37528D1*
X30359Y41203D2*
X29939Y41623D1*
Y41753D1*
X29719Y41973D1*
X28722D1*
X28377Y41628D1*
X34558Y40156D2*
X34936Y39778D1*
X41310D1*
X41560Y40028D1*
X48940Y37657D2*
X48900Y37697D1*
X43552D1*
X43512Y37657D1*
X10405Y23982D2*
D14*
Y40323D1*
X18940Y23982D2*
Y17435D1*
X10285Y18655D2*
X9335Y19605D1*
Y40018D1*
X17405Y39713D2*
Y18185D1*
X17545Y18045D1*
X17800D1*
X17940Y17905D1*
Y17435D1*
X16405Y39408D2*
Y15975D1*
X16545Y15835D1*
X17340D1*
X17940Y16435D1*
X16940Y30080D2*
Y17435D1*
X47939Y40379D2*
Y38691D1*
Y33816D2*
Y32690D1*
X47564Y32315D1*
X17100Y31775D2*
X17245Y31630D1*
Y17985D1*
X17405Y17825D1*
Y16900D1*
X16940Y16435D1*
X15940Y31160D2*
Y17435D1*
X15405Y17886D2*
Y30245D1*
X13410Y42333D2*
Y17965D1*
X13940Y17435D1*
X63600Y39738D2*
X77940D1*
X11470Y42638D2*
Y15975D1*
X11610Y15835D1*
X13340D1*
X13940Y16435D1*
X63130Y39433D2*
X78940D1*
X12940Y32735D2*
Y17435D1*
X45415Y34185D2*
X64810D1*
X14405Y31447D2*
Y17045D1*
X14265Y16905D1*
X13410D1*
X12940Y16435D1*
X49635Y38518D2*
X80940D1*
X11940Y30550D2*
Y17435D1*
X50635Y34490D2*
X65447D1*
X12410Y29775D2*
Y16905D1*
X11940Y16435D1*
X64045Y36640D2*
X65752D1*
X10940Y30855D2*
Y17435D1*
X50330Y33715D2*
X65142D1*
X17710Y18350D2*
Y27795D1*
X17850Y27935D1*
X42658D1*
X45093Y30370D1*
X65824D1*
X53690Y21315D2*
Y21690D1*
X50753Y24627D1*
X48189D1*
X29877Y18377D2*
X29815Y18315D1*
Y16752D1*
X29498Y16435D1*
X28940D1*
X27502Y10502D2*
X31065Y14065D1*
Y15003D1*
X55878Y22065D2*
X53003Y24940D1*
X48627D1*
X27127Y18503D2*
X26940Y18315D1*
Y17435D1*
X55753Y6377D2*
X52815Y9315D1*
Y19315D1*
X50003Y22127D1*
X48502D1*
X59815Y23315D2*
X57815Y25315D1*
X48189D1*
X25940Y18815D2*
Y17435D1*
X59940Y7565D2*
X58003Y9502D1*
X54127D1*
X53002Y10627D1*
Y19502D1*
X50002Y22502D1*
X47877D1*
X32502Y16502D2*
X32440Y16440D1*
Y12940D1*
X32315Y12815D1*
X31065D1*
X63878Y24565D2*
X62753Y25690D1*
X48564D1*
X24940Y19627D2*
Y17435D1*
X63941Y8813D2*
X62941Y9813D1*
X54127D1*
X53190Y10751D1*
Y11376D1*
X53252Y11438D1*
Y19564D1*
X50002Y22814D1*
X48627D1*
X32937Y16876D2*
Y12313D1*
X32437Y11813D1*
X31062D1*
X53565Y26252D2*
X47877D1*
X22878Y20815D2*
X22940Y20753D1*
Y17435D1*
X53627Y10813D2*
Y19376D1*
X49814Y23189D1*
X47814D1*
X31562Y17251D2*
X28312Y14001D1*
X25437D1*
X55878Y27503D2*
Y27440D1*
X52627D1*
X51940Y26753D1*
X48440D1*
X21878Y21690D2*
X21940Y21628D1*
Y17435D1*
X55815Y11751D2*
X55377Y12188D1*
Y19814D1*
X54877Y20314D1*
X53065D1*
X49689Y23689D1*
X48627D1*
X32375Y17564D2*
X27874Y13063D1*
X25374D1*
X59752Y28753D2*
X59690Y28815D1*
X53065D1*
X51378Y27128D1*
X48002D1*
X20940Y22002D2*
Y17435D1*
X59878Y13063D2*
X58503Y14438D1*
Y18626D1*
X56565Y20564D1*
X53315D1*
X49877Y24002D1*
X48064D1*
X33500Y17939D2*
X27624Y12063D1*
X25499D1*
X63502Y30065D2*
X62815Y29378D1*
X53003D1*
X51752Y28127D1*
X48564D1*
X19940Y22690D2*
Y17435D1*
X63816Y14313D2*
X57128Y21002D1*
X53315D1*
X50002Y24315D1*
X48627D1*
X18311Y19502D2*
X18436Y19376D1*
Y13501D1*
X18748Y13188D1*
X18874D1*
X19436Y13751D1*
Y14126D1*
X19940Y14630D1*
Y16435D1*
X71940Y15690D2*
D17*
Y5440D1*
X81940Y15690D2*
Y5440D1*
X91940Y15690D2*
Y5440D1*
X101940Y15690D2*
Y5440D1*
X54816Y6402D2*
D18*
X54238D1*
X53928Y6092D1*
Y5440D1*
X102940Y20190D2*
D17*
Y22440D1*
X92940Y20190D2*
Y22440D1*
X82940Y20190D2*
Y22440D1*
X72940Y20190D2*
Y22440D1*
Y15690D2*
Y6690D1*
X82940Y15690D2*
Y6690D1*
X92940Y15690D2*
Y6690D1*
X102940Y15690D2*
Y6690D1*
X103940Y20190D2*
Y23690D1*
X93940Y20190D2*
Y23690D1*
X83940Y20190D2*
Y23690D1*
X73940Y20190D2*
Y23690D1*
Y15690D2*
Y7940D1*
X83940Y15690D2*
Y7940D1*
X93940Y15690D2*
Y7940D1*
X103940Y15690D2*
Y7940D1*
X104940Y20190D2*
Y25190D1*
X94940Y20190D2*
Y25190D1*
X84940Y20190D2*
Y25190D1*
X74940Y20190D2*
Y25190D1*
Y15690D2*
Y9440D1*
X84940Y15690D2*
Y9440D1*
X94940Y15690D2*
Y9440D1*
X104940Y15690D2*
Y9440D1*
X105940Y20190D2*
Y26690D1*
X95940Y20190D2*
Y26690D1*
X85940Y20190D2*
Y26690D1*
X75940Y20190D2*
Y26690D1*
Y15690D2*
Y10940D1*
X85940Y15690D2*
Y10940D1*
X95940Y15690D2*
Y10940D1*
X105940Y15690D2*
Y10940D1*
X106940Y20190D2*
Y27940D1*
X96940Y20190D2*
Y27940D1*
X86940Y20190D2*
Y27940D1*
X76940Y20190D2*
Y27940D1*
Y15690D2*
Y12190D1*
X86940Y15690D2*
Y12190D1*
X96940Y15690D2*
Y12190D1*
X106940Y15690D2*
Y12190D1*
X107940Y20190D2*
Y29190D1*
X97940Y20190D2*
Y29190D1*
X87940Y20190D2*
Y29190D1*
X77940Y20190D2*
Y29190D1*
Y15690D2*
Y13440D1*
X87940Y15690D2*
Y13440D1*
X97940Y15690D2*
Y13440D1*
X107940Y15690D2*
Y13440D1*
X62816Y14402D2*
D18*
Y13870D1*
X62506Y13560D1*
X61853D1*
X108940Y20190D2*
D17*
Y30690D1*
X98940Y20190D2*
Y30690D1*
X88940Y20190D2*
Y30690D1*
X78940Y20190D2*
Y30690D1*
X66816Y15652D2*
D18*
Y15120D1*
X66506Y14810D1*
X65853D1*
D16*
X65935Y14729D1*
Y14215D1*
X45470Y57440D2*
D14*
X44667Y58243D1*
X42102D1*
X41299Y57440D1*
X40276D1*
X103789Y57663D2*
X103371Y57245D1*
X94971D1*
X94499Y57717D1*
X106961Y57440D2*
X109940D1*
X56399D2*
X60771D1*
X61104Y57772D1*
X40276Y57440D2*
Y58245D1*
X64845Y57440D2*
X70120D1*
X61104Y57772D2*
X61436Y57440D1*
X64845D1*
X75034Y57940D2*
Y41537D1*
X74894Y41397D1*
X48240D1*
X45197Y38353D1*
X33800D1*
X33660Y38493D1*
Y40943D1*
X33520Y41083D1*
X31251D1*
X31111Y40943D1*
Y36071D1*
X30971Y35931D1*
X24545D1*
X24405Y35791D1*
Y34040D1*
X24940Y33505D1*
X53995Y43568D2*
Y57940D1*
X22574Y43248D2*
X21405Y42079D1*
Y34115D1*
X21265Y33975D1*
X20410D1*
X19940Y33505D1*
X84776Y57940D2*
Y38353D1*
X84636Y38213D1*
X33290D1*
X33150Y38353D1*
Y40663D1*
X33010Y40803D1*
X31672D1*
X31532Y40663D1*
Y35574D1*
X31392Y35434D1*
X25869D1*
X24940Y34505D1*
X15440Y57940D2*
X13940Y56440D1*
Y35940D1*
X34723Y42943D2*
Y57940D1*
X15940Y42943D2*
Y34505D1*
X33010Y35280D2*
Y37822D1*
X33150Y37962D1*
X104037D1*
X104177Y38102D1*
Y57940D1*
X24690Y57877D2*
X23190Y56377D1*
Y36565D1*
X19405Y32600D2*
Y59324D1*
X19545Y59464D1*
X65136D1*
X65276Y59324D1*
Y57940D1*
X33480Y34975D2*
Y37515D1*
X33620Y37655D1*
X41857D1*
X42507Y37005D1*
X113817D1*
X113957Y37145D1*
Y57940D1*
X45775Y58553D2*
X25887D1*
X25195Y59245D1*
X21080D1*
X20940Y59105D1*
Y34505D1*
X96996Y57787D2*
Y57550D1*
X101910D1*
X102050Y57690D1*
Y59464D1*
X101910Y59604D1*
X17080D1*
X16940Y59464D1*
Y34505D1*
X19940Y13940D2*
X20440Y14440D1*
Y24815D1*
X20940Y25315D1*
X28690D1*
X29315Y25940D1*
X31940D1*
X32415Y25465D1*
X32560D1*
X61465Y29072D2*
D19*
Y26435D1*
X61735Y26165D1*
X63978D1*
X64248Y25895D1*
Y22805D1*
X63978Y22535D1*
X57917D1*
X57610Y22228D1*
X48395Y29683D2*
X61465D1*
X64440Y32473D2*
X50193D1*
X48395Y30675D1*
X45507Y4898D2*
X55884D1*
X57465Y6478D1*
X64440Y31903D2*
X66194D1*
X66464Y31633D1*
Y29668D1*
X66194Y29398D1*
X65624D1*
X65354Y29668D1*
Y30038D1*
X41422Y40498D2*
X38475D1*
X38450Y40473D1*
X65354Y30038D2*
X64814Y29498D1*
Y26863D1*
X65465Y26211D1*
Y24728D1*
Y22405D1*
X65325Y22265D1*
X65465Y22125D1*
Y14478D1*
X57465Y11978D2*
X57502Y12015D1*
X61465D1*
Y13170D1*
X65465Y8978D2*
Y11875D1*
X65325Y12015D1*
X61465D1*
Y7728D2*
X64215D1*
X65465Y8978D1*
X57465Y6478D2*
X60215D1*
X61465Y7728D1*
X65465Y14478D2*
Y12155D1*
X65325Y12015D1*
Y22265D2*
X61465D1*
X57465Y26723D2*
X64674D1*
X64814Y26863D1*
X38450Y40473D2*
Y56740D1*
X37222Y57968D1*
X43190Y10690D2*
D13*
Y16750D1*
X42188Y17751D1*
X41626D1*
X41251Y18126D1*
Y19498D1*
Y20752D1*
X37440Y24562D1*
Y24190D1*
X36690Y24940D1*
X36440D1*
X14060Y19065D2*
Y32064D1*
X14940Y32944D1*
Y33505D1*
X23940Y17435D2*
Y19753D1*
X24160Y19973D1*
X30003D1*
X30223Y19753D1*
Y18504D1*
X30443Y18284D1*
X33845D1*
Y14970D1*
X34065Y14750D1*
X34733D1*
X34953Y14970D1*
Y19278D1*
X35173Y19498D1*
X41251D1*
X32560Y24465D2*
D14*
X32030Y23935D1*
X22545D1*
X22405Y23795D1*
Y13048D1*
X22265Y12908D1*
X18308D1*
X18168Y13048D1*
Y13712D1*
X17940Y13940D1*
X12565Y56940D2*
X12503Y57003D1*
Y57690D1*
X91280Y56498D2*
X94941D1*
X69175Y56663D2*
X63506D1*
X63230Y56940D1*
X8752Y48440D2*
X9065D1*
X9440Y48815D1*
Y52378D1*
X9253Y48128D2*
X9815Y48690D1*
Y51752D1*
X8315Y47752D2*
X9377D1*
X10127Y48502D1*
Y51315D1*
X8440Y45440D2*
X8378Y45502D1*
Y45690D1*
X10440Y47752D1*
Y50877D1*
X8167Y43213D2*
Y43073D1*
X8229Y43323D1*
X9127Y44221D1*
Y45940D1*
X10752Y47565D1*
Y50440D1*
X9503Y45440D2*
Y45378D1*
X11127Y47002D1*
Y49940D1*
X10252Y42627D2*
X11440Y43815D1*
Y49440D1*
X41219Y54048D2*
Y54860D1*
X41604Y55245D1*
X69856Y53528D2*
X70940D1*
X96719Y49440D2*
Y56412D1*
X101694Y49440D2*
X101744Y49490D1*
Y56412D1*
D39*
X43690Y9565D3*
X42313Y17001D3*
X39940Y22940D3*
Y26940D3*
X33565Y19627D3*
X31440Y7940D3*
X29440D3*
X27440D3*
X25440D3*
X39940Y26940D3*
X7940Y61940D3*
X6940Y59940D3*
X11315Y60065D3*
X16690D3*
X11065Y62690D3*
X16565D3*
X21002D3*
X25315Y62753D3*
X30252Y60128D3*
X25690D3*
X21252D3*
X40627Y62690D3*
X46127Y62753D3*
X50690Y62690D3*
X55252D3*
X60253D3*
X65753D3*
X71378D3*
X75690D3*
X80252D3*
X85128D3*
X90190Y62628D3*
X95627D3*
X101338Y62690D3*
X100627Y62628D3*
X105627Y62690D3*
X109752Y62628D3*
X115003Y62690D3*
X118002D3*
X35752Y60128D3*
X40563Y60131D3*
X50752D3*
X55190Y60193D3*
X60190Y60131D3*
X65691D3*
X71191Y60256D3*
X75692Y60193D3*
X80130Y60131D3*
X85318Y60193D3*
X90006D3*
X95569Y60068D3*
X100445Y60256D3*
X105633Y60193D3*
X109696Y60256D3*
X114884D3*
X118571Y60193D3*
X35563Y62756D3*
X9565Y56128D3*
X10315Y56877D3*
X19690Y23940D3*
X33627Y57503D3*
X47939Y40379D3*
Y38691D3*
Y33816D3*
X47564Y32315D3*
X53690Y21315D3*
X48189Y24627D3*
X29877Y18377D3*
X27502Y10502D3*
X31065Y15003D3*
X55878Y22065D3*
X48627Y24940D3*
X27127Y18503D3*
X55753Y6377D3*
X48502Y22127D3*
X59815Y23315D3*
X48189Y25315D3*
X25940Y18815D3*
X59940Y7565D3*
X47877Y22502D3*
X32502Y16502D3*
X31065Y12815D3*
X63878Y24565D3*
X48564Y25690D3*
X24940Y19627D3*
X63941Y8813D3*
X48627Y22814D3*
X32937Y16876D3*
X31062Y11813D3*
X53565Y26252D3*
X47877D3*
X22878Y20815D3*
X53627Y10813D3*
X47814Y23189D3*
X31562Y17251D3*
X25437Y14001D3*
X55878Y27503D3*
X48440Y26753D3*
X21878Y21690D3*
X55815Y11751D3*
X48627Y23689D3*
X32375Y17564D3*
X25374Y13063D3*
X59752Y28753D3*
X48002Y27128D3*
X20940Y22002D3*
X59878Y13063D3*
X48064Y24002D3*
X33500Y17939D3*
X25499Y12063D3*
X63502Y30065D3*
X48564Y28127D3*
X19940Y22690D3*
X63816Y14313D3*
X48627Y24315D3*
X18311Y19502D3*
X71940Y15690D3*
Y5440D3*
X81940Y15690D3*
Y5440D3*
X91940Y15690D3*
Y5440D3*
X101940Y15690D3*
Y5440D3*
X102940Y20190D3*
Y22440D3*
X92940Y20190D3*
Y22440D3*
X82940Y20190D3*
Y22440D3*
X72940Y20190D3*
Y22440D3*
Y15690D3*
Y6690D3*
X82940Y15690D3*
Y6690D3*
X92940Y15690D3*
Y6690D3*
X102940Y15690D3*
Y6690D3*
X103940Y20190D3*
Y23690D3*
X93940Y20190D3*
Y23690D3*
X83940Y20190D3*
Y23690D3*
X73940Y20190D3*
Y23690D3*
Y15690D3*
Y7940D3*
X83940Y15690D3*
Y7940D3*
X93940Y15690D3*
Y7940D3*
X103940Y15690D3*
Y7940D3*
X104940Y20190D3*
Y25190D3*
X94940Y20190D3*
Y25190D3*
X84940Y20190D3*
Y25190D3*
X74940Y20190D3*
Y25190D3*
Y15690D3*
Y9440D3*
X84940Y15690D3*
Y9440D3*
X94940Y15690D3*
Y9440D3*
X104940Y15690D3*
Y9440D3*
X105940Y20190D3*
Y26690D3*
X95940Y20190D3*
Y26690D3*
X85940Y20190D3*
Y26690D3*
X75940Y20190D3*
Y26690D3*
Y15690D3*
Y10940D3*
X85940Y15690D3*
Y10940D3*
X95940Y15690D3*
Y10940D3*
X105940Y15690D3*
Y10940D3*
X106940Y20190D3*
Y27940D3*
X96940Y20190D3*
Y27940D3*
X86940Y20190D3*
Y27940D3*
X76940Y20190D3*
Y27940D3*
Y15690D3*
Y12190D3*
X86940Y15690D3*
Y12190D3*
X96940Y15690D3*
Y12190D3*
X106940Y15690D3*
Y12190D3*
X107940Y20190D3*
Y29190D3*
X97940Y20190D3*
Y29190D3*
X87940Y20190D3*
Y29190D3*
X77940Y20190D3*
Y29190D3*
Y15690D3*
Y13440D3*
X87940Y15690D3*
Y13440D3*
X97940Y15690D3*
Y13440D3*
X107940Y15690D3*
Y13440D3*
X108940Y20190D3*
Y30690D3*
X98940Y20190D3*
Y30690D3*
X88940Y20190D3*
Y30690D3*
X78940Y20190D3*
Y30690D3*
X15440Y57940D3*
X13940Y35940D3*
X24690Y57877D3*
X23190Y36565D3*
X43190Y10690D3*
X12565Y56940D3*
X12503Y57690D3*
X8752Y48440D3*
X9440Y52378D3*
X9253Y48128D3*
X9815Y51752D3*
X8315Y47752D3*
X10127Y51315D3*
X8440Y45440D3*
X10440Y50877D3*
X8167Y43213D3*
X10752Y50440D3*
X9503Y45440D3*
X11127Y49940D3*
X10252Y42627D3*
X11440Y49440D3*
X30190Y62690D3*
X101338D3*
X55190Y60193D3*
X40563Y60131D3*
X46189D3*
X106440Y59179D3*
X110440D3*
X115690D3*
X46940Y59159D3*
X51440D3*
X60940D3*
X122756D3*
X96440Y59112D3*
X101440D3*
X80755Y59073D3*
X36440Y59072D3*
X41338D3*
X119339Y59041D3*
X30940Y58982D3*
X21940Y58940D3*
X26440D3*
X29058D3*
X85940D3*
X71838Y58838D3*
X90838D3*
X16076Y58715D3*
X45775Y58553D3*
X54715Y58537D3*
X10776Y58495D3*
X24620D3*
X64810Y58440D3*
X75276D3*
X40276Y58245D3*
X37222Y57968D3*
X34723Y57940D3*
X53995D3*
X65276D3*
X75034D3*
X84776D3*
X104177D3*
X113957D3*
X101745Y57855D3*
X96996Y57787D3*
X61104Y57772D3*
X17964Y57745D3*
X34253D3*
X94499Y57717D3*
X103789Y57663D3*
X41909Y57468D3*
X81550D3*
X40276Y57440D3*
X45470D3*
X56399D3*
X64845D3*
X70120D3*
X106961D3*
X109940D3*
X51744Y57358D3*
X72244D3*
X110744D3*
X91104Y56968D3*
X63230Y56940D3*
X93740D3*
X61440Y56880D3*
X69175Y56663D3*
X91280Y56498D3*
X94941D3*
X96719Y56412D3*
X101744D3*
X65081Y56245D3*
X41604Y55245D3*
X41219Y54048D3*
X69856Y53528D3*
X70940D3*
X96719Y49440D3*
X101694D3*
X53995Y43568D3*
X16076Y43413D3*
X22104D3*
X22574Y43248D3*
X79544Y43225D3*
X15940Y42943D3*
X34723D3*
X63535D3*
X80014Y42905D3*
X86761D3*
X96815D3*
X118944D3*
X71655Y42830D3*
X11470Y42638D3*
X119339Y42435D3*
X13410Y42333D3*
X30666Y42098D3*
X63295D3*
X22405Y42088D3*
X29479Y41628D3*
X43025D3*
X49245Y40573D3*
X81245D3*
X31977Y40498D3*
X41422D3*
X38450Y40473D3*
X10405Y40323D3*
X32717Y40157D3*
X36103D3*
X41090Y40128D3*
X48545Y40043D3*
X9335Y40018D3*
X21940Y39851D3*
X63600Y39738D3*
X77940D3*
X17405Y39713D3*
X36103Y39433D3*
X63130D3*
X78940D3*
X16405Y39408D3*
X29339Y39323D3*
X38229Y39128D3*
X12405Y39085D3*
X40060Y38963D3*
X19100Y38823D3*
X36746Y38658D3*
X38839D3*
X39557D3*
X30666Y38657D3*
X12940Y38615D3*
X49635Y38518D3*
X80940D3*
X17940Y38170D3*
X15405Y37971D3*
X18940Y37852D3*
X14405Y37501D3*
X33862Y37350D3*
X36432D3*
X46330Y37352D3*
X43497Y36700D3*
X64045Y36640D3*
X65752D3*
X30459Y36516D3*
X34188D3*
X41417D3*
X44090Y36355D3*
X46025Y35520D3*
X33010Y35280D3*
X33480Y34975D3*
X50635Y34490D3*
X65447D3*
X45415Y34185D3*
X64810D3*
X50330Y33715D3*
X65142D3*
X12940Y32735D3*
X19405Y32600D3*
X64440Y32473D3*
Y31903D3*
X17100Y31775D3*
X14405Y31447D3*
X15940Y31160D3*
X10940Y30855D3*
X48395Y30675D3*
X11940Y30550D3*
X65824Y30370D3*
X15405Y30245D3*
X16940Y30080D3*
X65354Y30038D3*
X34188Y30025D3*
X12410Y29775D3*
X48395Y29683D3*
X61465D3*
Y29072D3*
X33190Y28240D3*
X42042D3*
X33190Y27630D3*
X42042D3*
Y26940D3*
X65465Y24728D3*
X10405Y23982D3*
X18940D3*
X57610Y22228D3*
X8215Y20245D3*
X30493D3*
X14060Y19065D3*
X10285Y18655D3*
X17710Y18350D3*
X15405Y17886D3*
X66816Y15652D3*
X34190Y15315D3*
X65853Y14810D3*
X65465Y14478D3*
X62816Y14402D3*
X65935Y14215D3*
X61853Y13560D3*
X61465Y13170D3*
X57465Y11978D3*
X65465Y8978D3*
X61465Y7728D3*
X57465Y6478D3*
X54816Y6402D3*
X53928Y5440D3*
X45507Y4898D3*
X101338Y62690D3*
X28377Y41628D3*
X41560Y40028D3*
X20055Y40577D3*
Y35525D3*
X14940Y19847D3*
X43512Y37657D3*
X48940D3*
Y35215D3*
X78940D3*
X30666Y37528D3*
X31837D3*
X34558Y41203D3*
X34535Y15647D3*
X33660Y27630D3*
Y28240D3*
X25107Y10623D3*
X26598Y12683D3*
X30359Y41203D3*
X34558Y40156D3*
X4590Y63066D2*
D15*
X123292D1*
X4590Y62818D2*
X123292D1*
X4590Y62569D2*
X123292D1*
X4590Y62320D2*
X123292D1*
X4590Y62072D2*
X123292D1*
X4590Y61823D2*
X123292D1*
X4590Y61574D2*
X123292D1*
X4590Y61325D2*
X123292D1*
X4590Y61077D2*
X123292D1*
X4590Y60828D2*
X123292D1*
X4590Y60579D2*
X123292D1*
X4590Y60331D2*
X123292D1*
X4590Y60082D2*
X123292D1*
X4590Y59833D2*
X7702D1*
X4590Y59585D2*
X7702D1*
X4590Y59336D2*
X7706D1*
X4590Y59087D2*
X7706D1*
X4590Y58839D2*
X7706D1*
X4590Y58590D2*
X7706D1*
X4590Y58341D2*
X7706D1*
X4590Y58093D2*
X7706D1*
X4590Y57844D2*
X7706D1*
X4590Y57595D2*
X7706D1*
X4590Y57346D2*
X7710D1*
X4590Y57098D2*
X7710D1*
X4590Y56849D2*
X7710D1*
X4590Y56600D2*
X7710D1*
X4590Y56352D2*
X7710D1*
X4590Y56103D2*
X7710D1*
X4590Y55854D2*
X7710D1*
X4590Y55606D2*
X7710D1*
X4590Y55357D2*
X7714D1*
X4590Y55108D2*
X7714D1*
X4590Y54860D2*
X7714D1*
X4590Y54611D2*
X7714D1*
X4590Y54362D2*
X7714D1*
X4590Y54114D2*
X7714D1*
X4590Y53865D2*
X7714D1*
X4590Y53616D2*
X7714D1*
X4590Y53367D2*
X7718D1*
X4590Y53119D2*
X7718D1*
X4590Y52870D2*
X7718D1*
X4590Y52621D2*
X7718D1*
X4590Y52373D2*
X7718D1*
X4590Y52124D2*
X7718D1*
X4590Y51875D2*
X7718D1*
X4590Y51627D2*
X7718D1*
X4590Y51378D2*
X7718D1*
X4590Y51129D2*
X7722D1*
X4590Y50881D2*
X7722D1*
X4590Y50632D2*
X7722D1*
X4590Y50383D2*
X7722D1*
X4590Y50135D2*
X7722D1*
X4590Y49886D2*
X7722D1*
X4590Y49637D2*
X7722D1*
X4590Y49388D2*
X7722D1*
X4590Y49140D2*
X7726D1*
X4590Y48891D2*
X7726D1*
X4590Y48642D2*
X7726D1*
X4590Y48394D2*
X7726D1*
X4590Y48145D2*
X7726D1*
X4590Y47896D2*
X7726D1*
X4590Y47648D2*
X7726D1*
X4590Y47399D2*
X7726D1*
X4590Y47150D2*
X7729D1*
X4590Y46902D2*
X7729D1*
X4590Y46653D2*
X7729D1*
X4590Y46404D2*
X7729D1*
X4590Y46156D2*
X7729D1*
X4590Y45907D2*
X7729D1*
X4590Y45658D2*
X7729D1*
X4590Y45409D2*
X7729D1*
X4590Y45161D2*
X7733D1*
X4590Y44912D2*
X7733D1*
X4590Y44663D2*
X7733D1*
X4590Y44415D2*
X7733D1*
X4590Y44166D2*
X7733D1*
X4590Y43917D2*
X7733D1*
X4590Y43669D2*
X7733D1*
X4590Y43420D2*
X7733D1*
X4590Y43171D2*
X7737D1*
X4590Y42923D2*
X7737D1*
X4590Y42674D2*
X7737D1*
X4590Y42425D2*
X7737D1*
X4590Y42177D2*
X7737D1*
X4590Y41928D2*
X7737D1*
X4590Y41679D2*
X7737D1*
X4590Y41430D2*
X7737D1*
X4590Y41182D2*
X7741D1*
X4590Y40933D2*
X7741D1*
X4590Y40684D2*
X7741D1*
X4590Y40436D2*
X7741D1*
X4590Y40187D2*
X7741D1*
X4590Y39938D2*
X7741D1*
X4590Y39690D2*
X7741D1*
X4590Y39441D2*
X7741D1*
X4590Y39192D2*
X7741D1*
X4590Y38944D2*
X7745D1*
X4590Y38695D2*
X7745D1*
X4590Y38446D2*
X7745D1*
X4590Y38198D2*
X7745D1*
X4590Y37949D2*
X7745D1*
X4590Y37700D2*
X7745D1*
X4590Y37451D2*
X7745D1*
X4590Y37203D2*
X7745D1*
X4590Y36954D2*
X7749D1*
X4590Y36705D2*
X7749D1*
X4590Y36457D2*
X7749D1*
X4590Y36208D2*
X7749D1*
X4590Y35959D2*
X7749D1*
X4590Y35711D2*
X7749D1*
X4590Y35462D2*
X7749D1*
X4590Y35213D2*
X7749D1*
X4590Y34965D2*
X7753D1*
X4590Y34716D2*
X7753D1*
X4590Y34467D2*
X7753D1*
X4590Y34219D2*
X7753D1*
X4590Y33970D2*
X7753D1*
X4590Y33721D2*
X7753D1*
X4590Y33472D2*
X7753D1*
X4590Y33224D2*
X7753D1*
X4590Y32975D2*
X7757D1*
X4590Y32726D2*
X7757D1*
X4590Y32478D2*
X7757D1*
X4590Y32229D2*
X7757D1*
X4590Y31980D2*
X7757D1*
X4590Y31732D2*
X7757D1*
X4590Y31483D2*
X7757D1*
X4590Y31234D2*
X7757D1*
X4590Y30986D2*
X7761D1*
X4590Y30737D2*
X7761D1*
X4590Y30488D2*
X7761D1*
X4590Y30240D2*
X7761D1*
X4590Y29991D2*
X7761D1*
X4590Y29742D2*
X7761D1*
X4590Y29493D2*
X7761D1*
X4590Y29245D2*
X7761D1*
X4590Y28996D2*
X7761D1*
X4590Y28747D2*
X7765D1*
X4590Y28499D2*
X7765D1*
X4590Y28250D2*
X7765D1*
X4590Y28001D2*
X7765D1*
X4590Y27753D2*
X7765D1*
X4590Y27504D2*
X7765D1*
X4590Y27255D2*
X7765D1*
X4590Y27007D2*
X7765D1*
X4590Y26758D2*
X7769D1*
X4590Y26509D2*
X7769D1*
X4590Y26261D2*
X7769D1*
X4590Y26012D2*
X7769D1*
X4590Y25763D2*
X7769D1*
X4590Y25514D2*
X7769D1*
X4590Y25266D2*
X7769D1*
X4590Y25017D2*
X7769D1*
X4590Y24768D2*
X7772D1*
X4590Y24520D2*
X7772D1*
X4590Y24271D2*
X7772D1*
X4590Y24022D2*
X7772D1*
X4590Y23774D2*
X7772D1*
X4590Y23525D2*
X7772D1*
X4590Y23276D2*
X7772D1*
X4590Y23028D2*
X7772D1*
X4590Y22779D2*
X7776D1*
X4590Y22530D2*
X7776D1*
X4590Y22282D2*
X7776D1*
X4590Y22033D2*
X7776D1*
X4590Y21784D2*
X7776D1*
X4590Y21535D2*
X7776D1*
X4590Y21287D2*
X7776D1*
X4590Y21038D2*
X7776D1*
X4590Y20789D2*
X7780D1*
X4590Y20541D2*
X7780D1*
X4590Y20292D2*
X7780D1*
X4590Y20043D2*
X7780D1*
X4590Y19795D2*
X7780D1*
X4590Y19546D2*
X7780D1*
X4590Y19297D2*
X7780D1*
X4590Y19049D2*
X7780D1*
X4590Y18800D2*
X7780D1*
X4590Y18551D2*
X7784D1*
X4590Y18303D2*
X7784D1*
X4590Y18054D2*
X7784D1*
X4590Y17805D2*
X7784D1*
X4590Y17556D2*
X7784D1*
X4590Y17308D2*
X7784D1*
X4590Y17059D2*
X7784D1*
X4590Y16810D2*
X7784D1*
X4590Y16562D2*
X7788D1*
X4590Y16313D2*
X7788D1*
X4590Y16064D2*
X7788D1*
X4590Y15816D2*
X7788D1*
X4590Y15567D2*
X7788D1*
X4590Y15318D2*
X7788D1*
X4590Y15070D2*
X7788D1*
X4590Y14821D2*
X7788D1*
X4590Y14572D2*
X7792D1*
X4590Y14324D2*
X8515D1*
X9365D2*
X9515D1*
X10365D2*
X10515D1*
X4590Y14075D2*
X8378D1*
X4590Y13826D2*
X8370D1*
X4590Y13577D2*
X8495D1*
X9385D2*
X9492D1*
X10385D2*
X10492D1*
X4590Y13329D2*
X11847D1*
X12033D2*
X12847D1*
X13033D2*
X13847D1*
X14033D2*
X14847D1*
X15033D2*
X15847D1*
X16033D2*
X16292D1*
X4590Y13080D2*
X16292D1*
X4590Y12831D2*
X16292D1*
X4590Y12583D2*
X16292D1*
X4590Y12334D2*
X16292D1*
X4590Y12085D2*
X16292D1*
X4590Y11837D2*
X16292D1*
X4590Y11588D2*
X16292D1*
X4590Y11339D2*
X16292D1*
X4590Y11091D2*
X16292D1*
X4590Y10842D2*
X16292D1*
X4590Y10593D2*
X16292D1*
X4590Y10345D2*
X16292D1*
X4590Y10096D2*
X16292D1*
X4590Y9847D2*
X16292D1*
X4590Y9598D2*
X16292D1*
X4590Y9350D2*
X16292D1*
X4590Y9101D2*
X16292D1*
X4590Y8852D2*
X44292D1*
X4590Y8604D2*
X44292D1*
X4590Y8355D2*
X8546D1*
X9334D2*
X9546D1*
X10334D2*
X10546D1*
X11334D2*
X11546D1*
X12334D2*
X13546D1*
X14334D2*
X14546D1*
X15334D2*
X15546D1*
X16334D2*
X16546D1*
X17334D2*
X17546D1*
X18334D2*
X18546D1*
X19334D2*
X19546D1*
X20334D2*
X20546D1*
X21334D2*
X44292D1*
X4590Y8106D2*
X8386D1*
X12494D2*
X13386D1*
X21494D2*
X44292D1*
X4590Y7858D2*
X8366D1*
X12514D2*
X13366D1*
X21514D2*
X44292D1*
X4590Y7609D2*
X8472D1*
X12408D2*
X13472D1*
X21408D2*
X44292D1*
X4590Y7360D2*
X44292D1*
X4590Y7112D2*
X44292D1*
X4590Y6863D2*
X44292D1*
X4590Y6614D2*
X44292D1*
X4590Y6366D2*
X44292D1*
X4590Y6117D2*
X44292D1*
X4590Y5868D2*
X44292D1*
X4590Y5619D2*
X44292D1*
X4590Y5371D2*
X44292D1*
X4590Y5122D2*
X44292D1*
X4590Y4873D2*
X44292D1*
X9441Y7702D2*
X9373Y7593D1*
X9285Y7505D1*
X9179Y7439D1*
X9061Y7398D1*
X8937Y7385D1*
X8813Y7400D1*
X8695Y7442D1*
X8590Y7509D1*
X8503Y7598D1*
X8438Y7704D1*
X8398Y7822D1*
X8385Y7946D1*
X8400Y8070D1*
X8443Y8187D1*
X8511Y8292D1*
X8600Y8379D1*
X8707Y8444D1*
X8825Y8483D1*
X8950Y8495D1*
X9073Y8479D1*
X9190Y8435D1*
X9295Y8367D1*
X9381Y8277D1*
X9439Y8180D1*
X9511Y8292D1*
X9600Y8379D1*
X9707Y8444D1*
X9825Y8483D1*
X9950Y8495D1*
X10073Y8479D1*
X10190Y8435D1*
X10295Y8367D1*
X10381Y8277D1*
X10439Y8180D1*
X10511Y8292D1*
X10600Y8379D1*
X10707Y8444D1*
X10825Y8483D1*
X10950Y8495D1*
X11073Y8479D1*
X11190Y8435D1*
X11295Y8367D1*
X11381Y8277D1*
X11439Y8180D1*
X11511Y8292D1*
X11600Y8379D1*
X11707Y8444D1*
X11825Y8483D1*
X11950Y8495D1*
X12073Y8479D1*
X12190Y8435D1*
X12295Y8367D1*
X12381Y8277D1*
X12445Y8170D1*
X12484Y8051D1*
X12495Y7940D1*
X12481Y7816D1*
X12440Y7698D1*
X12373Y7593D1*
X12285Y7505D1*
X12179Y7439D1*
X12061Y7398D1*
X11937Y7385D1*
X11813Y7400D1*
X11695Y7442D1*
X11590Y7509D1*
X11503Y7598D1*
X11440Y7698D1*
X11373Y7593D1*
X11285Y7505D1*
X11179Y7439D1*
X11061Y7398D1*
X10937Y7385D1*
X10813Y7400D1*
X10695Y7442D1*
X10590Y7509D1*
X10503Y7598D1*
X10440Y7698D1*
X10373Y7593D1*
X10285Y7505D1*
X10179Y7439D1*
X10061Y7398D1*
X9937Y7385D1*
X9813Y7400D1*
X9695Y7442D1*
X9590Y7509D1*
X9503Y7598D1*
X9440Y7701D1*
X14441Y7702D2*
X14373Y7593D1*
X14285Y7505D1*
X14179Y7439D1*
X14061Y7398D1*
X13937Y7385D1*
X13813Y7400D1*
X13695Y7442D1*
X13590Y7509D1*
X13503Y7598D1*
X13438Y7704D1*
X13398Y7822D1*
X13385Y7946D1*
X13400Y8070D1*
X13443Y8187D1*
X13511Y8292D1*
X13600Y8379D1*
X13707Y8444D1*
X13825Y8483D1*
X13950Y8495D1*
X14073Y8479D1*
X14190Y8435D1*
X14295Y8367D1*
X14381Y8277D1*
X14439Y8180D1*
X14511Y8292D1*
X14600Y8379D1*
X14707Y8444D1*
X14825Y8483D1*
X14950Y8495D1*
X15073Y8479D1*
X15190Y8435D1*
X15295Y8367D1*
X15381Y8277D1*
X15439Y8180D1*
X15511Y8292D1*
X15600Y8379D1*
X15707Y8444D1*
X15825Y8483D1*
X15950Y8495D1*
X16073Y8479D1*
X16190Y8435D1*
X16295Y8367D1*
X16381Y8277D1*
X16439Y8180D1*
X16511Y8292D1*
X16600Y8379D1*
X16707Y8444D1*
X16825Y8483D1*
X16950Y8495D1*
X17073Y8479D1*
X17190Y8435D1*
X17295Y8367D1*
X17381Y8277D1*
X17439Y8180D1*
X17511Y8292D1*
X17600Y8379D1*
X17707Y8444D1*
X17825Y8483D1*
X17950Y8495D1*
X18073Y8479D1*
X18190Y8435D1*
X18295Y8367D1*
X18381Y8277D1*
X18439Y8180D1*
X18511Y8292D1*
X18600Y8379D1*
X18707Y8444D1*
X18825Y8483D1*
X18950Y8495D1*
X19073Y8479D1*
X19190Y8435D1*
X19295Y8367D1*
X19381Y8277D1*
X19439Y8180D1*
X19511Y8292D1*
X19600Y8379D1*
X19707Y8444D1*
X19825Y8483D1*
X19950Y8495D1*
X20073Y8479D1*
X20190Y8435D1*
X20295Y8367D1*
X20381Y8277D1*
X20439Y8180D1*
X20511Y8292D1*
X20600Y8379D1*
X20707Y8444D1*
X20825Y8483D1*
X20950Y8495D1*
X21073Y8479D1*
X21190Y8435D1*
X21295Y8367D1*
X21381Y8277D1*
X21445Y8170D1*
X21484Y8051D1*
X21495Y7940D1*
X21481Y7816D1*
X21440Y7698D1*
X21373Y7593D1*
X21285Y7505D1*
X21179Y7439D1*
X21061Y7398D1*
X20937Y7385D1*
X20813Y7400D1*
X20695Y7442D1*
X20590Y7509D1*
X20503Y7598D1*
X20440Y7698D1*
X20373Y7593D1*
X20285Y7505D1*
X20179Y7439D1*
X20061Y7398D1*
X19937Y7385D1*
X19813Y7400D1*
X19695Y7442D1*
X19590Y7509D1*
X19503Y7598D1*
X19440Y7698D1*
X19373Y7593D1*
X19285Y7505D1*
X19179Y7439D1*
X19061Y7398D1*
X18937Y7385D1*
X18813Y7400D1*
X18695Y7442D1*
X18590Y7509D1*
X18503Y7598D1*
X18440Y7698D1*
X18373Y7593D1*
X18285Y7505D1*
X18179Y7439D1*
X18061Y7398D1*
X17937Y7385D1*
X17813Y7400D1*
X17695Y7442D1*
X17590Y7509D1*
X17503Y7598D1*
X17440Y7698D1*
X17373Y7593D1*
X17285Y7505D1*
X17179Y7439D1*
X17061Y7398D1*
X16937Y7385D1*
X16813Y7400D1*
X16695Y7442D1*
X16590Y7509D1*
X16503Y7598D1*
X16440Y7698D1*
X16373Y7593D1*
X16285Y7505D1*
X16179Y7439D1*
X16061Y7398D1*
X15937Y7385D1*
X15813Y7400D1*
X15695Y7442D1*
X15590Y7509D1*
X15503Y7598D1*
X15440Y7698D1*
X15373Y7593D1*
X15285Y7505D1*
X15179Y7439D1*
X15061Y7398D1*
X14937Y7385D1*
X14813Y7400D1*
X14695Y7442D1*
X14590Y7509D1*
X14503Y7598D1*
X14440Y7701D1*
X16316Y13458D2*
X16264Y13417D1*
X16152Y13363D1*
X16031Y13332D1*
X15906Y13326D1*
X15783Y13345D1*
X15666Y13389D1*
X15561Y13456D1*
X15471Y13543D1*
X15442Y13584D1*
X15363Y13493D1*
X15264Y13417D1*
X15152Y13363D1*
X15031Y13332D1*
X14906Y13326D1*
X14783Y13345D1*
X14666Y13389D1*
X14561Y13456D1*
X14471Y13543D1*
X14442Y13584D1*
X14363Y13493D1*
X14264Y13417D1*
X14152Y13363D1*
X14031Y13332D1*
X13906Y13326D1*
X13783Y13345D1*
X13666Y13389D1*
X13561Y13456D1*
X13471Y13543D1*
X13442Y13584D1*
X13363Y13493D1*
X13264Y13417D1*
X13152Y13363D1*
X13031Y13332D1*
X12906Y13326D1*
X12783Y13345D1*
X12666Y13389D1*
X12561Y13456D1*
X12471Y13543D1*
X12442Y13584D1*
X12363Y13493D1*
X12264Y13417D1*
X12152Y13363D1*
X12031Y13332D1*
X11906Y13326D1*
X11783Y13345D1*
X11666Y13389D1*
X11561Y13456D1*
X11471Y13543D1*
X11407Y13636D1*
X11285Y13505D1*
X11179Y13439D1*
X11061Y13398D1*
X10937Y13385D1*
X10813Y13400D1*
X10695Y13442D1*
X10590Y13509D1*
X10503Y13598D1*
X10440Y13698D1*
X10373Y13593D1*
X10285Y13505D1*
X10179Y13439D1*
X10061Y13398D1*
X9937Y13385D1*
X9813Y13400D1*
X9695Y13442D1*
X9590Y13509D1*
X9503Y13598D1*
X9440Y13698D1*
X9373Y13593D1*
X9285Y13505D1*
X9179Y13439D1*
X9061Y13398D1*
X8937Y13385D1*
X8813Y13400D1*
X8695Y13442D1*
X8590Y13509D1*
X8503Y13598D1*
X8438Y13704D1*
X8398Y13822D1*
X8385Y13946D1*
X8400Y14070D1*
X8443Y14187D1*
X8511Y14292D1*
X8600Y14379D1*
X8707Y14444D1*
X8825Y14483D1*
X8950Y14495D1*
X9073Y14479D1*
X9190Y14435D1*
X9295Y14367D1*
X9381Y14277D1*
X9439Y14180D1*
X9511Y14292D1*
X9600Y14379D1*
X9707Y14444D1*
X9825Y14483D1*
X9950Y14495D1*
X10073Y14479D1*
X10190Y14435D1*
X10295Y14367D1*
X10381Y14277D1*
X10439Y14180D1*
X10511Y14292D1*
X10600Y14379D1*
X10707Y14444D1*
X10825Y14483D1*
X10950Y14495D1*
X11073Y14479D1*
X11190Y14435D1*
X11295Y14367D1*
X11381Y14277D1*
X11405Y14244D1*
X11478Y14346D1*
X11569Y14431D1*
X11676Y14495D1*
X11793Y14537D1*
X11917Y14555D1*
X12041Y14547D1*
X12162Y14514D1*
X12273Y14457D1*
X12371Y14379D1*
X12438Y14298D1*
X12569Y14431D1*
X12676Y14495D1*
X12793Y14537D1*
X12917Y14555D1*
X13041Y14547D1*
X13162Y14514D1*
X13273Y14457D1*
X13371Y14379D1*
X13438Y14298D1*
X13569Y14431D1*
X13676Y14495D1*
X13793Y14537D1*
X13917Y14555D1*
X14041Y14547D1*
X14162Y14514D1*
X14273Y14457D1*
X14371Y14379D1*
X14438Y14298D1*
X14569Y14431D1*
X14676Y14495D1*
X14793Y14537D1*
X14917Y14555D1*
X15041Y14547D1*
X15162Y14514D1*
X15273Y14457D1*
X15371Y14379D1*
X15438Y14298D1*
X15569Y14431D1*
X15676Y14495D1*
X15793Y14537D1*
X15917Y14555D1*
X16041Y14547D1*
X16162Y14514D1*
X16273Y14457D1*
X16313Y14425D1*
X16315Y14565D1*
X7940D1*
X7835Y14626D1*
X7815Y14690D1*
X7729Y59806D1*
X7790Y59912D1*
X7853Y59932D1*
X123315Y60065D1*
Y63315D1*
X4565D1*
Y4815D1*
X44315D1*
Y9065D1*
X16440D1*
X16335Y9126D1*
X16315Y9190D1*
Y13452D1*
X44522Y18816D2*
X48198D1*
X49182D2*
X51290D1*
X44522Y18568D2*
X48081D1*
X49299D2*
X51290D1*
X44522Y18319D2*
X48077D1*
X49303D2*
X51290D1*
X44522Y18070D2*
X48194D1*
X49186D2*
X51290D1*
X44340Y17822D2*
X48202D1*
X49178D2*
X51290D1*
X44340Y17573D2*
X48081D1*
X49299D2*
X51290D1*
X44340Y17324D2*
X48077D1*
X49303D2*
X51290D1*
X44340Y17075D2*
X48190D1*
X49190D2*
X51290D1*
X44340Y16827D2*
X51290D1*
X44340Y16578D2*
X51290D1*
X44340Y16329D2*
X51290D1*
X44340Y16081D2*
X51290D1*
X44340Y15832D2*
X51290D1*
X44340Y15583D2*
X51290D1*
X44340Y15335D2*
X51290D1*
X44340Y15086D2*
X48538D1*
X48842D2*
X51290D1*
X44340Y14837D2*
X48140D1*
X49240D2*
X51290D1*
X44340Y14589D2*
X48022D1*
X49358D2*
X51290D1*
X44340Y14340D2*
X48015D1*
X49365D2*
X51290D1*
X44340Y14091D2*
X48104D1*
X49276D2*
X51290D1*
X44340Y13843D2*
X48144D1*
X49236D2*
X51290D1*
X44340Y13594D2*
X48026D1*
X49354D2*
X51290D1*
X44340Y13345D2*
X48015D1*
X49365D2*
X51290D1*
X44340Y13096D2*
X48104D1*
X49276D2*
X51290D1*
X44340Y12848D2*
X48226D1*
X49154D2*
X51290D1*
X44340Y12599D2*
X48089D1*
X49291D2*
X51290D1*
X44340Y12350D2*
X48073D1*
X49307D2*
X51290D1*
X44340Y12102D2*
X48171D1*
X49209D2*
X51290D1*
X44340Y11853D2*
X48233D1*
X49147D2*
X51290D1*
X44340Y11604D2*
X48089D1*
X49291D2*
X51290D1*
X44340Y11356D2*
X48073D1*
X49307D2*
X51290D1*
X44340Y11107D2*
X48167D1*
X49213D2*
X51290D1*
X44340Y10858D2*
X48237D1*
X49143D2*
X51290D1*
X44340Y10610D2*
X48093D1*
X49287D2*
X51290D1*
X44340Y10361D2*
X48073D1*
X49307D2*
X51290D1*
X44340Y10112D2*
X48163D1*
X49217D2*
X51290D1*
X44340Y9864D2*
X48065D1*
X49315D2*
X51290D1*
X44340Y9615D2*
X48065D1*
X49315D2*
X51290D1*
X44340Y9366D2*
X48065D1*
X49315D2*
X51290D1*
X44340Y9117D2*
X48065D1*
X49315D2*
X51290D1*
X44340Y8869D2*
X48065D1*
X49315D2*
X51290D1*
X44340Y8620D2*
X51290D1*
X44340Y8371D2*
X51290D1*
X44340Y8123D2*
X51290D1*
X44340Y7874D2*
X51290D1*
X44340Y7625D2*
X51290D1*
X44340Y7377D2*
X51290D1*
X44340Y7128D2*
X51290D1*
X44340Y6879D2*
X51290D1*
X44340Y6631D2*
X51290D1*
X44340Y6382D2*
X51290D1*
X44340Y6133D2*
X51290D1*
X44340Y5885D2*
X51290D1*
X44340Y5636D2*
X51290D1*
X44340Y5387D2*
X51290D1*
X44498Y19062D2*
Y17948D1*
X44314D1*
X44315Y8940D1*
Y5315D1*
X51315D1*
Y19065D1*
X44499D1*
X48216Y10039D2*
X48244D1*
X48145Y10192D1*
X48106Y10310D1*
X48091Y10434D1*
X48103Y10558D1*
X48140Y10677D1*
X48202Y10786D1*
X48284Y10880D1*
X48362Y10938D1*
X48293Y10992D1*
X48208Y11084D1*
X48145Y11192D1*
X48106Y11310D1*
X48091Y11434D1*
X48103Y11558D1*
X48140Y11677D1*
X48202Y11786D1*
X48284Y11880D1*
X48362Y11938D1*
X48293Y11992D1*
X48208Y12084D1*
X48145Y12192D1*
X48106Y12310D1*
X48091Y12434D1*
X48103Y12558D1*
X48140Y12677D1*
X48202Y12786D1*
X48312Y12901D1*
X48176Y13029D1*
X48107Y13133D1*
X48060Y13248D1*
X48035Y13371D1*
X48034Y13496D1*
X48056Y13618D1*
X48101Y13735D1*
X48167Y13841D1*
X48262Y13939D1*
X48176Y14029D1*
X48107Y14133D1*
X48060Y14248D1*
X48035Y14371D1*
X48034Y14496D1*
X48056Y14618D1*
X48101Y14735D1*
X48167Y14841D1*
X48252Y14932D1*
X48353Y15006D1*
X48466Y15059D1*
X48586Y15090D1*
X48711Y15098D1*
X48835Y15083D1*
X48953Y15044D1*
X49063Y14983D1*
X49158Y14903D1*
X49237Y14807D1*
X49297Y14697D1*
X49334Y14578D1*
X49349Y14440D1*
X49337Y14316D1*
X49302Y14196D1*
X49245Y14085D1*
X49168Y13987D1*
X49118Y13943D1*
X49237Y13807D1*
X49297Y13697D1*
X49334Y13578D1*
X49349Y13440D1*
X49337Y13316D1*
X49302Y13196D1*
X49245Y13085D1*
X49168Y12987D1*
X49070Y12903D1*
X49168Y12800D1*
X49232Y12693D1*
X49273Y12576D1*
X49289Y12440D1*
X49276Y12316D1*
X49237Y12197D1*
X49175Y12089D1*
X49092Y11996D1*
X49019Y11943D1*
X49083Y11892D1*
X49168Y11800D1*
X49232Y11693D1*
X49273Y11576D1*
X49289Y11440D1*
X49276Y11316D1*
X49237Y11197D1*
X49175Y11089D1*
X49092Y10996D1*
X49019Y10943D1*
X49083Y10892D1*
X49168Y10800D1*
X49232Y10693D1*
X49273Y10576D1*
X49289Y10440D1*
X49276Y10316D1*
X49237Y10197D1*
X49175Y10089D1*
X49131Y10040D1*
X49289Y10039D1*
Y8841D1*
X48091D1*
Y10039D1*
X48216D1*
X49276Y17316D2*
X49237Y17197D1*
X49175Y17089D1*
X49092Y16996D1*
X48991Y16922D1*
X48877Y16871D1*
X48755Y16845D1*
X48631Y16844D1*
X48508Y16870D1*
X48394Y16920D1*
X48293Y16992D1*
X48208Y17084D1*
X48145Y17192D1*
X48106Y17310D1*
X48091Y17434D1*
X48103Y17558D1*
X48140Y17677D1*
X48202Y17786D1*
X48284Y17880D1*
X48362Y17938D1*
X48293Y17992D1*
X48208Y18084D1*
X48145Y18192D1*
X48106Y18310D1*
X48091Y18434D1*
X48103Y18558D1*
X48140Y18677D1*
X48202Y18786D1*
X48284Y18880D1*
X48384Y18955D1*
X48497Y19007D1*
X48619Y19034D1*
X48744Y19036D1*
X48866Y19012D1*
X48981Y18963D1*
X49083Y18892D1*
X49168Y18800D1*
X49232Y18693D1*
X49273Y18576D1*
X49289Y18440D1*
X49276Y18316D1*
X49237Y18197D1*
X49175Y18089D1*
X49092Y17996D1*
X49019Y17943D1*
X49083Y17892D1*
X49168Y17800D1*
X49232Y17693D1*
X49273Y17576D1*
X49289Y17440D1*
X49276Y17316D1*
D22*
X38690Y18753D3*
X40190D3*
X42190D3*
X43693D3*
D23*
X5940Y61940D3*
X121940D3*
X5940Y5940D3*
X121940D3*
D26*
X37690Y8190D3*
X39344D3*
X40997D3*
Y10355D3*
X39344D3*
X37690D3*
D27*
X35918Y6536D3*
X42769D3*
D31*
X9940Y16435D3*
X10940D3*
X11940D3*
X12940D3*
X13940D3*
X14940D3*
X15940D3*
X16940D3*
X17940D3*
X18940D3*
X19940D3*
X20940D3*
X21940D3*
X22940D3*
X23940D3*
X24940D3*
X25940D3*
X26940D3*
X27940D3*
X28940D3*
D32*
Y17440D3*
D31*
X27940Y17435D3*
X26940D3*
X25940D3*
X24940D3*
X23940D3*
X22940D3*
X21940D3*
X20940D3*
X19940D3*
X18940D3*
X17940D3*
X16940D3*
X15940D3*
X14940D3*
X13940D3*
X12940D3*
X11940D3*
X10940D3*
X9940Y17440D3*
D32*
Y33500D3*
D31*
X10940D3*
X11940Y33505D3*
X12940Y33500D3*
X13940Y33505D3*
X14940D3*
X15940D3*
X16940D3*
X17940D3*
X18940D3*
X19940D3*
X20940D3*
X21940D3*
X22940D3*
X23940D3*
X24940D3*
X25940D3*
X26940D3*
X27940D3*
X28940D3*
Y34505D3*
X27940D3*
X26940D3*
X25940D3*
X24940D3*
X23940D3*
X22940D3*
X21940D3*
X20940D3*
X19940D3*
X18940D3*
X17940D3*
X16940D3*
X15940D3*
X14940D3*
X13940D3*
X12940D3*
X11940D3*
X10940D3*
X9940D3*
X31560Y30465D3*
X32560D3*
X31560Y28465D3*
X32560D3*
X31560Y26465D3*
X32560D3*
X31560Y24465D3*
X32560D3*
X31560Y22465D3*
X32560D3*
X31560Y20465D3*
X32560D3*
Y19470D3*
X31560Y19465D3*
X32560Y21465D3*
X31560D3*
X32560Y23465D3*
X31560D3*
X32560Y25465D3*
X31560D3*
X32560Y27465D3*
X31560D3*
X32560Y29465D3*
X31560D3*
X32560Y31465D3*
D32*
X31560Y31460D3*
D33*
X36440Y16940D3*
Y17940D3*
Y22940D3*
Y23940D3*
D34*
Y24940D3*
D35*
X48690Y9440D3*
D36*
Y10440D3*
Y11440D3*
Y12440D3*
Y13440D3*
Y14440D3*
Y15440D3*
Y16440D3*
Y17440D3*
Y18440D3*
Y19940D3*
D37*
X7940Y7940D3*
D38*
X8940D3*
X9940D3*
X10940D3*
X11940D3*
X12940D3*
X13940D3*
X14940D3*
X15940D3*
X16940D3*
X17940D3*
X18940D3*
X19940D3*
X20940D3*
Y13940D3*
X19940D3*
X18940D3*
X17940D3*
X16940D3*
X15940D3*
X14940D3*
X13940D3*
X12940D3*
X11940D3*
X10940D3*
X9940D3*
X8940D3*
X7940D3*
M02*
