M48
INCH
T01C0.019
T02C0.035
T03C0.0394
T04C0.042
T05C0.043
T06C0.0709
T07C0.075
T08C0.125
T09C0.126
%
T01
X+030190Y+062690
X+030252Y+060128
X+030940Y+058982
X+029058Y+058940
X+026440Y+058940
X+025690Y+060128
X+024620Y+058495
X+024690Y+057877
X+021940Y+058940
X+021252Y+060128
X+021002Y+062690
X+025315Y+062753
X+016565Y+062690
X+016690Y+060065
X+016076Y+058715
X+015440Y+057940
X+017964Y+057745
X+012565Y+056940
X+012503Y+057690
X+010776Y+058495
X+011315Y+060065
X+011065Y+062690
X+007940Y+061940
X+006940Y+059940
X+010315Y+056877
X+009565Y+056128
X+009440Y+052378
X+009815Y+051752
X+010127Y+051315
X+010440Y+050877
X+010752Y+050440
X+011127Y+049940
X+011440Y+049440
X+009253Y+048128
X+008752Y+048440
X+008315Y+047752
X+008440Y+045440
X+009503Y+045440
X+008167Y+043213
X+010252Y+042627
X+011470Y+042638
X+013410Y+042333
X+015940Y+042943
X+016076Y+043413
X+017405Y+039713
X+016405Y+039408
X+015405Y+037971
X+014405Y+037501
X+013940Y+035940
X+012940Y+038615
X+012405Y+039085
X+010405Y+040323
X+009335Y+040018
X+012940Y+032735
X+014405Y+031447
X+015940Y+031160
X+015405Y+030245
X+016940Y+030080
X+017100Y+031775
X+019405Y+032600
X+020055Y+035525
X+018940Y+037852
X+019100Y+038823
X+017940Y+038170
X+020055Y+040577
X+021940Y+039851
X+022405Y+042088
X+022574Y+043248
X+022104Y+043413
X+028377Y+041628
X+029479Y+041628
X+030359Y+041203
X+030666Y+042098
X+031977Y+040498
X+032717Y+040157
X+034558Y+040156
X+034558Y+041203
X+034723Y+042943
X+036103Y+040157
X+036103Y+039433
X+036746Y+038658
X+036432Y+037350
X+034188Y+036516
X+033862Y+037350
X+031837Y+037528
X+030666Y+037528
X+030459Y+036516
X+030666Y+038657
X+029339Y+039323
X+033010Y+035280
X+033480Y+034975
X+034188Y+030025
X+033660Y+028240
X+033190Y+028240
X+033190Y+027630
X+033660Y+027630
X+039940Y+026940
X+042042Y+026940
X+042042Y+027630
X+042042Y+028240
X+039940Y+022940
X+042313Y+017001
X+043190Y+010690
X+043690Y+009565
X+045507Y+004898
X+053928Y+005440
X+054816Y+006402
X+055753Y+006377
X+057465Y+006478
X+059940Y+007565
X+061465Y+007728
X+063941Y+008813
X+065465Y+008978
X+065935Y+014215
X+065465Y+014478
X+065853Y+014810
X+066816Y+015652
X+063816Y+014313
X+062816Y+014402
X+061853Y+013560
X+061465Y+013170
X+059878Y+013063
X+057465Y+011978
X+055815Y+011751
X+053627Y+010813
X+053690Y+021315
X+055878Y+022065
X+057610Y+022228
X+059815Y+023315
X+063878Y+024565
X+065465Y+024728
X+065354Y+030038
X+065824Y+030370
X+064440Y+031903
X+064440Y+032473
X+065142Y+033715
X+064810Y+034185
X+065447Y+034490
X+065752Y+036640
X+064045Y+036640
X+063130Y+039433
X+063600Y+039738
X+063295Y+042098
X+063535Y+042943
X+071655Y+042830
X+077940Y+039738
X+078940Y+039433
X+080940Y+038518
X+081245Y+040573
X+080014Y+042905
X+079544Y+043225
X+086761Y+042905
X+096815Y+042905
X+096719Y+049440
X+101694Y+049440
X+101744Y+056412
X+101745Y+057855
X+101440Y+059112
X+100445Y+060256
X+100627Y+062628
X+101338Y+062690
X+105627Y+062690
X+105633Y+060193
X+106440Y+059179
X+106961Y+057440
X+104177Y+057940
X+103789Y+057663
X+109940Y+057440
X+110744Y+057358
X+110440Y+059179
X+109696Y+060256
X+109752Y+062628
X+115003Y+062690
X+114884Y+060256
X+115690Y+059179
X+113957Y+057940
X+118571Y+060193
X+119339Y+059041
X+122756Y+059159
X+118002Y+062690
X+118944Y+042905
X+119339Y+042435
X+108940Y+030690
X+107940Y+029190
X+106940Y+027940
X+105940Y+026690
X+104940Y+025190
X+103940Y+023690
X+102940Y+022440
X+102940Y+020190
X+103940Y+020190
X+104940Y+020190
X+105940Y+020190
X+106940Y+020190
X+107940Y+020190
X+108940Y+020190
X+107940Y+015690
X+106940Y+015690
X+105940Y+015690
X+104940Y+015690
X+103940Y+015690
X+102940Y+015690
X+101940Y+015690
X+097940Y+015690
X+096940Y+015690
X+095940Y+015690
X+094940Y+015690
X+093940Y+015690
X+092940Y+015690
X+091940Y+015690
X+087940Y+015690
X+086940Y+015690
X+085940Y+015690
X+084940Y+015690
X+083940Y+015690
X+082940Y+015690
X+081940Y+015690
X+077940Y+015690
X+076940Y+015690
X+075940Y+015690
X+074940Y+015690
X+073940Y+015690
X+072940Y+015690
X+071940Y+015690
X+072940Y+020190
X+073940Y+020190
X+074940Y+020190
X+075940Y+020190
X+076940Y+020190
X+077940Y+020190
X+078940Y+020190
X+082940Y+020190
X+083940Y+020190
X+084940Y+020190
X+085940Y+020190
X+086940Y+020190
X+087940Y+020190
X+088940Y+020190
X+092940Y+020190
X+093940Y+020190
X+094940Y+020190
X+095940Y+020190
X+096940Y+020190
X+097940Y+020190
X+098940Y+020190
X+093940Y+023690
X+092940Y+022440
X+094940Y+025190
X+095940Y+026690
X+096940Y+027940
X+097940Y+029190
X+098940Y+030690
X+088940Y+030690
X+087940Y+029190
X+086940Y+027940
X+085940Y+026690
X+084940Y+025190
X+083940Y+023690
X+082940Y+022440
X+076940Y+027940
X+077940Y+029190
X+078940Y+030690
X+078940Y+035215
X+075940Y+026690
X+074940Y+025190
X+073940Y+023690
X+072940Y+022440
X+077940Y+013440
X+076940Y+012190
X+075940Y+010940
X+074940Y+009440
X+073940Y+007940
X+072940Y+006690
X+071940Y+005440
X+081940Y+005440
X+082940Y+006690
X+083940Y+007940
X+084940Y+009440
X+085940Y+010940
X+086940Y+012190
X+087940Y+013440
X+094940Y+009440
X+093940Y+007940
X+092940Y+006690
X+091940Y+005440
X+095940Y+010940
X+096940Y+012190
X+097940Y+013440
X+104940Y+009440
X+103940Y+007940
X+102940Y+006690
X+101940Y+005440
X+105940Y+010940
X+106940Y+012190
X+107940Y+013440
X+096719Y+056412
X+096996Y+057787
X+096440Y+059112
X+095569Y+060068
X+095627Y+062628
X+094499Y+057717
X+093740Y+056940
X+094941Y+056498
X+091280Y+056498
X+091104Y+056968
X+090838Y+058838
X+090006Y+060193
X+090190Y+062628
X+085128Y+062690
X+085318Y+060193
X+085940Y+058940
X+084776Y+057940
X+081550Y+057468
X+080755Y+059073
X+080130Y+060131
X+080252Y+062690
X+075690Y+062690
X+075692Y+060193
X+075276Y+058440
X+075034Y+057940
X+072244Y+057358
X+071838Y+058838
X+071191Y+060256
X+071378Y+062690
X+070120Y+057440
X+069175Y+056663
X+069856Y+053528
X+070940Y+053528
X+065081Y+056245
X+064845Y+057440
X+065276Y+057940
X+064810Y+058440
X+065691Y+060131
X+065753Y+062690
X+060253Y+062690
X+060190Y+060131
X+060940Y+059159
X+061104Y+057772
X+061440Y+056880
X+063230Y+056940
X+056399Y+057440
X+054715Y+058537
X+053995Y+057940
X+051744Y+057358
X+051440Y+059159
X+050752Y+060131
X+050690Y+062690
X+055252Y+062690
X+055190Y+060193
X+046940Y+059159
X+046189Y+060131
X+045775Y+058553
X+045470Y+057440
X+041909Y+057468
X+040276Y+057440
X+040276Y+058245
X+041338Y+059072
X+040563Y+060131
X+040627Y+062690
X+035563Y+062756
X+035752Y+060128
X+036440Y+059072
X+037222Y+057968
X+034723Y+057940
X+034253Y+057745
X+033627Y+057503
X+041604Y+055245
X+041219Y+054048
X+046127Y+062753
X+053995Y+043568
X+049245Y+040573
X+048545Y+040043
X+047939Y+040379
X+047939Y+038691
X+048940Y+037657
X+049635Y+038518
X+048940Y+035215
X+047939Y+033816
X+047564Y+032315
X+048395Y+030675
X+048395Y+029683
X+048564Y+028127
X+048002Y+027128
X+048440Y+026753
X+047877Y+026252
X+048564Y+025690
X+048189Y+025315
X+048627Y+024940
X+048189Y+024627
X+048627Y+024315
X+048627Y+023689
X+048064Y+024002
X+047814Y+023189
X+047877Y+022502
X+048502Y+022127
X+048627Y+022814
X+053565Y+026252
X+055878Y+027503
X+059752Y+028753
X+061465Y+029072
X+061465Y+029683
X+063502Y+030065
X+050635Y+034490
X+050330Y+033715
X+046025Y+035520
X+045415Y+034185
X+044090Y+036355
X+043497Y+036700
X+043512Y+037657
X+041417Y+036516
X+040060Y+038963
X+039557Y+038658
X+038839Y+038658
X+038229Y+039128
X+038450Y+040473
X+041090Y+040128
X+041560Y+040028
X+041422Y+040498
X+043025Y+041628
X+046330Y+037352
X+033565Y+019627
X+033500Y+017939
X+032375Y+017564
X+031562Y+017251
X+032502Y+016502
X+032937Y+016876
X+034190Y+015315
X+034535Y+015647
X+031065Y+015003
X+031065Y+012815
X+031062Y+011813
X+027502Y+010502
X+026598Y+012683
X+025499Y+012063
X+025374Y+013063
X+025437Y+014001
X+025107Y+010623
X+025440Y+007940
X+027440Y+007940
X+029440Y+007940
X+031440Y+007940
X+029877Y+018377
X+030493Y+020245
X+027127Y+018503
X+025940Y+018815
X+024940Y+019627
X+022878Y+020815
X+021878Y+021690
X+020940Y+022002
X+019940Y+022690
X+019690Y+023940
X+018940Y+023982
X+018311Y+019502
X+017710Y+018350
X+015405Y+017886
X+014060Y+019065
X+014940Y+019847
X+010285Y+018655
X+008215Y+020245
X+010405Y+023982
X+012410Y+029775
X+011940Y+030550
X+010940Y+030855
X+023190Y+036565
T02
X+007940Y+007940
X+008940Y+007940
X+009940Y+007940
X+010940Y+007940
X+011940Y+007940
X+012940Y+007940
X+013940Y+007940
X+014940Y+007940
X+015940Y+007940
X+016940Y+007940
X+017940Y+007940
X+018940Y+007940
X+019940Y+007940
X+020940Y+007940
X+020940Y+013940
X+019940Y+013940
X+018940Y+013940
X+017940Y+013940
X+016940Y+013940
X+015940Y+013940
X+014940Y+013940
X+013940Y+013940
X+012940Y+013940
X+011940Y+013940
X+010940Y+013940
X+009940Y+013940
X+008940Y+013940
X+007940Y+013940
T03
X+048690Y+009440
X+048690Y+010440
X+048690Y+011440
X+048690Y+012440
X+048690Y+013440
X+048690Y+014440
X+048690Y+015440
X+048690Y+016440
X+048690Y+017440
X+048690Y+018440
X+048690Y+019940
T04
X+009940Y+016435
X+010940Y+016435
X+010940Y+017435
X+011940Y+017435
X+011940Y+016435
X+012940Y+016435
X+012940Y+017435
X+013940Y+017435
X+013940Y+016435
X+014940Y+016435
X+014940Y+017435
X+015940Y+017435
X+015940Y+016435
X+016940Y+016435
X+016940Y+017435
X+017940Y+017435
X+017940Y+016435
X+018940Y+016435
X+019940Y+016435
X+019940Y+017435
X+018940Y+017435
X+020940Y+017435
X+020940Y+016435
X+021940Y+016435
X+021940Y+017435
X+022940Y+017435
X+022940Y+016435
X+023940Y+016435
X+023940Y+017435
X+024940Y+017435
X+024940Y+016435
X+025940Y+016435
X+025940Y+017435
X+026940Y+017435
X+026940Y+016435
X+027940Y+016435
X+028940Y+016435
X+028940Y+017440
X+027940Y+017435
X+031560Y+019465
X+031560Y+020465
X+031560Y+021465
X+031560Y+022465
X+031560Y+023465
X+031560Y+024465
X+031560Y+025465
X+031560Y+026465
X+032560Y+026465
X+032560Y+025465
X+032560Y+024465
X+032560Y+023465
X+032560Y+022465
X+032560Y+021465
X+032560Y+020465
X+032560Y+019470
X+032560Y+027465
X+032560Y+028465
X+032560Y+029465
X+032560Y+030465
X+032560Y+031465
X+031560Y+031460
X+031560Y+030465
X+031560Y+029465
X+031560Y+028465
X+031560Y+027465
X+028940Y+033505
X+027940Y+033505
X+027940Y+034505
X+028940Y+034505
X+026940Y+034505
X+026940Y+033505
X+025940Y+033505
X+025940Y+034505
X+024940Y+034505
X+024940Y+033505
X+023940Y+033505
X+023940Y+034505
X+022940Y+034505
X+022940Y+033505
X+021940Y+033505
X+021940Y+034505
X+020940Y+034505
X+020940Y+033505
X+019940Y+033505
X+018940Y+033505
X+018940Y+034505
X+019940Y+034505
X+017940Y+034505
X+017940Y+033505
X+016940Y+033505
X+016940Y+034505
X+015940Y+034505
X+015940Y+033505
X+014940Y+033505
X+014940Y+034505
X+013940Y+034505
X+013940Y+033505
X+012940Y+033500
X+011940Y+033505
X+011940Y+034505
X+010940Y+034505
X+009940Y+034505
X+009940Y+033500
X+010940Y+033500
X+012940Y+034505
X+009940Y+017440
T05
X+036440Y+016940
X+036440Y+017940
X+036440Y+022940
X+036440Y+023940
X+036440Y+024940
T06
X+037690Y+008190
X+039344Y+008190
X+040997Y+008190
X+040997Y+010355
X+039344Y+010355
X+037690Y+010355
T07
X+038690Y+018753
X+040190Y+018753
X+042190Y+018753
X+043693Y+018753
T08
X+005940Y+061940
X+005940Y+005940
X+121940Y+005940
X+121940Y+061940
T09
X+035918Y+006536
X+042769Y+006536
T00
M30
