G04 DipTrace 2.3.0.3*
%INTop.gbr*%
%MOIN*%
%ADD13C,0.015*%
%ADD14C,0.007*%
%ADD15C,0.025*%
%ADD16C,0.0236*%
%ADD17C,0.05*%
%ADD18C,0.024*%
%ADD19C,0.02*%
%ADD20R,0.063X0.0709*%
%ADD21R,0.0591X0.0591*%
%ADD22R,0.12X0.12*%
%ADD23C,0.25*%
%ADD25R,0.05X0.145*%
%ADD26C,0.1417*%
%ADD27C,0.252*%
%ADD28R,0.0787X0.0236*%
%ADD29R,0.0709X0.063*%
%ADD30R,0.0394X0.1063*%
%ADD31C,0.072*%
%ADD32R,0.072X0.072*%
%ADD33C,0.064*%
%ADD34R,0.064X0.064*%
%ADD35R,0.0787X0.0787*%
%ADD36C,0.0787*%
%ADD37R,0.07X0.07*%
%ADD38C,0.07*%
%ADD39C,0.04*%
%FSLAX44Y44*%
G04*
G70*
G90*
G75*
G01*
%LNTop*%
%LPD*%
X28940Y5940D2*
D13*
X28192D1*
X28940D2*
X29440Y6440D1*
X33315D1*
X35940Y9065D1*
X43315D1*
X43690Y9440D1*
Y9565D1*
X42313Y17001D2*
X42814D1*
X26940Y5940D2*
X26192D1*
X26940D2*
X27440Y6440D1*
X28940D1*
X29940Y7440D1*
Y9065D1*
X30190Y9315D1*
X38440D1*
X39344Y10219D1*
Y10355D1*
X45690Y14940D2*
D15*
X46190Y15440D1*
X48690D1*
X38440Y22940D2*
X36440D1*
X38440D2*
X39940D1*
Y26940D2*
X40940D1*
X32560Y19470D2*
X32592Y19502D1*
X33440D1*
X33565Y19627D1*
X31389Y8639D2*
X31440Y8588D1*
Y7940D1*
X29389Y8639D2*
X29440Y8588D1*
Y7940D1*
X27389Y8639D2*
X27440Y8588D1*
Y7940D1*
X25389Y8639D2*
X25440Y8588D1*
Y7940D1*
X38690Y25315D2*
Y26878D1*
X38752Y26940D1*
X39940D1*
X8088Y62690D2*
X7940Y62542D1*
Y61940D1*
X7440Y59940D2*
X6940D1*
X6440Y58440D2*
D16*
Y58683D1*
D15*
Y59440D1*
X6940Y59940D1*
X11940D2*
X11815Y60065D1*
X11315D1*
X11440Y58440D2*
D16*
X11807Y58807D1*
D15*
X11940Y58940D1*
Y59940D1*
X16940Y58440D2*
D16*
X17307Y58807D1*
D15*
X17440Y58940D1*
Y59940D1*
X17315Y60065D1*
X16690D1*
X11838Y62690D2*
X11065D1*
X17338D2*
X16565D1*
X21838D2*
X21002D1*
X26338D2*
X26275Y62753D1*
X25315D1*
X30838Y62690D2*
X30190D1*
X30940Y59940D2*
X30752Y60128D1*
X30252D1*
X26440Y59940D2*
X26252Y60128D1*
X25690D1*
X21940Y59940D2*
X21752Y60128D1*
X21252D1*
X30440Y58440D2*
D16*
X30807Y58807D1*
D15*
X30940Y58940D1*
Y59940D1*
X25940Y58440D2*
D16*
X26307Y58807D1*
D15*
X26440Y58940D1*
Y59940D1*
X21440Y58440D2*
D16*
X21807Y58807D1*
D15*
X21940Y58940D1*
Y59940D1*
X41338Y62690D2*
X40627D1*
X46838D2*
X46775Y62753D1*
X46127D1*
X51338Y62690D2*
X50690D1*
X55838D2*
X55252D1*
X60838D2*
X60253D1*
X66338D2*
X65753D1*
X71838D2*
X71378D1*
X76338D2*
X75690D1*
X80838D2*
X80252D1*
X85838D2*
X85128D1*
X90838D2*
X90775Y62628D1*
X90190D1*
X96338Y62690D2*
X96275Y62628D1*
X95627D1*
X101338Y62690D2*
X101275Y62628D1*
X100627D1*
X106338Y62690D2*
X105627D1*
X110338D2*
X110275Y62628D1*
X109752D1*
X115588Y62690D2*
X115003D1*
X118838D2*
X118002D1*
X35940Y58440D2*
D16*
X36307Y58807D1*
D15*
X36440Y58940D1*
Y59940D1*
X36252Y60128D1*
X35752D1*
X40940Y58440D2*
D16*
X41112Y58612D1*
D15*
X41338Y58838D1*
Y59940D1*
X41147Y60131D1*
X40563D1*
X46440Y58440D2*
D16*
X46807Y58807D1*
D15*
X46940Y58940D1*
Y59940D1*
X46749Y60131D1*
X46189D1*
X50940Y58440D2*
D16*
X51112Y58612D1*
D15*
X51440Y58940D1*
Y59940D1*
X51249Y60131D1*
X50752D1*
X55440Y58440D2*
D16*
X55612Y58612D1*
D15*
X55940Y58940D1*
Y59940D1*
X55687Y60193D1*
X55190D1*
X60440Y58440D2*
D16*
X60612Y58612D1*
D15*
X60940Y58940D1*
Y59940D1*
X60749Y60131D1*
X60190D1*
X65940Y58440D2*
D16*
X66307Y58807D1*
D15*
X66440Y58940D1*
Y59940D1*
X66249Y60131D1*
X65691D1*
X71440Y58440D2*
D16*
X71612Y58612D1*
D15*
X71838Y58838D1*
Y59940D1*
X71522Y60256D1*
X71191D1*
X75940Y58440D2*
D16*
X76307Y58807D1*
D15*
X76338Y58838D1*
Y59940D1*
X76084Y60193D1*
X75692D1*
X80440Y58440D2*
D16*
X80755Y58755D1*
D15*
Y59818D1*
X80442Y60131D1*
X80130D1*
X85440Y58440D2*
D16*
X85807Y58807D1*
D15*
X85940Y58940D1*
Y59940D1*
X85687Y60193D1*
X85318D1*
X90440Y58440D2*
D16*
X90807Y58807D1*
D15*
X90838Y58838D1*
Y59940D1*
X90584Y60193D1*
X90006D1*
X95940Y58440D2*
D16*
X96307Y58807D1*
D15*
X96440Y58940D1*
Y59940D1*
X96312Y60068D1*
X95569D1*
X100940Y58440D2*
D16*
X101307Y58807D1*
D15*
X101440Y58940D1*
Y59940D1*
X101124Y60256D1*
X100445D1*
X105940Y58440D2*
D16*
X106307Y58807D1*
D15*
X106440Y58940D1*
Y59940D1*
X106187Y60193D1*
X105633D1*
X109940Y58440D2*
D16*
X110307Y58807D1*
D15*
X110440Y58940D1*
Y59940D1*
X110124Y60256D1*
X109696D1*
X115190Y58440D2*
D16*
X115557Y58807D1*
D15*
X115690Y58940D1*
Y59940D1*
X115374Y60256D1*
X114884D1*
X119940Y58440D2*
D16*
X119573Y58807D1*
D15*
X119339Y59041D1*
Y59940D1*
X119086Y60193D1*
X118571D1*
X16940Y58440D2*
X16401D1*
Y58715D1*
X16076D1*
X22104Y43413D2*
X16076D1*
X35439Y37128D2*
X34800D1*
X34188Y36516D1*
X38690Y26878D2*
Y27870D1*
X38370Y28190D1*
X35127D1*
X35918Y6536D2*
X37690D1*
Y8190D1*
X8215Y20245D2*
X30493D1*
X75940Y58440D2*
X75276D1*
X55440D2*
D16*
X54811D1*
X54715Y58537D1*
X43025Y41628D2*
D15*
X30055D1*
X29479D1*
X96815Y42905D2*
X97285Y42435D1*
X119339D1*
X86761Y42905D2*
X80014D1*
X41417Y36516D2*
X42030Y37128D1*
X42627D1*
X30440Y58440D2*
X29558D1*
X29058Y58940D1*
X65940Y58440D2*
D16*
X64810D1*
X79544Y43225D2*
D15*
X79149Y42830D1*
X71655D1*
X25940Y58440D2*
X24675D1*
X24620Y58495D1*
X7940Y7940D2*
X6080D1*
X5940Y7800D1*
Y5940D1*
X121940Y61940D2*
Y59975D1*
X122756Y59159D1*
X11440Y58440D2*
Y58495D1*
X10776D1*
X27877Y37128D2*
D16*
X15561D1*
X15405Y36973D1*
X13794D1*
X13488Y36667D1*
Y35364D1*
X13794Y35058D1*
X14387D1*
X14940Y34505D1*
X30459Y36516D2*
D15*
X29078D1*
X28465Y37128D1*
X27877D1*
X34188Y36516D2*
X30459D1*
X35127Y28190D2*
Y29085D1*
X34188Y30025D1*
X40997Y8190D2*
Y6536D1*
X42769D1*
X39344Y8190D2*
X40997D1*
X37690D2*
X39344D1*
X29479Y41628D2*
D14*
D3*
X43025D2*
D3*
X101338Y62690D2*
D3*
X36338D2*
D15*
X36272Y62756D1*
X35563D1*
X121940Y61940D2*
X120516Y63364D1*
X101338D1*
X31488D1*
X31348D1*
Y63239D1*
X30838D1*
Y62690D1*
X101338D2*
Y63364D1*
X5940Y61940D2*
X7559Y63559D1*
X31293D1*
X31488Y63364D1*
X6440Y56940D2*
D14*
X5065D1*
X4815Y56690D1*
Y35878D1*
X5378Y35315D1*
X10378D1*
X10940Y34753D1*
Y34505D1*
X11440Y56940D2*
X11690Y56690D1*
X12003D1*
X12128Y56565D1*
X12815D1*
X12940Y56690D1*
X15190D1*
X15440Y56940D1*
X16940D1*
X17190Y56690D1*
X20377D1*
X20627Y56940D1*
X21440D1*
X21690Y56690D1*
X24940D1*
X25190Y56940D1*
X25940D1*
X26190Y56690D1*
X29377D1*
X29627Y56940D1*
X30440D1*
X6440D2*
X7002D1*
X7752Y56190D1*
X9253D1*
X9315Y56128D1*
X9565D1*
X10315Y56877D2*
X10378Y56940D1*
X11440D1*
X30440D2*
X30690Y56690D1*
X34002D1*
X34252Y56940D1*
X35940D1*
X119940D2*
X118427D1*
X118204Y57163D1*
X116705D1*
X116482Y56940D1*
X115190D1*
X65940D2*
X65221D1*
X65081Y56800D1*
Y56245D1*
X75940Y56940D2*
X75233D1*
X75009Y57163D1*
X73116D1*
X72893Y56940D1*
X71440D1*
X80440D2*
X78930D1*
X78707Y57163D1*
X77427D1*
X77204Y56940D1*
X75940D1*
X85440D2*
X84706D1*
X84483Y57163D1*
X81380D1*
X81157Y56940D1*
X80440D1*
X90440D2*
X89650D1*
X89427Y57163D1*
X86973D1*
X86750Y56940D1*
X85440D1*
X91104Y56968D2*
X91076Y56940D1*
X90440D1*
X60440D2*
X61381D1*
X61440Y56880D1*
X95940Y56940D2*
X93740D1*
X100940D2*
X100370D1*
X100146Y57163D1*
X97418D1*
X97195Y56940D1*
X95940D1*
X105940D2*
X105213D1*
X104989Y57163D1*
X102195D1*
X101972Y56940D1*
X100940D1*
X109940D2*
X109361D1*
X109138Y57163D1*
X107489D1*
X107266Y56940D1*
X105940D1*
X115190D2*
X113801D1*
X113578Y57163D1*
X111539D1*
X111316Y56940D1*
X109940D1*
X35940D2*
X35943Y56943D1*
X36750D1*
X37000Y56693D1*
X40501D1*
X40748Y56940D1*
X40940D1*
X41187Y56693D1*
X43501D1*
X43748Y56940D1*
X46440D1*
X46443Y56943D1*
X47064D1*
X47314Y56693D1*
X49502D1*
X49749Y56940D1*
X50940D1*
X51187Y56693D1*
X53752D1*
X53999Y56940D1*
X55440D1*
X55687Y56693D1*
X59628D1*
X59875Y56940D1*
X60440D1*
X65940D2*
X65943Y56943D1*
X66754D1*
X67004Y57193D1*
X69066D1*
X69319Y56940D1*
X71440D1*
X13940Y7940D2*
X13440Y8440D1*
X6190D1*
X4565Y10065D1*
Y27690D1*
X6340Y29465D1*
X31560D1*
X32560D2*
X32035Y28940D1*
X6190D1*
X4815Y27565D1*
Y10065D1*
X6190Y8690D1*
X14315D1*
X14940Y8065D1*
Y7940D1*
X15940D2*
X14940Y8940D1*
X6315D1*
X5065Y10190D1*
Y27565D1*
X5965Y28465D1*
X31560D1*
X32560D2*
X32035Y27940D1*
X5690D1*
X5315Y27565D1*
Y10190D1*
X6315Y9190D1*
X15690D1*
X16940Y7940D1*
X17940D2*
X16440Y9440D1*
X6440D1*
X5565Y10315D1*
Y27190D1*
X5840Y27465D1*
X31560D1*
X32560D2*
X32035Y26940D1*
X30440D1*
X30190Y27190D1*
X6440D1*
X5815Y26565D1*
Y10440D1*
X6565Y9690D1*
X17315D1*
X18940Y8065D1*
Y7940D1*
X19940D2*
X17940Y9940D1*
X6815D1*
X6065Y10690D1*
Y26315D1*
X6315Y26565D1*
X27815D1*
X28440Y25940D1*
X29690D1*
X30215Y26465D1*
X31560D1*
X32560D2*
X32035Y25940D1*
X30190D1*
X29690Y25440D1*
Y24565D1*
X29440Y24315D1*
X28690D1*
X28440Y24565D1*
X6940D1*
X6315Y23940D1*
Y10690D1*
X6815Y10190D1*
X19690D1*
X20940Y8940D1*
Y7940D1*
X19690Y23940D2*
X19815Y24065D1*
X30065D1*
X30465Y24465D1*
X31560D1*
X26491Y8639D2*
X26566Y8564D1*
Y7042D1*
X48690Y12440D2*
X47292Y13838D1*
X45690D1*
X28491Y8639D2*
X28566Y8564D1*
Y7042D1*
X12405Y39085D2*
X17453D1*
X17636Y39268D1*
X22898D1*
X23258Y39628D1*
X27877D1*
X38440Y24042D2*
X38338Y23940D1*
X36440D1*
X30491Y8639D2*
X30566Y8564D1*
Y7042D1*
X32491Y8639D2*
X32566Y8564D1*
Y7042D1*
X12940Y38615D2*
X17995D1*
X18508Y39128D1*
X27877D1*
X15405Y37971D2*
X15909Y38475D1*
X20482D1*
X20635Y38628D1*
X27877D1*
X14405Y37501D2*
X17917D1*
X18573Y38157D1*
X21531D1*
X21559Y38128D1*
X27877D1*
X29339Y39323D2*
X29367Y39352D1*
X32242D1*
X32519Y39628D1*
X35439D1*
X17940Y38170D2*
X18066Y38297D1*
X21797D1*
X21852Y38352D1*
X32316D1*
X33093Y39128D1*
X35439D1*
Y38628D2*
X35938D1*
Y36005D1*
X35798Y35865D1*
X22545D1*
X22405Y35725D1*
Y33185D1*
X22265Y33045D1*
X19400D1*
X18940Y33505D1*
Y37852D2*
X33393D1*
X33669Y38128D1*
X35439D1*
X22405Y42088D2*
X28797D1*
Y41038D1*
X28937Y40898D1*
X39375D1*
X40645Y39628D1*
X42627D1*
Y39128D2*
X40867D1*
X40144Y39851D1*
X21940D1*
X42627Y38628D2*
X43126D1*
Y35725D1*
X42986Y35585D1*
X23545D1*
X23405Y35445D1*
Y33970D1*
X22940Y33505D1*
X42627Y38128D2*
X41064D1*
X38660Y35725D1*
X23080D1*
X22940Y35585D1*
Y34505D1*
X48545Y40043D2*
X48130Y39628D1*
X44753D1*
X81550Y57468D2*
X81578Y57440D1*
X82566D1*
X39557Y38658D2*
X38750Y37852D1*
X36407D1*
X36267Y37992D1*
Y38712D1*
X36127Y38852D1*
X33753D1*
X33029Y38128D1*
X30003D1*
X101745Y57855D2*
X102160Y57440D1*
X103066D1*
X30666Y42098D2*
X63295D1*
X72244Y57358D2*
X72326Y57440D1*
X73566D1*
X30666Y38657D2*
X30638Y38628D1*
X30003D1*
X41909Y57468D2*
X41937Y57440D1*
X43066D1*
X36103Y39433D2*
X36021Y39352D1*
X32772D1*
X32549Y39128D1*
X30003D1*
X17964Y57745D2*
X17882Y57663D1*
X16074D1*
X15991Y57580D1*
X14588D1*
X14448Y57440D1*
X13566D1*
X19100Y38823D2*
X19128Y38852D1*
X28754D1*
X28894Y38992D1*
Y39488D1*
X29034Y39628D1*
X30003D1*
X63535Y42943D2*
Y57300D1*
X63395Y57440D1*
X62566D1*
X40060Y38963D2*
X39395Y39628D1*
X37565D1*
X23566Y57440D2*
X24752D1*
X25002Y57690D1*
X28752D1*
X29252Y58190D1*
X30877D1*
X31377Y57690D1*
X33128D1*
X33565Y58127D1*
X34253D1*
Y57745D1*
Y58127D2*
D3*
X37565Y39128D2*
X38229D1*
X37565Y38628D2*
X36746D1*
Y38658D1*
X32566Y57440D2*
X32628Y57503D1*
X33627D1*
X38839Y38658D2*
X38309Y38128D1*
X37565D1*
X51744Y57358D2*
X51826Y57440D1*
X53066D1*
X49245Y40573D2*
Y39268D1*
X49105Y39128D1*
X44753D1*
X81245Y40573D2*
X93295D1*
X93435Y40713D1*
Y57300D1*
X93295Y57440D1*
X92566D1*
X46330Y37352D2*
Y38488D1*
X46190Y38628D1*
X44753D1*
X110744Y57358D2*
X110826Y57440D1*
X112066D1*
X118944Y42905D2*
X123435D1*
X123575Y43045D1*
Y57300D1*
X123435Y57440D1*
X122066D1*
X46025Y35520D2*
Y37988D1*
X45885Y38128D1*
X44753D1*
X33862Y37350D2*
X33640Y37128D1*
X30003D1*
X36432Y37350D2*
X36654Y37128D1*
X37565D1*
X44090Y36355D2*
Y36988D1*
X44230Y37128D1*
X44753D1*
X42042Y27630D2*
Y28240D1*
X30003Y37128D2*
X29479D1*
X29249Y37358D1*
X15228D1*
X15066Y37196D1*
X12080D1*
X11940Y37056D1*
Y34505D1*
X42042Y26940D2*
D3*
X9940Y7940D2*
X8940D1*
X11940D2*
X12440Y7440D1*
X21190D1*
X21440Y7690D1*
Y9190D1*
X20065Y10565D1*
X12440D1*
X10940Y12065D1*
Y13940D1*
Y7940D2*
X11690Y7190D1*
X21440D1*
X21815Y7565D1*
Y9440D1*
X20315Y10940D1*
X12440D1*
X11440Y11940D1*
Y14315D1*
X11065Y14690D1*
X10440D1*
X9940Y14190D1*
Y13940D1*
X14940Y19847D2*
D13*
X7445D1*
X7225Y19627D1*
Y13445D1*
X7445Y13225D1*
X9215D1*
X9435Y13445D1*
Y14870D1*
X9655Y15090D1*
X19215D1*
X19435Y14870D1*
Y13619D1*
X22431Y10623D1*
X25107D1*
X27357Y11070D2*
X28035D1*
Y11290D1*
X32035D1*
X32560Y11815D1*
Y12315D1*
Y12815D1*
X33103D1*
X27357Y14570D2*
X26818D1*
Y14070D1*
X27357D1*
X27895D1*
Y13570D1*
Y13070D1*
Y12570D1*
X27357D1*
X78940Y35215D2*
Y36378D1*
X26598Y12683D2*
X26253Y13028D1*
Y13350D1*
X26473Y13570D1*
X27357D1*
X32560Y12315D2*
X33103D1*
X20055Y40577D2*
Y42055D1*
X21782D1*
X22209Y41628D1*
X28377D1*
X43512Y37657D2*
Y39908D1*
X43292Y40128D1*
X42627D1*
X20055Y35525D2*
X19440D1*
Y36378D1*
X48940Y35215D2*
Y36378D1*
X31837Y37528D2*
X30666D1*
X30359Y41203D2*
X34558D1*
X33103Y14315D2*
X32565D1*
Y14815D1*
Y15315D1*
X33103D1*
X33660Y28240D2*
Y27630D1*
X28035Y11290D2*
Y11570D1*
X27357D1*
X32565Y14815D2*
X33103D1*
Y13815D2*
X33642D1*
X33862Y14035D1*
Y14315D1*
X33103D1*
Y13315D2*
X32345D1*
Y13815D1*
X33103D1*
Y12815D2*
X33642D1*
X33862Y13035D1*
Y13315D1*
X33103D1*
X32560Y11815D2*
X33103D1*
X25107Y10623D2*
X25554Y11070D1*
X27357D1*
X27895Y13070D2*
X27357D1*
X78940Y36378D2*
Y37117D1*
X108940D1*
Y36378D1*
X27357Y13570D2*
X27895D1*
X28377Y41628D2*
Y40632D1*
X28415Y40593D1*
Y40128D1*
X27877D1*
X42627D2*
X41660D1*
X41560Y40028D1*
X34558Y40156D2*
X34586Y40128D1*
X35439D1*
X48940Y36378D2*
Y37657D1*
X33103Y14815D2*
X34315D1*
X34535Y15035D1*
Y15647D1*
X27357Y11570D2*
X26818D1*
Y12070D1*
X27357D1*
X28377Y41628D2*
D14*
D3*
X10405Y40323D2*
X18300D1*
X18440Y40463D1*
Y41379D1*
X10405Y23982D2*
X18940D1*
X9335Y40018D2*
X19300D1*
X19440Y40158D1*
Y41379D1*
X10285Y18655D2*
X18265D1*
X18405Y18515D1*
Y16970D1*
X18940Y16435D1*
X17405Y39713D2*
X20300D1*
X20440Y39853D1*
Y41379D1*
X16405Y39408D2*
X21300D1*
X21440Y39548D1*
Y41379D1*
X47940D2*
X47939Y41378D1*
Y40379D1*
Y38691D2*
Y33816D1*
X47564Y32315D2*
X47395Y32146D1*
X30665D1*
X30525Y32006D1*
Y30220D1*
X30385Y30080D1*
X16940D1*
X17100Y31775D2*
X29405D1*
X29545Y31915D1*
Y33485D1*
X29685Y33625D1*
X45580D1*
X45720Y33765D1*
Y37212D1*
X45580Y37352D1*
X44370D1*
X44230Y37492D1*
Y39352D1*
X48800D1*
X48940Y39492D1*
Y41379D1*
X15940Y31160D2*
X29685D1*
X29825Y31300D1*
Y33058D1*
X29965Y33198D1*
X49800D1*
X49940Y33338D1*
Y41379D1*
X15405Y17886D2*
Y16970D1*
X15940Y16435D1*
X15405Y30245D2*
X15545Y30385D1*
X30245D1*
X30385Y30525D1*
Y32498D1*
X30525Y32638D1*
X50800D1*
X50940Y32778D1*
Y41379D1*
X77940Y39738D2*
Y41379D1*
X63600Y39738D2*
Y42295D1*
X63460Y42435D1*
X13512D1*
X13410Y42333D1*
X78940Y39433D2*
Y41379D1*
X63130Y39433D2*
X63765D1*
X63905Y39573D1*
Y42498D1*
X63765Y42638D1*
X11470D1*
X64810Y34185D2*
Y38848D1*
X64950Y38988D1*
X79800D1*
X79940Y39128D1*
Y41379D1*
X45415Y34185D2*
X29545D1*
X29405Y34045D1*
Y33045D1*
X29265Y32905D1*
X18545D1*
X18405Y33045D1*
Y33835D1*
X18265Y33975D1*
X13545D1*
X13405Y33835D1*
Y33200D1*
X12940Y32735D1*
X80940Y38518D2*
Y41379D1*
X49635Y38518D2*
Y33625D1*
X49495Y33485D1*
X29825D1*
X29685Y33345D1*
Y31610D1*
X29545Y31470D1*
X14428D1*
X14405Y31447D1*
X65447Y34490D2*
Y37933D1*
X65587Y38073D1*
X107800D1*
X107940Y38213D1*
Y41379D1*
X50635Y34490D2*
Y33058D1*
X50495Y32918D1*
X30385D1*
X30245Y32778D1*
Y30690D1*
X30105Y30550D1*
X11940D1*
X65752Y36640D2*
X66502Y37390D1*
X108800D1*
X108940Y37530D1*
Y41379D1*
X64045Y36640D2*
X59411Y32006D1*
X30885D1*
X30745Y31866D1*
Y29915D1*
X30605Y29775D1*
X12410D1*
X65142Y33715D2*
X109800D1*
X109940Y33855D1*
Y41379D1*
X50330Y33715D2*
Y33198D1*
X50190Y33058D1*
X30105D1*
X29965Y32918D1*
Y30995D1*
X29825Y30855D1*
X10940D1*
X17710Y18350D2*
X11545D1*
X11405Y18210D1*
Y16900D1*
X10940Y16435D1*
X65824Y30370D2*
Y31660D1*
X65964Y31800D1*
X110800D1*
X110940Y31940D1*
Y41379D1*
X30190Y15315D2*
X29815Y15690D1*
Y15940D1*
X29320Y16435D1*
X28940D1*
X52690Y20690D2*
X53127D1*
X53690Y21253D1*
Y21315D1*
X48189Y24627D2*
X48127Y24690D1*
X45064D1*
X44376Y24002D1*
X42877D1*
X40253Y21378D1*
X36253D1*
X33440Y18565D1*
X30002D1*
X29877Y18440D1*
Y18377D1*
X27940Y16435D2*
X28444Y16939D1*
X29873D1*
X30999Y15813D1*
Y14999D1*
X30815Y14815D1*
X30190D1*
X52690Y4940D2*
X52128Y4378D1*
X25440D1*
X24628Y5190D1*
Y9190D1*
X25440Y10002D1*
X26940D1*
X27440Y10502D1*
X27502D1*
X31065Y15003D2*
Y15162D1*
X30999Y14999D1*
X26940Y17435D2*
X27440Y16935D1*
Y16190D1*
X27690Y15940D1*
X28815D1*
X29557Y15198D1*
Y14548D1*
X29587Y14350D1*
X30225D1*
X30190Y14315D1*
X56690Y21940D2*
X56565Y22065D1*
X55878D1*
X48627Y24940D2*
X45064D1*
X44314Y24190D1*
X42877D1*
X40253Y21565D1*
X36127D1*
X33315Y18753D1*
X27377D1*
X27127Y18503D1*
X26940Y16435D2*
X27685Y15690D1*
X28815D1*
X29315Y15190D1*
Y14127D1*
X29690Y13815D1*
X30190D1*
X56690Y6190D2*
X56503Y6377D1*
X55753D1*
X48502Y22127D2*
X42940D1*
X40877Y20065D1*
X37190D1*
X34627Y17502D1*
Y16752D1*
X34003Y16128D1*
X32065D1*
X31690Y15753D1*
Y15628D1*
X31502Y15440D1*
Y14690D1*
X30628Y13815D1*
X30190D1*
X25940Y17435D2*
X26440Y16935D1*
Y16065D1*
X27002Y15503D1*
X28627D1*
X29065Y15065D1*
Y13502D1*
X29190Y13315D1*
X30190D1*
X60690Y23190D2*
X60565Y23315D1*
X59815D1*
X48189Y25315D2*
X45189D1*
X44314Y24440D1*
X42877D1*
X40190Y21752D1*
X36127D1*
X33378Y19003D1*
X26190D1*
X26002Y18815D1*
X25940D1*
Y16435D2*
Y15940D1*
X26565Y15315D1*
X28315D1*
X28815Y14815D1*
Y13002D1*
X28940Y12815D1*
X30190D1*
X60690Y7440D2*
X60565Y7565D1*
X59940D1*
X47877Y22502D2*
X43003D1*
X40753Y20252D1*
X37002D1*
X34440Y17690D1*
Y17127D1*
X33815Y16502D1*
X32502D1*
X31065Y12815D2*
X30190D1*
X24940Y17435D2*
X25440Y16935D1*
Y15690D1*
X26003Y15128D1*
X28002D1*
X28565Y14565D1*
Y12440D1*
X28690Y12315D1*
X30190D1*
X64690Y24440D2*
X64565Y24565D1*
X63878D1*
X48564Y25690D2*
Y25752D1*
X48502Y25690D1*
X45189D1*
X44189Y24690D1*
X42815D1*
X40128Y22002D1*
X35565D1*
X33502Y19940D1*
X25378D1*
X25065Y19627D1*
X24940D1*
X30190Y11815D2*
X29002D1*
X28377Y12440D1*
Y14378D1*
X27877Y14878D1*
X25690D1*
X24940Y15627D1*
Y16435D1*
X64690Y8690D2*
X64567Y8813D1*
X63941D1*
X48627Y22814D2*
X48689Y22877D1*
X43189D1*
X40751Y20439D1*
X36438D1*
X34250Y18251D1*
Y17189D1*
X33938Y16876D1*
X32937D1*
X31062Y11813D2*
X31060Y11815D1*
X30190D1*
X22940Y17435D2*
X23435Y16940D1*
X24315D1*
X24443Y16812D1*
Y14570D1*
X52690Y26190D2*
X52752Y26252D1*
X53565D1*
X47877D2*
X45502D1*
X44140Y24890D1*
X42702D1*
X40065Y22252D1*
X34877D1*
X33690Y21065D1*
X33628D1*
X33565Y21002D1*
X23127D1*
X22940Y20815D1*
X22878D1*
X22940Y16435D2*
X23815Y15560D1*
Y14190D1*
X23935Y14070D1*
X24443D1*
X52690Y10440D2*
X52692Y10438D1*
X53315D1*
X53627Y10751D1*
Y10813D1*
X47814Y23189D2*
X43251D1*
X40688Y20627D1*
X36438D1*
X34063Y18251D1*
Y17501D1*
X33813Y17251D1*
X31562D1*
X25437Y14001D2*
X25368Y14070D1*
X24443D1*
X21940Y17435D2*
X22440Y16935D1*
Y16065D1*
X23565Y14940D1*
Y13815D1*
X23810Y13570D1*
X24443D1*
X56690Y27440D2*
Y27503D1*
X55878D1*
X48440Y26753D2*
X45503D1*
X43957Y25207D1*
X42707D1*
X39940Y22440D1*
X34065D1*
X33565Y21940D1*
X30690D1*
X30627Y21877D1*
X22065D1*
X21878Y21690D1*
X21940Y16435D2*
Y16065D1*
X23315Y14690D1*
Y13440D1*
X23685Y13070D1*
X24443D1*
X56690Y11690D2*
X56629Y11751D1*
X55815D1*
X48627Y23689D2*
X48564Y23627D1*
X46751D1*
X46564Y23439D1*
X43314D1*
X40688Y20814D1*
X36438D1*
X33875Y18251D1*
Y17814D1*
X33625Y17564D1*
X32375D1*
X25374Y13063D2*
X25368Y13070D1*
X24443D1*
X20940Y17435D2*
X21440Y16935D1*
Y15940D1*
X23065Y14315D1*
Y13190D1*
X23685Y12570D1*
X24443D1*
X60690Y28690D2*
X60627Y28753D1*
X59752D1*
X48002Y27128D2*
X45628D1*
X43948Y25448D1*
X41011D1*
X39002Y23440D1*
X34877D1*
X34377Y22940D1*
X30878D1*
X30315Y22377D1*
X21377D1*
X21002Y22002D1*
X20940D1*
Y16435D2*
Y15940D1*
X22815Y14065D1*
Y13190D1*
X23935Y12070D1*
X24443D1*
X60690Y12940D2*
X60567Y13063D1*
X59878D1*
X48064Y24002D2*
X48002Y24064D1*
X45064D1*
X44626Y23627D1*
X43189D1*
X40563Y21002D1*
X36438D1*
X33375Y17939D1*
X33500D1*
X25499Y12063D2*
X25492Y12070D1*
X24443D1*
X19940Y17435D2*
X20440Y16935D1*
Y15815D1*
X22565Y13690D1*
Y13065D1*
X24060Y11570D1*
X24443D1*
X64690Y29940D2*
X64565Y30065D1*
X63502D1*
X48564Y28127D2*
X48002Y27565D1*
X45377D1*
X43815Y26003D1*
X41003D1*
X39627Y24627D1*
X37815D1*
X37628Y24440D1*
X35877D1*
X35377Y23940D1*
X30440D1*
X29753Y23253D1*
X20378D1*
X19940Y22815D1*
Y22690D1*
Y16435D2*
Y15815D1*
X22315Y13440D1*
Y12815D1*
X24060Y11070D1*
X24443D1*
X64690Y14190D2*
X64567Y14313D1*
X63816D1*
X48627Y24315D2*
X44939D1*
X44439Y23814D1*
X43001D1*
X40376Y21189D1*
X36250D1*
X33313Y18251D1*
X30500D1*
X30312Y18064D1*
X29250D1*
X29125Y18189D1*
X26062D1*
X25062Y19189D1*
X24624D1*
X24062Y19752D1*
X18561D1*
X18311Y19502D1*
X101940Y18885D2*
D17*
Y21190D1*
X91940Y18885D2*
Y21190D1*
X81940Y18885D2*
Y21190D1*
X71940Y18885D2*
Y21190D1*
X54816Y22190D2*
D16*
Y21952D1*
D18*
Y21928D1*
D16*
Y21690D1*
X54196D1*
Y21190D1*
Y20690D1*
X54816D1*
Y21190D2*
X54196D1*
X71940Y16940D2*
D17*
Y15690D1*
Y5440D2*
X71440D1*
X81940Y16940D2*
Y15690D1*
Y5440D2*
X82440D1*
X91940Y16940D2*
Y15690D1*
Y5440D2*
X92190D1*
X101940Y16940D2*
Y15690D1*
Y5440D2*
X102690D1*
X54816Y6440D2*
D16*
Y6202D1*
D18*
Y6178D1*
D16*
Y5940D1*
Y5440D2*
X53928D1*
Y5140D1*
X54128Y4940D1*
X54816D1*
Y6440D2*
D14*
Y6402D1*
X102940Y18885D2*
D17*
Y20190D1*
Y22440D2*
X102440D1*
X92940Y18885D2*
Y20190D1*
Y22440D2*
X92190D1*
X82940Y18885D2*
Y20190D1*
Y22440D2*
X82440D1*
X72940Y18885D2*
Y20190D1*
Y22440D2*
X72190D1*
X58816Y23440D2*
D16*
Y23202D1*
D18*
Y23178D1*
D16*
Y22940D1*
X58116D1*
Y22440D1*
Y21940D1*
X58816D1*
Y22440D2*
X58116D1*
X72940Y16940D2*
D17*
Y15690D1*
Y6690D2*
X73440D1*
X82940Y16940D2*
Y15690D1*
Y6690D2*
X83690D1*
X92940Y16940D2*
Y15690D1*
Y6690D2*
X93440D1*
X102940Y16940D2*
Y15690D1*
Y6690D2*
X103440D1*
X58816Y7690D2*
D16*
Y7452D1*
D18*
Y7428D1*
D16*
Y7190D1*
X58116D1*
Y6690D1*
Y6190D1*
X58816D1*
Y6690D2*
X58116D1*
X103940Y18890D2*
D17*
Y20190D1*
Y23690D2*
X103440D1*
X93940Y18890D2*
Y20190D1*
Y23690D2*
X93440D1*
X83940Y18890D2*
Y20190D1*
Y23690D2*
X83440D1*
X73940Y18890D2*
Y20190D1*
Y23690D2*
X73440D1*
X62816Y24690D2*
D16*
Y24452D1*
D18*
Y24428D1*
D16*
Y24190D1*
X62234D1*
Y23690D1*
Y23190D1*
X62816D1*
Y23690D2*
X62234D1*
X73940Y16940D2*
D17*
Y15690D1*
Y7940D2*
X74690D1*
X83940Y16940D2*
Y15690D1*
Y7940D2*
X84440D1*
X93940Y16940D2*
Y15690D1*
Y7940D2*
X94690D1*
X103940Y16940D2*
Y15690D1*
Y7940D2*
X104440D1*
X62816Y8940D2*
D16*
Y8702D1*
D18*
Y8678D1*
D16*
Y8440D1*
Y7940D2*
D18*
X62116D1*
Y8678D1*
X62816D1*
X62116Y7940D2*
D16*
Y7440D1*
X62816D1*
X104940Y18890D2*
D17*
Y20190D1*
Y25190D2*
X104440D1*
X94940Y18890D2*
Y20190D1*
Y25190D2*
X94440D1*
X84940Y18890D2*
Y20190D1*
Y25190D2*
X84440D1*
X74940Y18890D2*
Y20190D1*
Y25190D2*
X74190D1*
X66816Y25440D2*
D16*
X66118D1*
D18*
Y24940D1*
D16*
Y24440D1*
X66816D1*
X66118Y25440D2*
Y25940D1*
X66816D1*
Y24940D2*
X66118D1*
X74940Y16940D2*
D17*
Y15690D1*
Y9440D2*
X75440D1*
X84940Y16940D2*
Y15690D1*
Y9440D2*
X85440D1*
X94940Y16940D2*
Y15690D1*
Y9440D2*
X95190D1*
X104940Y16940D2*
Y15690D1*
Y9440D2*
X105440D1*
X66816Y9190D2*
D18*
X66234D1*
Y9690D1*
X66816D1*
X66234D2*
D16*
Y10190D1*
X66816D1*
X66234Y9190D2*
Y8690D1*
X66816D1*
X105940Y18890D2*
D17*
Y20190D1*
Y26690D2*
X105440D1*
X95940Y18890D2*
Y20190D1*
Y26690D2*
X95440D1*
X85940Y18890D2*
Y20190D1*
Y26690D2*
X85190D1*
X75940Y18890D2*
Y20190D1*
Y26690D2*
X75190D1*
X54816Y27690D2*
D16*
Y27452D1*
D18*
Y27428D1*
D16*
Y27190D1*
Y27428D2*
X54072D1*
Y26690D1*
Y26190D1*
X54816D1*
Y26690D2*
X54072D1*
X75940Y16940D2*
D17*
Y15690D1*
Y10940D2*
X76190Y11190D1*
X76940D1*
X85940Y16940D2*
Y15690D1*
Y10940D2*
X86440D1*
X95940Y16940D2*
Y15690D1*
Y10940D2*
X96440D1*
X105940Y16940D2*
Y15690D1*
Y10940D2*
X106440D1*
X54816Y11940D2*
D16*
Y11702D1*
D18*
Y11678D1*
D16*
Y11440D1*
X54133D1*
Y10940D1*
Y10440D1*
X54816D1*
Y10940D2*
X54133D1*
X106940Y18890D2*
D17*
Y20190D1*
Y27940D2*
X106440D1*
X96940Y18890D2*
Y20190D1*
Y27940D2*
X96190D1*
X86940Y18890D2*
Y20190D1*
Y27940D2*
X86440D1*
X76940Y18890D2*
Y20190D1*
Y27940D2*
X75940D1*
X58816Y28940D2*
D16*
Y28702D1*
D18*
Y28678D1*
D16*
Y28440D1*
X58234D1*
Y27940D1*
Y27440D1*
X58816D1*
Y27940D2*
X58234D1*
X76940Y16940D2*
D17*
Y15690D1*
Y12190D2*
X77190D1*
X86940Y16940D2*
Y15690D1*
Y12190D2*
X87940D1*
X96940Y16940D2*
Y15690D1*
Y12190D2*
X97190D1*
X106940Y16940D2*
Y15690D1*
Y12190D2*
X107440D1*
X58816Y13190D2*
D16*
Y12952D1*
D18*
Y12928D1*
D16*
Y12690D1*
X58116D1*
Y12190D1*
Y11690D1*
X58816D1*
Y12190D2*
X58116D1*
X107940Y18885D2*
D17*
Y20190D1*
Y29190D2*
X107440D1*
X97940Y18885D2*
Y20190D1*
Y29190D2*
X97440D1*
X87940Y18885D2*
Y20190D1*
Y29190D2*
X87440D1*
X77940Y18885D2*
Y20190D1*
Y29190D2*
X77190D1*
X62816Y30190D2*
D16*
Y29952D1*
D18*
Y29928D1*
D16*
Y29690D1*
X62234D1*
Y29190D1*
Y28690D1*
X62816D1*
Y29190D2*
X62234D1*
X77940Y16945D2*
D17*
Y15690D1*
Y13440D2*
X78440D1*
X87940Y16945D2*
Y15690D1*
Y13440D2*
X88440D1*
X97940Y16945D2*
Y15690D1*
Y13440D2*
X98440D1*
X107940Y16945D2*
Y15690D1*
Y13440D2*
X108440D1*
X62816Y14440D2*
D16*
Y14202D1*
D18*
Y14178D1*
D16*
Y13940D1*
X61853Y13560D2*
X61974Y13440D1*
X62234D1*
Y12940D1*
X62816D1*
Y13440D2*
X62234D1*
X62816Y14440D2*
D14*
Y14402D1*
X108940Y18890D2*
D17*
Y20190D1*
Y30690D2*
X108190D1*
X98940Y18890D2*
Y20190D1*
Y30690D2*
X98190D1*
X88940Y18890D2*
Y20190D1*
Y30690D2*
X88440D1*
X78940Y18890D2*
Y20190D1*
Y30690D2*
X78440D1*
X66816Y31440D2*
D16*
X66234D1*
Y30940D1*
Y30440D1*
Y29940D1*
X66816D1*
X66234Y30440D2*
X66816D1*
Y30940D2*
X66234D1*
X88940Y16945D2*
D17*
Y14940D1*
X78940Y16945D2*
Y14690D1*
X98940Y16945D2*
Y14690D1*
X99190D1*
X108940Y16945D2*
Y14690D1*
X66816Y15690D2*
D16*
Y15452D1*
D18*
Y15428D1*
D16*
Y15190D1*
Y14690D2*
X65974D1*
X65853Y14810D1*
X65935Y14215D2*
X65960Y14190D1*
X66816D1*
Y15690D2*
D14*
Y15652D1*
X6440Y57440D2*
X5127D1*
X4627Y56940D1*
Y35503D1*
X5625Y34505D1*
X9940D1*
X6440Y57440D2*
X7127D1*
X7877Y56690D1*
X9127D1*
X9877Y57440D1*
X11440D1*
X11690Y57190D1*
X12190D1*
X12315Y57315D1*
X12752D1*
X12877Y57190D1*
X15002D1*
X15252Y57440D1*
X16940D1*
X18190D1*
X18440Y57190D1*
X20190D1*
X20440Y57440D1*
X21440D1*
X22877D1*
X23127Y57190D1*
X24752D1*
X25002Y57440D1*
X25940D1*
X26877D1*
X27127Y57190D1*
X29002D1*
X29252Y57440D1*
X30440D1*
X31815D1*
X32065Y57190D1*
X33810D1*
X34060Y57440D1*
X35940D1*
X70120D2*
X71440D1*
X75940D2*
X77229D1*
X77452Y57663D1*
X78989D1*
X79489Y58163D1*
X80939D1*
Y57440D1*
X81104Y57605D1*
Y57773D1*
X81800D1*
X81910Y57663D1*
X83065D1*
X83288Y57440D1*
X85440D1*
X45470D2*
X46440D1*
X35940D2*
X37276D1*
X37499Y57663D1*
X38899D1*
X39481Y58245D1*
X40276D1*
X85440Y57440D2*
X86713D1*
X86936Y57663D1*
X88452D1*
X88952Y58163D1*
X90939D1*
X91079Y58023D1*
Y57717D1*
Y57580D1*
X90939Y57440D1*
X90440D1*
X106961D2*
X105940D1*
X46440D2*
X47745D1*
X47968Y57663D1*
X49189D1*
X49689Y58163D1*
X51439D1*
X51579Y58023D1*
Y57663D1*
X53565D1*
X53788Y57440D1*
X55440D1*
X119940D2*
X120439D1*
Y58163D1*
X118329D1*
X117829Y57663D1*
X116724D1*
X116501Y57440D1*
X115190D1*
X64845D2*
X65940D1*
X40276D2*
X40940D1*
X91079Y57717D2*
X94499D1*
X80939Y57440D2*
X80440D1*
X71440D2*
X71939D1*
Y57523D1*
X72079Y57663D1*
X74316D1*
X74539Y57440D1*
X75940D1*
X55440D2*
X56399D1*
X51579Y57663D2*
X51439Y57523D1*
Y57440D1*
X50940D1*
X94499Y57717D2*
X95053Y57163D1*
X96579D1*
Y57440D1*
X95940D1*
X103789Y57663D2*
X102499D1*
X101999Y58163D1*
X101439D1*
Y57440D1*
X100940D1*
X105940D2*
X103872D1*
Y57579D1*
X103789Y57663D1*
X115190Y57440D2*
X112788D1*
X112565Y57663D1*
X110579D1*
X110439Y57523D1*
Y57440D1*
X109940D1*
X61104Y57772D2*
Y57640D1*
X60904Y57440D1*
X60440D1*
X109940D2*
D3*
X75034Y57940D2*
X75940D1*
X53995D2*
X55440D1*
X22574Y43248D2*
X35359D1*
X35416Y43190D1*
X53617D1*
X53995Y43568D1*
X6440Y57940D2*
X4628D1*
X4253Y57565D1*
Y34377D1*
X6878Y31752D1*
X14190D1*
X15940Y33503D1*
Y33505D1*
X84776Y57940D2*
X85440D1*
X16940D2*
X15440D1*
X13940Y35940D2*
X14315Y35565D1*
X18690D1*
X19750Y34505D1*
X19940D1*
X34723Y57940D2*
X35940D1*
X15940Y42943D2*
X34723D1*
X33010Y35280D2*
X25545D1*
X25405Y35140D1*
Y34040D1*
X25940Y33505D1*
X104177Y57940D2*
X105940D1*
X25940D2*
X25003D1*
X24940Y57877D1*
X24690D1*
X23190Y36565D2*
X21815D1*
X21503Y36253D1*
Y34815D1*
X21440Y34753D1*
Y34003D1*
X20942Y33505D1*
X20940D1*
X19405Y32600D2*
X17845D1*
X16940Y33505D1*
X65276Y57940D2*
X65940D1*
X33480Y34975D2*
X26410D1*
X25940Y34505D1*
X113957Y57940D2*
X115190D1*
X45775Y58553D2*
Y58080D1*
X45915Y57940D1*
X46440D1*
X96996Y57787D2*
X95940D1*
Y57940D1*
X30940Y5940D2*
D19*
X30192D1*
X30190D2*
X31502Y4628D1*
X45507D1*
X45878D1*
X48690Y7440D1*
Y9440D1*
X9190Y62690D2*
X9940Y61940D1*
X12546D1*
X12940D1*
X17982D1*
X18440D1*
X22520D1*
X22940D1*
X27035D1*
X27440D1*
X31549D1*
X31940D1*
X37002D1*
X37440D1*
X41877D1*
X42440D1*
X47502D1*
X47940D1*
X51977D1*
X52440D1*
X56537D1*
X56940D1*
X61485D1*
X61940D1*
X64544D1*
X66965D1*
X67440D1*
X72388D1*
X72940D1*
X76942D1*
X77440D1*
X81318D1*
X81940D1*
X86470D1*
X86940D1*
X91402D1*
X91940D1*
X97047D1*
X97440D1*
X102024D1*
X102440D1*
X106957D1*
X107440D1*
X110988D1*
X111440D1*
X116258D1*
X116690D1*
X119190D1*
X119940Y62690D1*
X64544Y61940D2*
X64440Y61836D1*
Y31190D1*
X64690Y30940D1*
X8566Y58440D2*
X7940Y59066D1*
Y61190D1*
X9190Y62440D1*
Y62690D1*
X13566Y58440D2*
X12546Y59460D1*
Y61940D1*
X19066Y58440D2*
X17982Y59524D1*
Y61940D1*
X12940Y62690D2*
Y61940D1*
X18440Y62690D2*
Y61940D1*
X22940Y62690D2*
Y61940D1*
X27440Y62690D2*
Y61940D1*
X31940Y62690D2*
Y61940D1*
X23566Y58440D2*
X22520Y59486D1*
Y61940D1*
X28066Y58440D2*
X27035Y59471D1*
Y61940D1*
X32566Y58440D2*
X31549Y59457D1*
Y61940D1*
X116690Y62690D2*
Y61940D1*
X111440Y62690D2*
Y61940D1*
X107440Y62690D2*
Y61940D1*
X102440Y62690D2*
Y61940D1*
X97440Y62690D2*
Y61940D1*
X91940Y62690D2*
Y61940D1*
X86940Y62690D2*
Y61940D1*
X81940Y62690D2*
Y61940D1*
X77440Y62690D2*
Y61940D1*
X72940Y62690D2*
Y61940D1*
X67440Y62690D2*
Y61940D1*
X61940Y62690D2*
Y61940D1*
X56940Y62690D2*
Y61940D1*
X52440Y62690D2*
Y61940D1*
X47940Y62690D2*
Y61940D1*
X42440Y62690D2*
Y61940D1*
X37440Y62690D2*
Y61940D1*
X38066Y58440D2*
X37002Y59503D1*
Y61940D1*
X43066Y58440D2*
X42879D1*
X41877Y59442D1*
Y61940D1*
X48566Y58440D2*
X47502Y59504D1*
Y61940D1*
X53066Y58440D2*
X51977Y59529D1*
Y61940D1*
X57566Y58440D2*
X56537Y59469D1*
Y61940D1*
X62566Y58440D2*
X61485Y59521D1*
Y61940D1*
X68066Y58440D2*
X66965Y59541D1*
Y61940D1*
X73566Y58440D2*
X72625Y59381D1*
X72504D1*
X72388Y59497D1*
Y61940D1*
X78066Y58440D2*
X77125Y59381D1*
X77067D1*
X76942Y59506D1*
Y61940D1*
X82566Y58440D2*
X81938Y59068D1*
X81693D1*
X81318Y59443D1*
Y61940D1*
X87566Y58440D2*
X86470Y59536D1*
Y61940D1*
X92566Y58440D2*
X92063Y58943D1*
X91631D1*
X91402Y59173D1*
Y61940D1*
X98066Y58440D2*
X97047Y59459D1*
Y61940D1*
X103066Y58440D2*
X102024Y59482D1*
Y61940D1*
X108066Y58440D2*
X106957Y59549D1*
Y61940D1*
X112066Y58440D2*
X110988Y59518D1*
Y61940D1*
X117316Y58440D2*
X116258Y59498D1*
Y61940D1*
X122066Y58440D2*
X121322Y59184D1*
Y60256D1*
X119940Y61638D1*
Y62690D1*
X56690Y22440D2*
X56895D1*
Y22228D1*
X57610D1*
X61465Y29683D2*
Y29072D1*
X48395Y30675D2*
Y29683D1*
X56690Y12190D2*
Y11978D1*
X57465D1*
X64690Y24940D2*
X64895D1*
Y24728D1*
X65465D1*
X60690Y7940D2*
X60895D1*
Y7728D1*
X61465D1*
X57465Y6478D2*
X56895D1*
Y6690D1*
X56690D1*
X64690Y9190D2*
X64895D1*
Y8978D1*
X65465D1*
X64690Y14690D2*
X64895D1*
Y14478D1*
X65465D1*
X44127Y41628D2*
X44022D1*
Y40638D1*
X43882Y40498D1*
Y40398D1*
X44152Y40128D1*
X44753D1*
X45507Y4628D2*
Y4898D1*
X61465Y13170D2*
X61407Y13228D1*
X60895D1*
Y13440D1*
X60690D1*
X37565Y40128D2*
X36672D1*
X36274Y40527D1*
X32546D1*
X32148Y40128D1*
X30003D1*
X38450Y40473D2*
Y40328D1*
X38250Y40128D1*
X37565D1*
X38066Y58440D2*
Y58422D1*
X37422D1*
X37222Y58222D1*
Y57968D1*
X43882Y40498D2*
X41422D1*
X61465Y29072D2*
X61408Y29015D1*
X60690D1*
Y29190D1*
X32940Y5940D2*
D13*
X32192D1*
X8940Y13940D2*
X8565Y14315D1*
Y17690D1*
X9940Y19065D1*
X22690D1*
X23940Y17815D1*
Y17435D1*
X36440Y24940D2*
X37588D1*
Y25315D1*
Y26878D1*
X32940Y5940D2*
X33940Y4940D1*
X43440D1*
X44440Y5940D1*
Y9440D1*
X43190Y10690D1*
X35127Y27088D2*
D14*
X32560Y24520D1*
Y24465D1*
X8566Y56940D2*
X8503Y56877D1*
X7878D1*
X7065Y57690D1*
X5127D1*
X4440Y57003D1*
Y34815D1*
X5253Y34003D1*
X11252D1*
X11750Y33505D1*
X11940D1*
X13566Y56940D2*
X12565D1*
X12503Y57690D2*
X9877D1*
X9127Y56940D1*
X8566D1*
X19066D2*
X17878D1*
X17628Y57190D1*
X15252D1*
X15002Y56940D1*
X13566D1*
X19066D2*
X20252D1*
X20502Y57190D1*
X22190D1*
X22440Y56940D1*
X23566D1*
X78066D2*
X78565D1*
Y56857D1*
X78705Y56717D1*
X81297D1*
X81520Y56940D1*
X82566D1*
X94941Y56498D2*
X95160Y56717D1*
X97335D1*
X97558Y56940D1*
X98066D1*
X122066D2*
X121566D1*
X121289Y56663D1*
X118092D1*
X117815Y56940D1*
X117316D1*
X73566D2*
X74065D1*
Y56857D1*
Y56663D1*
X69175D1*
X82566Y56940D2*
X83413D1*
X83690Y56663D1*
X88065D1*
Y56940D1*
X88426D1*
X88703Y56663D1*
X91115D1*
X91280Y56498D1*
X78565Y56857D2*
Y56717D1*
X74205D1*
X74065Y56857D1*
X103066Y56940D2*
X104489D1*
X104712Y56717D1*
X108565D1*
Y56857D1*
Y56940D1*
X108066D1*
X91280Y56498D2*
X91445Y56663D1*
X91766D1*
X92043Y56940D1*
X92566D1*
X88065D2*
X87566D1*
X62566D2*
X63230D1*
X117316D2*
Y56717D1*
X112705D1*
X112565Y56857D1*
Y56940D1*
X112066D1*
X98066D2*
X99660D1*
X99883Y56717D1*
X102112D1*
X102335Y56940D1*
X103066D1*
X108565Y56857D2*
X108705Y56717D1*
X112565D1*
Y56857D1*
X69175Y56663D2*
X68851D1*
X68574Y56940D1*
X68066D1*
X23566D2*
X23569Y56943D1*
X24874D1*
X25124Y57193D1*
X26562D1*
X26815Y56940D1*
X28066D1*
X28069Y56943D1*
X29187D1*
X29437Y57193D1*
X31062D1*
X31315Y56940D1*
X32566D1*
X32569Y56943D1*
X33875D1*
X34125Y57193D1*
X36813D1*
X37066Y56940D1*
X38066D1*
X38194Y57068D1*
X40376D1*
X40501Y57193D1*
X41438D1*
X41691Y56940D1*
X43066D1*
X43319Y57193D1*
X43626D1*
X43689Y57130D1*
X45814D1*
X45876Y57193D1*
X47126D1*
X47379Y56940D1*
X48566D1*
X48569Y56943D1*
X49314D1*
X49564Y57193D1*
X51439D1*
X51627Y57005D1*
X52064D1*
X52130Y56940D1*
X53066D1*
X53319Y57193D1*
X56065D1*
X56318Y56940D1*
X57566D1*
X57569Y56943D1*
X59190D1*
X59440Y57193D1*
X60940D1*
X61003Y57255D1*
X61816D1*
X62131Y56940D1*
X62566D1*
X5940Y46385D2*
Y47440D1*
X7440Y48940D1*
X7940D1*
X8315Y49315D1*
Y52753D1*
X8502Y52940D1*
X8853D1*
X5940Y44440D2*
Y44690D1*
X6440Y45190D1*
Y47440D1*
X7440Y48440D1*
X8752D1*
X9440Y52378D2*
X9378Y52440D1*
X8853D1*
X6940Y46385D2*
Y47440D1*
X7628Y48128D1*
X9253D1*
X9815Y51752D2*
X9627Y51940D1*
X8853D1*
X6940Y44440D2*
Y44940D1*
X7440Y45440D1*
Y47315D1*
X7690Y47565D1*
X8128D1*
X8315Y47752D1*
X10127Y51315D2*
X10002Y51440D1*
X8853D1*
X7940Y46390D2*
X8115D1*
X8440Y46065D1*
Y45440D1*
X10440Y50877D2*
X10627D1*
Y50940D1*
X8853D1*
X7940Y44440D2*
Y43440D1*
X8167Y43213D1*
X10752Y50440D2*
X8853D1*
X8940Y46390D2*
X9115D1*
X9503Y46002D1*
Y45440D1*
X11127Y49940D2*
X8853D1*
X8940Y44440D2*
Y43502D1*
X9815Y42627D1*
X10252D1*
X11440Y49440D2*
X8853D1*
X9940Y46390D2*
Y48315D1*
X10753Y49128D1*
X12440D1*
X13628Y50315D1*
Y52628D1*
X14003Y53003D1*
X15041D1*
Y52503D2*
X14003D1*
X13815Y52315D1*
Y50253D1*
X12440Y48878D1*
X11128D1*
X10503Y48252D1*
Y45815D1*
X9940Y45253D1*
Y44440D1*
X10940Y46390D2*
Y47815D1*
X11753Y48628D1*
X12503D1*
X14002Y50127D1*
Y51815D1*
X14190Y52003D1*
X15041D1*
Y51503D2*
X14503D1*
X14190Y51190D1*
Y49940D1*
X12628Y48378D1*
X12128D1*
X11377Y47627D1*
Y45190D1*
X10940Y44752D1*
Y44440D1*
X11940Y46385D2*
Y47315D1*
X14377Y49753D1*
Y50690D1*
X14690Y51003D1*
X15041D1*
X11940Y44445D2*
Y44065D1*
X12565Y43440D1*
X13752D1*
X14065Y43753D1*
Y46627D1*
X15628Y48190D1*
Y50377D1*
X15502Y50503D1*
X15041D1*
Y50003D2*
X15002Y49964D1*
Y49753D1*
X14628D1*
X12940Y48065D1*
Y46390D1*
Y44445D2*
X13565Y45070D1*
Y48128D1*
X14940Y49503D1*
X15041D1*
X8542Y59940D2*
X9190Y59292D1*
Y58190D1*
X8940Y57940D1*
X8566D1*
X13566D2*
X13940D1*
X14190Y58190D1*
Y58690D1*
X13042Y59838D1*
Y59940D1*
X6440Y56440D2*
X7065D1*
X7565Y55940D1*
Y53627D1*
X6878Y52940D1*
X5940D1*
X6440Y55940D2*
X7128D1*
X7378Y55690D1*
Y53690D1*
X6940Y53252D1*
X5502D1*
X5378Y53128D1*
Y52502D1*
X5440Y52440D1*
X5940D1*
X6440Y55440D2*
X7003D1*
X7190Y55253D1*
Y54065D1*
X6627Y53502D1*
X5565D1*
X5190Y53128D1*
Y52315D1*
X5565Y51940D1*
X5940D1*
X6440Y54940D2*
X6940D1*
X7002Y54877D1*
Y54315D1*
X6440Y53752D1*
X5377D1*
X5002Y53377D1*
Y51940D1*
X5502Y51440D1*
X5940D1*
Y50940D2*
X7253D1*
X7565Y51252D1*
Y53378D1*
X7752Y53565D1*
Y53627D1*
X7815Y53690D1*
Y54878D1*
X7877Y54940D1*
X8566D1*
Y55440D2*
X9127D1*
Y54002D1*
X8815Y53690D1*
X8065D1*
X7752Y53377D1*
Y50690D1*
X7502Y50440D1*
X5940D1*
Y49940D2*
X7752D1*
X7940Y50128D1*
Y53252D1*
X8190Y53502D1*
X8877D1*
X9378Y54003D1*
Y55815D1*
X9253Y55940D1*
X8566D1*
Y56440D2*
X9940D1*
X10252Y56128D1*
Y54565D1*
X9002Y53315D1*
X8315D1*
X8127Y53127D1*
Y49752D1*
X7815Y49440D1*
X5940D1*
X11440Y56440D2*
X12065D1*
X12377Y56128D1*
Y53003D1*
X12128D1*
X11440Y55940D2*
X12003D1*
X12190Y55753D1*
Y54627D1*
X11815Y54252D1*
X11502D1*
X11252Y54002D1*
Y52878D1*
X11628Y52503D1*
X12128D1*
X11440Y55440D2*
X12003D1*
Y54753D1*
X11720Y54470D1*
X11157D1*
X10815Y54128D1*
Y52565D1*
X11378Y52003D1*
X12128D1*
X11440Y54940D2*
X10815D1*
X10440Y54565D1*
Y52565D1*
X11503Y51503D1*
X12128D1*
Y51003D2*
X12190Y51065D1*
X12627D1*
X12752Y51190D1*
Y54377D1*
X13315Y54940D1*
X13566D1*
X12128Y50503D2*
X12690D1*
X12940Y50752D1*
Y54253D1*
X13252Y54565D1*
X13940D1*
X14128Y54753D1*
Y55127D1*
X13815Y55440D1*
X13566D1*
Y55940D2*
X14190D1*
X14315Y55815D1*
Y54690D1*
X13993Y54368D1*
X13681D1*
X13190Y53877D1*
Y50565D1*
X12628Y50003D1*
X12128D1*
Y49503D2*
X12503D1*
X13440Y50440D1*
Y53815D1*
X13752Y54128D1*
X14127D1*
X14502Y54503D1*
Y56065D1*
X14127Y56440D1*
X13566D1*
X8566Y57440D2*
X9315D1*
X9815Y57940D1*
X11440D1*
X16940Y56440D2*
X16877Y56503D1*
X16315D1*
X15815Y56003D1*
Y48315D1*
X15940Y48190D1*
Y46385D1*
Y44440D2*
X16440Y44940D1*
Y48315D1*
X16002Y48753D1*
Y55377D1*
X16565Y55940D1*
X16940D1*
Y55440D2*
X16377D1*
X16190Y55253D1*
Y49190D1*
X16940Y48440D1*
Y46385D1*
Y44440D2*
X17440Y44940D1*
Y48502D1*
X16940Y49002D1*
Y54940D1*
X17940Y46390D2*
Y53565D1*
X19066Y54691D1*
Y54940D1*
X17940Y44440D2*
X18440Y44940D1*
Y50690D1*
X19627Y51877D1*
Y55190D1*
X19378Y55440D1*
X19066D1*
Y55940D2*
X19753D1*
X19878Y55815D1*
Y50940D1*
X18940Y50003D1*
Y46390D1*
Y44440D2*
X19440Y44940D1*
Y49128D1*
X20127Y49815D1*
Y55940D1*
X19628Y56440D1*
X19066D1*
X21440D2*
X21377Y56377D1*
X20565D1*
X20315Y56128D1*
Y49190D1*
X19940Y48815D1*
Y46390D1*
Y44440D2*
X20565Y45065D1*
Y50940D1*
X20502Y51003D1*
Y55752D1*
X20690Y55940D1*
X21440D1*
Y55440D2*
X20878D1*
X20690Y55252D1*
Y51315D1*
X20940Y51065D1*
Y46390D1*
Y44440D2*
X21315Y44815D1*
Y54940D1*
X21440D1*
X21940Y46385D2*
X22503Y46948D1*
Y54440D1*
X23003Y54940D1*
X23566D1*
X21940Y44445D2*
X21907Y43714D1*
X21532Y44709D1*
Y54032D1*
X22940Y55440D1*
X23566D1*
X22940Y46390D2*
Y53628D1*
X24252Y54940D1*
Y55565D1*
X23877Y55940D1*
X23566D1*
Y56440D2*
X24128D1*
X24440Y56128D1*
Y54378D1*
X23565Y53503D1*
Y45190D1*
X22940Y44565D1*
Y44445D1*
X18542Y59940D2*
X19565Y58917D1*
Y58190D1*
X19315Y57940D1*
X19066D1*
X23042Y59940D2*
X24190Y58792D1*
Y58253D1*
X23877Y57940D1*
X23566D1*
X19066Y57440D2*
X20065D1*
X20565Y57940D1*
X21440D1*
X25940Y46385D2*
X24628Y47697D1*
Y56065D1*
X25002Y56440D1*
X25940D1*
Y55940D2*
X25190D1*
X24815Y55565D1*
Y48065D1*
X25440Y47440D1*
X26065D1*
X26315Y47190D1*
Y45128D1*
X25940Y44753D1*
Y44440D1*
X26940Y46385D2*
X26877Y46448D1*
Y47628D1*
X25065Y49440D1*
Y55190D1*
X25315Y55440D1*
X25940D1*
X26940Y44440D2*
X27315Y44815D1*
Y47815D1*
X25940Y49190D1*
Y54940D1*
X27940Y46390D2*
X28066Y46516D1*
Y54940D1*
X27940Y44440D2*
X27503Y44877D1*
Y54377D1*
X27315Y54565D1*
Y55190D1*
X27565Y55440D1*
X28066D1*
X28940Y46390D2*
X28565D1*
Y55690D1*
X28315Y55940D1*
X28066D1*
Y56440D2*
X28565D1*
X28753Y56253D1*
Y48127D1*
X29377Y47503D1*
Y45627D1*
X28940Y45190D1*
Y44440D1*
X29940Y46390D2*
X29877Y46453D1*
Y47503D1*
X28940Y48440D1*
Y56003D1*
X29377Y56440D1*
X30440D1*
Y55940D2*
X29628D1*
X29190Y55502D1*
Y50315D1*
X30378Y49128D1*
Y45190D1*
X29940Y44752D1*
Y44440D1*
X30440Y55440D2*
X29752D1*
X29377Y55065D1*
Y51565D1*
X30940Y50003D1*
Y46390D1*
Y44440D2*
X31315Y44815D1*
Y50315D1*
X30440Y51190D1*
Y54940D1*
X32566D2*
X31940Y54314D1*
Y46385D1*
Y44445D2*
X31502Y44883D1*
Y55252D1*
X31690Y55440D1*
X32566D1*
X32940Y46390D2*
X33065Y46515D1*
Y55628D1*
X32753Y55940D1*
X32566D1*
Y56440D2*
X33065D1*
X33315Y56190D1*
Y45190D1*
X32940Y44815D1*
Y44445D1*
X27542Y59940D2*
X28753Y58730D1*
Y58440D1*
X28253Y57940D1*
X28066D1*
X32042Y59940D2*
X33190Y58792D1*
Y58315D1*
X32815Y57940D1*
X32566D1*
X28066Y57440D2*
X28877D1*
X29377Y57940D1*
X30440D1*
X38353Y52940D2*
X37139D1*
X36999Y52800D1*
Y50052D1*
X35940Y48994D1*
Y46385D1*
X38353Y52440D2*
X38852D1*
Y51163D1*
X37575D1*
X37435Y51023D1*
Y43750D1*
X37295Y43610D1*
X35940D1*
Y44440D1*
X38353Y51940D2*
X37279D1*
X37139Y51800D1*
Y46385D1*
X36940D1*
X38353Y51440D2*
X37435D1*
X37295Y51300D1*
Y45410D1*
X37155Y45270D1*
X36940D1*
Y44440D1*
X38353Y50940D2*
X37855D1*
Y46390D1*
X37940D1*
X38353Y50440D2*
X39155D1*
X39295Y50300D1*
Y43610D1*
X39155Y43470D1*
X37940D1*
Y44440D1*
X38353Y49940D2*
X38940D1*
Y46390D1*
X38353Y49440D2*
Y45410D1*
X38493Y45270D1*
X38940D1*
Y44440D1*
X43353Y52940D2*
X41944D1*
X41804Y52800D1*
Y50803D1*
X41664Y50663D1*
X39865D1*
Y50303D1*
X40005Y50163D1*
X40939D1*
Y49077D1*
X39940Y48078D1*
Y46390D1*
X43353Y52440D2*
X43852D1*
Y43610D1*
X43712Y43470D1*
X39940D1*
Y44440D1*
X43353Y51940D2*
X42224D1*
X42084Y51800D1*
Y49521D1*
X40940Y48377D1*
Y46390D1*
X43353Y51440D2*
X42364D1*
X42224Y51300D1*
Y48469D1*
X41295Y47540D1*
Y45410D1*
X41155Y45270D1*
X40940D1*
Y44440D1*
X43353Y50940D2*
X42504D1*
X42364Y50800D1*
Y47760D1*
X41940Y47337D1*
Y46385D1*
X43353Y50440D2*
X42644D1*
X42504Y50300D1*
Y45415D1*
X42364Y45275D1*
X41940D1*
Y44445D1*
X43353Y49940D2*
X42855D1*
Y46390D1*
X42940D1*
X43353Y49440D2*
Y45415D1*
X43213Y45275D1*
X42940D1*
Y44445D1*
X37542Y59940D2*
X38628Y58855D1*
Y58190D1*
X38378Y57940D1*
X38066D1*
X42440Y59940D2*
X43564Y58816D1*
Y58131D1*
X43373Y57940D1*
X43066D1*
X35940Y56440D2*
X34941D1*
X34801Y56300D1*
Y52940D1*
X35440D1*
X35940Y55940D2*
X35441D1*
X35301Y55800D1*
Y54236D1*
X35939Y53598D1*
Y52440D1*
X35440D1*
X35940Y55440D2*
X35441D1*
Y54577D1*
X36079Y53939D1*
Y52080D1*
X35939Y51940D1*
X35440D1*
X35940Y54940D2*
X36439D1*
Y51580D1*
X36299Y51440D1*
X35440D1*
Y50940D2*
X36579D1*
X36719Y51080D1*
Y54800D1*
X36859Y54940D1*
X38066D1*
Y55440D2*
X38565D1*
Y54607D1*
X38425Y54466D1*
X36999D1*
X36859Y54326D1*
Y50580D1*
X36719Y50440D1*
X35440D1*
X38066Y55940D2*
X36719D1*
X36579Y55800D1*
Y51303D1*
X36439Y51163D1*
X34941D1*
X34801Y51023D1*
Y49940D1*
X35440D1*
X38066Y56440D2*
X37054D1*
X36831Y56663D1*
X34801D1*
X34661Y56523D1*
Y49580D1*
X34801Y49440D1*
X35440D1*
X40940Y56440D2*
X40005D1*
X39865Y56300D1*
Y52940D1*
X40440D1*
X40940Y55940D2*
X40441D1*
X40301Y55800D1*
Y53744D1*
X40939Y53107D1*
Y52440D1*
X40440D1*
X41219Y54048D2*
Y52080D1*
X41079Y51940D1*
X40440D1*
X41604Y55245D2*
X41409Y55440D1*
X40940D1*
Y54940D2*
X41524D1*
Y51580D1*
X41384Y51440D1*
X40440D1*
X43066Y54940D2*
X41804D1*
X41664Y54800D1*
Y51080D1*
X41524Y50940D1*
X40440D1*
X43066Y55440D2*
X43712D1*
X43852Y55300D1*
Y52663D1*
X42084D1*
X41944Y52523D1*
Y50580D1*
X41804Y50440D1*
X40440D1*
X43066Y55940D2*
X41602D1*
X41325Y55663D1*
X40441D1*
Y54203D1*
X41079Y53566D1*
Y52303D1*
X40939Y52163D1*
X39865D1*
X39725Y52023D1*
Y50080D1*
X39865Y49940D1*
X40440D1*
X43066Y56440D2*
X43992D1*
X44132Y56300D1*
Y43470D1*
X43992Y43330D1*
X39725D1*
X39585Y43470D1*
Y49300D1*
X39725Y49440D1*
X40440D1*
X38066Y57440D2*
X39463D1*
X39963Y57940D1*
X40940D1*
X46440Y56440D2*
X45940D1*
Y46385D1*
X46440Y55940D2*
X47155D1*
X47295Y55800D1*
Y43610D1*
X47155Y43470D1*
X45940D1*
Y44440D1*
X46440Y55440D2*
X46940D1*
Y46385D1*
X46440Y54940D2*
Y45410D1*
X46580Y45270D1*
X46940D1*
Y44440D1*
X48566Y54940D2*
X47940D1*
Y46390D1*
X48566Y55440D2*
X49155D1*
X49295Y55300D1*
Y43610D1*
X47940D1*
Y44440D1*
X48566Y55940D2*
X48067D1*
Y55163D1*
X49065D1*
Y46390D1*
X48940D1*
X48566Y56440D2*
X47725D1*
X47585Y56300D1*
Y45410D1*
X47725Y45270D1*
X48940D1*
Y44440D1*
X50940Y56440D2*
X50080D1*
X49940Y56300D1*
Y46390D1*
X50940Y55940D2*
X50435D1*
X50295Y55800D1*
Y45410D1*
X50155Y45270D1*
X49940D1*
Y44440D1*
X50940Y55440D2*
X51439D1*
Y48839D1*
X50940Y48340D1*
Y46390D1*
Y54940D2*
X50435D1*
Y45410D1*
X50575Y45270D1*
X50940D1*
Y44440D1*
X53066Y54940D2*
X52080D1*
X51940Y54800D1*
Y46385D1*
X53066Y55440D2*
X51719D1*
X51579Y55300D1*
Y45415D1*
X51719Y45275D1*
X51940D1*
Y44445D1*
X53066Y55940D2*
X53565D1*
Y51049D1*
X52940Y50424D1*
Y46390D1*
X53066Y56440D2*
X53705D1*
X53845Y56300D1*
Y45415D1*
X53705Y45275D1*
X52940D1*
Y44445D1*
X48042Y59940D2*
X49127Y58856D1*
Y58068D1*
X48999Y57940D1*
X48566D1*
X52542Y59940D2*
X53690Y58793D1*
Y58381D1*
X53249Y57940D1*
X53066D1*
X50940D2*
X50160D1*
X49660Y57440D1*
X48566D1*
X55440Y56440D2*
X55939D1*
X56079Y56300D1*
Y55803D1*
X55939Y55663D1*
X54941D1*
X54801Y55523D1*
Y55303D1*
X54941Y55163D1*
X55940D1*
Y46385D1*
X55440Y55940D2*
X54801D1*
X54661Y55800D1*
Y45410D1*
X54801Y45270D1*
X55940D1*
Y44440D1*
X55440Y55440D2*
X56800D1*
X56940Y55300D1*
Y46385D1*
X55440Y54940D2*
X54801D1*
Y45550D1*
X54941Y45410D1*
X56800D1*
X56940Y45270D1*
Y44440D1*
X57566Y54940D2*
X58065D1*
Y46390D1*
X57940D1*
X57566Y55440D2*
X58155D1*
X58295Y55300D1*
Y45410D1*
X58155Y45270D1*
X57940D1*
Y44440D1*
X57566Y55940D2*
X58800D1*
X58940Y55800D1*
Y46390D1*
X57566Y56440D2*
X59155D1*
X59295Y56300D1*
Y45410D1*
X59155Y45270D1*
X58940D1*
Y44440D1*
X60440Y56440D2*
X59940D1*
Y46390D1*
X60440Y55940D2*
X61155D1*
X61295Y55800D1*
Y43610D1*
X61155Y43470D1*
X60080D1*
X59940Y43610D1*
Y44440D1*
X60440Y55440D2*
X60940D1*
Y46390D1*
X60440Y54940D2*
Y45410D1*
X60580Y45270D1*
X60940D1*
Y44440D1*
X62566Y54940D2*
X61940D1*
Y46385D1*
X62566Y55440D2*
X63155D1*
X63295Y55300D1*
Y43610D1*
X61940D1*
Y44445D1*
X62566Y55940D2*
X62067D1*
Y55163D1*
X63065D1*
Y46390D1*
X62940D1*
X62566Y56440D2*
X61725D1*
X61585Y56300D1*
Y45415D1*
X61725Y45275D1*
X62940D1*
Y44445D1*
X57042Y59940D2*
X58128Y58855D1*
Y58193D1*
X57875Y57940D1*
X57566D1*
X62042Y59940D2*
X63253Y58729D1*
Y58131D1*
X63063Y57940D1*
X62566D1*
X60440D2*
X58655D1*
X58155Y57440D1*
X57566D1*
X68353Y52940D2*
X66999D1*
X66859Y52800D1*
Y50303D1*
X66719Y50163D1*
X64941D1*
Y49663D1*
X65940D1*
Y46385D1*
X68353Y52440D2*
X67279D1*
X67139Y52300D1*
Y48490D1*
X66295Y47646D1*
Y45410D1*
X66155Y45270D1*
X65940D1*
Y44440D1*
X68353Y51940D2*
X67419D1*
X67279Y51800D1*
Y47907D1*
X66940Y47569D1*
Y46385D1*
X68353Y51440D2*
X67559D1*
X67419Y51300D1*
Y45410D1*
X67279Y45270D1*
X66940D1*
Y44440D1*
X68353Y50940D2*
X67855D1*
Y46390D1*
X67940D1*
X68353Y50440D2*
X69155D1*
X69295Y50300D1*
Y43610D1*
X69155Y43470D1*
X68080D1*
X67940Y43610D1*
Y44440D1*
X68353Y49940D2*
X68940D1*
Y46390D1*
X68353Y49440D2*
Y45410D1*
X68493Y45270D1*
X68940D1*
Y44440D1*
X73853Y52940D2*
X74632D1*
X74772Y52800D1*
Y43415D1*
X74632Y43275D1*
X69715D1*
X69575Y43415D1*
Y45275D1*
X69715Y45415D1*
X69800D1*
X69940Y45555D1*
Y46390D1*
X73853Y52440D2*
X74492D1*
X74632Y52300D1*
Y43555D1*
X74492Y43415D1*
X70080D1*
X69940Y43555D1*
Y44440D1*
X73853Y51940D2*
X73355D1*
X73215Y51800D1*
Y51303D1*
X73355Y51163D1*
X74352D1*
Y50663D1*
X72435D1*
X72295Y50523D1*
Y45555D1*
X70940D1*
Y46390D1*
X73853Y51440D2*
X74352D1*
X74492Y51300D1*
Y43695D1*
X74352Y43555D1*
X70940D1*
Y44440D1*
X71940Y46385D2*
Y50800D1*
X72080Y50940D1*
X73853D1*
Y50440D2*
X72575D1*
X72435Y50300D1*
Y45415D1*
X72295Y45275D1*
X71940D1*
Y44445D1*
X73853Y49940D2*
X73080D1*
X72940Y49800D1*
Y46390D1*
X73853Y49440D2*
X73295D1*
Y45415D1*
X73155Y45275D1*
X72940D1*
Y44445D1*
X67542Y59940D2*
X68629Y58854D1*
Y58193D1*
X68376Y57940D1*
X68066D1*
X72940Y59940D2*
X74129Y58751D1*
Y58068D1*
X74001Y57940D1*
X73566D1*
X65940Y56440D2*
X66439D1*
Y55663D1*
X65441D1*
X65301Y55523D1*
Y52940D1*
X65440D1*
X65940Y55940D2*
X65081D1*
X64941Y55800D1*
Y52440D1*
X65440D1*
X65940Y55440D2*
X65441D1*
Y53702D1*
X65939Y53205D1*
Y51940D1*
X65440D1*
X65940Y54940D2*
Y54646D1*
X66079Y54508D1*
Y51580D1*
X65939Y51440D1*
X65440D1*
X68066Y54940D2*
X66719D1*
X66579Y54800D1*
Y51080D1*
X66439Y50940D1*
X65440D1*
X68066Y55440D2*
X68565D1*
Y54717D1*
X68425Y54577D1*
X66859D1*
X66719Y54437D1*
Y50580D1*
X66579Y50440D1*
X65440D1*
X68066Y55940D2*
X68712D1*
X68852Y55800D1*
Y52663D1*
X67139D1*
X66999Y52523D1*
Y50080D1*
X66859Y49940D1*
X65440D1*
X68066Y56440D2*
X66719D1*
X66579Y56300D1*
Y55150D1*
X66439Y55010D1*
Y51303D1*
X66299Y51163D1*
X64941D1*
X64801Y51023D1*
Y49580D1*
X64941Y49440D1*
X65440D1*
X69856Y53528D2*
Y56300D1*
X69996Y56440D1*
X71440D1*
X70940Y53528D2*
Y52940D1*
X71440Y55940D2*
X71939D1*
Y55163D1*
X70941D1*
Y54759D1*
X71439Y54261D1*
Y52440D1*
X70940D1*
X71440Y55440D2*
X70441D1*
X70301Y55300D1*
Y51940D1*
X70940D1*
Y51440D2*
X71799D1*
X71939Y51580D1*
Y54940D1*
X71440D1*
X70940Y50940D2*
X71509D1*
X71649Y51080D1*
X72647D1*
X72787Y51220D1*
Y54800D1*
X72927Y54940D1*
X73566D1*
X70940Y50440D2*
X71439D1*
Y48516D1*
X71299Y48376D1*
X69575D1*
X69435Y48236D1*
Y43275D1*
X69575Y43135D1*
X74772D1*
X74912Y43275D1*
Y55300D1*
X74772Y55440D1*
X73566D1*
Y55940D2*
X72512D1*
X72372Y55800D1*
Y51360D1*
X72232Y51220D1*
X71467D1*
X71410Y51163D1*
X70441D1*
X70301Y51023D1*
Y49940D1*
X70940D1*
X73566Y56440D2*
X72216D1*
X71939Y56163D1*
X70301D1*
X70161Y56023D1*
Y49580D1*
X70301Y49440D1*
X70940D1*
X71440Y57940D2*
X69349D1*
X68849Y57440D1*
X68066D1*
X75940Y56440D2*
X77155D1*
X77295Y56300D1*
Y45555D1*
X75940D1*
Y46385D1*
Y55940D2*
X75406D1*
Y43670D1*
X75546Y43530D1*
X75940D1*
Y44440D1*
Y55440D2*
X76800D1*
X76940Y55300D1*
Y46385D1*
X75940Y54940D2*
X76439D1*
Y53817D1*
X75546Y52925D1*
Y45410D1*
X75686Y45270D1*
X76940D1*
Y44440D1*
X78066Y54940D2*
X78565D1*
Y50023D1*
X77940Y49399D1*
Y46390D1*
X78066Y55440D2*
X77435D1*
Y45410D1*
X77575Y45270D1*
X77940D1*
Y44440D1*
X78066Y55940D2*
X78800D1*
X78940Y55800D1*
Y46390D1*
X78066Y56440D2*
X79155D1*
X79295Y56300D1*
Y45410D1*
X79155Y45270D1*
X78940D1*
Y44440D1*
X80440Y56440D2*
X79940D1*
Y46390D1*
X80440Y55940D2*
X81155D1*
X81295Y55800D1*
Y43670D1*
X81155Y43530D1*
X79940D1*
Y44440D1*
X80440Y55440D2*
X80940D1*
Y46390D1*
X80440Y54940D2*
Y45410D1*
X80580Y45270D1*
X80940D1*
Y44440D1*
X82566Y54940D2*
X81940D1*
Y46385D1*
X82566Y55440D2*
X83295D1*
X83435Y55300D1*
Y43755D1*
X83295Y43615D1*
X81940D1*
Y44445D1*
X82566Y55940D2*
X82067D1*
Y55163D1*
X83065D1*
Y46390D1*
X82940D1*
X82566Y56440D2*
X81725D1*
X81585Y56300D1*
Y45415D1*
X81725Y45275D1*
X82940D1*
Y44445D1*
X77440Y59940D2*
X78630Y58750D1*
Y58068D1*
X78502Y57940D1*
X78066D1*
X81857Y59818D2*
X83130Y58545D1*
Y58068D1*
X83002Y57940D1*
X82566D1*
X80440D2*
X79781D1*
X79281Y57440D1*
X78066D1*
X85440Y56440D2*
X85939D1*
X86079Y56300D1*
Y55803D1*
X85939Y55663D1*
X84941D1*
Y55163D1*
X85940D1*
Y46385D1*
X85440Y55940D2*
X84801D1*
X84661Y55800D1*
Y45410D1*
X84801Y45270D1*
X85940D1*
Y44440D1*
X85440Y55440D2*
X86800D1*
X86940Y55300D1*
Y46385D1*
X85440Y54940D2*
X84941D1*
Y45550D1*
X85081Y45410D1*
X86800D1*
X86940Y45270D1*
Y44440D1*
X87566Y54940D2*
X88065D1*
Y46390D1*
X87940D1*
X87566Y55440D2*
X88155D1*
X88295Y55300D1*
Y45410D1*
X88155Y45270D1*
X87940D1*
Y44440D1*
X87566Y55940D2*
X88800D1*
X88940Y55800D1*
Y46390D1*
X87566Y56440D2*
X89155D1*
X89295Y56300D1*
Y45410D1*
X89155Y45270D1*
X88940D1*
Y44440D1*
X90440Y56440D2*
X89940D1*
Y46390D1*
X90440Y55940D2*
X91155D1*
X91295Y55800D1*
Y43610D1*
X89940D1*
Y44440D1*
X90440Y55440D2*
X90940D1*
Y46390D1*
X90440Y54940D2*
Y45410D1*
X90580Y45270D1*
X90940D1*
Y44440D1*
X92566Y54940D2*
X91940D1*
Y46385D1*
X92566Y55440D2*
X93155D1*
X93295Y55300D1*
Y43615D1*
X91940D1*
Y44445D1*
X92566Y55940D2*
X92067D1*
Y55163D1*
X93065D1*
Y46390D1*
X92940D1*
X92566Y56440D2*
X91725D1*
X91585Y56300D1*
Y45415D1*
X91725Y45275D1*
X92940D1*
Y44445D1*
X87042Y59940D2*
X88131Y58852D1*
Y58068D1*
X88003Y57940D1*
X87566D1*
X91940Y59940D2*
X93131Y58749D1*
Y58006D1*
X93066Y57940D1*
X92566D1*
X90440D2*
X89337D1*
X88837Y57440D1*
X87566D1*
X98353Y52940D2*
X97279D1*
X97139Y52800D1*
Y49317D1*
X95940Y48119D1*
Y46385D1*
X98353Y52440D2*
X97419D1*
X97279Y52300D1*
Y48212D1*
X96295Y47229D1*
Y45410D1*
X96155Y45270D1*
X95940D1*
Y44440D1*
X98353Y51940D2*
X98852D1*
Y51163D1*
X97699D1*
X97559Y51023D1*
Y43750D1*
X97419Y43610D1*
X96585D1*
Y45270D1*
X96725Y45410D1*
X96800D1*
X96940Y45550D1*
Y46385D1*
X98353Y51440D2*
X97559D1*
X97419Y51300D1*
Y45410D1*
X97279Y45270D1*
X96940D1*
Y44440D1*
X98353Y50940D2*
X97855D1*
Y46390D1*
X97940D1*
X98353Y50440D2*
X99155D1*
X99295Y50300D1*
Y43610D1*
X99155Y43470D1*
X97940D1*
Y44440D1*
X98353Y49940D2*
X98940D1*
Y46390D1*
X98353Y49440D2*
Y45410D1*
X98493Y45270D1*
X98940D1*
Y44440D1*
X103603Y52940D2*
X104522D1*
X104662Y52800D1*
Y43350D1*
X104522Y43210D1*
X99725D1*
X99585Y43350D1*
Y45275D1*
X99725Y45415D1*
X99800D1*
X99940Y45555D1*
Y46390D1*
X103603Y52440D2*
X104242D1*
X104382Y52300D1*
Y43490D1*
X104242Y43350D1*
X100080D1*
X99940Y43490D1*
Y44440D1*
X103603Y51940D2*
X102139D1*
X101999Y51800D1*
Y49288D1*
X100940Y48229D1*
Y46390D1*
X103603Y51440D2*
X104102D1*
X104242Y51300D1*
Y43750D1*
X104102Y43610D1*
X101435D1*
X101295Y43750D1*
Y45270D1*
X100940D1*
Y44440D1*
X103603Y50940D2*
X104102D1*
Y50163D1*
X102419D1*
X102279Y50023D1*
Y47793D1*
X101940Y47454D1*
Y46385D1*
X103603Y50440D2*
X102279D1*
X102139Y50300D1*
Y48895D1*
X101585Y48342D1*
Y45415D1*
X101725Y45275D1*
X101940D1*
Y44445D1*
X103603Y49940D2*
X103080D1*
X102940Y49800D1*
Y46390D1*
X103603Y49440D2*
X104102D1*
Y45415D1*
X103962Y45275D1*
X102940D1*
Y44445D1*
X97542Y59940D2*
X98694Y58788D1*
Y58318D1*
X98316Y57940D1*
X98066D1*
X102542Y59940D2*
X103695Y58787D1*
Y58068D1*
X103567Y57940D1*
X103066D1*
X95940Y56440D2*
X95441D1*
Y55663D1*
X96439D1*
Y53080D1*
X96299Y52940D1*
X95440D1*
X95940Y55940D2*
X96439D1*
X96579Y55800D1*
Y52580D1*
X96439Y52440D1*
X95440D1*
X95940Y55440D2*
X94801D1*
X94661Y55300D1*
Y51303D1*
X94801Y51163D1*
X95939D1*
X96079Y51303D1*
Y51800D1*
X95939Y51940D1*
X95440D1*
X95940Y54940D2*
X95081D1*
X94941Y54800D1*
Y51440D1*
X95440D1*
X98066Y54940D2*
X96859D1*
X96719Y54800D1*
Y51080D1*
X96579Y50940D1*
X95440D1*
X98066Y55440D2*
X98565D1*
Y54493D1*
X98425Y54353D1*
X96999D1*
X96859Y54213D1*
Y50580D1*
X96719Y50440D1*
X95440D1*
X98066Y55940D2*
X98565D1*
X98705Y55800D1*
Y54119D1*
X98565Y53979D1*
X97139D1*
X96999Y53839D1*
Y50080D1*
X96859Y49940D1*
X95440D1*
X96719Y49440D2*
X95440D1*
X96719Y56412D2*
X96747Y56440D1*
X98066D1*
X100940D2*
X101439D1*
Y55663D1*
X100331D1*
X100191Y55523D1*
Y52940D1*
X100690D1*
X100940Y55940D2*
X100051D1*
X99911Y55800D1*
Y52580D1*
X100051Y52440D1*
X100690D1*
X100940Y55440D2*
X100331D1*
Y54577D1*
X101189Y53719D1*
Y51940D1*
X100690D1*
X100940Y54940D2*
X101439D1*
Y51580D1*
X101299Y51440D1*
X100690D1*
X103066Y54940D2*
X101859D1*
X101719Y54800D1*
Y51080D1*
X101579Y50940D1*
X100690D1*
X103066Y55440D2*
X103565D1*
X103705Y55300D1*
Y54231D1*
X101859Y52385D1*
Y50580D1*
X101719Y50440D1*
X100690D1*
X103066Y55940D2*
X101719D1*
X101579Y55800D1*
Y51303D1*
X101439Y51163D1*
X100191D1*
X100051Y51023D1*
Y50080D1*
X100191Y49940D1*
X100690D1*
X101694Y49440D2*
X100690D1*
X101744Y56412D2*
X101772Y56440D1*
X103066D1*
X100940Y57940D2*
X100001D1*
X99501Y57440D1*
X98066D1*
X105940Y56440D2*
X107155D1*
X107295Y56300D1*
Y45555D1*
X105940D1*
Y46385D1*
Y55940D2*
X105301D1*
X105161Y55800D1*
Y43610D1*
X105301Y43470D1*
X105800D1*
X105940Y43610D1*
Y44440D1*
Y55440D2*
X106800D1*
X106940Y55300D1*
Y46385D1*
X105940Y54940D2*
X105441D1*
Y45410D1*
X105581Y45270D1*
X106940D1*
Y44440D1*
X108066Y54940D2*
X107435D1*
Y54689D1*
X107940Y54184D1*
Y46390D1*
X108066Y55440D2*
X108565D1*
Y45410D1*
X108425Y45270D1*
X107940D1*
Y44440D1*
X108066Y55940D2*
X108800D1*
X108940Y55800D1*
Y46390D1*
X108066Y56440D2*
X109155D1*
X109295Y56300D1*
Y45410D1*
X109155Y45270D1*
X108940D1*
Y44440D1*
X109940Y56440D2*
X109435D1*
Y48247D1*
X109940Y47742D1*
Y46390D1*
Y55940D2*
X111155D1*
X111295Y55800D1*
Y43610D1*
X111155Y43470D1*
X110080D1*
X109940Y43610D1*
Y44440D1*
Y55440D2*
X110800D1*
X110940Y55300D1*
Y46390D1*
X109940Y54940D2*
X110439D1*
Y45410D1*
X110579Y45270D1*
X110940D1*
Y44440D1*
X112066Y54940D2*
X112565D1*
Y54222D1*
X111940Y53598D1*
Y46385D1*
X112066Y55440D2*
X111435D1*
Y45415D1*
X111575Y45275D1*
X111940D1*
Y44445D1*
X112066Y55940D2*
X112800D1*
X112940Y55800D1*
Y46390D1*
X112066Y56440D2*
X113295D1*
X113435Y56300D1*
Y45415D1*
X113295Y45275D1*
X112940D1*
Y44445D1*
X107542Y59940D2*
X108633Y58849D1*
Y58131D1*
X108442Y57940D1*
X108066D1*
X111542Y59940D2*
X112633Y58849D1*
Y58193D1*
X112380Y57940D1*
X112066D1*
X109940D2*
X109222D1*
X108722Y57440D1*
X108066D1*
X115190Y56440D2*
X115689D1*
X115829Y56300D1*
Y55803D1*
X115689Y55663D1*
X114691D1*
Y55163D1*
X115800D1*
X115940Y55023D1*
Y46385D1*
X115190Y55940D2*
X114411D1*
X114271Y55800D1*
Y45410D1*
X114411Y45270D1*
X115940D1*
Y44440D1*
X115190Y55440D2*
X116677D1*
X116817Y55300D1*
Y46385D1*
X116940D1*
X115190Y54940D2*
X114691D1*
Y45550D1*
X114831Y45410D1*
X116800D1*
X116940Y45270D1*
Y44440D1*
X117316Y54940D2*
X117940D1*
Y46390D1*
X117316Y55440D2*
X118155D1*
X118295Y55300D1*
Y45410D1*
X118155Y45270D1*
X117940D1*
Y44440D1*
X117316Y55940D2*
X118800D1*
X118940Y55800D1*
Y46390D1*
X117316Y56440D2*
X119155D1*
X119295Y56300D1*
Y45410D1*
X119155Y45270D1*
X118940D1*
Y44440D1*
X119940Y56440D2*
X119435D1*
Y52926D1*
X119940Y52421D1*
Y46390D1*
Y55940D2*
X121155D1*
X121295Y55800D1*
Y43610D1*
X119940D1*
Y44440D1*
Y55440D2*
X120800D1*
X120940Y55300D1*
Y46390D1*
X119940Y54940D2*
X120439D1*
Y45410D1*
X120579Y45270D1*
X120940D1*
Y44440D1*
X122066Y54940D2*
X122565D1*
Y54441D1*
X121940Y53816D1*
Y46385D1*
X122066Y55440D2*
X121435D1*
Y45415D1*
X121575Y45275D1*
X121940D1*
Y44445D1*
X122066Y55940D2*
X122800D1*
X122940Y55800D1*
Y46390D1*
X122066Y56440D2*
X123295D1*
X123435Y56300D1*
Y45415D1*
X123295Y45275D1*
X122940D1*
Y44445D1*
X116792Y59940D2*
X117884Y58848D1*
Y58318D1*
X117506Y57940D1*
X117316D1*
X120441Y59940D2*
X120884Y59497D1*
Y58568D1*
X121512Y57940D1*
X122066D1*
X119940D2*
X118719D1*
X118219Y57440D1*
X117316D1*
D39*
X43690Y9565D3*
X42313Y17001D3*
X39940Y22940D3*
Y26940D3*
X33565Y19627D3*
X31440Y7940D3*
X29440D3*
X27440D3*
X25440D3*
X39940Y26940D3*
X7940Y61940D3*
X6940Y59940D3*
X11315Y60065D3*
X16690D3*
X11065Y62690D3*
X16565D3*
X21002D3*
X25315Y62753D3*
X30252Y60128D3*
X25690D3*
X21252D3*
X40627Y62690D3*
X46127Y62753D3*
X50690Y62690D3*
X55252D3*
X60253D3*
X65753D3*
X71378D3*
X75690D3*
X80252D3*
X85128D3*
X90190Y62628D3*
X95627D3*
X101338Y62690D3*
X100627Y62628D3*
X105627Y62690D3*
X109752Y62628D3*
X115003Y62690D3*
X118002D3*
X35752Y60128D3*
X40563Y60131D3*
X50752D3*
X55190Y60193D3*
X60190Y60131D3*
X65691D3*
X71191Y60256D3*
X75692Y60193D3*
X80130Y60131D3*
X85318Y60193D3*
X90006D3*
X95569Y60068D3*
X100445Y60256D3*
X105633Y60193D3*
X109696Y60256D3*
X114884D3*
X118571Y60193D3*
X35563Y62756D3*
X9565Y56128D3*
X10315Y56877D3*
X19690Y23940D3*
X33627Y57503D3*
X47939Y40379D3*
Y38691D3*
Y33816D3*
X47564Y32315D3*
X53690Y21315D3*
X48189Y24627D3*
X29877Y18377D3*
X27502Y10502D3*
X31065Y15003D3*
X55878Y22065D3*
X48627Y24940D3*
X27127Y18503D3*
X55753Y6377D3*
X48502Y22127D3*
X59815Y23315D3*
X48189Y25315D3*
X25940Y18815D3*
X59940Y7565D3*
X47877Y22502D3*
X32502Y16502D3*
X31065Y12815D3*
X63878Y24565D3*
X48564Y25690D3*
X24940Y19627D3*
X63941Y8813D3*
X48627Y22814D3*
X32937Y16876D3*
X31062Y11813D3*
X53565Y26252D3*
X47877D3*
X22878Y20815D3*
X53627Y10813D3*
X47814Y23189D3*
X31562Y17251D3*
X25437Y14001D3*
X55878Y27503D3*
X48440Y26753D3*
X21878Y21690D3*
X55815Y11751D3*
X48627Y23689D3*
X32375Y17564D3*
X25374Y13063D3*
X59752Y28753D3*
X48002Y27128D3*
X20940Y22002D3*
X59878Y13063D3*
X48064Y24002D3*
X33500Y17939D3*
X25499Y12063D3*
X63502Y30065D3*
X48564Y28127D3*
X19940Y22690D3*
X63816Y14313D3*
X48627Y24315D3*
X18311Y19502D3*
X71940Y15690D3*
Y5440D3*
X81940Y15690D3*
Y5440D3*
X91940Y15690D3*
Y5440D3*
X101940Y15690D3*
Y5440D3*
X102940Y20190D3*
Y22440D3*
X92940Y20190D3*
Y22440D3*
X82940Y20190D3*
Y22440D3*
X72940Y20190D3*
Y22440D3*
Y15690D3*
Y6690D3*
X82940Y15690D3*
Y6690D3*
X92940Y15690D3*
Y6690D3*
X102940Y15690D3*
Y6690D3*
X103940Y20190D3*
Y23690D3*
X93940Y20190D3*
Y23690D3*
X83940Y20190D3*
Y23690D3*
X73940Y20190D3*
Y23690D3*
Y15690D3*
Y7940D3*
X83940Y15690D3*
Y7940D3*
X93940Y15690D3*
Y7940D3*
X103940Y15690D3*
Y7940D3*
X104940Y20190D3*
Y25190D3*
X94940Y20190D3*
Y25190D3*
X84940Y20190D3*
Y25190D3*
X74940Y20190D3*
Y25190D3*
Y15690D3*
Y9440D3*
X84940Y15690D3*
Y9440D3*
X94940Y15690D3*
Y9440D3*
X104940Y15690D3*
Y9440D3*
X105940Y20190D3*
Y26690D3*
X95940Y20190D3*
Y26690D3*
X85940Y20190D3*
Y26690D3*
X75940Y20190D3*
Y26690D3*
Y15690D3*
Y10940D3*
X85940Y15690D3*
Y10940D3*
X95940Y15690D3*
Y10940D3*
X105940Y15690D3*
Y10940D3*
X106940Y20190D3*
Y27940D3*
X96940Y20190D3*
Y27940D3*
X86940Y20190D3*
Y27940D3*
X76940Y20190D3*
Y27940D3*
Y15690D3*
Y12190D3*
X86940Y15690D3*
Y12190D3*
X96940Y15690D3*
Y12190D3*
X106940Y15690D3*
Y12190D3*
X107940Y20190D3*
Y29190D3*
X97940Y20190D3*
Y29190D3*
X87940Y20190D3*
Y29190D3*
X77940Y20190D3*
Y29190D3*
Y15690D3*
Y13440D3*
X87940Y15690D3*
Y13440D3*
X97940Y15690D3*
Y13440D3*
X107940Y15690D3*
Y13440D3*
X108940Y20190D3*
Y30690D3*
X98940Y20190D3*
Y30690D3*
X88940Y20190D3*
Y30690D3*
X78940Y20190D3*
Y30690D3*
X15440Y57940D3*
X13940Y35940D3*
X24690Y57877D3*
X23190Y36565D3*
X43190Y10690D3*
X12565Y56940D3*
X12503Y57690D3*
X8752Y48440D3*
X9440Y52378D3*
X9253Y48128D3*
X9815Y51752D3*
X8315Y47752D3*
X10127Y51315D3*
X8440Y45440D3*
X10440Y50877D3*
X8167Y43213D3*
X10752Y50440D3*
X9503Y45440D3*
X11127Y49940D3*
X10252Y42627D3*
X11440Y49440D3*
X30190Y62690D3*
X101338D3*
X55190Y60193D3*
X40563Y60131D3*
X46189D3*
X106440Y59179D3*
X110440D3*
X115690D3*
X46940Y59159D3*
X51440D3*
X60940D3*
X122756D3*
X96440Y59112D3*
X101440D3*
X80755Y59073D3*
X36440Y59072D3*
X41338D3*
X119339Y59041D3*
X30940Y58982D3*
X21940Y58940D3*
X26440D3*
X29058D3*
X85940D3*
X71838Y58838D3*
X90838D3*
X16076Y58715D3*
X45775Y58553D3*
X54715Y58537D3*
X10776Y58495D3*
X24620D3*
X64810Y58440D3*
X75276D3*
X40276Y58245D3*
X37222Y57968D3*
X34723Y57940D3*
X53995D3*
X65276D3*
X75034D3*
X84776D3*
X104177D3*
X113957D3*
X101745Y57855D3*
X96996Y57787D3*
X61104Y57772D3*
X17964Y57745D3*
X34253D3*
X94499Y57717D3*
X103789Y57663D3*
X41909Y57468D3*
X81550D3*
X40276Y57440D3*
X45470D3*
X56399D3*
X64845D3*
X70120D3*
X106961D3*
X109940D3*
X51744Y57358D3*
X72244D3*
X110744D3*
X91104Y56968D3*
X63230Y56940D3*
X93740D3*
X61440Y56880D3*
X69175Y56663D3*
X91280Y56498D3*
X94941D3*
X96719Y56412D3*
X101744D3*
X65081Y56245D3*
X41604Y55245D3*
X41219Y54048D3*
X69856Y53528D3*
X70940D3*
X96719Y49440D3*
X101694D3*
X53995Y43568D3*
X16076Y43413D3*
X22104D3*
X22574Y43248D3*
X79544Y43225D3*
X15940Y42943D3*
X34723D3*
X63535D3*
X80014Y42905D3*
X86761D3*
X96815D3*
X118944D3*
X71655Y42830D3*
X11470Y42638D3*
X119339Y42435D3*
X13410Y42333D3*
X30666Y42098D3*
X63295D3*
X22405Y42088D3*
X29479Y41628D3*
X43025D3*
X49245Y40573D3*
X81245D3*
X31977Y40498D3*
X41422D3*
X38450Y40473D3*
X10405Y40323D3*
X32717Y40157D3*
X36103D3*
X41090Y40128D3*
X48545Y40043D3*
X9335Y40018D3*
X21940Y39851D3*
X63600Y39738D3*
X77940D3*
X17405Y39713D3*
X36103Y39433D3*
X63130D3*
X78940D3*
X16405Y39408D3*
X29339Y39323D3*
X38229Y39128D3*
X12405Y39085D3*
X40060Y38963D3*
X19100Y38823D3*
X36746Y38658D3*
X38839D3*
X39557D3*
X30666Y38657D3*
X12940Y38615D3*
X49635Y38518D3*
X80940D3*
X17940Y38170D3*
X15405Y37971D3*
X18940Y37852D3*
X14405Y37501D3*
X33862Y37350D3*
X36432D3*
X46330Y37352D3*
X43497Y36700D3*
X64045Y36640D3*
X65752D3*
X30459Y36516D3*
X34188D3*
X41417D3*
X44090Y36355D3*
X46025Y35520D3*
X33010Y35280D3*
X33480Y34975D3*
X50635Y34490D3*
X65447D3*
X45415Y34185D3*
X64810D3*
X50330Y33715D3*
X65142D3*
X12940Y32735D3*
X19405Y32600D3*
X64440Y32473D3*
Y31903D3*
X17100Y31775D3*
X14405Y31447D3*
X15940Y31160D3*
X10940Y30855D3*
X48395Y30675D3*
X11940Y30550D3*
X65824Y30370D3*
X15405Y30245D3*
X16940Y30080D3*
X65354Y30038D3*
X34188Y30025D3*
X12410Y29775D3*
X48395Y29683D3*
X61465D3*
Y29072D3*
X33190Y28240D3*
X42042D3*
X33190Y27630D3*
X42042D3*
Y26940D3*
X65465Y24728D3*
X10405Y23982D3*
X18940D3*
X57610Y22228D3*
X8215Y20245D3*
X30493D3*
X14060Y19065D3*
X10285Y18655D3*
X17710Y18350D3*
X15405Y17886D3*
X66816Y15652D3*
X34190Y15315D3*
X65853Y14810D3*
X65465Y14478D3*
X62816Y14402D3*
X65935Y14215D3*
X61853Y13560D3*
X61465Y13170D3*
X57465Y11978D3*
X65465Y8978D3*
X61465Y7728D3*
X57465Y6478D3*
X54816Y6402D3*
X53928Y5440D3*
X45507Y4898D3*
X101338Y62690D3*
X28377Y41628D3*
X41560Y40028D3*
X20055Y40577D3*
Y35525D3*
X14940Y19847D3*
X43512Y37657D3*
X48940D3*
Y35215D3*
X78940D3*
X30666Y37528D3*
X31837D3*
X34558Y41203D3*
X34535Y15647D3*
X33660Y27630D3*
Y28240D3*
X25107Y10623D3*
X26598Y12683D3*
X30359Y41203D3*
X34558Y40156D3*
X54840Y5566D2*
D15*
X110042D1*
X54840Y5318D2*
X110042D1*
X54840Y5069D2*
X110042D1*
X54815Y5690D2*
Y5065D1*
X110065D1*
Y5815D1*
X54815D1*
Y5690D1*
X58840Y6816D2*
X110042D1*
X58840Y6568D2*
X110042D1*
X58840Y6319D2*
X110042D1*
X58815Y6940D2*
Y6315D1*
X110065D1*
Y7065D1*
X58815D1*
Y6940D1*
X62840Y8066D2*
X110042D1*
X62840Y7818D2*
X110042D1*
X62840Y7569D2*
X110042D1*
X62815Y8190D2*
Y7565D1*
X110065D1*
Y8315D1*
X62815D1*
Y8190D1*
X66840Y9816D2*
X110042D1*
X66840Y9568D2*
X110042D1*
X66840Y9319D2*
X110042D1*
X66840Y9070D2*
X110042D1*
X66840Y8822D2*
X110042D1*
X66815Y9940D2*
Y8815D1*
X110065D1*
Y10065D1*
X66815D1*
Y9940D1*
X54840Y11066D2*
X110042D1*
X54840Y10818D2*
X110042D1*
X54840Y10569D2*
X110042D1*
X54940Y10565D2*
X110065D1*
Y11315D1*
X54815D1*
Y10565D1*
X54940D1*
X58840Y12316D2*
X110042D1*
X58840Y12068D2*
X110042D1*
X58840Y11819D2*
X110042D1*
X58815Y12440D2*
Y11815D1*
X110065D1*
Y12565D1*
X58815D1*
Y12440D1*
X62840Y13566D2*
X110042D1*
X62840Y13318D2*
X110042D1*
X62840Y13069D2*
X110042D1*
X62815Y13690D2*
Y13065D1*
X110065D1*
Y13815D1*
X62815D1*
Y13690D1*
X66840Y14816D2*
X110042D1*
X66840Y14568D2*
X110042D1*
X66840Y14319D2*
X110042D1*
X66815Y14940D2*
Y14315D1*
X110065D1*
Y15065D1*
X66815D1*
Y14940D1*
X54840Y21316D2*
X109792D1*
X54840Y21068D2*
X109792D1*
X54840Y20819D2*
X109792D1*
X54940Y20815D2*
X109815D1*
Y21565D1*
X54815D1*
Y20815D1*
X54940D1*
X58840Y22566D2*
X109792D1*
X58840Y22318D2*
X109792D1*
X58840Y22069D2*
X109792D1*
X58815Y22690D2*
Y22065D1*
X109815D1*
Y22815D1*
X58815D1*
Y22690D1*
X62840Y23816D2*
X109792D1*
X62840Y23568D2*
X109792D1*
X62840Y23319D2*
X109792D1*
X62815Y23940D2*
Y23315D1*
X109815D1*
Y24065D1*
X62815D1*
Y23940D1*
X66840Y25566D2*
X109792D1*
X66840Y25318D2*
X109792D1*
X66840Y25069D2*
X109792D1*
X66840Y24820D2*
X109792D1*
X66840Y24572D2*
X109792D1*
X66815Y25690D2*
Y24565D1*
X109815D1*
Y25815D1*
X66815D1*
Y25690D1*
X54840Y26816D2*
X109792D1*
X54840Y26568D2*
X109792D1*
X54840Y26319D2*
X109792D1*
X54940Y26315D2*
X109815D1*
Y27065D1*
X54815D1*
Y26315D1*
X54940D1*
X58840Y28066D2*
X109792D1*
X58840Y27818D2*
X109792D1*
X58840Y27569D2*
X109792D1*
X58815Y28190D2*
Y27565D1*
X109815D1*
Y28315D1*
X58815D1*
Y28190D1*
X62840Y29316D2*
X109792D1*
X62840Y29068D2*
X109792D1*
X62840Y28819D2*
X109792D1*
X62815Y29440D2*
Y28815D1*
X109815D1*
Y29565D1*
X62815D1*
Y29440D1*
X66840Y31316D2*
X109792D1*
X66840Y31068D2*
X109792D1*
X66840Y30819D2*
X109792D1*
X66840Y30570D2*
X109792D1*
X66840Y30322D2*
X109792D1*
X66840Y30073D2*
X109792D1*
X66815Y31440D2*
Y30065D1*
X109815D1*
Y31565D1*
X66815D1*
Y31440D1*
X37768Y19191D2*
X40792D1*
X37518Y18943D2*
X40792D1*
X37340Y18694D2*
X40792D1*
X37340Y18445D2*
X40792D1*
X37340Y18197D2*
X40792D1*
X37340Y17948D2*
X40792D1*
X37340Y17699D2*
X40792D1*
X37340Y17450D2*
X40792D1*
X37340Y17202D2*
X40792D1*
X37340Y16953D2*
X40792D1*
X37340Y16704D2*
X40792D1*
X37340Y16456D2*
X40792D1*
X37340Y16207D2*
X40792D1*
X37340Y15958D2*
X42290D1*
X37340Y15710D2*
X42290D1*
X37340Y15461D2*
X42290D1*
X37340Y15212D2*
X42290D1*
X37340Y14964D2*
X42290D1*
X37340Y14715D2*
X42290D1*
X37340Y14466D2*
X42290D1*
X37340Y14218D2*
X42290D1*
X37340Y13969D2*
X42290D1*
X37340Y13720D2*
X42290D1*
X37340Y13471D2*
X42290D1*
X37340Y13223D2*
X42290D1*
X37340Y12974D2*
X42290D1*
X37340Y12725D2*
X42290D1*
X37340Y12477D2*
X42290D1*
X37340Y12228D2*
X42290D1*
X37340Y11979D2*
X42290D1*
X38834Y11731D2*
X42290D1*
X38838Y11482D2*
X42290D1*
X38838Y11233D2*
X42290D1*
X38838Y10985D2*
X42290D1*
X38838Y10736D2*
X42290D1*
X38838Y10487D2*
X42290D1*
X38838Y10239D2*
X42290D1*
X38838Y9990D2*
X42290D1*
X38838Y9741D2*
X42290D1*
X38815Y11565D2*
Y9565D1*
X42315D1*
Y16065D1*
X40940D1*
X40835Y16126D1*
X40815Y16190D1*
Y19440D1*
X37991D1*
X37315Y18763D1*
Y11815D1*
X38690D1*
X38795Y11754D1*
X38815Y11690D1*
Y11565D1*
X44227Y20816D2*
X49790D1*
X43708Y20568D2*
X49790D1*
X43192Y20319D2*
X49790D1*
X42676Y20070D2*
X49790D1*
X42157Y19822D2*
X49790D1*
X41641Y19573D2*
X49790D1*
X41590Y19324D2*
X49790D1*
X41590Y19075D2*
X49790D1*
X41590Y18827D2*
X49790D1*
X41590Y18578D2*
X49790D1*
X41590Y18329D2*
X49790D1*
X41590Y18081D2*
X49790D1*
X41590Y17832D2*
X46290D1*
X41590Y17583D2*
X46290D1*
X41590Y17335D2*
X46290D1*
X41590Y17086D2*
X46290D1*
X41590Y16837D2*
X46290D1*
X41590Y16589D2*
X46290D1*
X49815Y18190D2*
Y21065D1*
X44717Y21064D1*
X41562Y19547D1*
X41565Y16627D1*
Y16565D1*
X46315D1*
Y17940D1*
X46376Y18045D1*
X46440Y18065D1*
X49815D1*
Y18190D1*
X49139Y31254D2*
X65042D1*
X49170Y31005D2*
X65042D1*
X49201Y30756D2*
X65042D1*
X49236Y30508D2*
X61042D1*
X49268Y30259D2*
X61042D1*
X49299Y30010D2*
X61042D1*
X49330Y29762D2*
X61042D1*
X49361Y29513D2*
X61042D1*
X49393Y29264D2*
X57042D1*
X49428Y29016D2*
X57042D1*
X49459Y28767D2*
X57042D1*
X49490Y28518D2*
X57042D1*
X49522Y28270D2*
X57042D1*
X49553Y28021D2*
X53042D1*
X49588Y27772D2*
X53042D1*
X49619Y27523D2*
X53042D1*
X49651Y27275D2*
X53042D1*
X49682Y27026D2*
X53042D1*
X49713Y26777D2*
X52042D1*
X49744Y26529D2*
X52042D1*
X49779Y26280D2*
X52042D1*
X49811Y26031D2*
X52042D1*
X49842Y25783D2*
X65042D1*
X49873Y25534D2*
X65042D1*
X49904Y25285D2*
X65042D1*
X49940Y25037D2*
X61042D1*
X49971Y24788D2*
X61042D1*
X50002Y24539D2*
X61042D1*
X50033Y24291D2*
X61042D1*
X50065Y24042D2*
X61042D1*
X50096Y23793D2*
X57042D1*
X50131Y23544D2*
X57042D1*
X50162Y23296D2*
X57042D1*
X50194Y23047D2*
X57042D1*
X50225Y22798D2*
X57042D1*
X50256Y22550D2*
X53042D1*
X50291Y22301D2*
X53042D1*
X50322Y22052D2*
X53042D1*
X50354Y21804D2*
X53042D1*
X50385Y21555D2*
X53042D1*
X50416Y21306D2*
X52042D1*
X50447Y21058D2*
X52042D1*
X50483Y20809D2*
X52042D1*
X50514Y20560D2*
X52042D1*
X50545Y20312D2*
X65042D1*
X50576Y20063D2*
X65042D1*
X50608Y19814D2*
X65042D1*
X50643Y19565D2*
X65042D1*
X50674Y19317D2*
X65042D1*
X50705Y19068D2*
X65042D1*
X50736Y18819D2*
X65042D1*
X50768Y18571D2*
X65042D1*
X50799Y18322D2*
X65042D1*
X50834Y18073D2*
X65042D1*
X50865Y17825D2*
X65042D1*
X50897Y17576D2*
X65042D1*
X50928Y17327D2*
X65042D1*
X50959Y17079D2*
X65042D1*
X50994Y16830D2*
X65042D1*
X51026Y16581D2*
X65042D1*
X51057Y16333D2*
X65042D1*
X51088Y16084D2*
X65042D1*
X46590Y15835D2*
X48214D1*
X49166D2*
X65042D1*
X49295Y15586D2*
X65042D1*
X49303Y15338D2*
X65042D1*
X46590Y15089D2*
X48179D1*
X49201D2*
X65042D1*
X46590Y14840D2*
X48144D1*
X49236D2*
X65042D1*
X46590Y14592D2*
X48022D1*
X49358D2*
X61042D1*
X46590Y14343D2*
X48015D1*
X49365D2*
X61042D1*
X46590Y14094D2*
X48104D1*
X49276D2*
X61042D1*
X47647Y13846D2*
X48147D1*
X49233D2*
X61042D1*
X46590Y13597D2*
X47167D1*
X47897D2*
X48025D1*
X49354D2*
X61042D1*
X46590Y13348D2*
X47417D1*
X49365D2*
X57042D1*
X46590Y13100D2*
X47667D1*
X49279D2*
X57042D1*
X46590Y12851D2*
X47913D1*
X49151D2*
X57042D1*
X46590Y12602D2*
X48089D1*
X49291D2*
X57042D1*
X46590Y12354D2*
X48073D1*
X49307D2*
X57042D1*
X46590Y12105D2*
X48171D1*
X49209D2*
X53042D1*
X46590Y11856D2*
X48534D1*
X48846D2*
X53042D1*
X46590Y11607D2*
X53042D1*
X46590Y11359D2*
X53042D1*
X46590Y11110D2*
X53042D1*
X46590Y10861D2*
X52042D1*
X46590Y10613D2*
X52042D1*
X46590Y10364D2*
X52042D1*
X46590Y10115D2*
X52042D1*
X46590Y9867D2*
X65042D1*
X46590Y9618D2*
X65042D1*
X46590Y9369D2*
X65042D1*
X46590Y9121D2*
X61042D1*
X46590Y8872D2*
X61042D1*
X46590Y8623D2*
X61042D1*
X46590Y8375D2*
X61042D1*
X46590Y8126D2*
X61042D1*
X46590Y7877D2*
X57042D1*
X46590Y7628D2*
X57042D1*
X46590Y7380D2*
X57042D1*
X46590Y7131D2*
X57042D1*
X46590Y6882D2*
X57042D1*
X46590Y6634D2*
X53042D1*
X46590Y6385D2*
X53042D1*
X46590Y6136D2*
X53042D1*
X46590Y5888D2*
X53042D1*
X46590Y5639D2*
X53042D1*
X46590Y5390D2*
X53042D1*
X49276Y12316D2*
X49237Y12197D1*
X49175Y12089D1*
X49092Y11996D1*
X48991Y11922D1*
X48877Y11871D1*
X48755Y11845D1*
X48631Y11844D1*
X48508Y11870D1*
X48394Y11920D1*
X48293Y11992D1*
X48208Y12084D1*
X48145Y12192D1*
X48106Y12310D1*
X48091Y12434D1*
X48103Y12558D1*
X48135Y12659D1*
X47192Y13598D1*
X46562D1*
X46565Y12940D1*
Y5315D1*
X53065D1*
Y6690D1*
X53126Y6795D1*
X53190Y6815D1*
X57065D1*
Y7940D1*
X57126Y8045D1*
X57190Y8065D1*
X61065D1*
Y9190D1*
X61126Y9295D1*
X61190Y9315D1*
X65065D1*
Y10065D1*
X52190D1*
X52085Y10126D1*
X52065Y10190D1*
Y10940D1*
X52126Y11045D1*
X52190Y11065D1*
X53065D1*
Y12190D1*
X53126Y12295D1*
X53190Y12315D1*
X57065D1*
Y13440D1*
X57126Y13545D1*
X57190Y13565D1*
X61065D1*
Y14690D1*
X61126Y14795D1*
X61190Y14815D1*
X65065D1*
Y20315D1*
X52190D1*
X52085Y20376D1*
X52065Y20440D1*
Y21190D1*
X52126Y21295D1*
X52190Y21315D1*
X53065D1*
Y22440D1*
X53126Y22545D1*
X53190Y22565D1*
X57065D1*
Y23690D1*
X57126Y23795D1*
X57190Y23815D1*
X61065D1*
Y24940D1*
X61126Y25045D1*
X61190Y25065D1*
X65065D1*
Y25815D1*
X52190D1*
X52085Y25876D1*
X52065Y25940D1*
Y26690D1*
X52126Y26795D1*
X52190Y26815D1*
X53065D1*
Y27940D1*
X53126Y28045D1*
X53190Y28065D1*
X57065D1*
Y29190D1*
X57126Y29295D1*
X57190Y29315D1*
X61065D1*
Y30440D1*
X61126Y30545D1*
X61190Y30565D1*
X65065D1*
Y31503D1*
X49085D1*
X49367Y29288D1*
X51064Y16081D1*
X51017Y15969D1*
X50940Y15940D1*
X49022D1*
X49083Y15892D1*
X49168Y15800D1*
X49232Y15693D1*
X49273Y15576D1*
X49289Y15440D1*
X49276Y15316D1*
X49237Y15197D1*
X49175Y15089D1*
X49070Y14980D1*
X49158Y14903D1*
X49237Y14807D1*
X49297Y14697D1*
X49334Y14578D1*
X49349Y14440D1*
X49337Y14316D1*
X49302Y14196D1*
X49245Y14085D1*
X49168Y13987D1*
X49118Y13943D1*
X49237Y13807D1*
X49297Y13697D1*
X49334Y13578D1*
X49349Y13440D1*
X49337Y13316D1*
X49302Y13196D1*
X49245Y13085D1*
X49168Y12987D1*
X49070Y12903D1*
X49168Y12800D1*
X49232Y12693D1*
X49273Y12576D1*
X49289Y12440D1*
X49276Y12316D1*
X48034Y13437D2*
Y13496D1*
X48056Y13618D1*
X48101Y13735D1*
X48167Y13841D1*
X48262Y13939D1*
X48176Y14029D1*
X48107Y14133D1*
X48060Y14248D1*
X48035Y14371D1*
X48034Y14496D1*
X48056Y14618D1*
X48101Y14735D1*
X48167Y14841D1*
X48252Y14932D1*
X48312Y14976D1*
X48208Y15084D1*
X48190Y15110D1*
X46561D1*
X46565Y14690D1*
Y14078D1*
X47292D1*
X47415Y14043D1*
X47550Y13919D1*
X48034Y13436D1*
X48192Y15769D2*
X48284Y15880D1*
X48362Y15938D1*
X46565Y15940D1*
Y15770D1*
X48194D1*
X49088Y31066D2*
X51058D1*
X49088Y30818D2*
X51069D1*
X49088Y30569D2*
X51081D1*
X49088Y30320D2*
X51093D1*
X49088Y30072D2*
X51104D1*
X49088Y29823D2*
X51116D1*
X49088Y29574D2*
X51128D1*
X49088Y29325D2*
X51140D1*
X49088Y29077D2*
X51155D1*
X49088Y28828D2*
X51167D1*
X49088Y28579D2*
X51179D1*
X49088Y28331D2*
X51190D1*
X49088Y28082D2*
X51202D1*
X49088Y27833D2*
X51214D1*
X49088Y27585D2*
X51226D1*
X49088Y27336D2*
X51237D1*
X49088Y27087D2*
X51249D1*
X49088Y26839D2*
X51261D1*
X49088Y26590D2*
X51272D1*
X49088Y26341D2*
X51284D1*
X49088Y26093D2*
X51296D1*
X49088Y25844D2*
X51308D1*
X49088Y25595D2*
X51319D1*
X49088Y25346D2*
X51331D1*
X49088Y25098D2*
X51343D1*
X49088Y24849D2*
X51354D1*
X49088Y24600D2*
X51370D1*
X49088Y24352D2*
X51382D1*
X49088Y24103D2*
X51394D1*
X49088Y23854D2*
X51405D1*
X49088Y23606D2*
X51417D1*
X49088Y23357D2*
X51429D1*
X49088Y23108D2*
X51440D1*
X49088Y22860D2*
X51452D1*
X49088Y22611D2*
X51464D1*
X49088Y22362D2*
X51476D1*
X49088Y22114D2*
X51487D1*
X49088Y21865D2*
X51499D1*
X49088Y21616D2*
X51511D1*
X50338Y21367D2*
X51522D1*
X50338Y21119D2*
X51534D1*
X50338Y20870D2*
X51546D1*
X50338Y20621D2*
X51558D1*
X50338Y20373D2*
X51569D1*
X50338Y20124D2*
X51585D1*
X50338Y19875D2*
X51597D1*
X50338Y19627D2*
X51608D1*
X50338Y19378D2*
X51620D1*
X50338Y19129D2*
X51632D1*
X50338Y18881D2*
X51644D1*
X50338Y18632D2*
X51655D1*
X50338Y18383D2*
X51667D1*
X50338Y18135D2*
X51679D1*
X50338Y17886D2*
X51690D1*
X50326Y17637D2*
X51702D1*
X46965Y17388D2*
X51714D1*
X46965Y17140D2*
X51726D1*
X46965Y16891D2*
X48272D1*
X49108D2*
X51737D1*
X46965Y16642D2*
X48101D1*
X49279D2*
X51749D1*
X46965Y16394D2*
X48069D1*
X49311D2*
X51761D1*
X47760Y16145D2*
X48144D1*
X49236D2*
X51772D1*
X49276Y16316D2*
X49237Y16197D1*
X49162Y16075D1*
X51811Y15946D1*
X51725Y17682D1*
X51065Y31315D1*
X49065D1*
Y21565D1*
X50190D1*
X50295Y21504D1*
X50315Y21440D1*
Y17690D1*
X50254Y17585D1*
X50190Y17565D1*
X46940D1*
X46946Y16184D1*
X48183Y16123D1*
X48145Y16192D1*
X48106Y16310D1*
X48091Y16434D1*
X48103Y16558D1*
X48140Y16677D1*
X48202Y16786D1*
X48284Y16880D1*
X48384Y16955D1*
X48497Y17007D1*
X48619Y17034D1*
X48744Y17036D1*
X48866Y17012D1*
X48981Y16963D1*
X49083Y16892D1*
X49168Y16800D1*
X49232Y16693D1*
X49273Y16576D1*
X49289Y16440D1*
X49276Y16316D1*
D20*
X28377Y41628D3*
X29479D3*
X44127D3*
X43025D3*
X38690Y26878D3*
X37588D3*
X38690Y25315D3*
X37588D3*
X18440Y62690D3*
X17338D3*
X27440D3*
X26338D3*
X47940D3*
X46838D3*
X56940D3*
X55838D3*
X77440D3*
X76338D3*
X86940D3*
X85838D3*
X107440D3*
X106338D3*
X116690D3*
X115588D3*
X22940D3*
X21838D3*
X31940D3*
X30838D3*
X52440D3*
X51338D3*
X61940D3*
X60838D3*
X81940D3*
X80838D3*
X91940D3*
X90838D3*
X111440D3*
X110338D3*
X119940D3*
X118838D3*
X9190D3*
X8088D3*
X37440D3*
X36338D3*
X67440D3*
X66338D3*
X97440D3*
X96338D3*
X12940D3*
X11838D3*
X42440D3*
X41338D3*
X72940D3*
X71838D3*
X102440D3*
X101338D3*
D21*
X26940Y5940D3*
X26192D3*
X26566Y7042D3*
X28940Y5940D3*
X28192D3*
X28566Y7042D3*
X30940Y5940D3*
X30192D3*
X30566Y7042D3*
X32940Y5940D3*
X32192D3*
X32566Y7042D3*
D22*
X38690Y18753D3*
X40190D3*
X42190D3*
X43693D3*
D23*
X5940Y61940D3*
X121940D3*
X5940Y5940D3*
X121940D3*
D25*
X71940Y16940D3*
X72940D3*
X73940D3*
X74940D3*
X75940D3*
X76940D3*
X77940Y16945D3*
X78940D3*
Y18890D3*
X77940Y18885D3*
X76940Y18890D3*
X75940D3*
X74940D3*
X73940D3*
X72940Y18885D3*
X71940D3*
X81940Y16940D3*
X82940D3*
X83940D3*
X84940D3*
X85940D3*
X86940D3*
X87940Y16945D3*
X88940D3*
Y18890D3*
X87940Y18885D3*
X86940Y18890D3*
X85940D3*
X84940D3*
X83940D3*
X82940Y18885D3*
X81940D3*
X91940Y16940D3*
X92940D3*
X93940D3*
X94940D3*
X95940D3*
X96940D3*
X97940Y16945D3*
X98940D3*
Y18890D3*
X97940Y18885D3*
X96940Y18890D3*
X95940D3*
X94940D3*
X93940D3*
X92940Y18885D3*
X91940D3*
X101940Y16940D3*
X102940D3*
X103940D3*
X104940D3*
X105940D3*
X106940D3*
X107940Y16945D3*
X108940D3*
Y18890D3*
X107940Y18885D3*
X106940Y18890D3*
X105940D3*
X104940D3*
X103940D3*
X102940Y18885D3*
X101940D3*
D26*
X37690Y8190D3*
X39344D3*
X40997D3*
Y10355D3*
X39344D3*
X37690D3*
D27*
X35918Y6536D3*
X42769D3*
D25*
X15940Y44440D3*
X16940D3*
X17940D3*
X18940D3*
X19940D3*
X20940D3*
X21940Y44445D3*
X22940D3*
Y46390D3*
X21940Y46385D3*
X20940Y46390D3*
X19940D3*
X18940D3*
X17940D3*
X16940Y46385D3*
X15940D3*
X25940Y44440D3*
X26940D3*
X27940D3*
X28940D3*
X29940D3*
X30940D3*
X31940Y44445D3*
X32940D3*
Y46390D3*
X31940Y46385D3*
X30940Y46390D3*
X29940D3*
X28940D3*
X27940D3*
X26940Y46385D3*
X25940D3*
X45940Y44440D3*
X46940D3*
X47940D3*
X48940D3*
X49940D3*
X50940D3*
X51940Y44445D3*
X52940D3*
Y46390D3*
X51940Y46385D3*
X50940Y46390D3*
X49940D3*
X48940D3*
X47940D3*
X46940Y46385D3*
X45940D3*
X55940Y44440D3*
X56940D3*
X57940D3*
X58940D3*
X59940D3*
X60940D3*
X61940Y44445D3*
X62940D3*
Y46390D3*
X61940Y46385D3*
X60940Y46390D3*
X59940D3*
X58940D3*
X57940D3*
X56940Y46385D3*
X55940D3*
X75940Y44440D3*
X76940D3*
X77940D3*
X78940D3*
X79940D3*
X80940D3*
X81940Y44445D3*
X82940D3*
Y46390D3*
X81940Y46385D3*
X80940Y46390D3*
X79940D3*
X78940D3*
X77940D3*
X76940Y46385D3*
X75940D3*
X85940Y44440D3*
X86940D3*
X87940D3*
X88940D3*
X89940D3*
X90940D3*
X91940Y44445D3*
X92940D3*
Y46390D3*
X91940Y46385D3*
X90940Y46390D3*
X89940D3*
X88940D3*
X87940D3*
X86940Y46385D3*
X85940D3*
X105940Y44440D3*
X106940D3*
X107940D3*
X108940D3*
X109940D3*
X110940D3*
X111940Y44445D3*
X112940D3*
Y46390D3*
X111940Y46385D3*
X110940Y46390D3*
X109940D3*
X108940D3*
X107940D3*
X106940Y46385D3*
X105940D3*
X115940Y44440D3*
X116940D3*
X117940D3*
X118940D3*
X119940D3*
X120940D3*
X121940Y44445D3*
X122940D3*
Y46390D3*
X121940Y46385D3*
X120940Y46390D3*
X119940D3*
X118940D3*
X117940D3*
X116940Y46385D3*
X115940D3*
X5940Y44440D3*
X6940D3*
X7940D3*
X8940D3*
X9940D3*
X10940D3*
X11940Y44445D3*
X12940D3*
Y46390D3*
X11940Y46385D3*
X10940Y46390D3*
X9940D3*
X8940D3*
X7940D3*
X6940Y46385D3*
X5940D3*
X35940Y44440D3*
X36940D3*
X37940D3*
X38940D3*
X39940D3*
X40940D3*
X41940Y44445D3*
X42940D3*
Y46390D3*
X41940Y46385D3*
X40940Y46390D3*
X39940D3*
X38940D3*
X37940D3*
X36940Y46385D3*
X35940D3*
X65940Y44440D3*
X66940D3*
X67940D3*
X68940D3*
X69940D3*
X70940D3*
X71940Y44445D3*
X72940D3*
Y46390D3*
X71940Y46385D3*
X70940Y46390D3*
X69940D3*
X68940D3*
X67940D3*
X66940Y46385D3*
X65940D3*
X95940Y44440D3*
X96940D3*
X97940D3*
X98940D3*
X99940D3*
X100940D3*
X101940Y44445D3*
X102940D3*
Y46390D3*
X101940Y46385D3*
X100940Y46390D3*
X99940D3*
X98940D3*
X97940D3*
X96940Y46385D3*
X95940D3*
D28*
X64690Y31440D3*
Y30940D3*
Y30440D3*
Y29940D3*
X66816D3*
Y30440D3*
Y30940D3*
Y31440D3*
X60690Y30190D3*
Y29690D3*
Y29190D3*
Y28690D3*
X62816D3*
Y29190D3*
Y29690D3*
Y30190D3*
X56690Y28940D3*
Y28440D3*
Y27940D3*
Y27440D3*
X58816D3*
Y27940D3*
Y28440D3*
Y28940D3*
X52690Y27690D3*
Y27190D3*
Y26690D3*
Y26190D3*
X54816D3*
Y26690D3*
Y27190D3*
Y27690D3*
X64690Y25940D3*
Y25440D3*
Y24940D3*
Y24440D3*
X66816D3*
Y24940D3*
Y25440D3*
Y25940D3*
X60690Y24690D3*
Y24190D3*
Y23690D3*
Y23190D3*
X62816D3*
Y23690D3*
Y24190D3*
Y24690D3*
X56690Y23440D3*
Y22940D3*
Y22440D3*
Y21940D3*
X58816D3*
Y22440D3*
Y22940D3*
Y23440D3*
X52690Y22190D3*
Y21690D3*
Y21190D3*
Y20690D3*
X54816D3*
Y21190D3*
Y21690D3*
Y22190D3*
X64690Y15690D3*
Y15190D3*
Y14690D3*
Y14190D3*
X66816D3*
Y14690D3*
Y15190D3*
Y15690D3*
X60690Y14440D3*
Y13940D3*
Y13440D3*
Y12940D3*
X62816D3*
Y13440D3*
Y13940D3*
Y14440D3*
X56690Y13190D3*
Y12690D3*
Y12190D3*
Y11690D3*
X58816D3*
Y12190D3*
Y12690D3*
Y13190D3*
X52690Y11940D3*
Y11440D3*
Y10940D3*
Y10440D3*
X54816D3*
Y10940D3*
Y11440D3*
Y11940D3*
X64690Y10190D3*
Y9690D3*
Y9190D3*
Y8690D3*
X66816D3*
Y9190D3*
Y9690D3*
Y10190D3*
X60690Y8940D3*
Y8440D3*
Y7940D3*
Y7440D3*
X62816D3*
Y7940D3*
Y8440D3*
Y8940D3*
X56690Y7690D3*
Y7190D3*
Y6690D3*
Y6190D3*
X58816D3*
Y6690D3*
Y7190D3*
Y7690D3*
X52690Y6440D3*
Y5940D3*
Y5440D3*
Y4940D3*
X54816D3*
Y5440D3*
Y5940D3*
Y6440D3*
D29*
X35127Y28190D3*
Y27088D3*
D20*
X40940Y26940D3*
X42042D3*
D29*
X38440Y22940D3*
Y24042D3*
X45690Y14940D3*
Y13838D3*
D20*
X25389Y8639D3*
X26491D3*
X27389D3*
X28491D3*
X29389D3*
X30491D3*
X31389D3*
X32491D3*
X11940Y59940D3*
X13042D3*
X41338D3*
X42440D3*
X71838D3*
X72940D3*
X101440D3*
X102542D3*
X17440D3*
X18542D3*
X26440D3*
X27542D3*
X46940D3*
X48042D3*
X55940D3*
X57042D3*
X76338D3*
X77440D3*
X85940D3*
X87042D3*
X106440D3*
X107542D3*
X115690D3*
X116792D3*
X21940D3*
X23042D3*
X30940D3*
X32042D3*
X51440D3*
X52542D3*
X60940D3*
X62042D3*
X80755Y59818D3*
X81857D3*
X90838Y59940D3*
X91940D3*
X110440D3*
X111542D3*
X119339D3*
X120441D3*
X7440D3*
X8542D3*
X36440D3*
X37542D3*
X66440D3*
X67542D3*
X96440D3*
X97542D3*
D28*
X30190Y15315D3*
Y14815D3*
Y14315D3*
Y13815D3*
Y13315D3*
Y12815D3*
Y12315D3*
Y11815D3*
X33103D3*
Y12315D3*
Y12815D3*
Y13315D3*
Y13815D3*
Y14315D3*
Y14815D3*
Y15315D3*
X24443Y14570D3*
Y14070D3*
Y13570D3*
Y13070D3*
Y12570D3*
Y12070D3*
Y11570D3*
Y11070D3*
X27357D3*
Y11570D3*
Y12070D3*
Y12570D3*
Y13070D3*
Y13570D3*
Y14070D3*
Y14570D3*
X5940Y52940D3*
Y52440D3*
Y51940D3*
Y51440D3*
Y50940D3*
Y50440D3*
Y49940D3*
Y49440D3*
X8853D3*
Y49940D3*
Y50440D3*
Y50940D3*
Y51440D3*
Y51940D3*
Y52440D3*
Y52940D3*
X35440D3*
Y52440D3*
Y51940D3*
Y51440D3*
Y50940D3*
Y50440D3*
Y49940D3*
Y49440D3*
X38353D3*
Y49940D3*
Y50440D3*
Y50940D3*
Y51440D3*
Y51940D3*
Y52440D3*
Y52940D3*
X65440D3*
Y52440D3*
Y51940D3*
Y51440D3*
Y50940D3*
Y50440D3*
Y49940D3*
Y49440D3*
X68353D3*
Y49940D3*
Y50440D3*
Y50940D3*
Y51440D3*
Y51940D3*
Y52440D3*
Y52940D3*
X95440D3*
Y52440D3*
Y51940D3*
Y51440D3*
Y50940D3*
Y50440D3*
Y49940D3*
Y49440D3*
X98353D3*
Y49940D3*
Y50440D3*
Y50940D3*
Y51440D3*
Y51940D3*
Y52440D3*
Y52940D3*
X12128Y53003D3*
Y52503D3*
Y52003D3*
Y51503D3*
Y51003D3*
Y50503D3*
Y50003D3*
Y49503D3*
X15041D3*
Y50003D3*
Y50503D3*
Y51003D3*
Y51503D3*
Y52003D3*
Y52503D3*
Y53003D3*
X40440Y52940D3*
Y52440D3*
Y51940D3*
Y51440D3*
Y50940D3*
Y50440D3*
Y49940D3*
Y49440D3*
X43353D3*
Y49940D3*
Y50440D3*
Y50940D3*
Y51440D3*
Y51940D3*
Y52440D3*
Y52940D3*
X70940D3*
Y52440D3*
Y51940D3*
Y51440D3*
Y50940D3*
Y50440D3*
Y49940D3*
Y49440D3*
X73853D3*
Y49940D3*
Y50440D3*
Y50940D3*
Y51440D3*
Y51940D3*
Y52440D3*
Y52940D3*
X100690D3*
Y52440D3*
Y51940D3*
Y51440D3*
Y50940D3*
Y50440D3*
Y49940D3*
Y49440D3*
X103603D3*
Y49940D3*
Y50440D3*
Y50940D3*
Y51440D3*
Y51940D3*
Y52440D3*
Y52940D3*
D30*
X19440Y36378D3*
X21440Y41379D3*
X20440D3*
X19440D3*
X18440D3*
X48940Y36378D3*
X50940Y41379D3*
X49940D3*
X48940D3*
X47940D3*
X78940Y36378D3*
X80940Y41379D3*
X79940D3*
X78940D3*
X77940D3*
X108940Y36378D3*
X110940Y41379D3*
X109940D3*
X108940D3*
X107940D3*
D28*
X27877Y40128D3*
Y39628D3*
Y39128D3*
Y38628D3*
Y38128D3*
Y37628D3*
Y37128D3*
X30003D3*
Y37628D3*
Y38128D3*
Y38628D3*
Y39128D3*
Y39628D3*
Y40128D3*
X35439D3*
Y39628D3*
Y39128D3*
Y38628D3*
Y38128D3*
Y37628D3*
Y37128D3*
X37565D3*
Y37628D3*
Y38128D3*
Y38628D3*
Y39128D3*
Y39628D3*
Y40128D3*
X42627D3*
Y39628D3*
Y39128D3*
Y38628D3*
Y38128D3*
Y37628D3*
Y37128D3*
X44753D3*
Y37628D3*
Y38128D3*
Y38628D3*
Y39128D3*
Y39628D3*
Y40128D3*
D31*
X9940Y16435D3*
X10940D3*
X11940D3*
X12940D3*
X13940D3*
X14940D3*
X15940D3*
X16940D3*
X17940D3*
X18940D3*
X19940D3*
X20940D3*
X21940D3*
X22940D3*
X23940D3*
X24940D3*
X25940D3*
X26940D3*
X27940D3*
X28940D3*
D32*
Y17440D3*
D31*
X27940Y17435D3*
X26940D3*
X25940D3*
X24940D3*
X23940D3*
X22940D3*
X21940D3*
X20940D3*
X19940D3*
X18940D3*
X17940D3*
X16940D3*
X15940D3*
X14940D3*
X13940D3*
X12940D3*
X11940D3*
X10940D3*
X9940Y17440D3*
D32*
Y33500D3*
D31*
X10940D3*
X11940Y33505D3*
X12940Y33500D3*
X13940Y33505D3*
X14940D3*
X15940D3*
X16940D3*
X17940D3*
X18940D3*
X19940D3*
X20940D3*
X21940D3*
X22940D3*
X23940D3*
X24940D3*
X25940D3*
X26940D3*
X27940D3*
X28940D3*
Y34505D3*
X27940D3*
X26940D3*
X25940D3*
X24940D3*
X23940D3*
X22940D3*
X21940D3*
X20940D3*
X19940D3*
X18940D3*
X17940D3*
X16940D3*
X15940D3*
X14940D3*
X13940D3*
X12940D3*
X11940D3*
X10940D3*
X9940D3*
X31560Y30465D3*
X32560D3*
X31560Y28465D3*
X32560D3*
X31560Y26465D3*
X32560D3*
X31560Y24465D3*
X32560D3*
X31560Y22465D3*
X32560D3*
X31560Y20465D3*
X32560D3*
Y19470D3*
X31560Y19465D3*
X32560Y21465D3*
X31560D3*
X32560Y23465D3*
X31560D3*
X32560Y25465D3*
X31560D3*
X32560Y27465D3*
X31560D3*
X32560Y29465D3*
X31560D3*
X32560Y31465D3*
D32*
X31560Y31460D3*
D33*
X36440Y16940D3*
Y17940D3*
Y22940D3*
Y23940D3*
D34*
Y24940D3*
D35*
X48690Y9440D3*
D36*
Y10440D3*
Y11440D3*
Y12440D3*
Y13440D3*
Y14440D3*
Y15440D3*
Y16440D3*
Y17440D3*
Y18440D3*
Y19940D3*
D37*
X7940Y7940D3*
D38*
X8940D3*
X9940D3*
X10940D3*
X11940D3*
X12940D3*
X13940D3*
X14940D3*
X15940D3*
X16940D3*
X17940D3*
X18940D3*
X19940D3*
X20940D3*
Y13940D3*
X19940D3*
X18940D3*
X17940D3*
X16940D3*
X15940D3*
X14940D3*
X13940D3*
X12940D3*
X11940D3*
X10940D3*
X9940D3*
X8940D3*
X7940D3*
D28*
X16940Y58440D3*
Y57940D3*
Y57440D3*
Y56940D3*
Y56440D3*
Y55940D3*
Y55440D3*
Y54940D3*
X19066D3*
Y55440D3*
Y55940D3*
Y56440D3*
Y56940D3*
Y57440D3*
Y57940D3*
Y58440D3*
X25940D3*
Y57940D3*
Y57440D3*
Y56940D3*
Y56440D3*
Y55940D3*
Y55440D3*
Y54940D3*
X28066D3*
Y55440D3*
Y55940D3*
Y56440D3*
Y56940D3*
Y57440D3*
Y57940D3*
Y58440D3*
X46440D3*
Y57940D3*
Y57440D3*
Y56940D3*
Y56440D3*
Y55940D3*
Y55440D3*
Y54940D3*
X48566D3*
Y55440D3*
Y55940D3*
Y56440D3*
Y56940D3*
Y57440D3*
Y57940D3*
Y58440D3*
X55440D3*
Y57940D3*
Y57440D3*
Y56940D3*
Y56440D3*
Y55940D3*
Y55440D3*
Y54940D3*
X57566D3*
Y55440D3*
Y55940D3*
Y56440D3*
Y56940D3*
Y57440D3*
Y57940D3*
Y58440D3*
X75940D3*
Y57940D3*
Y57440D3*
Y56940D3*
Y56440D3*
Y55940D3*
Y55440D3*
Y54940D3*
X78066D3*
Y55440D3*
Y55940D3*
Y56440D3*
Y56940D3*
Y57440D3*
Y57940D3*
Y58440D3*
X85440D3*
Y57940D3*
Y57440D3*
Y56940D3*
Y56440D3*
Y55940D3*
Y55440D3*
Y54940D3*
X87566D3*
Y55440D3*
Y55940D3*
Y56440D3*
Y56940D3*
Y57440D3*
Y57940D3*
Y58440D3*
X105940D3*
Y57940D3*
Y57440D3*
Y56940D3*
Y56440D3*
Y55940D3*
Y55440D3*
Y54940D3*
X108066D3*
Y55440D3*
Y55940D3*
Y56440D3*
Y56940D3*
Y57440D3*
Y57940D3*
Y58440D3*
X115190D3*
Y57940D3*
Y57440D3*
Y56940D3*
Y56440D3*
Y55940D3*
Y55440D3*
Y54940D3*
X117316D3*
Y55440D3*
Y55940D3*
Y56440D3*
Y56940D3*
Y57440D3*
Y57940D3*
Y58440D3*
X21440D3*
Y57940D3*
Y57440D3*
Y56940D3*
Y56440D3*
Y55940D3*
Y55440D3*
Y54940D3*
X23566D3*
Y55440D3*
Y55940D3*
Y56440D3*
Y56940D3*
Y57440D3*
Y57940D3*
Y58440D3*
X30440D3*
Y57940D3*
Y57440D3*
Y56940D3*
Y56440D3*
Y55940D3*
Y55440D3*
Y54940D3*
X32566D3*
Y55440D3*
Y55940D3*
Y56440D3*
Y56940D3*
Y57440D3*
Y57940D3*
Y58440D3*
X50940D3*
Y57940D3*
Y57440D3*
Y56940D3*
Y56440D3*
Y55940D3*
Y55440D3*
Y54940D3*
X53066D3*
Y55440D3*
Y55940D3*
Y56440D3*
Y56940D3*
Y57440D3*
Y57940D3*
Y58440D3*
X60440D3*
Y57940D3*
Y57440D3*
Y56940D3*
Y56440D3*
Y55940D3*
Y55440D3*
Y54940D3*
X62566D3*
Y55440D3*
Y55940D3*
Y56440D3*
Y56940D3*
Y57440D3*
Y57940D3*
Y58440D3*
X80440D3*
Y57940D3*
Y57440D3*
Y56940D3*
Y56440D3*
Y55940D3*
Y55440D3*
Y54940D3*
X82566D3*
Y55440D3*
Y55940D3*
Y56440D3*
Y56940D3*
Y57440D3*
Y57940D3*
Y58440D3*
X90440D3*
Y57940D3*
Y57440D3*
Y56940D3*
Y56440D3*
Y55940D3*
Y55440D3*
Y54940D3*
X92566D3*
Y55440D3*
Y55940D3*
Y56440D3*
Y56940D3*
Y57440D3*
Y57940D3*
Y58440D3*
X109940D3*
Y57940D3*
Y57440D3*
Y56940D3*
Y56440D3*
Y55940D3*
Y55440D3*
Y54940D3*
X112066D3*
Y55440D3*
Y55940D3*
Y56440D3*
Y56940D3*
Y57440D3*
Y57940D3*
Y58440D3*
X119940D3*
Y57940D3*
Y57440D3*
Y56940D3*
Y56440D3*
Y55940D3*
Y55440D3*
Y54940D3*
X122066D3*
Y55440D3*
Y55940D3*
Y56440D3*
Y56940D3*
Y57440D3*
Y57940D3*
Y58440D3*
X6440D3*
Y57940D3*
Y57440D3*
Y56940D3*
Y56440D3*
Y55940D3*
Y55440D3*
Y54940D3*
X8566D3*
Y55440D3*
Y55940D3*
Y56440D3*
Y56940D3*
Y57440D3*
Y57940D3*
Y58440D3*
X35940D3*
Y57940D3*
Y57440D3*
Y56940D3*
Y56440D3*
Y55940D3*
Y55440D3*
Y54940D3*
X38066D3*
Y55440D3*
Y55940D3*
Y56440D3*
Y56940D3*
Y57440D3*
Y57940D3*
Y58440D3*
X65940D3*
Y57940D3*
Y57440D3*
Y56940D3*
Y56440D3*
Y55940D3*
Y55440D3*
Y54940D3*
X68066D3*
Y55440D3*
Y55940D3*
Y56440D3*
Y56940D3*
Y57440D3*
Y57940D3*
Y58440D3*
X95940D3*
Y57940D3*
Y57440D3*
Y56940D3*
Y56440D3*
Y55940D3*
Y55440D3*
Y54940D3*
X98066D3*
Y55440D3*
Y55940D3*
Y56440D3*
Y56940D3*
Y57440D3*
Y57940D3*
Y58440D3*
X11440D3*
Y57940D3*
Y57440D3*
Y56940D3*
Y56440D3*
Y55940D3*
Y55440D3*
Y54940D3*
X13566D3*
Y55440D3*
Y55940D3*
Y56440D3*
Y56940D3*
Y57440D3*
Y57940D3*
Y58440D3*
X40940D3*
Y57940D3*
Y57440D3*
Y56940D3*
Y56440D3*
Y55940D3*
Y55440D3*
Y54940D3*
X43066D3*
Y55440D3*
Y55940D3*
Y56440D3*
Y56940D3*
Y57440D3*
Y57940D3*
Y58440D3*
X71440D3*
Y57940D3*
Y57440D3*
Y56940D3*
Y56440D3*
Y55940D3*
Y55440D3*
Y54940D3*
X73566D3*
Y55440D3*
Y55940D3*
Y56440D3*
Y56940D3*
Y57440D3*
Y57940D3*
Y58440D3*
X100940D3*
Y57940D3*
Y57440D3*
Y56940D3*
Y56440D3*
Y55940D3*
Y55440D3*
Y54940D3*
X103066D3*
Y55440D3*
Y55940D3*
Y56440D3*
Y56940D3*
Y57440D3*
Y57940D3*
Y58440D3*
M02*
