G04 DipTrace 2.3.0.3*
%INTopMask.gbr*%
%MOIN*%
%ADD31C,0.072*%
%ADD32R,0.072X0.072*%
%ADD52C,0.078*%
%ADD54R,0.078X0.078*%
%ADD56C,0.0867*%
%ADD57R,0.0867X0.0867*%
%ADD61R,0.08X0.08*%
%ADD62C,0.08*%
%ADD63R,0.0474X0.1143*%
%ADD65R,0.0789X0.071*%
%ADD67R,0.0867X0.0316*%
%ADD69C,0.26*%
%ADD71C,0.1497*%
%ADD73R,0.058X0.153*%
%ADD75C,0.258*%
%ADD77R,0.128X0.128*%
%ADD79R,0.0671X0.0671*%
%ADD81R,0.071X0.0789*%
%FSLAX44Y44*%
G04*
G70*
G90*
G75*
G01*
%LNTopMask*%
%LPD*%
D81*
X9190Y62690D3*
X8088D3*
X12940D3*
X11838D3*
X18440D3*
X17338D3*
X22940D3*
X21838D3*
X27440D3*
X26338D3*
X31940D3*
X30838D3*
X37440D3*
X36338D3*
X42440D3*
X41338D3*
X47940D3*
X46838D3*
X52440D3*
X51338D3*
X56940D3*
X55838D3*
X61940D3*
X60838D3*
X67440D3*
X66338D3*
X72940D3*
X71838D3*
X77440D3*
X76338D3*
X81940D3*
X80838D3*
X86940D3*
X85838D3*
X91940D3*
X90838D3*
X97440D3*
X96338D3*
X102440D3*
X101338D3*
X107440D3*
X106338D3*
X111440D3*
X110338D3*
X116690D3*
X115588D3*
X119940D3*
X118838D3*
X28377Y41628D3*
X29479D3*
X44127D3*
X43025D3*
X38690Y26878D3*
X37588D3*
X38690Y25315D3*
X37588D3*
D79*
X26940Y5940D3*
X26192D3*
X26566Y7042D3*
X28940Y5940D3*
X28192D3*
X28566Y7042D3*
X30940Y5940D3*
X30192D3*
X30566Y7042D3*
X32940Y5940D3*
X32192D3*
X32566Y7042D3*
D77*
X38690Y18753D3*
X40190D3*
X42190D3*
X43693D3*
D75*
X5940Y61940D3*
X121940D3*
X5940Y5940D3*
X121940D3*
D73*
X5940Y44440D3*
X6940D3*
X7940D3*
X8940D3*
X9940D3*
X10940D3*
X11940Y44445D3*
X12940D3*
Y46390D3*
X11940Y46385D3*
X10940Y46390D3*
X9940D3*
X8940D3*
X7940D3*
X6940Y46385D3*
X5940D3*
X15940Y44440D3*
X16940D3*
X17940D3*
X18940D3*
X19940D3*
X20940D3*
X21940Y44445D3*
X22940D3*
Y46390D3*
X21940Y46385D3*
X20940Y46390D3*
X19940D3*
X18940D3*
X17940D3*
X16940Y46385D3*
X15940D3*
X25940Y44440D3*
X26940D3*
X27940D3*
X28940D3*
X29940D3*
X30940D3*
X31940Y44445D3*
X32940D3*
Y46390D3*
X31940Y46385D3*
X30940Y46390D3*
X29940D3*
X28940D3*
X27940D3*
X26940Y46385D3*
X25940D3*
X35940Y44440D3*
X36940D3*
X37940D3*
X38940D3*
X39940D3*
X40940D3*
X41940Y44445D3*
X42940D3*
Y46390D3*
X41940Y46385D3*
X40940Y46390D3*
X39940D3*
X38940D3*
X37940D3*
X36940Y46385D3*
X35940D3*
X45940Y44440D3*
X46940D3*
X47940D3*
X48940D3*
X49940D3*
X50940D3*
X51940Y44445D3*
X52940D3*
Y46390D3*
X51940Y46385D3*
X50940Y46390D3*
X49940D3*
X48940D3*
X47940D3*
X46940Y46385D3*
X45940D3*
X55940Y44440D3*
X56940D3*
X57940D3*
X58940D3*
X59940D3*
X60940D3*
X61940Y44445D3*
X62940D3*
Y46390D3*
X61940Y46385D3*
X60940Y46390D3*
X59940D3*
X58940D3*
X57940D3*
X56940Y46385D3*
X55940D3*
X65940Y44440D3*
X66940D3*
X67940D3*
X68940D3*
X69940D3*
X70940D3*
X71940Y44445D3*
X72940D3*
Y46390D3*
X71940Y46385D3*
X70940Y46390D3*
X69940D3*
X68940D3*
X67940D3*
X66940Y46385D3*
X65940D3*
X75940Y44440D3*
X76940D3*
X77940D3*
X78940D3*
X79940D3*
X80940D3*
X81940Y44445D3*
X82940D3*
Y46390D3*
X81940Y46385D3*
X80940Y46390D3*
X79940D3*
X78940D3*
X77940D3*
X76940Y46385D3*
X75940D3*
X85940Y44440D3*
X86940D3*
X87940D3*
X88940D3*
X89940D3*
X90940D3*
X91940Y44445D3*
X92940D3*
Y46390D3*
X91940Y46385D3*
X90940Y46390D3*
X89940D3*
X88940D3*
X87940D3*
X86940Y46385D3*
X85940D3*
X95940Y44440D3*
X96940D3*
X97940D3*
X98940D3*
X99940D3*
X100940D3*
X101940Y44445D3*
X102940D3*
Y46390D3*
X101940Y46385D3*
X100940Y46390D3*
X99940D3*
X98940D3*
X97940D3*
X96940Y46385D3*
X95940D3*
X105940Y44440D3*
X106940D3*
X107940D3*
X108940D3*
X109940D3*
X110940D3*
X111940Y44445D3*
X112940D3*
Y46390D3*
X111940Y46385D3*
X110940Y46390D3*
X109940D3*
X108940D3*
X107940D3*
X106940Y46385D3*
X105940D3*
X115940Y44440D3*
X116940D3*
X117940D3*
X118940D3*
X119940D3*
X120940D3*
X121940Y44445D3*
X122940D3*
Y46390D3*
X121940Y46385D3*
X120940Y46390D3*
X119940D3*
X118940D3*
X117940D3*
X116940Y46385D3*
X115940D3*
X71940Y16940D3*
X72940D3*
X73940D3*
X74940D3*
X75940D3*
X76940D3*
X77940Y16945D3*
X78940D3*
Y18890D3*
X77940Y18885D3*
X76940Y18890D3*
X75940D3*
X74940D3*
X73940D3*
X72940Y18885D3*
X71940D3*
X81940Y16940D3*
X82940D3*
X83940D3*
X84940D3*
X85940D3*
X86940D3*
X87940Y16945D3*
X88940D3*
Y18890D3*
X87940Y18885D3*
X86940Y18890D3*
X85940D3*
X84940D3*
X83940D3*
X82940Y18885D3*
X81940D3*
X91940Y16940D3*
X92940D3*
X93940D3*
X94940D3*
X95940D3*
X96940D3*
X97940Y16945D3*
X98940D3*
Y18890D3*
X97940Y18885D3*
X96940Y18890D3*
X95940D3*
X94940D3*
X93940D3*
X92940Y18885D3*
X91940D3*
X101940Y16940D3*
X102940D3*
X103940D3*
X104940D3*
X105940D3*
X106940D3*
X107940Y16945D3*
X108940D3*
Y18890D3*
X107940Y18885D3*
X106940Y18890D3*
X105940D3*
X104940D3*
X103940D3*
X102940Y18885D3*
X101940D3*
D71*
X37690Y8190D3*
X39344D3*
X40997D3*
Y10355D3*
X39344D3*
X37690D3*
D69*
X35918Y6536D3*
X42769D3*
D67*
X64690Y31440D3*
Y30940D3*
Y30440D3*
Y29940D3*
X66816D3*
Y30440D3*
Y30940D3*
Y31440D3*
X60690Y30190D3*
Y29690D3*
Y29190D3*
Y28690D3*
X62816D3*
Y29190D3*
Y29690D3*
Y30190D3*
X56690Y28940D3*
Y28440D3*
Y27940D3*
Y27440D3*
X58816D3*
Y27940D3*
Y28440D3*
Y28940D3*
X52690Y27690D3*
Y27190D3*
Y26690D3*
Y26190D3*
X54816D3*
Y26690D3*
Y27190D3*
Y27690D3*
X64690Y25940D3*
Y25440D3*
Y24940D3*
Y24440D3*
X66816D3*
Y24940D3*
Y25440D3*
Y25940D3*
X60690Y24690D3*
Y24190D3*
Y23690D3*
Y23190D3*
X62816D3*
Y23690D3*
Y24190D3*
Y24690D3*
X56690Y23440D3*
Y22940D3*
Y22440D3*
Y21940D3*
X58816D3*
Y22440D3*
Y22940D3*
Y23440D3*
X52690Y22190D3*
Y21690D3*
Y21190D3*
Y20690D3*
X54816D3*
Y21190D3*
Y21690D3*
Y22190D3*
X64690Y15690D3*
Y15190D3*
Y14690D3*
Y14190D3*
X66816D3*
Y14690D3*
Y15190D3*
Y15690D3*
X60690Y14440D3*
Y13940D3*
Y13440D3*
Y12940D3*
X62816D3*
Y13440D3*
Y13940D3*
Y14440D3*
X56690Y13190D3*
Y12690D3*
Y12190D3*
Y11690D3*
X58816D3*
Y12190D3*
Y12690D3*
Y13190D3*
X52690Y11940D3*
Y11440D3*
Y10940D3*
Y10440D3*
X54816D3*
Y10940D3*
Y11440D3*
Y11940D3*
X64690Y10190D3*
Y9690D3*
Y9190D3*
Y8690D3*
X66816D3*
Y9190D3*
Y9690D3*
Y10190D3*
X60690Y8940D3*
Y8440D3*
Y7940D3*
Y7440D3*
X62816D3*
Y7940D3*
Y8440D3*
Y8940D3*
X56690Y7690D3*
Y7190D3*
Y6690D3*
Y6190D3*
X58816D3*
Y6690D3*
Y7190D3*
Y7690D3*
X52690Y6440D3*
Y5940D3*
Y5440D3*
Y4940D3*
X54816D3*
Y5440D3*
Y5940D3*
Y6440D3*
D81*
X7440Y59940D3*
X8542D3*
X11940D3*
X13042D3*
X17440D3*
X18542D3*
X21940D3*
X23042D3*
X26440D3*
X27542D3*
X30940D3*
X32042D3*
X36440D3*
X37542D3*
X41338D3*
X42440D3*
X46940D3*
X48042D3*
X51440D3*
X52542D3*
X55940D3*
X57042D3*
X60940D3*
X62042D3*
X66440D3*
X67542D3*
X71838D3*
X72940D3*
X76338D3*
X77440D3*
X85940D3*
X87042D3*
X90838D3*
X91940D3*
X96440D3*
X97542D3*
X101440D3*
X102542D3*
X106440D3*
X107542D3*
X110440D3*
X111542D3*
X115690D3*
X116792D3*
X119339D3*
X120441D3*
X80755Y59818D3*
X81857D3*
D65*
X35127Y28190D3*
Y27088D3*
D81*
X40940Y26940D3*
X42042D3*
D65*
X38440Y22940D3*
Y24042D3*
X45690Y14940D3*
Y13838D3*
D81*
X25389Y8639D3*
X26491D3*
X27389D3*
X28491D3*
X29389D3*
X30491D3*
X31389D3*
X32491D3*
D67*
X12128Y53003D3*
Y52503D3*
Y52003D3*
Y51503D3*
Y51003D3*
Y50503D3*
Y50003D3*
Y49503D3*
X15041D3*
Y50003D3*
Y50503D3*
Y51003D3*
Y51503D3*
Y52003D3*
Y52503D3*
Y53003D3*
X5940Y52940D3*
Y52440D3*
Y51940D3*
Y51440D3*
Y50940D3*
Y50440D3*
Y49940D3*
Y49440D3*
X8853D3*
Y49940D3*
Y50440D3*
Y50940D3*
Y51440D3*
Y51940D3*
Y52440D3*
Y52940D3*
X35440D3*
Y52440D3*
Y51940D3*
Y51440D3*
Y50940D3*
Y50440D3*
Y49940D3*
Y49440D3*
X38353D3*
Y49940D3*
Y50440D3*
Y50940D3*
Y51440D3*
Y51940D3*
Y52440D3*
Y52940D3*
X40440D3*
Y52440D3*
Y51940D3*
Y51440D3*
Y50940D3*
Y50440D3*
Y49940D3*
Y49440D3*
X43353D3*
Y49940D3*
Y50440D3*
Y50940D3*
Y51440D3*
Y51940D3*
Y52440D3*
Y52940D3*
X65440D3*
Y52440D3*
Y51940D3*
Y51440D3*
Y50940D3*
Y50440D3*
Y49940D3*
Y49440D3*
X68353D3*
Y49940D3*
Y50440D3*
Y50940D3*
Y51440D3*
Y51940D3*
Y52440D3*
Y52940D3*
X70940D3*
Y52440D3*
Y51940D3*
Y51440D3*
Y50940D3*
Y50440D3*
Y49940D3*
Y49440D3*
X73853D3*
Y49940D3*
Y50440D3*
Y50940D3*
Y51440D3*
Y51940D3*
Y52440D3*
Y52940D3*
X95440D3*
Y52440D3*
Y51940D3*
Y51440D3*
Y50940D3*
Y50440D3*
Y49940D3*
Y49440D3*
X98353D3*
Y49940D3*
Y50440D3*
Y50940D3*
Y51440D3*
Y51940D3*
Y52440D3*
Y52940D3*
X100690D3*
Y52440D3*
Y51940D3*
Y51440D3*
Y50940D3*
Y50440D3*
Y49940D3*
Y49440D3*
X103603D3*
Y49940D3*
Y50440D3*
Y50940D3*
Y51440D3*
Y51940D3*
Y52440D3*
Y52940D3*
X30190Y15315D3*
Y14815D3*
Y14315D3*
Y13815D3*
Y13315D3*
Y12815D3*
Y12315D3*
Y11815D3*
X33103D3*
Y12315D3*
Y12815D3*
Y13315D3*
Y13815D3*
Y14315D3*
Y14815D3*
Y15315D3*
X24443Y14570D3*
Y14070D3*
Y13570D3*
Y13070D3*
Y12570D3*
Y12070D3*
Y11570D3*
Y11070D3*
X27357D3*
Y11570D3*
Y12070D3*
Y12570D3*
Y13070D3*
Y13570D3*
Y14070D3*
Y14570D3*
D63*
X19440Y36378D3*
X21440Y41379D3*
X20440D3*
X19440D3*
X18440D3*
X48940Y36378D3*
X50940Y41379D3*
X49940D3*
X48940D3*
X47940D3*
X78940Y36378D3*
X80940Y41379D3*
X79940D3*
X78940D3*
X77940D3*
X108940Y36378D3*
X110940Y41379D3*
X109940D3*
X108940D3*
X107940D3*
D67*
X6440Y58440D3*
Y57940D3*
Y57440D3*
Y56940D3*
Y56440D3*
Y55940D3*
Y55440D3*
Y54940D3*
X8566D3*
Y55440D3*
Y55940D3*
Y56440D3*
Y56940D3*
Y57440D3*
Y57940D3*
Y58440D3*
X11440D3*
Y57940D3*
Y57440D3*
Y56940D3*
Y56440D3*
Y55940D3*
Y55440D3*
Y54940D3*
X13566D3*
Y55440D3*
Y55940D3*
Y56440D3*
Y56940D3*
Y57440D3*
Y57940D3*
Y58440D3*
X16940D3*
Y57940D3*
Y57440D3*
Y56940D3*
Y56440D3*
Y55940D3*
Y55440D3*
Y54940D3*
X19066D3*
Y55440D3*
Y55940D3*
Y56440D3*
Y56940D3*
Y57440D3*
Y57940D3*
Y58440D3*
X21440D3*
Y57940D3*
Y57440D3*
Y56940D3*
Y56440D3*
Y55940D3*
Y55440D3*
Y54940D3*
X23566D3*
Y55440D3*
Y55940D3*
Y56440D3*
Y56940D3*
Y57440D3*
Y57940D3*
Y58440D3*
X25940D3*
Y57940D3*
Y57440D3*
Y56940D3*
Y56440D3*
Y55940D3*
Y55440D3*
Y54940D3*
X28066D3*
Y55440D3*
Y55940D3*
Y56440D3*
Y56940D3*
Y57440D3*
Y57940D3*
Y58440D3*
X30440D3*
Y57940D3*
Y57440D3*
Y56940D3*
Y56440D3*
Y55940D3*
Y55440D3*
Y54940D3*
X32566D3*
Y55440D3*
Y55940D3*
Y56440D3*
Y56940D3*
Y57440D3*
Y57940D3*
Y58440D3*
X35940D3*
Y57940D3*
Y57440D3*
Y56940D3*
Y56440D3*
Y55940D3*
Y55440D3*
Y54940D3*
X38066D3*
Y55440D3*
Y55940D3*
Y56440D3*
Y56940D3*
Y57440D3*
Y57940D3*
Y58440D3*
X40940D3*
Y57940D3*
Y57440D3*
Y56940D3*
Y56440D3*
Y55940D3*
Y55440D3*
Y54940D3*
X43066D3*
Y55440D3*
Y55940D3*
Y56440D3*
Y56940D3*
Y57440D3*
Y57940D3*
Y58440D3*
X46440D3*
Y57940D3*
Y57440D3*
Y56940D3*
Y56440D3*
Y55940D3*
Y55440D3*
Y54940D3*
X48566D3*
Y55440D3*
Y55940D3*
Y56440D3*
Y56940D3*
Y57440D3*
Y57940D3*
Y58440D3*
X50940D3*
Y57940D3*
Y57440D3*
Y56940D3*
Y56440D3*
Y55940D3*
Y55440D3*
Y54940D3*
X53066D3*
Y55440D3*
Y55940D3*
Y56440D3*
Y56940D3*
Y57440D3*
Y57940D3*
Y58440D3*
X55440D3*
Y57940D3*
Y57440D3*
Y56940D3*
Y56440D3*
Y55940D3*
Y55440D3*
Y54940D3*
X57566D3*
Y55440D3*
Y55940D3*
Y56440D3*
Y56940D3*
Y57440D3*
Y57940D3*
Y58440D3*
X60440D3*
Y57940D3*
Y57440D3*
Y56940D3*
Y56440D3*
Y55940D3*
Y55440D3*
Y54940D3*
X62566D3*
Y55440D3*
Y55940D3*
Y56440D3*
Y56940D3*
Y57440D3*
Y57940D3*
Y58440D3*
X65940D3*
Y57940D3*
Y57440D3*
Y56940D3*
Y56440D3*
Y55940D3*
Y55440D3*
Y54940D3*
X68066D3*
Y55440D3*
Y55940D3*
Y56440D3*
Y56940D3*
Y57440D3*
Y57940D3*
Y58440D3*
X71440D3*
Y57940D3*
Y57440D3*
Y56940D3*
Y56440D3*
Y55940D3*
Y55440D3*
Y54940D3*
X73566D3*
Y55440D3*
Y55940D3*
Y56440D3*
Y56940D3*
Y57440D3*
Y57940D3*
Y58440D3*
X75940D3*
Y57940D3*
Y57440D3*
Y56940D3*
Y56440D3*
Y55940D3*
Y55440D3*
Y54940D3*
X78066D3*
Y55440D3*
Y55940D3*
Y56440D3*
Y56940D3*
Y57440D3*
Y57940D3*
Y58440D3*
X80440D3*
Y57940D3*
Y57440D3*
Y56940D3*
Y56440D3*
Y55940D3*
Y55440D3*
Y54940D3*
X82566D3*
Y55440D3*
Y55940D3*
Y56440D3*
Y56940D3*
Y57440D3*
Y57940D3*
Y58440D3*
X85440D3*
Y57940D3*
Y57440D3*
Y56940D3*
Y56440D3*
Y55940D3*
Y55440D3*
Y54940D3*
X87566D3*
Y55440D3*
Y55940D3*
Y56440D3*
Y56940D3*
Y57440D3*
Y57940D3*
Y58440D3*
X90440D3*
Y57940D3*
Y57440D3*
Y56940D3*
Y56440D3*
Y55940D3*
Y55440D3*
Y54940D3*
X92566D3*
Y55440D3*
Y55940D3*
Y56440D3*
Y56940D3*
Y57440D3*
Y57940D3*
Y58440D3*
X95940D3*
Y57940D3*
Y57440D3*
Y56940D3*
Y56440D3*
Y55940D3*
Y55440D3*
Y54940D3*
X98066D3*
Y55440D3*
Y55940D3*
Y56440D3*
Y56940D3*
Y57440D3*
Y57940D3*
Y58440D3*
X100940D3*
Y57940D3*
Y57440D3*
Y56940D3*
Y56440D3*
Y55940D3*
Y55440D3*
Y54940D3*
X103066D3*
Y55440D3*
Y55940D3*
Y56440D3*
Y56940D3*
Y57440D3*
Y57940D3*
Y58440D3*
X105940D3*
Y57940D3*
Y57440D3*
Y56940D3*
Y56440D3*
Y55940D3*
Y55440D3*
Y54940D3*
X108066D3*
Y55440D3*
Y55940D3*
Y56440D3*
Y56940D3*
Y57440D3*
Y57940D3*
Y58440D3*
X109940D3*
Y57940D3*
Y57440D3*
Y56940D3*
Y56440D3*
Y55940D3*
Y55440D3*
Y54940D3*
X112066D3*
Y55440D3*
Y55940D3*
Y56440D3*
Y56940D3*
Y57440D3*
Y57940D3*
Y58440D3*
X115190D3*
Y57940D3*
Y57440D3*
Y56940D3*
Y56440D3*
Y55940D3*
Y55440D3*
Y54940D3*
X117316D3*
Y55440D3*
Y55940D3*
Y56440D3*
Y56940D3*
Y57440D3*
Y57940D3*
Y58440D3*
X119940D3*
Y57940D3*
Y57440D3*
Y56940D3*
Y56440D3*
Y55940D3*
Y55440D3*
Y54940D3*
X122066D3*
Y55440D3*
Y55940D3*
Y56440D3*
Y56940D3*
Y57440D3*
Y57940D3*
Y58440D3*
X27877Y40128D3*
Y39628D3*
Y39128D3*
Y38628D3*
Y38128D3*
Y37628D3*
Y37128D3*
X30003D3*
Y37628D3*
Y38128D3*
Y38628D3*
Y39128D3*
Y39628D3*
Y40128D3*
X35439D3*
Y39628D3*
Y39128D3*
Y38628D3*
Y38128D3*
Y37628D3*
Y37128D3*
X37565D3*
Y37628D3*
Y38128D3*
Y38628D3*
Y39128D3*
Y39628D3*
Y40128D3*
X42627D3*
Y39628D3*
Y39128D3*
Y38628D3*
Y38128D3*
Y37628D3*
Y37128D3*
X44753D3*
Y37628D3*
Y38128D3*
Y38628D3*
Y39128D3*
Y39628D3*
Y40128D3*
D62*
X9940Y16435D3*
X10940D3*
X11940D3*
X12940D3*
X13940D3*
X14940D3*
X15940D3*
X16940D3*
X17940D3*
X18940D3*
X19940D3*
X20940D3*
X21940D3*
X22940D3*
X23940D3*
X24940D3*
X25940D3*
X26940D3*
X27940D3*
X28940D3*
D61*
Y17440D3*
D62*
X27940Y17435D3*
X26940D3*
X25940D3*
X24940D3*
X23940D3*
X22940D3*
X21940D3*
X20940D3*
X19940D3*
X18940D3*
X17940D3*
X16940D3*
X15940D3*
X14940D3*
X13940D3*
X12940D3*
X11940D3*
X10940D3*
X9940Y17440D3*
D61*
Y33500D3*
D62*
X10940D3*
X11940Y33505D3*
X12940Y33500D3*
X13940Y33505D3*
X14940D3*
X15940D3*
X16940D3*
X17940D3*
X18940D3*
X19940D3*
X20940D3*
X21940D3*
X22940D3*
X23940D3*
X24940D3*
X25940D3*
X26940D3*
X27940D3*
X28940D3*
Y34505D3*
X27940D3*
X26940D3*
X25940D3*
X24940D3*
X23940D3*
X22940D3*
X21940D3*
X20940D3*
X19940D3*
X18940D3*
X17940D3*
X16940D3*
X15940D3*
X14940D3*
X13940D3*
X12940D3*
X11940D3*
X10940D3*
X9940D3*
X31560Y30465D3*
X32560D3*
X31560Y28465D3*
X32560D3*
X31560Y26465D3*
X32560D3*
X31560Y24465D3*
X32560D3*
X31560Y22465D3*
X32560D3*
X31560Y20465D3*
X32560D3*
Y19470D3*
X31560Y19465D3*
X32560Y21465D3*
X31560D3*
X32560Y23465D3*
X31560D3*
X32560Y25465D3*
X31560D3*
X32560Y27465D3*
X31560D3*
X32560Y29465D3*
X31560D3*
X32560Y31465D3*
D61*
X31560Y31460D3*
D31*
X36440Y16940D3*
Y17940D3*
Y22940D3*
Y23940D3*
D32*
Y24940D3*
D57*
X48690Y9440D3*
D56*
Y10440D3*
Y11440D3*
Y12440D3*
Y13440D3*
Y14440D3*
Y15440D3*
Y16440D3*
Y17440D3*
Y18440D3*
Y19940D3*
D54*
X7940Y7940D3*
D52*
X8940D3*
X9940D3*
X10940D3*
X11940D3*
X12940D3*
X13940D3*
X14940D3*
X15940D3*
X16940D3*
X17940D3*
X18940D3*
X19940D3*
X20940D3*
Y13940D3*
X19940D3*
X18940D3*
X17940D3*
X16940D3*
X15940D3*
X14940D3*
X13940D3*
X12940D3*
X11940D3*
X10940D3*
X9940D3*
X8940D3*
X7940D3*
M02*
