G04 DipTrace 2.3.0.3*
%INTopSilk.gbr*%
%MOIN*%
%ADD10C,0.0098*%
%ADD15C,0.025*%
%ADD17C,0.05*%
%ADD19C,0.02*%
%ADD24C,0.0375*%
%ADD83C,0.0077*%
%ADD84C,0.0154*%
%ADD85C,0.0247*%
%ADD86C,0.0124*%
%FSLAX44Y44*%
G04*
G70*
G90*
G75*
G01*
%LNTopSilk*%
%LPD*%
X8682Y63005D2*
D10*
Y62375D1*
X8757Y63005D2*
Y62375D1*
Y63005D2*
X8521D1*
X8757Y62375D2*
X8521D1*
X12432Y63005D2*
Y62375D1*
X12507Y63005D2*
Y62375D1*
Y63005D2*
X12271D1*
X12507Y62375D2*
X12271D1*
X17932Y63005D2*
Y62375D1*
X18007Y63005D2*
Y62375D1*
Y63005D2*
X17771D1*
X18007Y62375D2*
X17771D1*
X22432Y63005D2*
Y62375D1*
X22507Y63005D2*
Y62375D1*
Y63005D2*
X22271D1*
X22507Y62375D2*
X22271D1*
X26932Y63005D2*
Y62375D1*
X27007Y63005D2*
Y62375D1*
Y63005D2*
X26771D1*
X27007Y62375D2*
X26771D1*
X31432Y63005D2*
Y62375D1*
X31507Y63005D2*
Y62375D1*
Y63005D2*
X31271D1*
X31507Y62375D2*
X31271D1*
X36932Y63005D2*
Y62375D1*
X37007Y63005D2*
Y62375D1*
Y63005D2*
X36771D1*
X37007Y62375D2*
X36771D1*
X41932Y63005D2*
Y62375D1*
X42007Y63005D2*
Y62375D1*
Y63005D2*
X41771D1*
X42007Y62375D2*
X41771D1*
X47432Y63005D2*
Y62375D1*
X47507Y63005D2*
Y62375D1*
Y63005D2*
X47271D1*
X47507Y62375D2*
X47271D1*
X51932Y63005D2*
Y62375D1*
X52007Y63005D2*
Y62375D1*
Y63005D2*
X51771D1*
X52007Y62375D2*
X51771D1*
X56432Y63005D2*
Y62375D1*
X56507Y63005D2*
Y62375D1*
Y63005D2*
X56271D1*
X56507Y62375D2*
X56271D1*
X61432Y63005D2*
Y62375D1*
X61507Y63005D2*
Y62375D1*
Y63005D2*
X61271D1*
X61507Y62375D2*
X61271D1*
X66932Y63005D2*
Y62375D1*
X67007Y63005D2*
Y62375D1*
Y63005D2*
X66771D1*
X67007Y62375D2*
X66771D1*
X72432Y63005D2*
Y62375D1*
X72507Y63005D2*
Y62375D1*
Y63005D2*
X72271D1*
X72507Y62375D2*
X72271D1*
X76932Y63005D2*
Y62375D1*
X77007Y63005D2*
Y62375D1*
Y63005D2*
X76771D1*
X77007Y62375D2*
X76771D1*
X81432Y63005D2*
Y62375D1*
X81507Y63005D2*
Y62375D1*
Y63005D2*
X81271D1*
X81507Y62375D2*
X81271D1*
X86432Y63005D2*
Y62375D1*
X86507Y63005D2*
Y62375D1*
Y63005D2*
X86271D1*
X86507Y62375D2*
X86271D1*
X91432Y63005D2*
Y62375D1*
X91507Y63005D2*
Y62375D1*
Y63005D2*
X91271D1*
X91507Y62375D2*
X91271D1*
X96932Y63005D2*
Y62375D1*
X97007Y63005D2*
Y62375D1*
Y63005D2*
X96771D1*
X97007Y62375D2*
X96771D1*
X101932Y63005D2*
Y62375D1*
X102007Y63005D2*
Y62375D1*
Y63005D2*
X101771D1*
X102007Y62375D2*
X101771D1*
X106932Y63005D2*
Y62375D1*
X107007Y63005D2*
Y62375D1*
Y63005D2*
X106771D1*
X107007Y62375D2*
X106771D1*
X110932Y63005D2*
Y62375D1*
X111007Y63005D2*
Y62375D1*
Y63005D2*
X110771D1*
X111007Y62375D2*
X110771D1*
X116182Y63005D2*
Y62375D1*
X116257Y63005D2*
Y62375D1*
Y63005D2*
X116021D1*
X116257Y62375D2*
X116021D1*
X119432Y63005D2*
Y62375D1*
X119507Y63005D2*
Y62375D1*
Y63005D2*
X119271D1*
X119507Y62375D2*
X119271D1*
X28884Y41314D2*
Y41943D1*
X28810Y41314D2*
Y41943D1*
Y41314D2*
X29046D1*
X28810Y41943D2*
X29046D1*
X43619D2*
Y41314D1*
X43694Y41943D2*
Y41314D1*
Y41943D2*
X43458D1*
X43694Y41314D2*
X43458D1*
X38182Y27192D2*
Y26563D1*
X38257Y27192D2*
Y26563D1*
Y27192D2*
X38021D1*
X38257Y26563D2*
X38021D1*
X38182Y25630D2*
Y25000D1*
X38257Y25630D2*
Y25000D1*
Y25630D2*
X38021D1*
X38257Y25000D2*
X38021D1*
X27315Y5565D2*
X25815D1*
Y7440D1*
X27315D1*
Y5565D1*
X29315D2*
X27815D1*
Y7440D1*
X29315D1*
Y5565D1*
X31315D2*
X29815D1*
Y7440D1*
X31315D1*
Y5565D1*
X33315D2*
X31815D1*
Y7440D1*
X33315D1*
Y5565D1*
X37440Y20003D2*
X44690D1*
Y17253D1*
X37440D1*
Y20003D1*
D15*
X37815Y17628D3*
X41066Y19378D2*
D10*
X41441D1*
X41066Y18128D2*
X41441D1*
X41191D2*
D3*
X4940Y47165D2*
X13815D1*
Y43665D1*
X4940D1*
Y47165D1*
D24*
X5252Y46852D3*
X14940Y47165D2*
D10*
X23815D1*
Y43665D1*
X14940D1*
Y47165D1*
D24*
X15252Y46852D3*
X24940Y47165D2*
D10*
X33815D1*
Y43665D1*
X24940D1*
Y47165D1*
D24*
X25252Y46852D3*
X34940Y47165D2*
D10*
X43815D1*
Y43665D1*
X34940D1*
Y47165D1*
D24*
X35252Y46852D3*
X44940Y47165D2*
D10*
X53815D1*
Y43665D1*
X44940D1*
Y47165D1*
D24*
X45252Y46852D3*
X54940Y47165D2*
D10*
X63815D1*
Y43665D1*
X54940D1*
Y47165D1*
D24*
X55252Y46852D3*
X64940Y47165D2*
D10*
X73815D1*
Y43665D1*
X64940D1*
Y47165D1*
D24*
X65252Y46852D3*
X74940Y47165D2*
D10*
X83815D1*
Y43665D1*
X74940D1*
Y47165D1*
D24*
X75252Y46852D3*
X84940Y47165D2*
D10*
X93815D1*
Y43665D1*
X84940D1*
Y47165D1*
D24*
X85252Y46852D3*
X94940Y47165D2*
D10*
X103815D1*
Y43665D1*
X94940D1*
Y47165D1*
D24*
X95252Y46852D3*
X104940Y47165D2*
D10*
X113815D1*
Y43665D1*
X104940D1*
Y47165D1*
D24*
X105252Y46852D3*
X114940Y47165D2*
D10*
X123815D1*
Y43665D1*
X114940D1*
Y47165D1*
D24*
X115252Y46852D3*
X70940Y19665D2*
D10*
X79815D1*
Y16165D1*
X70940D1*
Y19665D1*
D24*
X71252Y19352D3*
X80940Y19665D2*
D10*
X89815D1*
Y16165D1*
X80940D1*
Y19665D1*
D24*
X81252Y19352D3*
X90940Y19665D2*
D10*
X99815D1*
Y16165D1*
X90940D1*
Y19665D1*
D24*
X91252Y19352D3*
X100940Y19665D2*
D10*
X109815D1*
Y16165D1*
X100940D1*
Y19665D1*
D24*
X101252Y19352D3*
X36594Y8023D2*
D10*
X34094D1*
X36594D2*
Y11022D1*
X42093Y11273D2*
Y8023D1*
Y11273D2*
X36594D1*
X34094Y8023D2*
Y4773D1*
X44594D1*
Y8023D1*
X42093D1*
X36594Y11022D2*
Y11273D1*
X65241Y31674D2*
Y29706D1*
X66265Y31674D2*
Y29706D1*
X65241D2*
X66265D1*
X65556Y31674D2*
X65241D1*
X65950D2*
X66265D1*
X65556D2*
G03X65950Y31674I197J0D01*
G01*
X61241Y30424D2*
Y28456D1*
X62265Y30424D2*
Y28456D1*
X61241D2*
X62265D1*
X61556Y30424D2*
X61241D1*
X61950D2*
X62265D1*
X61556D2*
G03X61950Y30424I197J0D01*
G01*
X57241Y29174D2*
Y27206D1*
X58265Y29174D2*
Y27206D1*
X57241D2*
X58265D1*
X57556Y29174D2*
X57241D1*
X57950D2*
X58265D1*
X57556D2*
G03X57950Y29174I197J0D01*
G01*
X53241Y27924D2*
Y25956D1*
X54265Y27924D2*
Y25956D1*
X53241D2*
X54265D1*
X53556Y27924D2*
X53241D1*
X53950D2*
X54265D1*
X53556D2*
G03X53950Y27924I197J0D01*
G01*
X65241Y26174D2*
Y24206D1*
X66265Y26174D2*
Y24206D1*
X65241D2*
X66265D1*
X65556Y26174D2*
X65241D1*
X65950D2*
X66265D1*
X65556D2*
G03X65950Y26174I197J0D01*
G01*
X61241Y24924D2*
Y22956D1*
X62265Y24924D2*
Y22956D1*
X61241D2*
X62265D1*
X61556Y24924D2*
X61241D1*
X61950D2*
X62265D1*
X61556D2*
G03X61950Y24924I197J0D01*
G01*
X57241Y23674D2*
Y21706D1*
X58265Y23674D2*
Y21706D1*
X57241D2*
X58265D1*
X57556Y23674D2*
X57241D1*
X57950D2*
X58265D1*
X57556D2*
G03X57950Y23674I197J0D01*
G01*
X53241Y22424D2*
Y20456D1*
X54265Y22424D2*
Y20456D1*
X53241D2*
X54265D1*
X53556Y22424D2*
X53241D1*
X53950D2*
X54265D1*
X53556D2*
G03X53950Y22424I197J0D01*
G01*
X65241Y15924D2*
Y13956D1*
X66265Y15924D2*
Y13956D1*
X65241D2*
X66265D1*
X65556Y15924D2*
X65241D1*
X65950D2*
X66265D1*
X65556D2*
G03X65950Y15924I197J0D01*
G01*
X61241Y14674D2*
Y12706D1*
X62265Y14674D2*
Y12706D1*
X61241D2*
X62265D1*
X61556Y14674D2*
X61241D1*
X61950D2*
X62265D1*
X61556D2*
G03X61950Y14674I197J0D01*
G01*
X57241Y13424D2*
Y11456D1*
X58265Y13424D2*
Y11456D1*
X57241D2*
X58265D1*
X57556Y13424D2*
X57241D1*
X57950D2*
X58265D1*
X57556D2*
G03X57950Y13424I197J0D01*
G01*
X53241Y12174D2*
Y10206D1*
X54265Y12174D2*
Y10206D1*
X53241D2*
X54265D1*
X53556Y12174D2*
X53241D1*
X53950D2*
X54265D1*
X53556D2*
G03X53950Y12174I197J0D01*
G01*
X65241Y10424D2*
Y8456D1*
X66265Y10424D2*
Y8456D1*
X65241D2*
X66265D1*
X65556Y10424D2*
X65241D1*
X65950D2*
X66265D1*
X65556D2*
G03X65950Y10424I197J0D01*
G01*
X61241Y9174D2*
Y7206D1*
X62265Y9174D2*
Y7206D1*
X61241D2*
X62265D1*
X61556Y9174D2*
X61241D1*
X61950D2*
X62265D1*
X61556D2*
G03X61950Y9174I197J0D01*
G01*
X57241Y7924D2*
Y5956D1*
X58265Y7924D2*
Y5956D1*
X57241D2*
X58265D1*
X57556Y7924D2*
X57241D1*
X57950D2*
X58265D1*
X57556D2*
G03X57950Y7924I197J0D01*
G01*
X53241Y6674D2*
Y4706D1*
X54265Y6674D2*
Y4706D1*
X53241D2*
X54265D1*
X53556Y6674D2*
X53241D1*
X53950D2*
X54265D1*
X53556D2*
G03X53950Y6674I197J0D01*
G01*
X7873Y59625D2*
X8109D1*
X7873Y60255D2*
X8109D1*
X12373Y59625D2*
X12609D1*
X12373Y60255D2*
X12609D1*
X17873Y59625D2*
X18109D1*
X17873Y60255D2*
X18109D1*
X22373Y59625D2*
X22609D1*
X22373Y60255D2*
X22609D1*
X26873Y59625D2*
X27109D1*
X26873Y60255D2*
X27109D1*
X31373Y59625D2*
X31609D1*
X31373Y60255D2*
X31609D1*
X36873Y59625D2*
X37109D1*
X36873Y60255D2*
X37109D1*
X41771Y59625D2*
X42007D1*
X41771Y60255D2*
X42007D1*
X47373Y59625D2*
X47609D1*
X47373Y60255D2*
X47609D1*
X51873Y59625D2*
X52109D1*
X51873Y60255D2*
X52109D1*
X56373Y59625D2*
X56609D1*
X56373Y60255D2*
X56609D1*
X61373Y59625D2*
X61609D1*
X61373Y60255D2*
X61609D1*
X66873Y59625D2*
X67109D1*
X66873Y60255D2*
X67109D1*
X72271Y59625D2*
X72507D1*
X72271Y60255D2*
X72507D1*
X76771Y59625D2*
X77007D1*
X76771Y60255D2*
X77007D1*
X86373Y59625D2*
X86609D1*
X86373Y60255D2*
X86609D1*
X91271Y59625D2*
X91507D1*
X91271Y60255D2*
X91507D1*
X96873Y59625D2*
X97109D1*
X96873Y60255D2*
X97109D1*
X101873Y59625D2*
X102109D1*
X101873Y60255D2*
X102109D1*
X106873Y59625D2*
X107109D1*
X106873Y60255D2*
X107109D1*
X110873Y59625D2*
X111109D1*
X110873Y60255D2*
X111109D1*
X116123Y59625D2*
X116359D1*
X116123Y60255D2*
X116359D1*
X119772Y59625D2*
X120008D1*
X119772Y60255D2*
X120008D1*
X81188Y59504D2*
X81424D1*
X81188Y60133D2*
X81424D1*
X34813Y27757D2*
Y27521D1*
X35442Y27757D2*
Y27521D1*
X41373Y26625D2*
X41609D1*
X41373Y27255D2*
X41609D1*
X38755Y23373D2*
Y23609D1*
X38125Y23373D2*
Y23609D1*
X45375Y14507D2*
Y14271D1*
X46005Y14507D2*
Y14271D1*
X25822Y8324D2*
X26058D1*
X25822Y8953D2*
X26058D1*
X27822Y8324D2*
X28058D1*
X27822Y8953D2*
X28058D1*
X29822Y8324D2*
X30058D1*
X29822Y8953D2*
X30058D1*
X31822Y8324D2*
X32058D1*
X31822Y8953D2*
X32058D1*
X12718Y53221D2*
Y49284D1*
X14450Y53221D2*
Y49284D1*
X12718D2*
X14450D1*
X12718Y53221D2*
X13308D1*
X13860D2*
X14450D1*
X13308D2*
G03X13860Y53221I276J1D01*
G01*
X6531Y53158D2*
Y49222D1*
X8263Y53158D2*
Y49222D1*
X6531D2*
X8263D1*
X6531Y53158D2*
X7121D1*
X7672D2*
X8263D1*
X7121D2*
G03X7672Y53158I276J1D01*
G01*
X36031D2*
Y49222D1*
X37763Y53158D2*
Y49222D1*
X36031D2*
X37763D1*
X36031Y53158D2*
X36621D1*
X37172D2*
X37763D1*
X36621D2*
G03X37172Y53158I276J1D01*
G01*
X41031D2*
Y49222D1*
X42763Y53158D2*
Y49222D1*
X41031D2*
X42763D1*
X41031Y53158D2*
X41621D1*
X42172D2*
X42763D1*
X41621D2*
G03X42172Y53158I276J1D01*
G01*
X66031D2*
Y49222D1*
X67763Y53158D2*
Y49222D1*
X66031D2*
X67763D1*
X66031Y53158D2*
X66621D1*
X67172D2*
X67763D1*
X66621D2*
G03X67172Y53158I276J1D01*
G01*
X71531D2*
Y49222D1*
X73263Y53158D2*
Y49222D1*
X71531D2*
X73263D1*
X71531Y53158D2*
X72121D1*
X72672D2*
X73263D1*
X72121D2*
G03X72672Y53158I276J1D01*
G01*
X96031D2*
Y49222D1*
X97763Y53158D2*
Y49222D1*
X96031D2*
X97763D1*
X96031Y53158D2*
X96621D1*
X97172D2*
X97763D1*
X96621D2*
G03X97172Y53158I276J1D01*
G01*
X101281D2*
Y49222D1*
X103013Y53158D2*
Y49222D1*
X101281D2*
X103013D1*
X101281Y53158D2*
X101871D1*
X102422D2*
X103013D1*
X101871D2*
G03X102422Y53158I276J1D01*
G01*
X30781Y15533D2*
Y11597D1*
X32513Y15533D2*
Y11597D1*
X30781D2*
X32513D1*
X30781Y15533D2*
X31371D1*
X31922D2*
X32513D1*
X31371D2*
G03X31922Y15533I276J1D01*
G01*
X25034Y14788D2*
Y10852D1*
X26766Y14788D2*
Y10852D1*
X25034D2*
X26766D1*
X25034Y14788D2*
X25624D1*
X26176D2*
X26766D1*
X25624D2*
G03X26176Y14788I276J1D01*
G01*
X18065Y40780D2*
X21751D1*
Y36976D1*
X18065D1*
Y40780D1*
X47565D2*
X51251D1*
Y36976D1*
X47565D1*
Y40780D1*
X77565D2*
X81251D1*
Y36976D1*
X77565D1*
Y40780D1*
X107565D2*
X111251D1*
Y36976D1*
X107565D1*
Y40780D1*
X6991Y58658D2*
Y54722D1*
X8015Y58658D2*
Y54722D1*
X6991D2*
X8015D1*
X6991Y58658D2*
X7306D1*
X7700D2*
X8015D1*
X7306D2*
G03X7700Y58658I197J0D01*
G01*
X11991D2*
Y54722D1*
X13015Y58658D2*
Y54722D1*
X11991D2*
X13015D1*
X11991Y58658D2*
X12306D1*
X12700D2*
X13015D1*
X12306D2*
G03X12700Y58658I197J0D01*
G01*
X17491D2*
Y54722D1*
X18515Y58658D2*
Y54722D1*
X17491D2*
X18515D1*
X17491Y58658D2*
X17806D1*
X18200D2*
X18515D1*
X17806D2*
G03X18200Y58658I197J0D01*
G01*
X21991D2*
Y54722D1*
X23015Y58658D2*
Y54722D1*
X21991D2*
X23015D1*
X21991Y58658D2*
X22306D1*
X22700D2*
X23015D1*
X22306D2*
G03X22700Y58658I197J0D01*
G01*
X26491D2*
Y54722D1*
X27515Y58658D2*
Y54722D1*
X26491D2*
X27515D1*
X26491Y58658D2*
X26806D1*
X27200D2*
X27515D1*
X26806D2*
G03X27200Y58658I197J0D01*
G01*
X30991D2*
Y54722D1*
X32015Y58658D2*
Y54722D1*
X30991D2*
X32015D1*
X30991Y58658D2*
X31306D1*
X31700D2*
X32015D1*
X31306D2*
G03X31700Y58658I197J0D01*
G01*
X36491D2*
Y54722D1*
X37515Y58658D2*
Y54722D1*
X36491D2*
X37515D1*
X36491Y58658D2*
X36806D1*
X37200D2*
X37515D1*
X36806D2*
G03X37200Y58658I197J0D01*
G01*
X41491D2*
Y54722D1*
X42515Y58658D2*
Y54722D1*
X41491D2*
X42515D1*
X41491Y58658D2*
X41806D1*
X42200D2*
X42515D1*
X41806D2*
G03X42200Y58658I197J0D01*
G01*
X46991D2*
Y54722D1*
X48015Y58658D2*
Y54722D1*
X46991D2*
X48015D1*
X46991Y58658D2*
X47306D1*
X47700D2*
X48015D1*
X47306D2*
G03X47700Y58658I197J0D01*
G01*
X51491D2*
Y54722D1*
X52515Y58658D2*
Y54722D1*
X51491D2*
X52515D1*
X51491Y58658D2*
X51806D1*
X52200D2*
X52515D1*
X51806D2*
G03X52200Y58658I197J0D01*
G01*
X55991D2*
Y54722D1*
X57015Y58658D2*
Y54722D1*
X55991D2*
X57015D1*
X55991Y58658D2*
X56306D1*
X56700D2*
X57015D1*
X56306D2*
G03X56700Y58658I197J0D01*
G01*
X60991D2*
Y54722D1*
X62015Y58658D2*
Y54722D1*
X60991D2*
X62015D1*
X60991Y58658D2*
X61306D1*
X61700D2*
X62015D1*
X61306D2*
G03X61700Y58658I197J0D01*
G01*
X66491D2*
Y54722D1*
X67515Y58658D2*
Y54722D1*
X66491D2*
X67515D1*
X66491Y58658D2*
X66806D1*
X67200D2*
X67515D1*
X66806D2*
G03X67200Y58658I197J0D01*
G01*
X71991D2*
Y54722D1*
X73015Y58658D2*
Y54722D1*
X71991D2*
X73015D1*
X71991Y58658D2*
X72306D1*
X72700D2*
X73015D1*
X72306D2*
G03X72700Y58658I197J0D01*
G01*
X76491D2*
Y54722D1*
X77515Y58658D2*
Y54722D1*
X76491D2*
X77515D1*
X76491Y58658D2*
X76806D1*
X77200D2*
X77515D1*
X76806D2*
G03X77200Y58658I197J0D01*
G01*
X80991D2*
Y54722D1*
X82015Y58658D2*
Y54722D1*
X80991D2*
X82015D1*
X80991Y58658D2*
X81306D1*
X81700D2*
X82015D1*
X81306D2*
G03X81700Y58658I197J0D01*
G01*
X85991D2*
Y54722D1*
X87015Y58658D2*
Y54722D1*
X85991D2*
X87015D1*
X85991Y58658D2*
X86306D1*
X86700D2*
X87015D1*
X86306D2*
G03X86700Y58658I197J0D01*
G01*
X90991D2*
Y54722D1*
X92015Y58658D2*
Y54722D1*
X90991D2*
X92015D1*
X90991Y58658D2*
X91306D1*
X91700D2*
X92015D1*
X91306D2*
G03X91700Y58658I197J0D01*
G01*
X96491D2*
Y54722D1*
X97515Y58658D2*
Y54722D1*
X96491D2*
X97515D1*
X96491Y58658D2*
X96806D1*
X97200D2*
X97515D1*
X96806D2*
G03X97200Y58658I197J0D01*
G01*
X101491D2*
Y54722D1*
X102515Y58658D2*
Y54722D1*
X101491D2*
X102515D1*
X101491Y58658D2*
X101806D1*
X102200D2*
X102515D1*
X101806D2*
G03X102200Y58658I197J0D01*
G01*
X106491D2*
Y54722D1*
X107515Y58658D2*
Y54722D1*
X106491D2*
X107515D1*
X106491Y58658D2*
X106806D1*
X107200D2*
X107515D1*
X106806D2*
G03X107200Y58658I197J0D01*
G01*
X110491D2*
Y54722D1*
X111515Y58658D2*
Y54722D1*
X110491D2*
X111515D1*
X110491Y58658D2*
X110806D1*
X111200D2*
X111515D1*
X110806D2*
G03X111200Y58658I197J0D01*
G01*
X115741D2*
Y54722D1*
X116765Y58658D2*
Y54722D1*
X115741D2*
X116765D1*
X115741Y58658D2*
X116056D1*
X116450D2*
X116765D1*
X116056D2*
G03X116450Y58658I197J0D01*
G01*
X120491D2*
Y54722D1*
X121515Y58658D2*
Y54722D1*
X120491D2*
X121515D1*
X120491Y58658D2*
X120806D1*
X121200D2*
X121515D1*
X120806D2*
G03X121200Y58658I197J0D01*
G01*
X28428Y40321D2*
Y36935D1*
X29451Y40321D2*
Y36935D1*
X28428D2*
X29451D1*
X28428Y40321D2*
X28743D1*
X29137D2*
X29451D1*
X28743D2*
G03X29137Y40321I197J0D01*
G01*
X35991D2*
Y36935D1*
X37014Y40321D2*
Y36935D1*
X35991D2*
X37014D1*
X35991Y40321D2*
X36305D1*
X36699D2*
X37014D1*
X36305D2*
G03X36699Y40321I197J0D01*
G01*
X43178D2*
Y36935D1*
X44202Y40321D2*
Y36935D1*
X43178D2*
X44202D1*
X43178Y40321D2*
X43493D1*
X43887D2*
X44202D1*
X43493D2*
G03X43887Y40321I197J0D01*
G01*
X3540Y35105D2*
X33160D1*
Y15835D1*
X3540D1*
Y35105D1*
X21940Y29470D2*
X28439D1*
Y22720D1*
X21940D1*
Y29470D1*
G36*
D2*
X28439D1*
Y22720D1*
X21940D1*
Y29470D1*
G37*
X3581Y31600D2*
D10*
X7589D1*
Y28511D1*
X3581D1*
Y31600D1*
X33940Y16190D2*
X36940D1*
Y25690D1*
X33940D1*
Y16190D1*
D17*
X35690Y16940D3*
X46440Y8440D2*
D10*
X50940D1*
Y20940D1*
X46440D1*
Y8440D1*
X3939Y14440D2*
X21440D1*
Y7440D1*
X3939D1*
Y14440D1*
X2440Y12440D2*
X6939D1*
Y9440D1*
X2440D1*
Y12440D1*
D17*
X7940Y8690D3*
Y13190D3*
X4940Y47940D2*
D19*
X33938D1*
Y35691D1*
X4940D1*
Y47940D1*
X34940D2*
X63941D1*
Y35691D1*
X34940D1*
Y47940D1*
X64941D2*
X93940D1*
Y35691D1*
X64941D1*
Y47940D1*
X94881D2*
X123940D1*
Y35691D1*
X94881D1*
Y47940D1*
X8681Y63657D2*
D83*
X8657Y63705D1*
X8609Y63753D1*
X8562Y63777D1*
X8466D1*
X8418Y63753D1*
X8370Y63705D1*
X8346Y63657D1*
X8322Y63585D1*
Y63465D1*
X8346Y63394D1*
X8370Y63346D1*
X8418Y63298D1*
X8466Y63274D1*
X8562D1*
X8609Y63298D1*
X8657Y63346D1*
X8681Y63394D1*
X8835Y63680D2*
X8883Y63705D1*
X8955Y63776D1*
Y63274D1*
X12324Y63657D2*
X12300Y63705D1*
X12252Y63753D1*
X12204Y63777D1*
X12109D1*
X12060Y63753D1*
X12013Y63705D1*
X11989Y63657D1*
X11965Y63585D1*
Y63465D1*
X11989Y63394D1*
X12013Y63346D1*
X12060Y63298D1*
X12109Y63274D1*
X12204D1*
X12252Y63298D1*
X12300Y63346D1*
X12324Y63394D1*
X12502Y63657D2*
Y63680D1*
X12526Y63728D1*
X12550Y63752D1*
X12598Y63776D1*
X12693D1*
X12741Y63752D1*
X12765Y63728D1*
X12789Y63680D1*
Y63633D1*
X12765Y63585D1*
X12717Y63513D1*
X12478Y63274D1*
X12813D1*
X17824Y63657D2*
X17800Y63705D1*
X17752Y63753D1*
X17704Y63777D1*
X17609D1*
X17560Y63753D1*
X17513Y63705D1*
X17489Y63657D1*
X17465Y63585D1*
Y63465D1*
X17489Y63394D1*
X17513Y63346D1*
X17560Y63298D1*
X17609Y63274D1*
X17704D1*
X17752Y63298D1*
X17800Y63346D1*
X17824Y63394D1*
X18026Y63776D2*
X18289D1*
X18145Y63585D1*
X18217D1*
X18265Y63561D1*
X18289Y63537D1*
X18313Y63465D1*
Y63418D1*
X18289Y63346D1*
X18241Y63298D1*
X18169Y63274D1*
X18097D1*
X18026Y63298D1*
X18002Y63322D1*
X17978Y63370D1*
X22312Y63657D2*
X22288Y63705D1*
X22240Y63753D1*
X22192Y63777D1*
X22097D1*
X22049Y63753D1*
X22001Y63705D1*
X21977Y63657D1*
X21953Y63585D1*
Y63465D1*
X21977Y63394D1*
X22001Y63346D1*
X22049Y63298D1*
X22097Y63274D1*
X22192D1*
X22240Y63298D1*
X22288Y63346D1*
X22312Y63394D1*
X22705Y63274D2*
Y63776D1*
X22466Y63442D1*
X22825D1*
X26824Y63657D2*
X26800Y63705D1*
X26752Y63753D1*
X26704Y63777D1*
X26609D1*
X26560Y63753D1*
X26513Y63705D1*
X26489Y63657D1*
X26465Y63585D1*
Y63465D1*
X26489Y63394D1*
X26513Y63346D1*
X26560Y63298D1*
X26609Y63274D1*
X26704D1*
X26752Y63298D1*
X26800Y63346D1*
X26824Y63394D1*
X27265Y63776D2*
X27026D1*
X27002Y63561D1*
X27026Y63585D1*
X27098Y63609D1*
X27169D1*
X27241Y63585D1*
X27289Y63537D1*
X27313Y63465D1*
Y63418D1*
X27289Y63346D1*
X27241Y63298D1*
X27169Y63274D1*
X27098D1*
X27026Y63298D1*
X27002Y63322D1*
X26978Y63370D1*
X31336Y63657D2*
X31312Y63705D1*
X31264Y63753D1*
X31216Y63777D1*
X31121D1*
X31073Y63753D1*
X31025Y63705D1*
X31001Y63657D1*
X30977Y63585D1*
Y63465D1*
X31001Y63394D1*
X31025Y63346D1*
X31073Y63298D1*
X31121Y63274D1*
X31216D1*
X31264Y63298D1*
X31312Y63346D1*
X31336Y63394D1*
X31777Y63705D2*
X31753Y63752D1*
X31681Y63776D1*
X31634D1*
X31562Y63752D1*
X31514Y63680D1*
X31490Y63561D1*
Y63442D1*
X31514Y63346D1*
X31562Y63298D1*
X31634Y63274D1*
X31658D1*
X31729Y63298D1*
X31777Y63346D1*
X31801Y63418D1*
Y63442D1*
X31777Y63513D1*
X31729Y63561D1*
X31658Y63585D1*
X31634D1*
X31562Y63561D1*
X31514Y63513D1*
X31490Y63442D1*
X36824Y63657D2*
X36800Y63705D1*
X36752Y63753D1*
X36704Y63777D1*
X36609D1*
X36560Y63753D1*
X36513Y63705D1*
X36489Y63657D1*
X36465Y63585D1*
Y63465D1*
X36489Y63394D1*
X36513Y63346D1*
X36560Y63298D1*
X36609Y63274D1*
X36704D1*
X36752Y63298D1*
X36800Y63346D1*
X36824Y63394D1*
X37074Y63274D2*
X37313Y63776D1*
X36978D1*
X41824Y63657D2*
X41800Y63705D1*
X41752Y63753D1*
X41704Y63777D1*
X41609D1*
X41561Y63753D1*
X41513Y63705D1*
X41489Y63657D1*
X41465Y63585D1*
Y63465D1*
X41489Y63394D1*
X41513Y63346D1*
X41561Y63298D1*
X41609Y63274D1*
X41704D1*
X41752Y63298D1*
X41800Y63346D1*
X41824Y63394D1*
X42098Y63776D2*
X42026Y63752D1*
X42002Y63705D1*
Y63657D1*
X42026Y63609D1*
X42074Y63585D1*
X42169Y63561D1*
X42241Y63537D1*
X42289Y63489D1*
X42313Y63442D1*
Y63370D1*
X42289Y63322D1*
X42265Y63298D1*
X42193Y63274D1*
X42098D1*
X42026Y63298D1*
X42002Y63322D1*
X41978Y63370D1*
Y63442D1*
X42002Y63489D1*
X42050Y63537D1*
X42121Y63561D1*
X42217Y63585D1*
X42265Y63609D1*
X42289Y63657D1*
Y63705D1*
X42265Y63752D1*
X42193Y63776D1*
X42098D1*
X47335Y63657D2*
X47312Y63705D1*
X47264Y63753D1*
X47216Y63777D1*
X47120D1*
X47072Y63753D1*
X47025Y63705D1*
X47000Y63657D1*
X46977Y63585D1*
Y63465D1*
X47000Y63394D1*
X47025Y63346D1*
X47072Y63298D1*
X47120Y63274D1*
X47216D1*
X47264Y63298D1*
X47312Y63346D1*
X47335Y63394D1*
X47801Y63609D2*
X47777Y63537D1*
X47729Y63489D1*
X47657Y63465D1*
X47633D1*
X47562Y63489D1*
X47514Y63537D1*
X47490Y63609D1*
Y63633D1*
X47514Y63705D1*
X47562Y63752D1*
X47633Y63776D1*
X47657D1*
X47729Y63752D1*
X47777Y63705D1*
X47801Y63609D1*
Y63489D1*
X47777Y63370D1*
X47729Y63298D1*
X47657Y63274D1*
X47610D1*
X47538Y63298D1*
X47514Y63346D1*
X51686Y63657D2*
X51663Y63705D1*
X51614Y63753D1*
X51567Y63777D1*
X51471D1*
X51423Y63753D1*
X51376Y63705D1*
X51351Y63657D1*
X51328Y63585D1*
Y63465D1*
X51351Y63394D1*
X51376Y63346D1*
X51423Y63298D1*
X51471Y63274D1*
X51567D1*
X51614Y63298D1*
X51663Y63346D1*
X51686Y63394D1*
X51841Y63680D2*
X51889Y63705D1*
X51961Y63776D1*
Y63274D1*
X52259Y63776D2*
X52187Y63752D1*
X52139Y63680D1*
X52115Y63561D1*
Y63489D1*
X52139Y63370D1*
X52187Y63298D1*
X52259Y63274D1*
X52306D1*
X52378Y63298D1*
X52426Y63370D1*
X52450Y63489D1*
Y63561D1*
X52426Y63680D1*
X52378Y63752D1*
X52306Y63776D1*
X52259D1*
X52426Y63680D2*
X52139Y63370D1*
X56294Y63657D2*
X56270Y63705D1*
X56222Y63753D1*
X56174Y63777D1*
X56079D1*
X56031Y63753D1*
X55983Y63705D1*
X55959Y63657D1*
X55935Y63585D1*
Y63465D1*
X55959Y63394D1*
X55983Y63346D1*
X56031Y63298D1*
X56079Y63274D1*
X56174D1*
X56222Y63298D1*
X56270Y63346D1*
X56294Y63394D1*
X56448Y63680D2*
X56496Y63705D1*
X56568Y63776D1*
Y63274D1*
X56723Y63680D2*
X56771Y63705D1*
X56842Y63776D1*
Y63274D1*
X61186Y63657D2*
X61163Y63705D1*
X61114Y63753D1*
X61067Y63777D1*
X60971D1*
X60923Y63753D1*
X60876Y63705D1*
X60851Y63657D1*
X60828Y63585D1*
Y63465D1*
X60851Y63394D1*
X60876Y63346D1*
X60923Y63298D1*
X60971Y63274D1*
X61067D1*
X61114Y63298D1*
X61163Y63346D1*
X61186Y63394D1*
X61341Y63680D2*
X61389Y63705D1*
X61461Y63776D1*
Y63274D1*
X61639Y63657D2*
Y63680D1*
X61663Y63728D1*
X61687Y63752D1*
X61735Y63776D1*
X61831D1*
X61878Y63752D1*
X61902Y63728D1*
X61926Y63680D1*
Y63633D1*
X61902Y63585D1*
X61854Y63513D1*
X61615Y63274D1*
X61950D1*
X66686Y63657D2*
X66663Y63705D1*
X66614Y63753D1*
X66567Y63777D1*
X66471D1*
X66423Y63753D1*
X66376Y63705D1*
X66351Y63657D1*
X66328Y63585D1*
Y63465D1*
X66351Y63394D1*
X66376Y63346D1*
X66423Y63298D1*
X66471Y63274D1*
X66567D1*
X66614Y63298D1*
X66663Y63346D1*
X66686Y63394D1*
X66841Y63680D2*
X66889Y63705D1*
X66961Y63776D1*
Y63274D1*
X67163Y63776D2*
X67426D1*
X67283Y63585D1*
X67354D1*
X67402Y63561D1*
X67426Y63537D1*
X67450Y63465D1*
Y63418D1*
X67426Y63346D1*
X67378Y63298D1*
X67306Y63274D1*
X67234D1*
X67163Y63298D1*
X67139Y63322D1*
X67115Y63370D1*
X72174Y63657D2*
X72151Y63705D1*
X72103Y63753D1*
X72055Y63777D1*
X71959D1*
X71911Y63753D1*
X71864Y63705D1*
X71840Y63657D1*
X71816Y63585D1*
Y63465D1*
X71840Y63394D1*
X71864Y63346D1*
X71911Y63298D1*
X71959Y63274D1*
X72055D1*
X72103Y63298D1*
X72151Y63346D1*
X72174Y63394D1*
X72329Y63680D2*
X72377Y63705D1*
X72449Y63776D1*
Y63274D1*
X72842D2*
Y63776D1*
X72603Y63442D1*
X72962D1*
X76686Y63657D2*
X76663Y63705D1*
X76614Y63753D1*
X76567Y63777D1*
X76471D1*
X76423Y63753D1*
X76376Y63705D1*
X76351Y63657D1*
X76328Y63585D1*
Y63465D1*
X76351Y63394D1*
X76376Y63346D1*
X76423Y63298D1*
X76471Y63274D1*
X76567D1*
X76614Y63298D1*
X76663Y63346D1*
X76686Y63394D1*
X76841Y63680D2*
X76889Y63705D1*
X76961Y63776D1*
Y63274D1*
X77402Y63776D2*
X77163D1*
X77139Y63561D1*
X77163Y63585D1*
X77235Y63609D1*
X77306D1*
X77378Y63585D1*
X77426Y63537D1*
X77450Y63465D1*
Y63418D1*
X77426Y63346D1*
X77378Y63298D1*
X77306Y63274D1*
X77235D1*
X77163Y63298D1*
X77139Y63322D1*
X77115Y63370D1*
X81199Y63657D2*
X81175Y63705D1*
X81127Y63753D1*
X81079Y63777D1*
X80984D1*
X80935Y63753D1*
X80888Y63705D1*
X80864Y63657D1*
X80840Y63585D1*
Y63465D1*
X80864Y63394D1*
X80888Y63346D1*
X80935Y63298D1*
X80984Y63274D1*
X81079D1*
X81127Y63298D1*
X81175Y63346D1*
X81199Y63394D1*
X81353Y63680D2*
X81401Y63705D1*
X81473Y63776D1*
Y63274D1*
X81914Y63705D2*
X81890Y63752D1*
X81818Y63776D1*
X81771D1*
X81699Y63752D1*
X81651Y63680D1*
X81627Y63561D1*
Y63442D1*
X81651Y63346D1*
X81699Y63298D1*
X81771Y63274D1*
X81795D1*
X81866Y63298D1*
X81914Y63346D1*
X81938Y63418D1*
Y63442D1*
X81914Y63513D1*
X81866Y63561D1*
X81795Y63585D1*
X81771D1*
X81699Y63561D1*
X81651Y63513D1*
X81627Y63442D1*
X86186Y63657D2*
X86163Y63705D1*
X86114Y63753D1*
X86067Y63777D1*
X85971D1*
X85923Y63753D1*
X85876Y63705D1*
X85851Y63657D1*
X85828Y63585D1*
Y63465D1*
X85851Y63394D1*
X85876Y63346D1*
X85923Y63298D1*
X85971Y63274D1*
X86067D1*
X86114Y63298D1*
X86163Y63346D1*
X86186Y63394D1*
X86341Y63680D2*
X86389Y63705D1*
X86461Y63776D1*
Y63274D1*
X86711D2*
X86950Y63776D1*
X86615D1*
X91187Y63657D2*
X91163Y63705D1*
X91115Y63753D1*
X91067Y63777D1*
X90972D1*
X90924Y63753D1*
X90876Y63705D1*
X90852Y63657D1*
X90828Y63585D1*
Y63465D1*
X90852Y63394D1*
X90876Y63346D1*
X90924Y63298D1*
X90972Y63274D1*
X91067D1*
X91115Y63298D1*
X91163Y63346D1*
X91187Y63394D1*
X91341Y63680D2*
X91389Y63705D1*
X91461Y63776D1*
Y63274D1*
X91735Y63776D2*
X91663Y63752D1*
X91639Y63705D1*
Y63657D1*
X91663Y63609D1*
X91711Y63585D1*
X91807Y63561D1*
X91878Y63537D1*
X91926Y63489D1*
X91950Y63442D1*
Y63370D1*
X91926Y63322D1*
X91902Y63298D1*
X91830Y63274D1*
X91735D1*
X91663Y63298D1*
X91639Y63322D1*
X91615Y63370D1*
Y63442D1*
X91639Y63489D1*
X91687Y63537D1*
X91758Y63561D1*
X91854Y63585D1*
X91902Y63609D1*
X91926Y63657D1*
Y63705D1*
X91902Y63752D1*
X91830Y63776D1*
X91735D1*
X96698Y63657D2*
X96674Y63705D1*
X96626Y63753D1*
X96579Y63777D1*
X96483D1*
X96435Y63753D1*
X96388Y63705D1*
X96363Y63657D1*
X96340Y63585D1*
Y63465D1*
X96363Y63394D1*
X96388Y63346D1*
X96435Y63298D1*
X96483Y63274D1*
X96579D1*
X96626Y63298D1*
X96674Y63346D1*
X96698Y63394D1*
X96853Y63680D2*
X96901Y63705D1*
X96973Y63776D1*
Y63274D1*
X97438Y63609D2*
X97414Y63537D1*
X97366Y63489D1*
X97294Y63465D1*
X97271D1*
X97199Y63489D1*
X97151Y63537D1*
X97127Y63609D1*
Y63633D1*
X97151Y63705D1*
X97199Y63752D1*
X97271Y63776D1*
X97294D1*
X97366Y63752D1*
X97414Y63705D1*
X97438Y63609D1*
Y63489D1*
X97414Y63370D1*
X97366Y63298D1*
X97294Y63274D1*
X97247D1*
X97175Y63298D1*
X97151Y63346D1*
X101579Y63657D2*
X101555Y63705D1*
X101507Y63753D1*
X101459Y63777D1*
X101364D1*
X101316Y63753D1*
X101268Y63705D1*
X101244Y63657D1*
X101220Y63585D1*
Y63465D1*
X101244Y63394D1*
X101268Y63346D1*
X101316Y63298D1*
X101364Y63274D1*
X101459D1*
X101507Y63298D1*
X101555Y63346D1*
X101579Y63394D1*
X101758Y63657D2*
Y63680D1*
X101781Y63728D1*
X101805Y63752D1*
X101853Y63776D1*
X101949D1*
X101996Y63752D1*
X102020Y63728D1*
X102044Y63680D1*
Y63633D1*
X102020Y63585D1*
X101973Y63513D1*
X101733Y63274D1*
X102068D1*
X102366Y63776D2*
X102294Y63752D1*
X102246Y63680D1*
X102223Y63561D1*
Y63489D1*
X102246Y63370D1*
X102294Y63298D1*
X102366Y63274D1*
X102414D1*
X102486Y63298D1*
X102533Y63370D1*
X102557Y63489D1*
Y63561D1*
X102533Y63680D1*
X102486Y63752D1*
X102414Y63776D1*
X102366D1*
X102533Y63680D2*
X102246Y63370D1*
X106686Y63657D2*
X106663Y63705D1*
X106614Y63753D1*
X106567Y63777D1*
X106471D1*
X106423Y63753D1*
X106376Y63705D1*
X106351Y63657D1*
X106328Y63585D1*
Y63465D1*
X106351Y63394D1*
X106376Y63346D1*
X106423Y63298D1*
X106471Y63274D1*
X106567D1*
X106614Y63298D1*
X106663Y63346D1*
X106686Y63394D1*
X106865Y63657D2*
Y63680D1*
X106889Y63728D1*
X106913Y63752D1*
X106961Y63776D1*
X107056D1*
X107104Y63752D1*
X107128Y63728D1*
X107152Y63680D1*
Y63633D1*
X107128Y63585D1*
X107080Y63513D1*
X106841Y63274D1*
X107176D1*
X107330Y63680D2*
X107378Y63705D1*
X107450Y63776D1*
Y63274D1*
X110579Y63657D2*
X110555Y63705D1*
X110507Y63753D1*
X110459Y63777D1*
X110364D1*
X110316Y63753D1*
X110268Y63705D1*
X110244Y63657D1*
X110220Y63585D1*
Y63465D1*
X110244Y63394D1*
X110268Y63346D1*
X110316Y63298D1*
X110364Y63274D1*
X110459D1*
X110507Y63298D1*
X110555Y63346D1*
X110579Y63394D1*
X110758Y63657D2*
Y63680D1*
X110781Y63728D1*
X110805Y63752D1*
X110853Y63776D1*
X110949D1*
X110996Y63752D1*
X111020Y63728D1*
X111044Y63680D1*
Y63633D1*
X111020Y63585D1*
X110973Y63513D1*
X110733Y63274D1*
X111068D1*
X111247Y63657D2*
Y63680D1*
X111271Y63728D1*
X111294Y63752D1*
X111342Y63776D1*
X111438D1*
X111486Y63752D1*
X111509Y63728D1*
X111534Y63680D1*
Y63633D1*
X111509Y63585D1*
X111462Y63513D1*
X111223Y63274D1*
X111557D1*
X115829Y63657D2*
X115805Y63705D1*
X115757Y63753D1*
X115709Y63777D1*
X115614D1*
X115566Y63753D1*
X115518Y63705D1*
X115494Y63657D1*
X115470Y63585D1*
Y63465D1*
X115494Y63394D1*
X115518Y63346D1*
X115566Y63298D1*
X115614Y63274D1*
X115709D1*
X115757Y63298D1*
X115805Y63346D1*
X115829Y63394D1*
X116008Y63657D2*
Y63680D1*
X116031Y63728D1*
X116055Y63752D1*
X116103Y63776D1*
X116199D1*
X116246Y63752D1*
X116270Y63728D1*
X116294Y63680D1*
Y63633D1*
X116270Y63585D1*
X116223Y63513D1*
X115983Y63274D1*
X116318D1*
X116521Y63776D2*
X116783D1*
X116640Y63585D1*
X116712D1*
X116759Y63561D1*
X116783Y63537D1*
X116807Y63465D1*
Y63418D1*
X116783Y63346D1*
X116736Y63298D1*
X116664Y63274D1*
X116592D1*
X116521Y63298D1*
X116497Y63322D1*
X116473Y63370D1*
X119067Y63657D2*
X119043Y63705D1*
X118995Y63753D1*
X118948Y63777D1*
X118852D1*
X118804Y63753D1*
X118756Y63705D1*
X118732Y63657D1*
X118708Y63585D1*
Y63465D1*
X118732Y63394D1*
X118756Y63346D1*
X118804Y63298D1*
X118852Y63274D1*
X118948D1*
X118995Y63298D1*
X119043Y63346D1*
X119067Y63394D1*
X119246Y63657D2*
Y63680D1*
X119269Y63728D1*
X119293Y63752D1*
X119341Y63776D1*
X119437D1*
X119484Y63752D1*
X119508Y63728D1*
X119533Y63680D1*
Y63633D1*
X119508Y63585D1*
X119461Y63513D1*
X119221Y63274D1*
X119556D1*
X119950D2*
Y63776D1*
X119711Y63442D1*
X120069D1*
X28618Y42596D2*
X28594Y42643D1*
X28546Y42691D1*
X28498Y42715D1*
X28403D1*
X28355Y42691D1*
X28307Y42643D1*
X28283Y42596D1*
X28259Y42524D1*
Y42404D1*
X28283Y42333D1*
X28307Y42284D1*
X28355Y42237D1*
X28403Y42213D1*
X28498D1*
X28546Y42237D1*
X28594Y42284D1*
X28618Y42333D1*
X28797Y42595D2*
Y42619D1*
X28820Y42667D1*
X28844Y42691D1*
X28892Y42714D1*
X28988D1*
X29035Y42691D1*
X29059Y42667D1*
X29083Y42619D1*
Y42571D1*
X29059Y42523D1*
X29012Y42452D1*
X28772Y42213D1*
X29107D1*
X29548Y42714D2*
X29310D1*
X29286Y42499D1*
X29310Y42523D1*
X29381Y42548D1*
X29453D1*
X29525Y42523D1*
X29573Y42476D1*
X29596Y42404D1*
Y42356D1*
X29573Y42284D1*
X29525Y42236D1*
X29453Y42213D1*
X29381D1*
X29310Y42236D1*
X29286Y42261D1*
X29262Y42308D1*
X43278Y42596D2*
X43254Y42643D1*
X43206Y42691D1*
X43159Y42715D1*
X43063D1*
X43015Y42691D1*
X42968Y42643D1*
X42943Y42596D1*
X42920Y42524D1*
Y42404D1*
X42943Y42333D1*
X42968Y42284D1*
X43015Y42237D1*
X43063Y42213D1*
X43159D1*
X43206Y42237D1*
X43254Y42284D1*
X43278Y42333D1*
X43457Y42595D2*
Y42619D1*
X43481Y42667D1*
X43504Y42691D1*
X43553Y42714D1*
X43648D1*
X43696Y42691D1*
X43719Y42667D1*
X43744Y42619D1*
Y42571D1*
X43719Y42523D1*
X43672Y42452D1*
X43433Y42213D1*
X43768D1*
X44209Y42643D2*
X44185Y42691D1*
X44113Y42714D1*
X44066D1*
X43994Y42691D1*
X43946Y42619D1*
X43922Y42499D1*
Y42380D1*
X43946Y42284D1*
X43994Y42236D1*
X44066Y42213D1*
X44089D1*
X44161Y42236D1*
X44209Y42284D1*
X44233Y42356D1*
Y42380D1*
X44209Y42452D1*
X44161Y42499D1*
X44089Y42523D1*
X44066D1*
X43994Y42499D1*
X43946Y42452D1*
X43922Y42380D1*
X37829Y27845D2*
X37805Y27892D1*
X37757Y27940D1*
X37709Y27964D1*
X37614D1*
X37566Y27940D1*
X37518Y27892D1*
X37494Y27845D1*
X37470Y27773D1*
Y27653D1*
X37494Y27582D1*
X37518Y27534D1*
X37566Y27486D1*
X37614Y27462D1*
X37709D1*
X37757Y27486D1*
X37805Y27534D1*
X37829Y27582D1*
X38008Y27844D2*
Y27868D1*
X38031Y27916D1*
X38055Y27940D1*
X38103Y27964D1*
X38199D1*
X38246Y27940D1*
X38270Y27916D1*
X38294Y27868D1*
Y27820D1*
X38270Y27772D1*
X38223Y27701D1*
X37983Y27462D1*
X38318D1*
X38568D2*
X38807Y27964D1*
X38473D1*
X37829Y26282D2*
X37805Y26330D1*
X37757Y26378D1*
X37710Y26402D1*
X37614D1*
X37566Y26378D1*
X37519Y26330D1*
X37494Y26282D1*
X37470Y26210D1*
Y26090D1*
X37494Y26019D1*
X37519Y25971D1*
X37566Y25923D1*
X37614Y25899D1*
X37710D1*
X37757Y25923D1*
X37805Y25971D1*
X37829Y26019D1*
X38008Y26282D2*
Y26305D1*
X38032Y26353D1*
X38055Y26377D1*
X38103Y26401D1*
X38199D1*
X38247Y26377D1*
X38270Y26353D1*
X38295Y26305D1*
Y26258D1*
X38270Y26210D1*
X38223Y26138D1*
X37984Y25899D1*
X38318D1*
X38592Y26401D2*
X38521Y26377D1*
X38497Y26330D1*
Y26282D1*
X38521Y26234D1*
X38568Y26210D1*
X38664Y26186D1*
X38736Y26162D1*
X38783Y26114D1*
X38807Y26067D1*
Y25995D1*
X38783Y25947D1*
X38760Y25923D1*
X38688Y25899D1*
X38592D1*
X38521Y25923D1*
X38497Y25947D1*
X38473Y25995D1*
Y26067D1*
X38497Y26114D1*
X38545Y26162D1*
X38616Y26186D1*
X38712Y26210D1*
X38760Y26234D1*
X38783Y26282D1*
Y26330D1*
X38760Y26377D1*
X38688Y26401D1*
X38592D1*
X26260Y8172D2*
Y7670D1*
X26428D1*
X26500Y7694D1*
X26548Y7742D1*
X26572Y7790D1*
X26595Y7861D1*
Y7981D1*
X26572Y8053D1*
X26548Y8100D1*
X26500Y8148D1*
X26428Y8172D1*
X26260D1*
X26750Y8076D2*
X26798Y8100D1*
X26870Y8172D1*
Y7670D1*
X28153Y8172D2*
Y7670D1*
X28320D1*
X28392Y7694D1*
X28440Y7742D1*
X28464Y7790D1*
X28488Y7861D1*
Y7981D1*
X28464Y8053D1*
X28440Y8100D1*
X28392Y8148D1*
X28320Y8172D1*
X28153D1*
X28667Y8052D2*
Y8076D1*
X28690Y8124D1*
X28714Y8148D1*
X28762Y8172D1*
X28858D1*
X28905Y8148D1*
X28929Y8124D1*
X28953Y8076D1*
Y8029D1*
X28929Y7980D1*
X28882Y7909D1*
X28642Y7670D1*
X28977D1*
X30153Y8172D2*
Y7670D1*
X30320D1*
X30392Y7694D1*
X30440Y7742D1*
X30464Y7790D1*
X30488Y7861D1*
Y7981D1*
X30464Y8053D1*
X30440Y8100D1*
X30392Y8148D1*
X30320Y8172D1*
X30153D1*
X30690D2*
X30953D1*
X30810Y7980D1*
X30882D1*
X30929Y7957D1*
X30953Y7933D1*
X30977Y7861D1*
Y7814D1*
X30953Y7742D1*
X30905Y7694D1*
X30833Y7670D1*
X30762D1*
X30690Y7694D1*
X30667Y7718D1*
X30642Y7765D1*
X32141Y8172D2*
Y7670D1*
X32308D1*
X32380Y7694D1*
X32428Y7742D1*
X32452Y7790D1*
X32476Y7861D1*
Y7981D1*
X32452Y8053D1*
X32428Y8100D1*
X32380Y8148D1*
X32308Y8172D1*
X32141D1*
X32870Y7670D2*
Y8172D1*
X32630Y7837D1*
X32989D1*
X41083Y20735D2*
X40772D1*
Y20232D1*
Y20496D2*
X40963D1*
X41238Y20639D2*
X41286Y20663D1*
X41358Y20734D1*
Y20232D1*
X5635Y63922D2*
Y63420D1*
X5970Y63922D2*
Y63420D1*
X5635Y63683D2*
X5970D1*
X6125Y63826D2*
X6173Y63850D1*
X6245Y63922D1*
Y63420D1*
X121528Y63922D2*
Y63420D1*
X121863Y63922D2*
Y63420D1*
X121528Y63683D2*
X121863D1*
X122042Y63802D2*
Y63826D1*
X122065Y63874D1*
X122089Y63898D1*
X122137Y63922D1*
X122233D1*
X122280Y63898D1*
X122304Y63874D1*
X122328Y63826D1*
Y63779D1*
X122304Y63730D1*
X122257Y63659D1*
X122017Y63420D1*
X122352D1*
X5528Y7922D2*
Y7420D1*
X5863Y7922D2*
Y7420D1*
X5528Y7683D2*
X5863D1*
X6065Y7922D2*
X6328D1*
X6185Y7730D1*
X6257D1*
X6304Y7707D1*
X6328Y7683D1*
X6352Y7611D1*
Y7564D1*
X6328Y7492D1*
X6280Y7444D1*
X6208Y7420D1*
X6137D1*
X6065Y7444D1*
X6042Y7468D1*
X6017Y7515D1*
X121516Y7922D2*
Y7420D1*
X121851Y7922D2*
Y7420D1*
X121516Y7683D2*
X121851D1*
X122245Y7420D2*
Y7922D1*
X122005Y7587D1*
X122364D1*
X9360Y47897D2*
Y47515D1*
X9336Y47443D1*
X9312Y47419D1*
X9265Y47395D1*
X9216D1*
X9169Y47419D1*
X9145Y47443D1*
X9121Y47515D1*
Y47562D1*
X9515Y47801D2*
X9563Y47825D1*
X9634Y47897D1*
Y47395D1*
X19253Y47897D2*
Y47515D1*
X19229Y47443D1*
X19205Y47419D1*
X19157Y47395D1*
X19109D1*
X19061Y47419D1*
X19038Y47443D1*
X19013Y47515D1*
Y47562D1*
X19431Y47777D2*
Y47801D1*
X19455Y47849D1*
X19479Y47873D1*
X19527Y47897D1*
X19623D1*
X19670Y47873D1*
X19694Y47849D1*
X19718Y47801D1*
Y47754D1*
X19694Y47705D1*
X19646Y47634D1*
X19407Y47395D1*
X19742D1*
X29253Y47897D2*
Y47515D1*
X29229Y47443D1*
X29205Y47419D1*
X29157Y47395D1*
X29109D1*
X29061Y47419D1*
X29038Y47443D1*
X29013Y47515D1*
Y47562D1*
X29455Y47897D2*
X29718D1*
X29575Y47705D1*
X29646D1*
X29694Y47682D1*
X29718Y47658D1*
X29742Y47586D1*
Y47539D1*
X29718Y47467D1*
X29670Y47419D1*
X29598Y47395D1*
X29526D1*
X29455Y47419D1*
X29431Y47443D1*
X29407Y47490D1*
X39241Y47897D2*
Y47515D1*
X39217Y47443D1*
X39193Y47419D1*
X39145Y47395D1*
X39097D1*
X39050Y47419D1*
X39026Y47443D1*
X39001Y47515D1*
Y47562D1*
X39634Y47395D2*
Y47897D1*
X39395Y47562D1*
X39754D1*
X49253Y47897D2*
Y47515D1*
X49229Y47443D1*
X49205Y47419D1*
X49157Y47395D1*
X49109D1*
X49061Y47419D1*
X49038Y47443D1*
X49013Y47515D1*
Y47562D1*
X49694Y47897D2*
X49455D1*
X49431Y47682D1*
X49455Y47705D1*
X49527Y47730D1*
X49598D1*
X49670Y47705D1*
X49718Y47658D1*
X49742Y47586D1*
Y47539D1*
X49718Y47467D1*
X49670Y47419D1*
X49598Y47395D1*
X49527D1*
X49455Y47419D1*
X49431Y47443D1*
X49407Y47490D1*
X59265Y47897D2*
Y47515D1*
X59241Y47443D1*
X59217Y47419D1*
X59169Y47395D1*
X59121D1*
X59074Y47419D1*
X59050Y47443D1*
X59026Y47515D1*
Y47562D1*
X59706Y47825D2*
X59682Y47873D1*
X59610Y47897D1*
X59563D1*
X59491Y47873D1*
X59443Y47801D1*
X59419Y47682D1*
Y47562D1*
X59443Y47467D1*
X59491Y47419D1*
X59563Y47395D1*
X59587D1*
X59658Y47419D1*
X59706Y47467D1*
X59730Y47539D1*
Y47562D1*
X59706Y47634D1*
X59658Y47682D1*
X59587Y47705D1*
X59563D1*
X59491Y47682D1*
X59443Y47634D1*
X59419Y47562D1*
X69253Y47897D2*
Y47515D1*
X69229Y47443D1*
X69205Y47419D1*
X69157Y47395D1*
X69109D1*
X69061Y47419D1*
X69038Y47443D1*
X69013Y47515D1*
Y47562D1*
X69503Y47395D2*
X69742Y47897D1*
X69407D1*
X79253D2*
Y47515D1*
X79229Y47443D1*
X79205Y47419D1*
X79157Y47395D1*
X79109D1*
X79062Y47419D1*
X79038Y47443D1*
X79014Y47515D1*
Y47562D1*
X79527Y47897D2*
X79455Y47873D1*
X79431Y47825D1*
Y47777D1*
X79455Y47730D1*
X79503Y47705D1*
X79599Y47682D1*
X79670Y47658D1*
X79718Y47610D1*
X79742Y47562D1*
Y47490D1*
X79718Y47443D1*
X79694Y47419D1*
X79622Y47395D1*
X79527D1*
X79455Y47419D1*
X79431Y47443D1*
X79407Y47490D1*
Y47562D1*
X79431Y47610D1*
X79479Y47658D1*
X79550Y47682D1*
X79646Y47705D1*
X79694Y47730D1*
X79718Y47777D1*
Y47825D1*
X79694Y47873D1*
X79622Y47897D1*
X79527D1*
X89265D2*
Y47515D1*
X89241Y47443D1*
X89216Y47419D1*
X89169Y47395D1*
X89121D1*
X89073Y47419D1*
X89050Y47443D1*
X89025Y47515D1*
Y47562D1*
X89730Y47730D2*
X89706Y47658D1*
X89658Y47610D1*
X89586Y47586D1*
X89563D1*
X89491Y47610D1*
X89443Y47658D1*
X89419Y47730D1*
Y47754D1*
X89443Y47825D1*
X89491Y47873D1*
X89563Y47897D1*
X89586D1*
X89658Y47873D1*
X89706Y47825D1*
X89730Y47730D1*
Y47610D1*
X89706Y47490D1*
X89658Y47419D1*
X89586Y47395D1*
X89539D1*
X89467Y47419D1*
X89443Y47467D1*
X99115Y47897D2*
Y47515D1*
X99092Y47443D1*
X99067Y47419D1*
X99020Y47395D1*
X98972D1*
X98924Y47419D1*
X98900Y47443D1*
X98876Y47515D1*
Y47562D1*
X99270Y47801D2*
X99318Y47825D1*
X99390Y47897D1*
Y47395D1*
X99688Y47897D2*
X99616Y47873D1*
X99568Y47801D1*
X99544Y47682D1*
Y47610D1*
X99568Y47490D1*
X99616Y47419D1*
X99688Y47395D1*
X99735D1*
X99807Y47419D1*
X99855Y47490D1*
X99879Y47610D1*
Y47682D1*
X99855Y47801D1*
X99807Y47873D1*
X99735Y47897D1*
X99688D1*
X99855Y47801D2*
X99568Y47490D1*
X109223Y47897D2*
Y47515D1*
X109199Y47443D1*
X109175Y47419D1*
X109127Y47395D1*
X109079D1*
X109032Y47419D1*
X109008Y47443D1*
X108984Y47515D1*
Y47562D1*
X109377Y47801D2*
X109425Y47825D1*
X109497Y47897D1*
Y47395D1*
X109652Y47801D2*
X109700Y47825D1*
X109772Y47897D1*
Y47395D1*
X119115Y47897D2*
Y47515D1*
X119092Y47443D1*
X119067Y47419D1*
X119020Y47395D1*
X118972D1*
X118924Y47419D1*
X118900Y47443D1*
X118876Y47515D1*
Y47562D1*
X119270Y47801D2*
X119318Y47825D1*
X119390Y47897D1*
Y47395D1*
X119569Y47777D2*
Y47801D1*
X119592Y47849D1*
X119616Y47873D1*
X119664Y47897D1*
X119760D1*
X119807Y47873D1*
X119831Y47849D1*
X119855Y47801D1*
Y47754D1*
X119831Y47705D1*
X119784Y47634D1*
X119544Y47395D1*
X119879D1*
X75115Y20397D2*
Y20015D1*
X75092Y19943D1*
X75067Y19919D1*
X75020Y19895D1*
X74972D1*
X74924Y19919D1*
X74900Y19943D1*
X74876Y20015D1*
Y20062D1*
X75270Y20301D2*
X75318Y20325D1*
X75390Y20397D1*
Y19895D1*
X75592Y20397D2*
X75855D1*
X75712Y20205D1*
X75784D1*
X75831Y20182D1*
X75855Y20158D1*
X75879Y20086D1*
Y20039D1*
X75855Y19967D1*
X75807Y19919D1*
X75735Y19895D1*
X75664D1*
X75592Y19919D1*
X75569Y19943D1*
X75544Y19990D1*
X85104Y20397D2*
Y20015D1*
X85080Y19943D1*
X85056Y19919D1*
X85008Y19895D1*
X84960D1*
X84912Y19919D1*
X84889Y19943D1*
X84864Y20015D1*
Y20062D1*
X85258Y20301D2*
X85306Y20325D1*
X85378Y20397D1*
Y19895D1*
X85772D2*
Y20397D1*
X85532Y20062D1*
X85891D1*
X95115Y20397D2*
Y20015D1*
X95092Y19943D1*
X95067Y19919D1*
X95020Y19895D1*
X94972D1*
X94924Y19919D1*
X94900Y19943D1*
X94876Y20015D1*
Y20062D1*
X95270Y20301D2*
X95318Y20325D1*
X95390Y20397D1*
Y19895D1*
X95831Y20397D2*
X95592D1*
X95569Y20182D1*
X95592Y20205D1*
X95664Y20230D1*
X95735D1*
X95807Y20205D1*
X95855Y20158D1*
X95879Y20086D1*
Y20039D1*
X95855Y19967D1*
X95807Y19919D1*
X95735Y19895D1*
X95664D1*
X95592Y19919D1*
X95569Y19943D1*
X95544Y19990D1*
X105128Y20397D2*
Y20015D1*
X105104Y19943D1*
X105080Y19919D1*
X105032Y19895D1*
X104984D1*
X104936Y19919D1*
X104913Y19943D1*
X104888Y20015D1*
Y20062D1*
X105282Y20301D2*
X105330Y20325D1*
X105402Y20397D1*
Y19895D1*
X105843Y20325D2*
X105819Y20373D1*
X105748Y20397D1*
X105700D1*
X105628Y20373D1*
X105580Y20301D1*
X105556Y20182D1*
Y20062D1*
X105580Y19967D1*
X105628Y19919D1*
X105700Y19895D1*
X105724D1*
X105795Y19919D1*
X105843Y19967D1*
X105867Y20039D1*
Y20062D1*
X105843Y20134D1*
X105795Y20182D1*
X105724Y20205D1*
X105700D1*
X105628Y20182D1*
X105580Y20134D1*
X105556Y20062D1*
X39081Y12005D2*
Y11622D1*
X39058Y11551D1*
X39033Y11527D1*
X38986Y11503D1*
X38938D1*
X38890Y11527D1*
X38866Y11551D1*
X38842Y11622D1*
Y11670D1*
X39236Y11909D2*
X39284Y11933D1*
X39356Y12004D1*
Y11503D1*
X39606D2*
X39845Y12004D1*
X39510D1*
X65568Y32407D2*
X65520Y32383D1*
X65472Y32335D1*
X65449Y32287D1*
X65424Y32215D1*
Y32096D1*
X65449Y32024D1*
X65472Y31977D1*
X65520Y31928D1*
X65568Y31905D1*
X65664D1*
X65712Y31928D1*
X65759Y31977D1*
X65783Y32024D1*
X65807Y32096D1*
Y32215D1*
X65783Y32287D1*
X65759Y32335D1*
X65712Y32383D1*
X65664Y32407D1*
X65568D1*
X65640Y32000D2*
X65783Y31857D1*
X65962Y32310D2*
X66010Y32335D1*
X66082Y32406D1*
Y31904D1*
X61461Y31157D2*
X61413Y31133D1*
X61365Y31085D1*
X61341Y31037D1*
X61317Y30965D1*
Y30846D1*
X61341Y30774D1*
X61365Y30727D1*
X61413Y30678D1*
X61461Y30655D1*
X61556D1*
X61604Y30678D1*
X61652Y30727D1*
X61676Y30774D1*
X61700Y30846D1*
Y30965D1*
X61676Y31037D1*
X61652Y31085D1*
X61604Y31133D1*
X61556Y31157D1*
X61461D1*
X61532Y30750D2*
X61676Y30607D1*
X61879Y31037D2*
Y31060D1*
X61902Y31108D1*
X61926Y31132D1*
X61974Y31156D1*
X62070D1*
X62117Y31132D1*
X62141Y31108D1*
X62165Y31060D1*
Y31013D1*
X62141Y30965D1*
X62094Y30893D1*
X61854Y30654D1*
X62189D1*
X57461Y29907D2*
X57413Y29883D1*
X57365Y29835D1*
X57341Y29787D1*
X57317Y29715D1*
Y29596D1*
X57341Y29524D1*
X57365Y29477D1*
X57413Y29428D1*
X57461Y29405D1*
X57556D1*
X57604Y29428D1*
X57652Y29477D1*
X57676Y29524D1*
X57700Y29596D1*
Y29715D1*
X57676Y29787D1*
X57652Y29835D1*
X57604Y29883D1*
X57556Y29907D1*
X57461D1*
X57532Y29500D2*
X57676Y29357D1*
X57902Y29906D2*
X58165D1*
X58022Y29715D1*
X58094D1*
X58141Y29691D1*
X58165Y29667D1*
X58189Y29595D1*
Y29548D1*
X58165Y29476D1*
X58117Y29428D1*
X58045Y29404D1*
X57974D1*
X57902Y29428D1*
X57879Y29452D1*
X57854Y29500D1*
X53449Y28657D2*
X53401Y28633D1*
X53353Y28585D1*
X53329Y28537D1*
X53305Y28465D1*
Y28346D1*
X53329Y28274D1*
X53353Y28227D1*
X53401Y28178D1*
X53449Y28155D1*
X53544D1*
X53592Y28178D1*
X53640Y28227D1*
X53664Y28274D1*
X53688Y28346D1*
Y28465D1*
X53664Y28537D1*
X53640Y28585D1*
X53592Y28633D1*
X53544Y28657D1*
X53449D1*
X53520Y28250D2*
X53664Y28107D1*
X54082Y28154D2*
Y28656D1*
X53842Y28322D1*
X54201D1*
X65461Y26907D2*
X65413Y26883D1*
X65365Y26835D1*
X65341Y26787D1*
X65317Y26715D1*
Y26596D1*
X65341Y26524D1*
X65365Y26477D1*
X65413Y26428D1*
X65461Y26405D1*
X65556D1*
X65604Y26428D1*
X65652Y26477D1*
X65676Y26524D1*
X65700Y26596D1*
Y26715D1*
X65676Y26787D1*
X65652Y26835D1*
X65604Y26883D1*
X65556Y26907D1*
X65461D1*
X65532Y26500D2*
X65676Y26357D1*
X66141Y26906D2*
X65902D1*
X65879Y26691D1*
X65902Y26715D1*
X65974Y26739D1*
X66045D1*
X66117Y26715D1*
X66165Y26667D1*
X66189Y26595D1*
Y26548D1*
X66165Y26476D1*
X66117Y26428D1*
X66045Y26404D1*
X65974D1*
X65902Y26428D1*
X65879Y26452D1*
X65854Y26500D1*
X61473Y25657D2*
X61425Y25633D1*
X61377Y25585D1*
X61353Y25537D1*
X61329Y25465D1*
Y25346D1*
X61353Y25274D1*
X61377Y25227D1*
X61425Y25178D1*
X61473Y25155D1*
X61568D1*
X61616Y25178D1*
X61664Y25227D1*
X61688Y25274D1*
X61712Y25346D1*
Y25465D1*
X61688Y25537D1*
X61664Y25585D1*
X61616Y25633D1*
X61568Y25657D1*
X61473D1*
X61545Y25250D2*
X61688Y25107D1*
X62153Y25585D2*
X62129Y25632D1*
X62058Y25656D1*
X62010D1*
X61938Y25632D1*
X61890Y25560D1*
X61866Y25441D1*
Y25322D1*
X61890Y25226D1*
X61938Y25178D1*
X62010Y25154D1*
X62034D1*
X62105Y25178D1*
X62153Y25226D1*
X62177Y25298D1*
Y25322D1*
X62153Y25393D1*
X62105Y25441D1*
X62034Y25465D1*
X62010D1*
X61938Y25441D1*
X61890Y25393D1*
X61866Y25322D1*
X57461Y24407D2*
X57413Y24383D1*
X57365Y24335D1*
X57341Y24287D1*
X57317Y24215D1*
Y24096D1*
X57341Y24024D1*
X57365Y23977D1*
X57413Y23928D1*
X57461Y23905D1*
X57556D1*
X57604Y23928D1*
X57652Y23977D1*
X57676Y24024D1*
X57700Y24096D1*
Y24215D1*
X57676Y24287D1*
X57652Y24335D1*
X57604Y24383D1*
X57556Y24407D1*
X57461D1*
X57532Y24000D2*
X57676Y23857D1*
X57950Y23904D2*
X58189Y24406D1*
X57854D1*
X53461Y23157D2*
X53413Y23133D1*
X53365Y23085D1*
X53341Y23037D1*
X53317Y22965D1*
Y22846D1*
X53341Y22774D1*
X53365Y22727D1*
X53413Y22678D1*
X53461Y22655D1*
X53556D1*
X53604Y22678D1*
X53652Y22727D1*
X53676Y22774D1*
X53700Y22846D1*
Y22965D1*
X53676Y23037D1*
X53652Y23085D1*
X53604Y23133D1*
X53556Y23157D1*
X53461D1*
X53533Y22750D2*
X53676Y22607D1*
X53974Y23156D2*
X53903Y23132D1*
X53878Y23085D1*
Y23037D1*
X53903Y22989D1*
X53950Y22965D1*
X54046Y22941D1*
X54118Y22917D1*
X54165Y22869D1*
X54189Y22822D1*
Y22750D1*
X54165Y22702D1*
X54141Y22678D1*
X54070Y22654D1*
X53974D1*
X53903Y22678D1*
X53878Y22702D1*
X53855Y22750D1*
Y22822D1*
X53878Y22869D1*
X53926Y22917D1*
X53998Y22941D1*
X54093Y22965D1*
X54141Y22989D1*
X54165Y23037D1*
Y23085D1*
X54141Y23132D1*
X54070Y23156D1*
X53974D1*
X65472Y16657D2*
X65425Y16633D1*
X65377Y16585D1*
X65353Y16537D1*
X65329Y16465D1*
Y16346D1*
X65353Y16274D1*
X65377Y16227D1*
X65425Y16178D1*
X65472Y16155D1*
X65568D1*
X65616Y16178D1*
X65664Y16227D1*
X65687Y16274D1*
X65712Y16346D1*
Y16465D1*
X65687Y16537D1*
X65664Y16585D1*
X65616Y16633D1*
X65568Y16657D1*
X65472D1*
X65544Y16250D2*
X65687Y16107D1*
X66177Y16489D2*
X66153Y16417D1*
X66105Y16369D1*
X66034Y16345D1*
X66010D1*
X65938Y16369D1*
X65890Y16417D1*
X65866Y16489D1*
Y16513D1*
X65890Y16585D1*
X65938Y16632D1*
X66010Y16656D1*
X66034D1*
X66105Y16632D1*
X66153Y16585D1*
X66177Y16489D1*
Y16369D1*
X66153Y16250D1*
X66105Y16178D1*
X66034Y16154D1*
X65986D1*
X65914Y16178D1*
X65890Y16226D1*
X61323Y15407D2*
X61276Y15383D1*
X61228Y15335D1*
X61204Y15287D1*
X61180Y15215D1*
Y15096D1*
X61204Y15024D1*
X61228Y14977D1*
X61276Y14928D1*
X61323Y14905D1*
X61419D1*
X61467Y14928D1*
X61515Y14977D1*
X61538Y15024D1*
X61563Y15096D1*
Y15215D1*
X61538Y15287D1*
X61515Y15335D1*
X61467Y15383D1*
X61419Y15407D1*
X61323D1*
X61395Y15000D2*
X61538Y14857D1*
X61717Y15310D2*
X61765Y15335D1*
X61837Y15406D1*
Y14904D1*
X62135Y15406D2*
X62063Y15382D1*
X62015Y15310D1*
X61991Y15191D1*
Y15119D1*
X62015Y15000D1*
X62063Y14928D1*
X62135Y14904D1*
X62183D1*
X62254Y14928D1*
X62302Y15000D1*
X62326Y15119D1*
Y15191D1*
X62302Y15310D1*
X62254Y15382D1*
X62183Y15406D1*
X62135D1*
X62302Y15310D2*
X62015Y15000D1*
X57431Y14157D2*
X57383Y14133D1*
X57335Y14085D1*
X57311Y14037D1*
X57287Y13965D1*
Y13846D1*
X57311Y13774D1*
X57335Y13727D1*
X57383Y13678D1*
X57431Y13655D1*
X57526D1*
X57575Y13678D1*
X57622Y13727D1*
X57646Y13774D1*
X57670Y13846D1*
Y13965D1*
X57646Y14037D1*
X57622Y14085D1*
X57575Y14133D1*
X57526Y14157D1*
X57431D1*
X57503Y13750D2*
X57646Y13607D1*
X57825Y14060D2*
X57873Y14085D1*
X57945Y14156D1*
Y13654D1*
X58099Y14060D2*
X58147Y14085D1*
X58219Y14156D1*
Y13654D1*
X53323Y12907D2*
X53276Y12883D1*
X53228Y12835D1*
X53204Y12787D1*
X53180Y12715D1*
Y12596D1*
X53204Y12524D1*
X53228Y12477D1*
X53276Y12428D1*
X53323Y12405D1*
X53419D1*
X53467Y12428D1*
X53515Y12477D1*
X53538Y12524D1*
X53563Y12596D1*
Y12715D1*
X53538Y12787D1*
X53515Y12835D1*
X53467Y12883D1*
X53419Y12907D1*
X53323D1*
X53395Y12500D2*
X53538Y12357D1*
X53717Y12810D2*
X53765Y12835D1*
X53837Y12906D1*
Y12404D1*
X54016Y12787D2*
Y12810D1*
X54039Y12858D1*
X54063Y12882D1*
X54111Y12906D1*
X54207D1*
X54254Y12882D1*
X54278Y12858D1*
X54303Y12810D1*
Y12763D1*
X54278Y12715D1*
X54231Y12643D1*
X53991Y12404D1*
X54326D1*
X65323Y11157D2*
X65276Y11133D1*
X65228Y11085D1*
X65204Y11037D1*
X65180Y10965D1*
Y10846D1*
X65204Y10774D1*
X65228Y10727D1*
X65276Y10678D1*
X65323Y10655D1*
X65419D1*
X65467Y10678D1*
X65515Y10727D1*
X65538Y10774D1*
X65563Y10846D1*
Y10965D1*
X65538Y11037D1*
X65515Y11085D1*
X65467Y11133D1*
X65419Y11157D1*
X65323D1*
X65395Y10750D2*
X65538Y10607D1*
X65717Y11060D2*
X65765Y11085D1*
X65837Y11156D1*
Y10654D1*
X66039Y11156D2*
X66302D1*
X66159Y10965D1*
X66231D1*
X66278Y10941D1*
X66302Y10917D1*
X66326Y10845D1*
Y10798D1*
X66302Y10726D1*
X66254Y10678D1*
X66183Y10654D1*
X66111D1*
X66039Y10678D1*
X66016Y10702D1*
X65991Y10750D1*
X61311Y9907D2*
X61264Y9883D1*
X61216Y9835D1*
X61192Y9787D1*
X61168Y9715D1*
Y9596D1*
X61192Y9524D1*
X61216Y9477D1*
X61264Y9428D1*
X61311Y9405D1*
X61407D1*
X61455Y9428D1*
X61503Y9477D1*
X61526Y9524D1*
X61551Y9596D1*
Y9715D1*
X61526Y9787D1*
X61503Y9835D1*
X61455Y9883D1*
X61407Y9907D1*
X61311D1*
X61383Y9500D2*
X61526Y9357D1*
X61705Y9810D2*
X61753Y9835D1*
X61825Y9906D1*
Y9404D1*
X62219D2*
Y9906D1*
X61980Y9572D1*
X62338D1*
X57323Y8657D2*
X57276Y8633D1*
X57228Y8585D1*
X57204Y8537D1*
X57180Y8465D1*
Y8346D1*
X57204Y8274D1*
X57228Y8227D1*
X57276Y8178D1*
X57323Y8155D1*
X57419D1*
X57467Y8178D1*
X57515Y8227D1*
X57538Y8274D1*
X57563Y8346D1*
Y8465D1*
X57538Y8537D1*
X57515Y8585D1*
X57467Y8633D1*
X57419Y8657D1*
X57323D1*
X57395Y8250D2*
X57538Y8107D1*
X57717Y8560D2*
X57765Y8585D1*
X57837Y8656D1*
Y8154D1*
X58278Y8656D2*
X58039D1*
X58016Y8441D1*
X58039Y8465D1*
X58111Y8489D1*
X58183D1*
X58254Y8465D1*
X58303Y8417D1*
X58326Y8345D1*
Y8298D1*
X58303Y8226D1*
X58254Y8178D1*
X58183Y8154D1*
X58111D1*
X58039Y8178D1*
X58016Y8202D1*
X57991Y8250D1*
X53336Y7407D2*
X53288Y7383D1*
X53240Y7335D1*
X53216Y7287D1*
X53192Y7215D1*
Y7096D1*
X53216Y7024D1*
X53240Y6977D1*
X53288Y6928D1*
X53336Y6905D1*
X53431D1*
X53479Y6928D1*
X53527Y6977D1*
X53551Y7024D1*
X53575Y7096D1*
Y7215D1*
X53551Y7287D1*
X53527Y7335D1*
X53479Y7383D1*
X53431Y7407D1*
X53336D1*
X53407Y7000D2*
X53551Y6857D1*
X53729Y7310D2*
X53777Y7335D1*
X53849Y7406D1*
Y6904D1*
X54290Y7335D2*
X54267Y7382D1*
X54195Y7406D1*
X54147D1*
X54075Y7382D1*
X54027Y7310D1*
X54004Y7191D1*
Y7072D1*
X54027Y6976D1*
X54075Y6928D1*
X54147Y6904D1*
X54171D1*
X54242Y6928D1*
X54290Y6976D1*
X54314Y7048D1*
Y7072D1*
X54290Y7143D1*
X54242Y7191D1*
X54171Y7215D1*
X54147D1*
X54075Y7191D1*
X54027Y7143D1*
X54004Y7072D1*
X7687Y60787D2*
X7902D1*
X7973Y60812D1*
X7998Y60835D1*
X8021Y60883D1*
Y60931D1*
X7998Y60978D1*
X7973Y61003D1*
X7902Y61027D1*
X7687D1*
Y60524D1*
X7854Y60787D2*
X8021Y60524D1*
X8176Y60930D2*
X8224Y60955D1*
X8296Y61026D1*
Y60524D1*
X12079Y60787D2*
X12294D1*
X12366Y60812D1*
X12390Y60835D1*
X12414Y60883D1*
Y60931D1*
X12390Y60978D1*
X12366Y61003D1*
X12294Y61027D1*
X12079D1*
Y60524D1*
X12247Y60787D2*
X12414Y60524D1*
X12593Y60907D2*
Y60930D1*
X12616Y60978D1*
X12640Y61002D1*
X12688Y61026D1*
X12784D1*
X12831Y61002D1*
X12855Y60978D1*
X12880Y60930D1*
Y60883D1*
X12855Y60835D1*
X12808Y60763D1*
X12568Y60524D1*
X12903D1*
X17579Y60787D2*
X17794D1*
X17866Y60812D1*
X17890Y60835D1*
X17914Y60883D1*
Y60931D1*
X17890Y60978D1*
X17866Y61003D1*
X17794Y61027D1*
X17579D1*
Y60524D1*
X17747Y60787D2*
X17914Y60524D1*
X18116Y61026D2*
X18379D1*
X18236Y60835D1*
X18308D1*
X18355Y60811D1*
X18379Y60787D1*
X18403Y60715D1*
Y60668D1*
X18379Y60596D1*
X18331Y60548D1*
X18260Y60524D1*
X18188D1*
X18116Y60548D1*
X18093Y60572D1*
X18068Y60620D1*
X22067Y60787D2*
X22282D1*
X22354Y60812D1*
X22378Y60835D1*
X22402Y60883D1*
Y60931D1*
X22378Y60978D1*
X22354Y61003D1*
X22282Y61027D1*
X22067D1*
Y60524D1*
X22235Y60787D2*
X22402Y60524D1*
X22796D2*
Y61026D1*
X22556Y60692D1*
X22915D1*
X26579Y60787D2*
X26794D1*
X26866Y60812D1*
X26890Y60835D1*
X26914Y60883D1*
Y60931D1*
X26890Y60978D1*
X26866Y61003D1*
X26794Y61027D1*
X26579D1*
Y60524D1*
X26747Y60787D2*
X26914Y60524D1*
X27355Y61026D2*
X27116D1*
X27093Y60811D1*
X27116Y60835D1*
X27188Y60859D1*
X27260D1*
X27331Y60835D1*
X27380Y60787D1*
X27403Y60715D1*
Y60668D1*
X27380Y60596D1*
X27331Y60548D1*
X27260Y60524D1*
X27188D1*
X27116Y60548D1*
X27093Y60572D1*
X27068Y60620D1*
X31091Y60787D2*
X31306D1*
X31378Y60812D1*
X31402Y60835D1*
X31426Y60883D1*
Y60931D1*
X31402Y60978D1*
X31378Y61003D1*
X31306Y61027D1*
X31091D1*
Y60524D1*
X31259Y60787D2*
X31426Y60524D1*
X31867Y60955D2*
X31844Y61002D1*
X31772Y61026D1*
X31724D1*
X31652Y61002D1*
X31604Y60930D1*
X31581Y60811D1*
Y60692D1*
X31604Y60596D1*
X31652Y60548D1*
X31724Y60524D1*
X31748D1*
X31819Y60548D1*
X31867Y60596D1*
X31891Y60668D1*
Y60692D1*
X31867Y60763D1*
X31819Y60811D1*
X31748Y60835D1*
X31724D1*
X31652Y60811D1*
X31604Y60763D1*
X31581Y60692D1*
X36579Y60787D2*
X36794D1*
X36866Y60812D1*
X36890Y60835D1*
X36914Y60883D1*
Y60931D1*
X36890Y60978D1*
X36866Y61003D1*
X36794Y61027D1*
X36579D1*
Y60524D1*
X36747Y60787D2*
X36914Y60524D1*
X37164D2*
X37403Y61026D1*
X37068D1*
X41477Y60787D2*
X41692D1*
X41764Y60812D1*
X41788Y60835D1*
X41812Y60883D1*
Y60931D1*
X41788Y60978D1*
X41764Y61003D1*
X41692Y61027D1*
X41477D1*
Y60524D1*
X41644Y60787D2*
X41812Y60524D1*
X42086Y61026D2*
X42014Y61002D1*
X41990Y60955D1*
Y60907D1*
X42014Y60859D1*
X42062Y60835D1*
X42158Y60811D1*
X42229Y60787D1*
X42277Y60739D1*
X42301Y60692D1*
Y60620D1*
X42277Y60572D1*
X42253Y60548D1*
X42181Y60524D1*
X42086D1*
X42014Y60548D1*
X41990Y60572D1*
X41966Y60620D1*
Y60692D1*
X41990Y60739D1*
X42038Y60787D1*
X42109Y60811D1*
X42205Y60835D1*
X42253Y60859D1*
X42277Y60907D1*
Y60955D1*
X42253Y61002D1*
X42181Y61026D1*
X42086D1*
X47091Y60787D2*
X47306D1*
X47378Y60812D1*
X47402Y60835D1*
X47426Y60883D1*
Y60931D1*
X47402Y60978D1*
X47378Y61003D1*
X47306Y61027D1*
X47091D1*
Y60524D1*
X47258Y60787D2*
X47426Y60524D1*
X47891Y60859D2*
X47867Y60787D1*
X47820Y60739D1*
X47748Y60715D1*
X47724D1*
X47652Y60739D1*
X47605Y60787D1*
X47580Y60859D1*
Y60883D1*
X47605Y60955D1*
X47652Y61002D1*
X47724Y61026D1*
X47748D1*
X47820Y61002D1*
X47867Y60955D1*
X47891Y60859D1*
Y60739D1*
X47867Y60620D1*
X47820Y60548D1*
X47748Y60524D1*
X47700D1*
X47628Y60548D1*
X47605Y60596D1*
X51442Y60787D2*
X51657D1*
X51729Y60812D1*
X51753Y60835D1*
X51777Y60883D1*
Y60931D1*
X51753Y60978D1*
X51729Y61003D1*
X51657Y61027D1*
X51442D1*
Y60524D1*
X51609Y60787D2*
X51777Y60524D1*
X51931Y60930D2*
X51979Y60955D1*
X52051Y61026D1*
Y60524D1*
X52349Y61026D2*
X52277Y61002D1*
X52229Y60930D1*
X52206Y60811D1*
Y60739D1*
X52229Y60620D1*
X52277Y60548D1*
X52349Y60524D1*
X52397D1*
X52469Y60548D1*
X52516Y60620D1*
X52540Y60739D1*
Y60811D1*
X52516Y60930D1*
X52469Y61002D1*
X52397Y61026D1*
X52349D1*
X52516Y60930D2*
X52229Y60620D1*
X56049Y60787D2*
X56264D1*
X56336Y60812D1*
X56361Y60835D1*
X56384Y60883D1*
Y60931D1*
X56361Y60978D1*
X56336Y61003D1*
X56264Y61027D1*
X56049D1*
Y60524D1*
X56217Y60787D2*
X56384Y60524D1*
X56539Y60930D2*
X56587Y60955D1*
X56659Y61026D1*
Y60524D1*
X56813Y60930D2*
X56861Y60955D1*
X56933Y61026D1*
Y60524D1*
X60942Y60787D2*
X61157D1*
X61229Y60812D1*
X61253Y60835D1*
X61277Y60883D1*
Y60931D1*
X61253Y60978D1*
X61229Y61003D1*
X61157Y61027D1*
X60942D1*
Y60524D1*
X61109Y60787D2*
X61277Y60524D1*
X61431Y60930D2*
X61479Y60955D1*
X61551Y61026D1*
Y60524D1*
X61730Y60907D2*
Y60930D1*
X61754Y60978D1*
X61777Y61002D1*
X61825Y61026D1*
X61921D1*
X61969Y61002D1*
X61992Y60978D1*
X62017Y60930D1*
Y60883D1*
X61992Y60835D1*
X61945Y60763D1*
X61706Y60524D1*
X62040D1*
X66442Y60787D2*
X66657D1*
X66729Y60812D1*
X66753Y60835D1*
X66777Y60883D1*
Y60931D1*
X66753Y60978D1*
X66729Y61003D1*
X66657Y61027D1*
X66442D1*
Y60524D1*
X66609Y60787D2*
X66777Y60524D1*
X66931Y60930D2*
X66979Y60955D1*
X67051Y61026D1*
Y60524D1*
X67254Y61026D2*
X67516D1*
X67373Y60835D1*
X67445D1*
X67492Y60811D1*
X67516Y60787D1*
X67540Y60715D1*
Y60668D1*
X67516Y60596D1*
X67469Y60548D1*
X67397Y60524D1*
X67325D1*
X67254Y60548D1*
X67230Y60572D1*
X67206Y60620D1*
X71828Y60787D2*
X72043D1*
X72114Y60812D1*
X72139Y60835D1*
X72163Y60883D1*
Y60931D1*
X72139Y60978D1*
X72114Y61003D1*
X72043Y61027D1*
X71828D1*
Y60524D1*
X71995Y60787D2*
X72163Y60524D1*
X72317Y60930D2*
X72365Y60955D1*
X72437Y61026D1*
Y60524D1*
X72831D2*
Y61026D1*
X72591Y60692D1*
X72950D1*
X76340Y60787D2*
X76555D1*
X76626Y60812D1*
X76651Y60835D1*
X76674Y60883D1*
Y60931D1*
X76651Y60978D1*
X76626Y61003D1*
X76555Y61027D1*
X76340D1*
Y60524D1*
X76507Y60787D2*
X76674Y60524D1*
X76829Y60930D2*
X76877Y60955D1*
X76949Y61026D1*
Y60524D1*
X77390Y61026D2*
X77151D1*
X77127Y60811D1*
X77151Y60835D1*
X77223Y60859D1*
X77294D1*
X77366Y60835D1*
X77414Y60787D1*
X77438Y60715D1*
Y60668D1*
X77414Y60596D1*
X77366Y60548D1*
X77294Y60524D1*
X77223D1*
X77151Y60548D1*
X77127Y60572D1*
X77103Y60620D1*
X85954Y60787D2*
X86169D1*
X86241Y60812D1*
X86265Y60835D1*
X86289Y60883D1*
Y60931D1*
X86265Y60978D1*
X86241Y61003D1*
X86169Y61027D1*
X85954D1*
Y60524D1*
X86122Y60787D2*
X86289Y60524D1*
X86443Y60930D2*
X86491Y60955D1*
X86563Y61026D1*
Y60524D1*
X87005Y60955D2*
X86981Y61002D1*
X86909Y61026D1*
X86861D1*
X86790Y61002D1*
X86741Y60930D1*
X86718Y60811D1*
Y60692D1*
X86741Y60596D1*
X86790Y60548D1*
X86861Y60524D1*
X86885D1*
X86956Y60548D1*
X87005Y60596D1*
X87028Y60668D1*
Y60692D1*
X87005Y60763D1*
X86956Y60811D1*
X86885Y60835D1*
X86861D1*
X86790Y60811D1*
X86741Y60763D1*
X86718Y60692D1*
X90840Y60787D2*
X91055D1*
X91126Y60812D1*
X91151Y60835D1*
X91174Y60883D1*
Y60931D1*
X91151Y60978D1*
X91126Y61003D1*
X91055Y61027D1*
X90840D1*
Y60524D1*
X91007Y60787D2*
X91174Y60524D1*
X91329Y60930D2*
X91377Y60955D1*
X91449Y61026D1*
Y60524D1*
X91699D2*
X91938Y61026D1*
X91603D1*
X96442Y60787D2*
X96657D1*
X96729Y60812D1*
X96753Y60835D1*
X96777Y60883D1*
Y60931D1*
X96753Y60978D1*
X96729Y61003D1*
X96657Y61027D1*
X96442D1*
Y60524D1*
X96610Y60787D2*
X96777Y60524D1*
X96931Y60930D2*
X96980Y60955D1*
X97051Y61026D1*
Y60524D1*
X97325Y61026D2*
X97254Y61002D1*
X97230Y60955D1*
Y60907D1*
X97254Y60859D1*
X97301Y60835D1*
X97397Y60811D1*
X97469Y60787D1*
X97516Y60739D1*
X97540Y60692D1*
Y60620D1*
X97516Y60572D1*
X97493Y60548D1*
X97421Y60524D1*
X97325D1*
X97254Y60548D1*
X97230Y60572D1*
X97206Y60620D1*
Y60692D1*
X97230Y60739D1*
X97278Y60787D1*
X97349Y60811D1*
X97445Y60835D1*
X97493Y60859D1*
X97516Y60907D1*
Y60955D1*
X97493Y61002D1*
X97421Y61026D1*
X97325D1*
X101454Y60787D2*
X101669D1*
X101741Y60812D1*
X101765Y60835D1*
X101789Y60883D1*
Y60931D1*
X101765Y60978D1*
X101741Y61003D1*
X101669Y61027D1*
X101454D1*
Y60524D1*
X101621Y60787D2*
X101789Y60524D1*
X101943Y60930D2*
X101991Y60955D1*
X102063Y61026D1*
Y60524D1*
X102529Y60859D2*
X102504Y60787D1*
X102457Y60739D1*
X102385Y60715D1*
X102361D1*
X102289Y60739D1*
X102242Y60787D1*
X102217Y60859D1*
Y60883D1*
X102242Y60955D1*
X102289Y61002D1*
X102361Y61026D1*
X102385D1*
X102457Y61002D1*
X102504Y60955D1*
X102529Y60859D1*
Y60739D1*
X102504Y60620D1*
X102457Y60548D1*
X102385Y60524D1*
X102337D1*
X102266Y60548D1*
X102242Y60596D1*
X106334Y60787D2*
X106549D1*
X106621Y60812D1*
X106646Y60835D1*
X106669Y60883D1*
Y60931D1*
X106646Y60978D1*
X106621Y61003D1*
X106549Y61027D1*
X106334D1*
Y60524D1*
X106502Y60787D2*
X106669Y60524D1*
X106848Y60907D2*
Y60930D1*
X106872Y60978D1*
X106896Y61002D1*
X106944Y61026D1*
X107039D1*
X107087Y61002D1*
X107111Y60978D1*
X107135Y60930D1*
Y60883D1*
X107111Y60835D1*
X107063Y60763D1*
X106824Y60524D1*
X107159D1*
X107457Y61026D2*
X107385Y61002D1*
X107337Y60930D1*
X107313Y60811D1*
Y60739D1*
X107337Y60620D1*
X107385Y60548D1*
X107457Y60524D1*
X107504D1*
X107576Y60548D1*
X107624Y60620D1*
X107648Y60739D1*
Y60811D1*
X107624Y60930D1*
X107576Y61002D1*
X107504Y61026D1*
X107457D1*
X107624Y60930D2*
X107337Y60620D1*
X110442Y60787D2*
X110657D1*
X110729Y60812D1*
X110753Y60835D1*
X110777Y60883D1*
Y60931D1*
X110753Y60978D1*
X110729Y61003D1*
X110657Y61027D1*
X110442D1*
Y60524D1*
X110609Y60787D2*
X110777Y60524D1*
X110956Y60907D2*
Y60930D1*
X110979Y60978D1*
X111003Y61002D1*
X111051Y61026D1*
X111147D1*
X111194Y61002D1*
X111218Y60978D1*
X111242Y60930D1*
Y60883D1*
X111218Y60835D1*
X111171Y60763D1*
X110931Y60524D1*
X111266D1*
X111421Y60930D2*
X111469Y60955D1*
X111540Y61026D1*
Y60524D1*
X115584Y60787D2*
X115799D1*
X115871Y60812D1*
X115896Y60835D1*
X115919Y60883D1*
Y60931D1*
X115896Y60978D1*
X115871Y61003D1*
X115799Y61027D1*
X115584D1*
Y60524D1*
X115752Y60787D2*
X115919Y60524D1*
X116098Y60907D2*
Y60930D1*
X116122Y60978D1*
X116146Y61002D1*
X116194Y61026D1*
X116289D1*
X116337Y61002D1*
X116361Y60978D1*
X116385Y60930D1*
Y60883D1*
X116361Y60835D1*
X116313Y60763D1*
X116074Y60524D1*
X116409D1*
X116587Y60907D2*
Y60930D1*
X116611Y60978D1*
X116635Y61002D1*
X116683Y61026D1*
X116779D1*
X116826Y61002D1*
X116850Y60978D1*
X116874Y60930D1*
Y60883D1*
X116850Y60835D1*
X116802Y60763D1*
X116563Y60524D1*
X116898D1*
X119233Y60787D2*
X119448D1*
X119520Y60812D1*
X119544Y60835D1*
X119568Y60883D1*
Y60931D1*
X119544Y60978D1*
X119520Y61003D1*
X119448Y61027D1*
X119233D1*
Y60524D1*
X119401Y60787D2*
X119568Y60524D1*
X119747Y60907D2*
Y60930D1*
X119771Y60978D1*
X119794Y61002D1*
X119842Y61026D1*
X119938D1*
X119986Y61002D1*
X120009Y60978D1*
X120034Y60930D1*
Y60883D1*
X120009Y60835D1*
X119962Y60763D1*
X119723Y60524D1*
X120057D1*
X120260Y61026D2*
X120522D1*
X120379Y60835D1*
X120451D1*
X120499Y60811D1*
X120522Y60787D1*
X120547Y60715D1*
Y60668D1*
X120522Y60596D1*
X120475Y60548D1*
X120403Y60524D1*
X120331D1*
X120260Y60548D1*
X120236Y60572D1*
X120212Y60620D1*
X80638Y60665D2*
X80853D1*
X80924Y60690D1*
X80949Y60714D1*
X80972Y60761D1*
Y60809D1*
X80949Y60857D1*
X80924Y60881D1*
X80853Y60905D1*
X80638D1*
Y60402D1*
X80805Y60665D2*
X80972Y60402D1*
X81151Y60785D2*
Y60809D1*
X81175Y60857D1*
X81199Y60880D1*
X81247Y60904D1*
X81342D1*
X81390Y60880D1*
X81414Y60857D1*
X81438Y60809D1*
Y60761D1*
X81414Y60713D1*
X81366Y60642D1*
X81127Y60402D1*
X81462D1*
X81855D2*
Y60904D1*
X81616Y60570D1*
X81975D1*
X34280Y26982D2*
Y27197D1*
X34256Y27269D1*
X34232Y27293D1*
X34185Y27317D1*
X34137D1*
X34089Y27293D1*
X34065Y27269D1*
X34041Y27197D1*
Y26982D1*
X34543D1*
X34280Y27149D2*
X34543Y27317D1*
X34161Y27496D2*
X34137D1*
X34089Y27519D1*
X34065Y27543D1*
X34041Y27591D1*
Y27687D1*
X34065Y27734D1*
X34089Y27758D1*
X34137Y27783D1*
X34185D1*
X34233Y27758D1*
X34304Y27711D1*
X34543Y27471D1*
Y27806D1*
X34041Y28248D2*
Y28009D1*
X34256Y27985D1*
X34233Y28009D1*
X34208Y28081D1*
Y28152D1*
X34233Y28224D1*
X34280Y28272D1*
X34352Y28296D1*
X34400D1*
X34471Y28272D1*
X34520Y28224D1*
X34543Y28152D1*
Y28081D1*
X34520Y28009D1*
X34495Y27985D1*
X34448Y27961D1*
X40847Y27787D2*
X41062D1*
X41133Y27812D1*
X41158Y27835D1*
X41181Y27883D1*
Y27931D1*
X41158Y27978D1*
X41133Y28003D1*
X41062Y28027D1*
X40847D1*
Y27524D1*
X41014Y27787D2*
X41181Y27524D1*
X41360Y27907D2*
Y27930D1*
X41384Y27978D1*
X41408Y28002D1*
X41456Y28026D1*
X41551D1*
X41599Y28002D1*
X41623Y27978D1*
X41647Y27930D1*
Y27883D1*
X41623Y27835D1*
X41575Y27763D1*
X41336Y27524D1*
X41671D1*
X42112Y27955D2*
X42088Y28002D1*
X42016Y28026D1*
X41969D1*
X41897Y28002D1*
X41849Y27930D1*
X41825Y27811D1*
Y27692D1*
X41849Y27596D1*
X41897Y27548D1*
X41969Y27524D1*
X41993D1*
X42064Y27548D1*
X42112Y27596D1*
X42136Y27668D1*
Y27692D1*
X42112Y27763D1*
X42064Y27811D1*
X41993Y27835D1*
X41969D1*
X41897Y27811D1*
X41849Y27763D1*
X41825Y27692D1*
X37593Y22834D2*
Y23049D1*
X37568Y23121D1*
X37545Y23146D1*
X37497Y23169D1*
X37449D1*
X37402Y23146D1*
X37377Y23121D1*
X37353Y23049D1*
Y22834D1*
X37856D1*
X37593Y23002D2*
X37856Y23169D1*
X37473Y23348D2*
X37450D1*
X37402Y23372D1*
X37378Y23396D1*
X37354Y23444D1*
Y23539D1*
X37378Y23587D1*
X37402Y23611D1*
X37450Y23635D1*
X37497D1*
X37545Y23611D1*
X37617Y23563D1*
X37856Y23324D1*
Y23659D1*
Y23909D2*
X37354Y24148D1*
Y23813D1*
X44843Y13732D2*
Y13947D1*
X44818Y14019D1*
X44795Y14043D1*
X44747Y14067D1*
X44699D1*
X44652Y14043D1*
X44627Y14019D1*
X44603Y13947D1*
Y13732D1*
X45106D1*
X44843Y13900D2*
X45106Y14067D1*
X44723Y14246D2*
X44700D1*
X44652Y14270D1*
X44628Y14293D1*
X44604Y14342D1*
Y14437D1*
X44628Y14485D1*
X44652Y14508D1*
X44700Y14533D1*
X44747D1*
X44795Y14508D1*
X44867Y14461D1*
X45106Y14222D1*
Y14557D1*
X44604Y14830D2*
X44628Y14759D1*
X44675Y14735D1*
X44723D1*
X44771Y14759D1*
X44795Y14807D1*
X44819Y14902D1*
X44843Y14974D1*
X44891Y15022D1*
X44938Y15045D1*
X45010D1*
X45058Y15022D1*
X45082Y14998D1*
X45106Y14926D1*
Y14830D1*
X45082Y14759D1*
X45058Y14735D1*
X45010Y14711D1*
X44938D1*
X44891Y14735D1*
X44843Y14783D1*
X44819Y14854D1*
X44795Y14950D1*
X44771Y14998D1*
X44723Y15022D1*
X44675D1*
X44628Y14998D1*
X44604Y14926D1*
Y14830D1*
X25295Y9486D2*
X25510D1*
X25582Y9510D1*
X25606Y9534D1*
X25630Y9582D1*
Y9630D1*
X25606Y9677D1*
X25582Y9702D1*
X25510Y9725D1*
X25295D1*
Y9223D1*
X25463Y9486D2*
X25630Y9223D1*
X25809Y9605D2*
Y9629D1*
X25833Y9677D1*
X25856Y9701D1*
X25904Y9725D1*
X26000D1*
X26047Y9701D1*
X26071Y9677D1*
X26096Y9629D1*
Y9582D1*
X26071Y9534D1*
X26024Y9462D1*
X25784Y9223D1*
X26119D1*
X26585Y9558D2*
X26561Y9486D1*
X26513Y9438D1*
X26441Y9414D1*
X26417D1*
X26346Y9438D1*
X26298Y9486D1*
X26274Y9558D1*
Y9582D1*
X26298Y9654D1*
X26346Y9701D1*
X26417Y9725D1*
X26441D1*
X26513Y9701D1*
X26561Y9654D1*
X26585Y9558D1*
Y9438D1*
X26561Y9319D1*
X26513Y9247D1*
X26441Y9223D1*
X26394D1*
X26322Y9247D1*
X26298Y9295D1*
X27283Y9486D2*
X27498D1*
X27570Y9510D1*
X27594Y9534D1*
X27618Y9582D1*
Y9630D1*
X27594Y9677D1*
X27570Y9702D1*
X27498Y9725D1*
X27283D1*
Y9223D1*
X27451Y9486D2*
X27618Y9223D1*
X27821Y9725D2*
X28083D1*
X27940Y9534D1*
X28012D1*
X28059Y9510D1*
X28083Y9486D1*
X28107Y9414D1*
Y9367D1*
X28083Y9295D1*
X28036Y9247D1*
X27964Y9223D1*
X27892D1*
X27821Y9247D1*
X27797Y9271D1*
X27773Y9319D1*
X28406Y9725D2*
X28334Y9701D1*
X28286Y9629D1*
X28262Y9510D1*
Y9438D1*
X28286Y9319D1*
X28334Y9247D1*
X28406Y9223D1*
X28453D1*
X28525Y9247D1*
X28572Y9319D1*
X28597Y9438D1*
Y9510D1*
X28572Y9629D1*
X28525Y9701D1*
X28453Y9725D1*
X28406D1*
X28572Y9629D2*
X28286Y9319D1*
X29391Y9486D2*
X29606D1*
X29678Y9510D1*
X29702Y9534D1*
X29726Y9582D1*
Y9630D1*
X29702Y9677D1*
X29678Y9702D1*
X29606Y9725D1*
X29391D1*
Y9223D1*
X29558Y9486D2*
X29726Y9223D1*
X29928Y9725D2*
X30191D1*
X30047Y9534D1*
X30119D1*
X30167Y9510D1*
X30191Y9486D1*
X30215Y9414D1*
Y9367D1*
X30191Y9295D1*
X30143Y9247D1*
X30071Y9223D1*
X29999D1*
X29928Y9247D1*
X29904Y9271D1*
X29880Y9319D1*
X30369Y9629D2*
X30417Y9654D1*
X30489Y9725D1*
Y9223D1*
X31283Y9486D2*
X31498D1*
X31570Y9510D1*
X31594Y9534D1*
X31618Y9582D1*
Y9630D1*
X31594Y9677D1*
X31570Y9702D1*
X31498Y9725D1*
X31283D1*
Y9223D1*
X31451Y9486D2*
X31618Y9223D1*
X31821Y9725D2*
X32083D1*
X31940Y9534D1*
X32012D1*
X32059Y9510D1*
X32083Y9486D1*
X32107Y9414D1*
Y9367D1*
X32083Y9295D1*
X32036Y9247D1*
X31964Y9223D1*
X31892D1*
X31821Y9247D1*
X31797Y9271D1*
X31773Y9319D1*
X32286Y9605D2*
Y9629D1*
X32310Y9677D1*
X32334Y9701D1*
X32382Y9725D1*
X32477D1*
X32525Y9701D1*
X32549Y9677D1*
X32573Y9629D1*
Y9582D1*
X32549Y9534D1*
X32501Y9462D1*
X32262Y9223D1*
X32597D1*
X13035Y53714D2*
X13250D1*
X13322Y53738D1*
X13346Y53762D1*
X13370Y53809D1*
Y53857D1*
X13346Y53905D1*
X13322Y53929D1*
X13250Y53953D1*
X13035D1*
Y53451D1*
X13202Y53714D2*
X13370Y53451D1*
X13859Y53953D2*
Y53451D1*
X13524Y53953D1*
Y53451D1*
X14014Y53857D2*
X14062Y53881D1*
X14133Y53953D1*
Y53451D1*
X6740Y53651D2*
X6955D1*
X7027Y53676D1*
X7051Y53699D1*
X7075Y53747D1*
Y53795D1*
X7051Y53842D1*
X7027Y53867D1*
X6955Y53891D1*
X6740D1*
Y53388D1*
X6907Y53651D2*
X7075Y53388D1*
X7564Y53891D2*
Y53388D1*
X7229Y53891D1*
Y53388D1*
X7743Y53771D2*
Y53794D1*
X7767Y53842D1*
X7790Y53866D1*
X7838Y53890D1*
X7934D1*
X7982Y53866D1*
X8005Y53842D1*
X8030Y53794D1*
Y53747D1*
X8005Y53699D1*
X7958Y53627D1*
X7719Y53388D1*
X8053D1*
X36240Y53651D2*
X36455D1*
X36527Y53676D1*
X36551Y53699D1*
X36575Y53747D1*
Y53795D1*
X36551Y53842D1*
X36527Y53867D1*
X36455Y53891D1*
X36240D1*
Y53388D1*
X36407Y53651D2*
X36575Y53388D1*
X37064Y53891D2*
Y53388D1*
X36729Y53891D1*
Y53388D1*
X37267Y53890D2*
X37529D1*
X37386Y53699D1*
X37458D1*
X37505Y53675D1*
X37529Y53651D1*
X37553Y53579D1*
Y53532D1*
X37529Y53460D1*
X37482Y53412D1*
X37410Y53388D1*
X37338D1*
X37267Y53412D1*
X37243Y53436D1*
X37219Y53484D1*
X41228Y53651D2*
X41443D1*
X41515Y53676D1*
X41539Y53699D1*
X41563Y53747D1*
Y53795D1*
X41539Y53842D1*
X41515Y53867D1*
X41443Y53891D1*
X41228D1*
Y53388D1*
X41395Y53651D2*
X41563Y53388D1*
X42052Y53891D2*
Y53388D1*
X41717Y53891D1*
Y53388D1*
X42446D2*
Y53890D1*
X42207Y53556D1*
X42565D1*
X66240Y53651D2*
X66455D1*
X66527Y53676D1*
X66551Y53699D1*
X66575Y53747D1*
Y53795D1*
X66551Y53842D1*
X66527Y53867D1*
X66455Y53891D1*
X66240D1*
Y53388D1*
X66407Y53651D2*
X66575Y53388D1*
X67064Y53891D2*
Y53388D1*
X66729Y53891D1*
Y53388D1*
X67505Y53890D2*
X67267D1*
X67243Y53675D1*
X67267Y53699D1*
X67338Y53723D1*
X67410D1*
X67482Y53699D1*
X67530Y53651D1*
X67553Y53579D1*
Y53532D1*
X67530Y53460D1*
X67482Y53412D1*
X67410Y53388D1*
X67338D1*
X67267Y53412D1*
X67243Y53436D1*
X67219Y53484D1*
X71752Y53651D2*
X71967D1*
X72039Y53676D1*
X72063Y53699D1*
X72087Y53747D1*
Y53795D1*
X72063Y53842D1*
X72039Y53867D1*
X71967Y53891D1*
X71752D1*
Y53388D1*
X71920Y53651D2*
X72087Y53388D1*
X72576Y53891D2*
Y53388D1*
X72241Y53891D1*
Y53388D1*
X73018Y53819D2*
X72994Y53866D1*
X72922Y53890D1*
X72874D1*
X72803Y53866D1*
X72754Y53794D1*
X72731Y53675D1*
Y53556D1*
X72754Y53460D1*
X72803Y53412D1*
X72874Y53388D1*
X72898D1*
X72969Y53412D1*
X73018Y53460D1*
X73041Y53532D1*
Y53556D1*
X73018Y53627D1*
X72969Y53675D1*
X72898Y53699D1*
X72874D1*
X72803Y53675D1*
X72754Y53627D1*
X72731Y53556D1*
X96240Y53651D2*
X96455D1*
X96527Y53676D1*
X96551Y53699D1*
X96575Y53747D1*
Y53795D1*
X96551Y53842D1*
X96527Y53867D1*
X96455Y53891D1*
X96240D1*
Y53388D1*
X96407Y53651D2*
X96575Y53388D1*
X97064Y53891D2*
Y53388D1*
X96729Y53891D1*
Y53388D1*
X97314D2*
X97553Y53890D1*
X97219D1*
X101490Y53651D2*
X101705D1*
X101777Y53676D1*
X101801Y53699D1*
X101825Y53747D1*
Y53795D1*
X101801Y53842D1*
X101777Y53867D1*
X101705Y53891D1*
X101490D1*
Y53388D1*
X101658Y53651D2*
X101825Y53388D1*
X102314Y53891D2*
Y53388D1*
X101980Y53891D1*
Y53388D1*
X102588Y53890D2*
X102517Y53866D1*
X102493Y53819D1*
Y53771D1*
X102517Y53723D1*
X102564Y53699D1*
X102660Y53675D1*
X102732Y53651D1*
X102779Y53603D1*
X102803Y53556D1*
Y53484D1*
X102779Y53436D1*
X102756Y53412D1*
X102684Y53388D1*
X102588D1*
X102517Y53412D1*
X102493Y53436D1*
X102469Y53484D1*
Y53556D1*
X102493Y53603D1*
X102541Y53651D1*
X102612Y53675D1*
X102708Y53699D1*
X102756Y53723D1*
X102779Y53771D1*
Y53819D1*
X102756Y53866D1*
X102684Y53890D1*
X102588D1*
X31002Y11188D2*
X31217D1*
X31289Y11212D1*
X31313Y11236D1*
X31337Y11283D1*
Y11331D1*
X31313Y11379D1*
X31289Y11403D1*
X31217Y11427D1*
X31002D1*
Y10925D1*
X31169Y11188D2*
X31337Y10925D1*
X31826Y11427D2*
Y10925D1*
X31491Y11427D1*
Y10925D1*
X32292Y11260D2*
X32267Y11188D1*
X32220Y11140D1*
X32148Y11116D1*
X32124D1*
X32052Y11140D1*
X32005Y11188D1*
X31980Y11260D1*
Y11283D1*
X32005Y11355D1*
X32052Y11403D1*
X32124Y11427D1*
X32148D1*
X32220Y11403D1*
X32267Y11355D1*
X32292Y11260D1*
Y11140D1*
X32267Y11020D1*
X32220Y10948D1*
X32148Y10925D1*
X32100D1*
X32029Y10948D1*
X32005Y10997D1*
X25106Y10443D2*
X25321D1*
X25393Y10467D1*
X25417Y10491D1*
X25441Y10538D1*
Y10586D1*
X25417Y10634D1*
X25393Y10658D1*
X25321Y10682D1*
X25106D1*
Y10180D1*
X25274Y10443D2*
X25441Y10180D1*
X25930Y10682D2*
Y10180D1*
X25595Y10682D1*
Y10180D1*
X26085Y10586D2*
X26133Y10610D1*
X26205Y10682D1*
Y10180D1*
X26503Y10682D2*
X26431Y10658D1*
X26383Y10586D1*
X26359Y10467D1*
Y10395D1*
X26383Y10275D1*
X26431Y10203D1*
X26503Y10180D1*
X26550D1*
X26622Y10203D1*
X26670Y10275D1*
X26694Y10395D1*
Y10467D1*
X26670Y10586D1*
X26622Y10658D1*
X26550Y10682D1*
X26503D1*
X26670Y10586D2*
X26383Y10275D1*
X19938Y35605D2*
X19891Y35653D1*
X19819Y35677D1*
X19723D1*
X19651Y35653D1*
X19603Y35605D1*
Y35557D1*
X19628Y35509D1*
X19651Y35485D1*
X19699Y35462D1*
X19843Y35413D1*
X19891Y35390D1*
X19915Y35365D1*
X19938Y35318D1*
Y35246D1*
X19891Y35198D1*
X19819Y35174D1*
X19723D1*
X19651Y35198D1*
X19603Y35246D1*
X20093Y35580D2*
X20141Y35605D1*
X20213Y35676D1*
Y35174D1*
X49331Y35605D2*
X49283Y35653D1*
X49211Y35677D1*
X49116D1*
X49044Y35653D1*
X48996Y35605D1*
Y35557D1*
X49020Y35509D1*
X49044Y35485D1*
X49092Y35462D1*
X49235Y35413D1*
X49283Y35390D1*
X49307Y35365D1*
X49331Y35318D1*
Y35246D1*
X49283Y35198D1*
X49211Y35174D1*
X49116D1*
X49044Y35198D1*
X48996Y35246D1*
X49510Y35557D2*
Y35580D1*
X49533Y35628D1*
X49557Y35652D1*
X49605Y35676D1*
X49701D1*
X49748Y35652D1*
X49772Y35628D1*
X49796Y35580D1*
Y35533D1*
X49772Y35485D1*
X49725Y35413D1*
X49485Y35174D1*
X49820D1*
X79331Y35605D2*
X79283Y35653D1*
X79211Y35677D1*
X79116D1*
X79044Y35653D1*
X78996Y35605D1*
Y35557D1*
X79020Y35509D1*
X79044Y35485D1*
X79092Y35462D1*
X79235Y35413D1*
X79283Y35390D1*
X79307Y35365D1*
X79331Y35318D1*
Y35246D1*
X79283Y35198D1*
X79211Y35174D1*
X79116D1*
X79044Y35198D1*
X78996Y35246D1*
X79533Y35676D2*
X79796D1*
X79653Y35485D1*
X79725D1*
X79772Y35461D1*
X79796Y35437D1*
X79820Y35365D1*
Y35318D1*
X79796Y35246D1*
X79748Y35198D1*
X79676Y35174D1*
X79605D1*
X79533Y35198D1*
X79510Y35222D1*
X79485Y35270D1*
X109319Y35605D2*
X109271Y35653D1*
X109200Y35677D1*
X109104D1*
X109032Y35653D1*
X108984Y35605D1*
Y35557D1*
X109008Y35509D1*
X109032Y35485D1*
X109080Y35462D1*
X109223Y35413D1*
X109271Y35390D1*
X109295Y35365D1*
X109319Y35318D1*
Y35246D1*
X109271Y35198D1*
X109200Y35174D1*
X109104D1*
X109032Y35198D1*
X108984Y35246D1*
X109713Y35174D2*
Y35676D1*
X109473Y35342D1*
X109832D1*
X7198Y59391D2*
Y59032D1*
X7222Y58960D1*
X7270Y58912D1*
X7342Y58888D1*
X7390D1*
X7461Y58912D1*
X7510Y58960D1*
X7533Y59032D1*
Y59391D1*
X7688Y59294D2*
X7736Y59319D1*
X7808Y59390D1*
Y58888D1*
X12091Y59391D2*
Y59032D1*
X12115Y58960D1*
X12163Y58912D1*
X12235Y58888D1*
X12282D1*
X12354Y58912D1*
X12402Y58960D1*
X12426Y59032D1*
Y59391D1*
X12605Y59271D2*
Y59294D1*
X12628Y59342D1*
X12652Y59366D1*
X12700Y59390D1*
X12796D1*
X12843Y59366D1*
X12867Y59342D1*
X12891Y59294D1*
Y59247D1*
X12867Y59199D1*
X12820Y59127D1*
X12580Y58888D1*
X12915D1*
X17591Y59391D2*
Y59032D1*
X17615Y58960D1*
X17663Y58912D1*
X17735Y58888D1*
X17782D1*
X17854Y58912D1*
X17902Y58960D1*
X17926Y59032D1*
Y59391D1*
X18128Y59390D2*
X18391D1*
X18248Y59199D1*
X18320D1*
X18367Y59175D1*
X18391Y59151D1*
X18415Y59079D1*
Y59032D1*
X18391Y58960D1*
X18343Y58912D1*
X18271Y58888D1*
X18200D1*
X18128Y58912D1*
X18105Y58936D1*
X18080Y58984D1*
X22079Y59391D2*
Y59032D1*
X22103Y58960D1*
X22151Y58912D1*
X22223Y58888D1*
X22270D1*
X22342Y58912D1*
X22390Y58960D1*
X22414Y59032D1*
Y59391D1*
X22808Y58888D2*
Y59390D1*
X22568Y59056D1*
X22927D1*
X26591Y59391D2*
Y59032D1*
X26615Y58960D1*
X26663Y58912D1*
X26735Y58888D1*
X26782D1*
X26854Y58912D1*
X26902Y58960D1*
X26926Y59032D1*
Y59391D1*
X27367Y59390D2*
X27128D1*
X27105Y59175D1*
X27128Y59199D1*
X27200Y59223D1*
X27271D1*
X27343Y59199D1*
X27391Y59151D1*
X27415Y59079D1*
Y59032D1*
X27391Y58960D1*
X27343Y58912D1*
X27271Y58888D1*
X27200D1*
X27128Y58912D1*
X27105Y58936D1*
X27080Y58984D1*
X31103Y59391D2*
Y59032D1*
X31127Y58960D1*
X31175Y58912D1*
X31247Y58888D1*
X31294D1*
X31366Y58912D1*
X31414Y58960D1*
X31438Y59032D1*
Y59391D1*
X31879Y59319D2*
X31855Y59366D1*
X31784Y59390D1*
X31736D1*
X31664Y59366D1*
X31616Y59294D1*
X31592Y59175D1*
Y59056D1*
X31616Y58960D1*
X31664Y58912D1*
X31736Y58888D1*
X31760D1*
X31831Y58912D1*
X31879Y58960D1*
X31903Y59032D1*
Y59056D1*
X31879Y59127D1*
X31831Y59175D1*
X31760Y59199D1*
X31736D1*
X31664Y59175D1*
X31616Y59127D1*
X31592Y59056D1*
X36591Y59391D2*
Y59032D1*
X36615Y58960D1*
X36663Y58912D1*
X36735Y58888D1*
X36782D1*
X36854Y58912D1*
X36902Y58960D1*
X36926Y59032D1*
Y59391D1*
X37176Y58888D2*
X37415Y59390D1*
X37080D1*
X41591Y59391D2*
Y59032D1*
X41615Y58960D1*
X41663Y58912D1*
X41735Y58888D1*
X41782D1*
X41854Y58912D1*
X41902Y58960D1*
X41926Y59032D1*
Y59391D1*
X42200Y59390D2*
X42129Y59366D1*
X42104Y59319D1*
Y59271D1*
X42129Y59223D1*
X42176Y59199D1*
X42272Y59175D1*
X42344Y59151D1*
X42391Y59103D1*
X42415Y59056D1*
Y58984D1*
X42391Y58936D1*
X42367Y58912D1*
X42295Y58888D1*
X42200D1*
X42129Y58912D1*
X42104Y58936D1*
X42080Y58984D1*
Y59056D1*
X42104Y59103D1*
X42152Y59151D1*
X42224Y59175D1*
X42319Y59199D1*
X42367Y59223D1*
X42391Y59271D1*
Y59319D1*
X42367Y59366D1*
X42295Y59390D1*
X42200D1*
X47103Y59391D2*
Y59032D1*
X47127Y58960D1*
X47175Y58912D1*
X47246Y58888D1*
X47294D1*
X47366Y58912D1*
X47414Y58960D1*
X47438Y59032D1*
Y59391D1*
X47903Y59223D2*
X47879Y59151D1*
X47831Y59103D1*
X47760Y59079D1*
X47736D1*
X47664Y59103D1*
X47616Y59151D1*
X47592Y59223D1*
Y59247D1*
X47616Y59319D1*
X47664Y59366D1*
X47736Y59390D1*
X47760D1*
X47831Y59366D1*
X47879Y59319D1*
X47903Y59223D1*
Y59103D1*
X47879Y58984D1*
X47831Y58912D1*
X47760Y58888D1*
X47712D1*
X47640Y58912D1*
X47616Y58960D1*
X51454Y59391D2*
Y59032D1*
X51477Y58960D1*
X51526Y58912D1*
X51597Y58888D1*
X51645D1*
X51717Y58912D1*
X51765Y58960D1*
X51789Y59032D1*
Y59391D1*
X51943Y59294D2*
X51991Y59319D1*
X52063Y59390D1*
Y58888D1*
X52361Y59390D2*
X52289Y59366D1*
X52241Y59294D1*
X52217Y59175D1*
Y59103D1*
X52241Y58984D1*
X52289Y58912D1*
X52361Y58888D1*
X52409D1*
X52480Y58912D1*
X52528Y58984D1*
X52552Y59103D1*
Y59175D1*
X52528Y59294D1*
X52480Y59366D1*
X52409Y59390D1*
X52361D1*
X52528Y59294D2*
X52241Y58984D1*
X56061Y59391D2*
Y59032D1*
X56085Y58960D1*
X56133Y58912D1*
X56205Y58888D1*
X56252D1*
X56324Y58912D1*
X56372Y58960D1*
X56396Y59032D1*
Y59391D1*
X56551Y59294D2*
X56599Y59319D1*
X56670Y59390D1*
Y58888D1*
X56825Y59294D2*
X56873Y59319D1*
X56945Y59390D1*
Y58888D1*
X60954Y59391D2*
Y59032D1*
X60977Y58960D1*
X61026Y58912D1*
X61097Y58888D1*
X61145D1*
X61217Y58912D1*
X61265Y58960D1*
X61289Y59032D1*
Y59391D1*
X61443Y59294D2*
X61491Y59319D1*
X61563Y59390D1*
Y58888D1*
X61742Y59271D2*
Y59294D1*
X61765Y59342D1*
X61789Y59366D1*
X61837Y59390D1*
X61933D1*
X61980Y59366D1*
X62004Y59342D1*
X62029Y59294D1*
Y59247D1*
X62004Y59199D1*
X61957Y59127D1*
X61717Y58888D1*
X62052D1*
X66454Y59391D2*
Y59032D1*
X66477Y58960D1*
X66526Y58912D1*
X66597Y58888D1*
X66645D1*
X66717Y58912D1*
X66765Y58960D1*
X66789Y59032D1*
Y59391D1*
X66943Y59294D2*
X66991Y59319D1*
X67063Y59390D1*
Y58888D1*
X67265Y59390D2*
X67528D1*
X67385Y59199D1*
X67457D1*
X67504Y59175D1*
X67528Y59151D1*
X67552Y59079D1*
Y59032D1*
X67528Y58960D1*
X67480Y58912D1*
X67409Y58888D1*
X67337D1*
X67265Y58912D1*
X67242Y58936D1*
X67217Y58984D1*
X71942Y59391D2*
Y59032D1*
X71966Y58960D1*
X72014Y58912D1*
X72086Y58888D1*
X72133D1*
X72205Y58912D1*
X72253Y58960D1*
X72277Y59032D1*
Y59391D1*
X72431Y59294D2*
X72479Y59319D1*
X72551Y59390D1*
Y58888D1*
X72945D2*
Y59390D1*
X72705Y59056D1*
X73064D1*
X76454Y59391D2*
Y59032D1*
X76477Y58960D1*
X76526Y58912D1*
X76597Y58888D1*
X76645D1*
X76717Y58912D1*
X76765Y58960D1*
X76789Y59032D1*
Y59391D1*
X76943Y59294D2*
X76991Y59319D1*
X77063Y59390D1*
Y58888D1*
X77504Y59390D2*
X77265D1*
X77242Y59175D1*
X77265Y59199D1*
X77337Y59223D1*
X77409D1*
X77480Y59199D1*
X77529Y59151D1*
X77552Y59079D1*
Y59032D1*
X77529Y58960D1*
X77480Y58912D1*
X77409Y58888D1*
X77337D1*
X77265Y58912D1*
X77242Y58936D1*
X77217Y58984D1*
X80966Y59391D2*
Y59032D1*
X80990Y58960D1*
X81038Y58912D1*
X81110Y58888D1*
X81157D1*
X81229Y58912D1*
X81277Y58960D1*
X81301Y59032D1*
Y59391D1*
X81455Y59294D2*
X81503Y59319D1*
X81575Y59390D1*
Y58888D1*
X82016Y59319D2*
X81993Y59366D1*
X81921Y59390D1*
X81873D1*
X81801Y59366D1*
X81753Y59294D1*
X81730Y59175D1*
Y59056D1*
X81753Y58960D1*
X81801Y58912D1*
X81873Y58888D1*
X81897D1*
X81968Y58912D1*
X82016Y58960D1*
X82040Y59032D1*
Y59056D1*
X82016Y59127D1*
X81968Y59175D1*
X81897Y59199D1*
X81873D1*
X81801Y59175D1*
X81753Y59127D1*
X81730Y59056D1*
X85954Y59391D2*
Y59032D1*
X85977Y58960D1*
X86026Y58912D1*
X86097Y58888D1*
X86145D1*
X86217Y58912D1*
X86265Y58960D1*
X86289Y59032D1*
Y59391D1*
X86443Y59294D2*
X86491Y59319D1*
X86563Y59390D1*
Y58888D1*
X86813D2*
X87052Y59390D1*
X86717D1*
X90954Y59391D2*
Y59032D1*
X90978Y58960D1*
X91026Y58912D1*
X91098Y58888D1*
X91145D1*
X91217Y58912D1*
X91265Y58960D1*
X91289Y59032D1*
Y59391D1*
X91443Y59294D2*
X91491Y59319D1*
X91563Y59390D1*
Y58888D1*
X91837Y59390D2*
X91766Y59366D1*
X91741Y59319D1*
Y59271D1*
X91766Y59223D1*
X91813Y59199D1*
X91909Y59175D1*
X91981Y59151D1*
X92028Y59103D1*
X92052Y59056D1*
Y58984D1*
X92028Y58936D1*
X92004Y58912D1*
X91933Y58888D1*
X91837D1*
X91766Y58912D1*
X91741Y58936D1*
X91718Y58984D1*
Y59056D1*
X91741Y59103D1*
X91789Y59151D1*
X91861Y59175D1*
X91956Y59199D1*
X92004Y59223D1*
X92028Y59271D1*
Y59319D1*
X92004Y59366D1*
X91933Y59390D1*
X91837D1*
X96466Y59391D2*
Y59032D1*
X96489Y58960D1*
X96537Y58912D1*
X96609Y58888D1*
X96657D1*
X96729Y58912D1*
X96777Y58960D1*
X96801Y59032D1*
Y59391D1*
X96955Y59294D2*
X97003Y59319D1*
X97075Y59390D1*
Y58888D1*
X97540Y59223D2*
X97516Y59151D1*
X97469Y59103D1*
X97397Y59079D1*
X97373D1*
X97301Y59103D1*
X97254Y59151D1*
X97229Y59223D1*
Y59247D1*
X97254Y59319D1*
X97301Y59366D1*
X97373Y59390D1*
X97397D1*
X97469Y59366D1*
X97516Y59319D1*
X97540Y59223D1*
Y59103D1*
X97516Y58984D1*
X97469Y58912D1*
X97397Y58888D1*
X97349D1*
X97277Y58912D1*
X97254Y58960D1*
X101346Y59391D2*
Y59032D1*
X101370Y58960D1*
X101418Y58912D1*
X101490Y58888D1*
X101537D1*
X101609Y58912D1*
X101657Y58960D1*
X101681Y59032D1*
Y59391D1*
X101860Y59271D2*
Y59294D1*
X101884Y59342D1*
X101907Y59366D1*
X101955Y59390D1*
X102051D1*
X102099Y59366D1*
X102122Y59342D1*
X102147Y59294D1*
Y59247D1*
X102122Y59199D1*
X102075Y59127D1*
X101836Y58888D1*
X102170D1*
X102469Y59390D2*
X102397Y59366D1*
X102349Y59294D1*
X102325Y59175D1*
Y59103D1*
X102349Y58984D1*
X102397Y58912D1*
X102469Y58888D1*
X102516D1*
X102588Y58912D1*
X102635Y58984D1*
X102660Y59103D1*
Y59175D1*
X102635Y59294D1*
X102588Y59366D1*
X102516Y59390D1*
X102469D1*
X102635Y59294D2*
X102349Y58984D1*
X106454Y59391D2*
Y59032D1*
X106477Y58960D1*
X106526Y58912D1*
X106597Y58888D1*
X106645D1*
X106717Y58912D1*
X106765Y58960D1*
X106789Y59032D1*
Y59391D1*
X106967Y59271D2*
Y59294D1*
X106991Y59342D1*
X107015Y59366D1*
X107063Y59390D1*
X107159D1*
X107206Y59366D1*
X107230Y59342D1*
X107254Y59294D1*
Y59247D1*
X107230Y59199D1*
X107182Y59127D1*
X106943Y58888D1*
X107278D1*
X107432Y59294D2*
X107480Y59319D1*
X107552Y59390D1*
Y58888D1*
X110346Y59391D2*
Y59032D1*
X110370Y58960D1*
X110418Y58912D1*
X110490Y58888D1*
X110537D1*
X110609Y58912D1*
X110657Y58960D1*
X110681Y59032D1*
Y59391D1*
X110860Y59271D2*
Y59294D1*
X110884Y59342D1*
X110907Y59366D1*
X110955Y59390D1*
X111051D1*
X111099Y59366D1*
X111122Y59342D1*
X111147Y59294D1*
Y59247D1*
X111122Y59199D1*
X111075Y59127D1*
X110836Y58888D1*
X111170D1*
X111349Y59271D2*
Y59294D1*
X111373Y59342D1*
X111397Y59366D1*
X111445Y59390D1*
X111540D1*
X111588Y59366D1*
X111612Y59342D1*
X111636Y59294D1*
Y59247D1*
X111612Y59199D1*
X111564Y59127D1*
X111325Y58888D1*
X111660D1*
X115596Y59391D2*
Y59032D1*
X115620Y58960D1*
X115668Y58912D1*
X115740Y58888D1*
X115787D1*
X115859Y58912D1*
X115907Y58960D1*
X115931Y59032D1*
Y59391D1*
X116110Y59271D2*
Y59294D1*
X116134Y59342D1*
X116157Y59366D1*
X116205Y59390D1*
X116301D1*
X116349Y59366D1*
X116372Y59342D1*
X116397Y59294D1*
Y59247D1*
X116372Y59199D1*
X116325Y59127D1*
X116086Y58888D1*
X116420D1*
X116623Y59390D2*
X116885D1*
X116742Y59199D1*
X116814D1*
X116862Y59175D1*
X116885Y59151D1*
X116910Y59079D1*
Y59032D1*
X116885Y58960D1*
X116838Y58912D1*
X116766Y58888D1*
X116694D1*
X116623Y58912D1*
X116599Y58936D1*
X116575Y58984D1*
X120334Y59391D2*
Y59032D1*
X120358Y58960D1*
X120406Y58912D1*
X120478Y58888D1*
X120526D1*
X120597Y58912D1*
X120645Y58960D1*
X120669Y59032D1*
Y59391D1*
X120848Y59271D2*
Y59294D1*
X120872Y59342D1*
X120895Y59366D1*
X120944Y59390D1*
X121039D1*
X121087Y59366D1*
X121110Y59342D1*
X121135Y59294D1*
Y59247D1*
X121110Y59199D1*
X121063Y59127D1*
X120824Y58888D1*
X121159D1*
X121552D2*
Y59390D1*
X121313Y59056D1*
X121672D1*
X28283Y41054D2*
Y40695D1*
X28307Y40623D1*
X28355Y40576D1*
X28427Y40551D1*
X28474D1*
X28546Y40576D1*
X28594Y40623D1*
X28618Y40695D1*
Y41054D1*
X28796Y40934D2*
Y40957D1*
X28820Y41006D1*
X28844Y41029D1*
X28892Y41053D1*
X28988D1*
X29035Y41029D1*
X29059Y41006D1*
X29083Y40957D1*
Y40910D1*
X29059Y40862D1*
X29011Y40791D1*
X28772Y40551D1*
X29107D1*
X29548Y41053D2*
X29310D1*
X29286Y40838D1*
X29310Y40862D1*
X29381Y40886D1*
X29453D1*
X29525Y40862D1*
X29573Y40814D1*
X29596Y40742D1*
Y40695D1*
X29573Y40623D1*
X29525Y40575D1*
X29453Y40551D1*
X29381D1*
X29310Y40575D1*
X29286Y40599D1*
X29261Y40647D1*
X35858Y41054D2*
Y40695D1*
X35882Y40623D1*
X35930Y40576D1*
X36001Y40551D1*
X36049D1*
X36121Y40576D1*
X36169Y40623D1*
X36193Y40695D1*
Y41054D1*
X36371Y40934D2*
Y40957D1*
X36395Y41006D1*
X36419Y41029D1*
X36467Y41053D1*
X36563D1*
X36610Y41029D1*
X36634Y41006D1*
X36658Y40957D1*
Y40910D1*
X36634Y40862D1*
X36586Y40791D1*
X36347Y40551D1*
X36682D1*
X37123Y40982D2*
X37100Y41029D1*
X37028Y41053D1*
X36980D1*
X36908Y41029D1*
X36860Y40957D1*
X36836Y40838D1*
Y40719D1*
X36860Y40623D1*
X36908Y40575D1*
X36980Y40551D1*
X37004D1*
X37075Y40575D1*
X37123Y40623D1*
X37147Y40695D1*
Y40719D1*
X37123Y40791D1*
X37075Y40838D1*
X37004Y40862D1*
X36980D1*
X36908Y40838D1*
X36860Y40791D1*
X36836Y40719D1*
X43033Y41054D2*
Y40695D1*
X43057Y40623D1*
X43105Y40576D1*
X43177Y40551D1*
X43225D1*
X43296Y40576D1*
X43345Y40623D1*
X43368Y40695D1*
Y41054D1*
X43547Y40934D2*
Y40957D1*
X43571Y41006D1*
X43595Y41029D1*
X43643Y41053D1*
X43738D1*
X43786Y41029D1*
X43810Y41006D1*
X43834Y40957D1*
Y40910D1*
X43810Y40862D1*
X43762Y40791D1*
X43523Y40551D1*
X43858D1*
X44108D2*
X44347Y41053D1*
X44012D1*
X17693Y25751D2*
Y25393D1*
X17717Y25321D1*
X17765Y25273D1*
X17837Y25249D1*
X17885D1*
X17957Y25273D1*
X18005Y25321D1*
X18028Y25393D1*
Y25751D1*
X18207Y25631D2*
Y25655D1*
X18231Y25703D1*
X18255Y25727D1*
X18303Y25751D1*
X18398D1*
X18446Y25727D1*
X18470Y25703D1*
X18494Y25655D1*
Y25608D1*
X18470Y25560D1*
X18422Y25488D1*
X18183Y25249D1*
X18518D1*
X18792Y25751D2*
X18720Y25727D1*
X18696Y25679D1*
Y25631D1*
X18720Y25584D1*
X18768Y25560D1*
X18863Y25536D1*
X18935Y25512D1*
X18983Y25464D1*
X19007Y25416D1*
Y25345D1*
X18983Y25297D1*
X18959Y25273D1*
X18887Y25249D1*
X18792D1*
X18720Y25273D1*
X18696Y25297D1*
X18672Y25345D1*
Y25416D1*
X18696Y25464D1*
X18744Y25512D1*
X18815Y25536D1*
X18911Y25560D1*
X18959Y25584D1*
X18983Y25631D1*
Y25679D1*
X18959Y25727D1*
X18887Y25751D1*
X18792D1*
X34795Y26422D2*
Y26064D1*
X34819Y25992D1*
X34867Y25944D1*
X34939Y25920D1*
X34986D1*
X35058Y25944D1*
X35106Y25992D1*
X35130Y26064D1*
Y26422D1*
X35309Y26302D2*
Y26326D1*
X35333Y26374D1*
X35356Y26398D1*
X35404Y26422D1*
X35500D1*
X35547Y26398D1*
X35571Y26374D1*
X35596Y26326D1*
Y26279D1*
X35571Y26230D1*
X35524Y26159D1*
X35284Y25920D1*
X35619D1*
X36085Y26255D2*
X36061Y26183D1*
X36013Y26135D1*
X35941Y26111D1*
X35917D1*
X35846Y26135D1*
X35798Y26183D1*
X35774Y26255D1*
Y26279D1*
X35798Y26350D1*
X35846Y26398D1*
X35917Y26422D1*
X35941D1*
X36013Y26398D1*
X36061Y26350D1*
X36085Y26255D1*
Y26135D1*
X36061Y26015D1*
X36013Y25944D1*
X35941Y25920D1*
X35894D1*
X35822Y25944D1*
X35798Y25992D1*
X48033Y21672D2*
Y21314D1*
X48057Y21242D1*
X48105Y21194D1*
X48177Y21170D1*
X48224D1*
X48296Y21194D1*
X48344Y21242D1*
X48368Y21314D1*
Y21672D1*
X48571D2*
X48833D1*
X48690Y21480D1*
X48762D1*
X48809Y21457D1*
X48833Y21433D1*
X48857Y21361D1*
Y21314D1*
X48833Y21242D1*
X48786Y21194D1*
X48714Y21170D1*
X48642D1*
X48571Y21194D1*
X48547Y21218D1*
X48523Y21265D1*
X49156Y21672D2*
X49084Y21648D1*
X49036Y21576D1*
X49012Y21457D1*
Y21385D1*
X49036Y21265D1*
X49084Y21194D1*
X49156Y21170D1*
X49203D1*
X49275Y21194D1*
X49322Y21265D1*
X49347Y21385D1*
Y21457D1*
X49322Y21576D1*
X49275Y21648D1*
X49203Y21672D1*
X49156D1*
X49322Y21576D2*
X49036Y21265D1*
X11391Y15172D2*
Y14814D1*
X11414Y14742D1*
X11463Y14694D1*
X11534Y14670D1*
X11582D1*
X11654Y14694D1*
X11702Y14742D1*
X11726Y14814D1*
Y15172D1*
X11928D2*
X12191D1*
X12047Y14980D1*
X12119D1*
X12167Y14957D1*
X12191Y14933D1*
X12215Y14861D1*
Y14814D1*
X12191Y14742D1*
X12143Y14694D1*
X12071Y14670D1*
X11999D1*
X11928Y14694D1*
X11904Y14718D1*
X11880Y14765D1*
X12369Y15076D2*
X12417Y15100D1*
X12489Y15172D1*
Y14670D1*
X26026Y5126D2*
X26074Y5151D1*
X26146Y5222D1*
Y4720D1*
X26325Y5103D2*
Y5126D1*
X26349Y5175D1*
X26373Y5198D1*
X26421Y5222D1*
X26516D1*
X26564Y5198D1*
X26588Y5175D1*
X26612Y5126D1*
Y5079D1*
X26588Y5031D1*
X26540Y4960D1*
X26301Y4720D1*
X26636D1*
X26790Y5223D2*
X26981Y4720D1*
X27173Y5223D1*
X28088D2*
X27776D1*
Y4720D1*
Y4983D2*
X27968D1*
X28242Y5055D2*
Y4816D1*
X28266Y4745D1*
X28314Y4720D1*
X28386D1*
X28433Y4745D1*
X28505Y4816D1*
Y5055D2*
Y4720D1*
X28923Y4983D2*
X28899Y5031D1*
X28827Y5055D1*
X28755D1*
X28683Y5031D1*
X28659Y4983D1*
X28683Y4936D1*
X28731Y4911D1*
X28851Y4888D1*
X28899Y4864D1*
X28923Y4816D1*
Y4792D1*
X28899Y4745D1*
X28827Y4720D1*
X28755D1*
X28683Y4745D1*
X28659Y4792D1*
X29077Y4911D2*
X29364D1*
Y4960D1*
X29340Y5008D1*
X29316Y5031D1*
X29268Y5055D1*
X29196D1*
X29149Y5031D1*
X29101Y4983D1*
X29077Y4911D1*
Y4864D1*
X29101Y4792D1*
X29149Y4745D1*
X29196Y4720D1*
X29268D1*
X29316Y4745D1*
X29364Y4792D1*
X30141Y4720D2*
Y5222D1*
X29901Y4888D1*
X30260D1*
X30414Y5223D2*
X30606Y4720D1*
X30797Y5223D1*
X30999Y5222D2*
X31262D1*
X31119Y5031D1*
X31191D1*
X31238Y5007D1*
X31262Y4983D1*
X31286Y4911D1*
Y4864D1*
X31262Y4792D1*
X31214Y4744D1*
X31143Y4720D1*
X31071D1*
X30999Y4744D1*
X30976Y4768D1*
X30951Y4816D1*
X32438Y5222D2*
X32199D1*
X32176Y5007D1*
X32199Y5031D1*
X32271Y5055D1*
X32343D1*
X32414Y5031D1*
X32463Y4983D1*
X32486Y4911D1*
Y4864D1*
X32463Y4792D1*
X32414Y4744D1*
X32343Y4720D1*
X32271D1*
X32199Y4744D1*
X32176Y4768D1*
X32151Y4816D1*
X32641Y5223D2*
X32832Y4720D1*
X33023Y5223D1*
X77708Y10109D2*
D84*
X77325Y11114D1*
X76942Y10109D1*
X77086Y10444D2*
X77564D1*
X78017Y11114D2*
Y10109D1*
X78326Y11114D2*
Y10109D1*
X80276Y10970D2*
X80181Y11066D1*
X80038Y11114D1*
X79846D1*
X79703Y11066D1*
X79607Y10970D1*
Y10875D1*
X79655Y10779D1*
X79703Y10731D1*
X79798Y10684D1*
X80085Y10588D1*
X80181Y10540D1*
X80229Y10491D1*
X80276Y10396D1*
Y10253D1*
X80181Y10158D1*
X80038Y10109D1*
X79846D1*
X79703Y10158D1*
X79607Y10253D1*
X80585Y10779D2*
Y9774D1*
Y10635D2*
X80681Y10730D1*
X80776Y10779D1*
X80920D1*
X81016Y10730D1*
X81111Y10635D1*
X81160Y10491D1*
Y10395D1*
X81111Y10253D1*
X81016Y10156D1*
X80920Y10109D1*
X80776D1*
X80681Y10156D1*
X80585Y10253D1*
X82042Y10779D2*
Y10109D1*
Y10635D2*
X81947Y10731D1*
X81851Y10779D1*
X81709D1*
X81612Y10731D1*
X81517Y10635D1*
X81469Y10491D1*
Y10396D1*
X81517Y10253D1*
X81612Y10158D1*
X81709Y10109D1*
X81851D1*
X81947Y10158D1*
X82042Y10253D1*
X82351Y10779D2*
Y10109D1*
Y10491D2*
X82400Y10635D1*
X82495Y10731D1*
X82591Y10779D1*
X82735D1*
X83044Y11114D2*
Y10109D1*
X83522Y10779D2*
X83044Y10300D1*
X83235Y10491D2*
X83570Y10109D1*
X85568Y10875D2*
X85520Y10970D1*
X85424Y11066D1*
X85329Y11114D1*
X85138D1*
X85042Y11066D1*
X84947Y10970D1*
X84898Y10875D1*
X84851Y10731D1*
Y10491D1*
X84898Y10349D1*
X84947Y10253D1*
X85042Y10158D1*
X85138Y10109D1*
X85329D1*
X85424Y10158D1*
X85520Y10253D1*
X85568Y10349D1*
X85877Y10779D2*
Y10300D1*
X85924Y10158D1*
X86020Y10109D1*
X86164D1*
X86259Y10158D1*
X86403Y10300D1*
Y10779D2*
Y10109D1*
X86712Y11114D2*
Y10109D1*
Y10635D2*
X86808Y10731D1*
X86903Y10779D1*
X87047D1*
X87142Y10731D1*
X87238Y10635D1*
X87285Y10491D1*
Y10396D1*
X87238Y10253D1*
X87142Y10158D1*
X87047Y10109D1*
X86903D1*
X86808Y10158D1*
X86712Y10253D1*
X87594Y10491D2*
X88168D1*
Y10588D1*
X88120Y10684D1*
X88073Y10731D1*
X87977Y10779D1*
X87833D1*
X87738Y10731D1*
X87642Y10635D1*
X87594Y10491D1*
Y10396D1*
X87642Y10253D1*
X87738Y10158D1*
X87833Y10109D1*
X87977D1*
X88073Y10158D1*
X88168Y10253D1*
X89449Y11114D2*
Y10109D1*
X89757Y11114D2*
Y10109D1*
X91373Y11376D2*
X91277Y11281D1*
X91182Y11137D1*
X91086Y10946D1*
X91038Y10706D1*
Y10515D1*
X91086Y10276D1*
X91182Y10085D1*
X91277Y9941D1*
X91373Y9846D1*
X92448Y10109D2*
X92064Y11114D1*
X91682Y10109D1*
X91826Y10444D2*
X92304D1*
X93427Y10970D2*
X93332Y11066D1*
X93188Y11114D1*
X92997D1*
X92853Y11066D1*
X92757Y10970D1*
Y10875D1*
X92805Y10779D1*
X92853Y10731D1*
X92948Y10684D1*
X93235Y10588D1*
X93332Y10540D1*
X93379Y10491D1*
X93427Y10396D1*
Y10253D1*
X93332Y10158D1*
X93188Y10109D1*
X92997D1*
X92853Y10158D1*
X92757Y10253D1*
X94453Y10875D2*
X94405Y10970D1*
X94309Y11066D1*
X94214Y11114D1*
X94023D1*
X93927Y11066D1*
X93832Y10970D1*
X93783Y10875D1*
X93735Y10731D1*
Y10491D1*
X93783Y10349D1*
X93832Y10253D1*
X93927Y10158D1*
X94023Y10109D1*
X94214D1*
X94309Y10158D1*
X94405Y10253D1*
X94453Y10349D1*
X94762Y11114D2*
Y10109D1*
X95070Y11114D2*
Y10109D1*
X95379Y11376D2*
X95475Y11281D1*
X95570Y11137D1*
X95667Y10946D1*
X95714Y10706D1*
Y10515D1*
X95667Y10276D1*
X95570Y10085D1*
X95475Y9941D1*
X95379Y9846D1*
X77597Y9312D2*
X77549Y9407D1*
X77453Y9503D1*
X77358Y9551D1*
X77167D1*
X77071Y9503D1*
X76976Y9407D1*
X76927Y9312D1*
X76880Y9169D1*
Y8929D1*
X76927Y8786D1*
X76976Y8690D1*
X77071Y8595D1*
X77167Y8546D1*
X77358D1*
X77453Y8595D1*
X77549Y8690D1*
X77597Y8786D1*
X77906Y9216D2*
Y8737D1*
X77953Y8595D1*
X78049Y8546D1*
X78193D1*
X78288Y8595D1*
X78432Y8737D1*
Y9216D2*
Y8546D1*
X78741Y9551D2*
Y8546D1*
Y9072D2*
X78837Y9169D1*
X78932Y9216D1*
X79076D1*
X79171Y9169D1*
X79267Y9072D1*
X79314Y8929D1*
Y8834D1*
X79267Y8690D1*
X79171Y8595D1*
X79076Y8546D1*
X78932D1*
X78837Y8595D1*
X78741Y8690D1*
X79623Y8929D2*
X80197D1*
Y9025D1*
X80149Y9121D1*
X80102Y9169D1*
X80006Y9216D1*
X79862D1*
X79767Y9169D1*
X79671Y9072D1*
X79623Y8929D1*
Y8834D1*
X79671Y8690D1*
X79767Y8595D1*
X79862Y8546D1*
X80006D1*
X80102Y8595D1*
X80197Y8690D1*
X81478Y9551D2*
Y8546D1*
X81787Y9216D2*
Y8546D1*
Y9025D2*
X81930Y9169D1*
X82026Y9216D1*
X82169D1*
X82265Y9169D1*
X82313Y9025D1*
Y8546D1*
X82765Y9551D2*
Y8737D1*
X82813Y8595D1*
X82909Y8546D1*
X83004D1*
X82621Y9216D2*
X82956D1*
X83313Y8929D2*
X83886D1*
Y9025D1*
X83839Y9121D1*
X83791Y9169D1*
X83695Y9216D1*
X83551D1*
X83456Y9169D1*
X83360Y9072D1*
X83313Y8929D1*
Y8834D1*
X83360Y8690D1*
X83456Y8595D1*
X83551Y8546D1*
X83695D1*
X83791Y8595D1*
X83886Y8690D1*
X84195Y9216D2*
Y8546D1*
Y8929D2*
X84244Y9072D1*
X84339Y9169D1*
X84435Y9216D1*
X84579D1*
X85270Y9551D2*
X85175D1*
X85079Y9503D1*
X85031Y9360D1*
Y8546D1*
X84888Y9216D2*
X85222D1*
X86152D2*
Y8546D1*
Y9072D2*
X86057Y9169D1*
X85961Y9216D1*
X85819D1*
X85722Y9169D1*
X85627Y9072D1*
X85579Y8929D1*
Y8834D1*
X85627Y8690D1*
X85722Y8595D1*
X85819Y8546D1*
X85961D1*
X86057Y8595D1*
X86152Y8690D1*
X87036Y9072D2*
X86940Y9169D1*
X86844Y9216D1*
X86701D1*
X86605Y9169D1*
X86510Y9072D1*
X86461Y8929D1*
Y8834D1*
X86510Y8690D1*
X86605Y8595D1*
X86701Y8546D1*
X86844D1*
X86940Y8595D1*
X87036Y8690D1*
X87345Y8929D2*
X87919D1*
Y9025D1*
X87871Y9121D1*
X87823Y9169D1*
X87727Y9216D1*
X87584D1*
X87489Y9169D1*
X87392Y9072D1*
X87345Y8929D1*
Y8834D1*
X87392Y8690D1*
X87489Y8595D1*
X87584Y8546D1*
X87727D1*
X87823Y8595D1*
X87919Y8690D1*
X89199Y9551D2*
Y8546D1*
X89630D1*
X89774Y8595D1*
X89822Y8642D1*
X89869Y8737D1*
Y8881D1*
X89822Y8977D1*
X89774Y9025D1*
X89630Y9072D1*
X89774Y9121D1*
X89822Y9169D1*
X89869Y9264D1*
Y9360D1*
X89822Y9455D1*
X89774Y9503D1*
X89630Y9551D1*
X89199D1*
Y9072D2*
X89630D1*
X90417Y9216D2*
X90322Y9169D1*
X90226Y9072D1*
X90178Y8929D1*
Y8834D1*
X90226Y8690D1*
X90322Y8595D1*
X90417Y8546D1*
X90560D1*
X90657Y8595D1*
X90752Y8690D1*
X90800Y8834D1*
Y8929D1*
X90752Y9072D1*
X90657Y9169D1*
X90560Y9216D1*
X90417D1*
X91683D2*
Y8546D1*
Y9072D2*
X91588Y9169D1*
X91492Y9216D1*
X91349D1*
X91253Y9169D1*
X91158Y9072D1*
X91109Y8929D1*
Y8834D1*
X91158Y8690D1*
X91253Y8595D1*
X91349Y8546D1*
X91492D1*
X91588Y8595D1*
X91683Y8690D1*
X91992Y9216D2*
Y8546D1*
Y8929D2*
X92040Y9072D1*
X92135Y9169D1*
X92231Y9216D1*
X92375D1*
X93258Y9551D2*
Y8546D1*
Y9072D2*
X93163Y9169D1*
X93066Y9216D1*
X92923D1*
X92828Y9169D1*
X92732Y9072D1*
X92684Y8929D1*
Y8834D1*
X92732Y8690D1*
X92828Y8595D1*
X92923Y8546D1*
X93066D1*
X93163Y8595D1*
X93258Y8690D1*
X94538Y9048D2*
X95091D1*
X96372Y9072D2*
X96802D1*
X96946Y9121D1*
X96994Y9169D1*
X97042Y9264D1*
Y9360D1*
X96994Y9455D1*
X96946Y9503D1*
X96802Y9551D1*
X96372D1*
Y8546D1*
X96707Y9072D2*
X97042Y8546D1*
X97351Y8929D2*
X97924D1*
Y9025D1*
X97877Y9121D1*
X97829Y9169D1*
X97733Y9216D1*
X97589D1*
X97494Y9169D1*
X97398Y9072D1*
X97351Y8929D1*
Y8834D1*
X97398Y8690D1*
X97494Y8595D1*
X97589Y8546D1*
X97733D1*
X97829Y8595D1*
X97924Y8690D1*
X98233Y9216D2*
X98521Y8546D1*
X98807Y9216D1*
X100136Y9311D2*
Y9359D1*
X100184Y9455D1*
X100231Y9502D1*
X100327Y9550D1*
X100519D1*
X100614Y9502D1*
X100661Y9455D1*
X100710Y9359D1*
Y9264D1*
X100661Y9167D1*
X100566Y9025D1*
X100088Y8546D1*
X100757D1*
X77646Y6921D2*
X77262Y7926D1*
X76880Y6921D1*
X77023Y7256D2*
X77502D1*
X78528Y7926D2*
Y6921D1*
Y7447D2*
X78433Y7543D1*
X78337Y7591D1*
X78193D1*
X78098Y7543D1*
X78002Y7447D1*
X77954Y7304D1*
Y7208D1*
X78002Y7065D1*
X78098Y6970D1*
X78193Y6921D1*
X78337D1*
X78433Y6970D1*
X78528Y7065D1*
X79411Y7591D2*
Y6921D1*
Y7447D2*
X79316Y7543D1*
X79219Y7591D1*
X79077D1*
X78981Y7543D1*
X78886Y7447D1*
X78837Y7304D1*
Y7208D1*
X78886Y7065D1*
X78981Y6970D1*
X79077Y6921D1*
X79219D1*
X79316Y6970D1*
X79411Y7065D1*
X79719Y7591D2*
Y6586D1*
Y7447D2*
X79816Y7542D1*
X79911Y7591D1*
X80054D1*
X80150Y7542D1*
X80246Y7447D1*
X80294Y7304D1*
Y7207D1*
X80246Y7065D1*
X80150Y6969D1*
X80054Y6921D1*
X79911D1*
X79816Y6969D1*
X79719Y7065D1*
X80747Y7926D2*
Y7112D1*
X80794Y6970D1*
X80890Y6921D1*
X80985D1*
X80603Y7591D2*
X80938D1*
X81294Y7926D2*
X81342Y7878D1*
X81390Y7926D1*
X81342Y7974D1*
X81294Y7926D1*
X81342Y7591D2*
Y6921D1*
X81699Y7591D2*
X81987Y6921D1*
X82273Y7591D1*
X82582Y7304D2*
X83155D1*
Y7400D1*
X83108Y7496D1*
X83060Y7543D1*
X82964Y7591D1*
X82820D1*
X82725Y7543D1*
X82629Y7447D1*
X82582Y7304D1*
Y7208D1*
X82629Y7065D1*
X82725Y6970D1*
X82820Y6921D1*
X82964D1*
X83060Y6970D1*
X83155Y7065D1*
X85154Y7687D2*
X85106Y7782D1*
X85010Y7878D1*
X84915Y7926D1*
X84724D1*
X84627Y7878D1*
X84532Y7782D1*
X84484Y7687D1*
X84436Y7543D1*
Y7304D1*
X84484Y7161D1*
X84532Y7065D1*
X84627Y6970D1*
X84724Y6921D1*
X84915D1*
X85010Y6970D1*
X85106Y7065D1*
X85154Y7161D1*
X85701Y7591D2*
X85606Y7543D1*
X85510Y7447D1*
X85462Y7304D1*
Y7208D1*
X85510Y7065D1*
X85606Y6970D1*
X85701Y6921D1*
X85845D1*
X85941Y6970D1*
X86036Y7065D1*
X86085Y7208D1*
Y7304D1*
X86036Y7447D1*
X85941Y7543D1*
X85845Y7591D1*
X85701D1*
X86393D2*
Y6921D1*
Y7400D2*
X86537Y7543D1*
X86633Y7591D1*
X86776D1*
X86872Y7543D1*
X86920Y7400D1*
Y6921D1*
Y7400D2*
X87063Y7543D1*
X87159Y7591D1*
X87302D1*
X87398Y7543D1*
X87447Y7400D1*
Y6921D1*
X87756Y7591D2*
Y6586D1*
Y7447D2*
X87852Y7542D1*
X87947Y7591D1*
X88091D1*
X88187Y7542D1*
X88282Y7447D1*
X88330Y7304D1*
Y7207D1*
X88282Y7065D1*
X88187Y6969D1*
X88091Y6921D1*
X87947D1*
X87852Y6969D1*
X87756Y7065D1*
X88639Y7591D2*
Y7112D1*
X88687Y6970D1*
X88783Y6921D1*
X88927D1*
X89022Y6970D1*
X89165Y7112D1*
Y7591D2*
Y6921D1*
X89618Y7926D2*
Y7112D1*
X89665Y6970D1*
X89762Y6921D1*
X89857D1*
X89474Y7591D2*
X89809D1*
X90165Y7926D2*
X90213Y7878D1*
X90262Y7926D1*
X90213Y7974D1*
X90165Y7926D1*
X90213Y7591D2*
Y6921D1*
X90570Y7591D2*
Y6921D1*
Y7400D2*
X90714Y7543D1*
X90810Y7591D1*
X90953D1*
X91049Y7543D1*
X91097Y7400D1*
Y6921D1*
X91979Y7543D2*
Y6777D1*
X91932Y6635D1*
X91884Y6586D1*
X91788Y6539D1*
X91644D1*
X91549Y6586D1*
X91979Y7400D2*
X91884Y7495D1*
X91788Y7543D1*
X91644D1*
X91549Y7495D1*
X91453Y7400D1*
X91405Y7256D1*
Y7160D1*
X91453Y7017D1*
X91549Y6921D1*
X91644Y6874D1*
X91788D1*
X91884Y6921D1*
X91979Y7017D1*
X77358Y6301D2*
Y5536D1*
X77311Y5392D1*
X77262Y5344D1*
X77167Y5296D1*
X77071D1*
X76976Y5344D1*
X76928Y5392D1*
X76880Y5536D1*
Y5631D1*
X77667Y5966D2*
Y5487D1*
X77715Y5344D1*
X77811Y5296D1*
X77954D1*
X78049Y5344D1*
X78193Y5487D1*
Y5966D2*
Y5296D1*
X78502Y6301D2*
Y5296D1*
X78859Y5966D2*
X79146Y5296D1*
X79051Y5105D1*
X78954Y5008D1*
X78859Y4961D1*
X78811D1*
X79433Y5966D2*
X79146Y5296D1*
X80763Y6061D2*
Y6108D1*
X80810Y6204D1*
X80858Y6252D1*
X80954Y6300D1*
X81145D1*
X81240Y6252D1*
X81288Y6204D1*
X81336Y6108D1*
Y6013D1*
X81288Y5917D1*
X81193Y5774D1*
X80714Y5296D1*
X81384D1*
X81980Y6300D2*
X81836Y6252D1*
X81740Y6108D1*
X81693Y5870D1*
Y5726D1*
X81740Y5487D1*
X81836Y5343D1*
X81980Y5296D1*
X82075D1*
X82219Y5343D1*
X82314Y5487D1*
X82362Y5726D1*
Y5870D1*
X82314Y6108D1*
X82219Y6252D1*
X82075Y6300D1*
X81980D1*
X82314Y6108D2*
X81740Y5487D1*
X82671Y6108D2*
X82767Y6157D1*
X82911Y6300D1*
Y5296D1*
X83316Y6300D2*
X83841D1*
X83555Y5917D1*
X83698D1*
X83794Y5870D1*
X83841Y5822D1*
X83890Y5678D1*
Y5583D1*
X83841Y5440D1*
X83746Y5343D1*
X83602Y5296D1*
X83459D1*
X83316Y5343D1*
X83268Y5392D1*
X83220Y5487D1*
X84652Y21491D2*
D85*
X84039Y23099D1*
X83427Y21491D1*
X83657Y22027D2*
X84422D1*
X85146Y22563D2*
Y21491D1*
Y22257D2*
X85376Y22487D1*
X85530Y22563D1*
X85758D1*
X85912Y22487D1*
X85988Y22257D1*
Y21491D1*
X86864Y22563D2*
X86712Y22487D1*
X86558Y22333D1*
X86482Y22103D1*
Y21951D1*
X86558Y21721D1*
X86712Y21569D1*
X86864Y21491D1*
X87094D1*
X87248Y21569D1*
X87400Y21721D1*
X87478Y21951D1*
Y22103D1*
X87400Y22333D1*
X87248Y22487D1*
X87094Y22563D1*
X86864D1*
X88890Y23099D2*
Y21491D1*
Y22333D2*
X88738Y22487D1*
X88584Y22563D1*
X88354D1*
X88202Y22487D1*
X88048Y22333D1*
X87972Y22103D1*
Y21951D1*
X88048Y21721D1*
X88202Y21569D1*
X88354Y21491D1*
X88584D1*
X88738Y21569D1*
X88890Y21721D1*
X89384Y22103D2*
X90302D1*
Y22257D1*
X90226Y22411D1*
X90150Y22487D1*
X89996Y22563D1*
X89766D1*
X89614Y22487D1*
X89460Y22333D1*
X89384Y22103D1*
Y21951D1*
X89460Y21721D1*
X89614Y21569D1*
X89766Y21491D1*
X89996D1*
X90150Y21569D1*
X90302Y21721D1*
X91638Y22333D2*
X91562Y22487D1*
X91332Y22563D1*
X91102D1*
X90872Y22487D1*
X90796Y22333D1*
X90872Y22181D1*
X91026Y22103D1*
X91408Y22027D1*
X91562Y21951D1*
X91638Y21797D1*
Y21721D1*
X91562Y21569D1*
X91332Y21491D1*
X91102D1*
X90872Y21569D1*
X90796Y21721D1*
X94223Y23518D2*
X94069Y23366D1*
X93917Y23136D1*
X93763Y22830D1*
X93687Y22446D1*
Y22140D1*
X93763Y21758D1*
X93917Y21452D1*
X94069Y21222D1*
X94223Y21070D1*
X95405Y22983D2*
Y21605D1*
X94717Y22293D2*
X96095D1*
X96589Y23518D2*
X96743Y23366D1*
X96895Y23136D1*
X97049Y22830D1*
X97125Y22446D1*
Y22140D1*
X97049Y21758D1*
X96895Y21452D1*
X96743Y21222D1*
X96589Y21070D1*
X5186Y42763D2*
D84*
X5616D1*
X5759Y42812D1*
X5808Y42860D1*
X5856Y42955D1*
Y43051D1*
X5808Y43146D1*
X5759Y43194D1*
X5616Y43242D1*
X5186D1*
Y42237D1*
X5521Y42763D2*
X5856Y42237D1*
X6164Y42620D2*
X6738D1*
Y42716D1*
X6690Y42812D1*
X6643Y42860D1*
X6547Y42907D1*
X6403D1*
X6308Y42860D1*
X6212Y42763D1*
X6164Y42620D1*
Y42525D1*
X6212Y42381D1*
X6308Y42286D1*
X6403Y42237D1*
X6547D1*
X6643Y42286D1*
X6738Y42381D1*
X7620Y43242D2*
Y42237D1*
Y42763D2*
X7525Y42860D1*
X7429Y42907D1*
X7286D1*
X7190Y42860D1*
X7094Y42763D1*
X7047Y42620D1*
Y42525D1*
X7094Y42381D1*
X7190Y42286D1*
X7286Y42237D1*
X7429D1*
X7525Y42286D1*
X7620Y42381D1*
X15841Y43003D2*
X15793Y43098D1*
X15697Y43194D1*
X15602Y43242D1*
X15411D1*
X15314Y43194D1*
X15219Y43098D1*
X15171Y43003D1*
X15123Y42860D1*
Y42620D1*
X15171Y42477D1*
X15219Y42381D1*
X15314Y42286D1*
X15411Y42237D1*
X15602D1*
X15697Y42286D1*
X15793Y42381D1*
X15841Y42477D1*
Y42620D1*
X15602D1*
X16149Y42907D2*
Y42237D1*
Y42620D2*
X16198Y42763D1*
X16293Y42860D1*
X16389Y42907D1*
X16533D1*
X16842Y42620D2*
X17415D1*
Y42716D1*
X17368Y42812D1*
X17320Y42860D1*
X17224Y42907D1*
X17080D1*
X16985Y42860D1*
X16889Y42763D1*
X16842Y42620D1*
Y42525D1*
X16889Y42381D1*
X16985Y42286D1*
X17080Y42237D1*
X17224D1*
X17320Y42286D1*
X17415Y42381D1*
X17724Y42620D2*
X18298D1*
Y42716D1*
X18250Y42812D1*
X18203Y42860D1*
X18107Y42907D1*
X17963D1*
X17868Y42860D1*
X17772Y42763D1*
X17724Y42620D1*
Y42525D1*
X17772Y42381D1*
X17868Y42286D1*
X17963Y42237D1*
X18107D1*
X18203Y42286D1*
X18298Y42381D1*
X18607Y42907D2*
Y42237D1*
Y42716D2*
X18750Y42860D1*
X18847Y42907D1*
X18989D1*
X19085Y42860D1*
X19133Y42716D1*
Y42237D1*
X25061Y43242D2*
Y42237D1*
X25492D1*
X25635Y42286D1*
X25683Y42333D1*
X25731Y42428D1*
Y42572D1*
X25683Y42668D1*
X25635Y42716D1*
X25492Y42763D1*
X25635Y42812D1*
X25683Y42860D1*
X25731Y42955D1*
Y43051D1*
X25683Y43146D1*
X25635Y43194D1*
X25492Y43242D1*
X25061D1*
Y42763D2*
X25492D1*
X26039Y43242D2*
Y42237D1*
X26348Y42907D2*
Y42428D1*
X26396Y42286D1*
X26492Y42237D1*
X26635D1*
X26731Y42286D1*
X26874Y42428D1*
Y42907D2*
Y42237D1*
X27183Y42620D2*
X27757D1*
Y42716D1*
X27709Y42812D1*
X27662Y42860D1*
X27566Y42907D1*
X27422D1*
X27327Y42860D1*
X27231Y42763D1*
X27183Y42620D1*
Y42525D1*
X27231Y42381D1*
X27327Y42286D1*
X27422Y42237D1*
X27566D1*
X27662Y42286D1*
X27757Y42381D1*
X35186Y42763D2*
X35616D1*
X35759Y42812D1*
X35808Y42860D1*
X35856Y42955D1*
Y43051D1*
X35808Y43146D1*
X35759Y43194D1*
X35616Y43242D1*
X35186D1*
Y42237D1*
X35521Y42763D2*
X35856Y42237D1*
X36164Y42620D2*
X36738D1*
Y42716D1*
X36690Y42812D1*
X36643Y42860D1*
X36547Y42907D1*
X36403D1*
X36308Y42860D1*
X36212Y42763D1*
X36164Y42620D1*
Y42525D1*
X36212Y42381D1*
X36308Y42286D1*
X36403Y42237D1*
X36547D1*
X36643Y42286D1*
X36738Y42381D1*
X37620Y43242D2*
Y42237D1*
Y42763D2*
X37525Y42860D1*
X37429Y42907D1*
X37286D1*
X37190Y42860D1*
X37094Y42763D1*
X37047Y42620D1*
Y42525D1*
X37094Y42381D1*
X37190Y42286D1*
X37286Y42237D1*
X37429D1*
X37525Y42286D1*
X37620Y42381D1*
X45966Y43003D2*
X45918Y43098D1*
X45822Y43194D1*
X45727Y43242D1*
X45536D1*
X45439Y43194D1*
X45344Y43098D1*
X45296Y43003D1*
X45248Y42860D1*
Y42620D1*
X45296Y42477D1*
X45344Y42381D1*
X45439Y42286D1*
X45536Y42237D1*
X45727D1*
X45822Y42286D1*
X45918Y42381D1*
X45966Y42477D1*
Y42620D1*
X45727D1*
X46274Y42907D2*
Y42237D1*
Y42620D2*
X46323Y42763D1*
X46418Y42860D1*
X46514Y42907D1*
X46658D1*
X46967Y42620D2*
X47540D1*
Y42716D1*
X47493Y42812D1*
X47445Y42860D1*
X47349Y42907D1*
X47205D1*
X47110Y42860D1*
X47014Y42763D1*
X46967Y42620D1*
Y42525D1*
X47014Y42381D1*
X47110Y42286D1*
X47205Y42237D1*
X47349D1*
X47445Y42286D1*
X47540Y42381D1*
X47849Y42620D2*
X48423D1*
Y42716D1*
X48375Y42812D1*
X48328Y42860D1*
X48232Y42907D1*
X48088D1*
X47993Y42860D1*
X47897Y42763D1*
X47849Y42620D1*
Y42525D1*
X47897Y42381D1*
X47993Y42286D1*
X48088Y42237D1*
X48232D1*
X48328Y42286D1*
X48423Y42381D1*
X48732Y42907D2*
Y42237D1*
Y42716D2*
X48875Y42860D1*
X48972Y42907D1*
X49114D1*
X49210Y42860D1*
X49258Y42716D1*
Y42237D1*
X55186Y43242D2*
Y42237D1*
X55617D1*
X55760Y42286D1*
X55808Y42333D1*
X55856Y42428D1*
Y42572D1*
X55808Y42668D1*
X55760Y42716D1*
X55617Y42763D1*
X55760Y42812D1*
X55808Y42860D1*
X55856Y42955D1*
Y43051D1*
X55808Y43146D1*
X55760Y43194D1*
X55617Y43242D1*
X55186D1*
Y42763D2*
X55617D1*
X56164Y43242D2*
Y42237D1*
X56473Y42907D2*
Y42428D1*
X56521Y42286D1*
X56617Y42237D1*
X56760D1*
X56856Y42286D1*
X56999Y42428D1*
Y42907D2*
Y42237D1*
X57308Y42620D2*
X57882D1*
Y42716D1*
X57834Y42812D1*
X57787Y42860D1*
X57691Y42907D1*
X57547D1*
X57452Y42860D1*
X57356Y42763D1*
X57308Y42620D1*
Y42525D1*
X57356Y42381D1*
X57452Y42286D1*
X57547Y42237D1*
X57691D1*
X57787Y42286D1*
X57882Y42381D1*
X65186Y42763D2*
X65616D1*
X65759Y42812D1*
X65808Y42860D1*
X65856Y42955D1*
Y43051D1*
X65808Y43146D1*
X65759Y43194D1*
X65616Y43242D1*
X65186D1*
Y42237D1*
X65521Y42763D2*
X65856Y42237D1*
X66164Y42620D2*
X66738D1*
Y42716D1*
X66690Y42812D1*
X66643Y42860D1*
X66547Y42907D1*
X66403D1*
X66308Y42860D1*
X66212Y42763D1*
X66164Y42620D1*
Y42525D1*
X66212Y42381D1*
X66308Y42286D1*
X66403Y42237D1*
X66547D1*
X66643Y42286D1*
X66738Y42381D1*
X67620Y43242D2*
Y42237D1*
Y42763D2*
X67525Y42860D1*
X67429Y42907D1*
X67286D1*
X67190Y42860D1*
X67094Y42763D1*
X67047Y42620D1*
Y42525D1*
X67094Y42381D1*
X67190Y42286D1*
X67286Y42237D1*
X67429D1*
X67525Y42286D1*
X67620Y42381D1*
X75841Y43003D2*
X75793Y43098D1*
X75697Y43194D1*
X75602Y43242D1*
X75411D1*
X75314Y43194D1*
X75219Y43098D1*
X75171Y43003D1*
X75123Y42860D1*
Y42620D1*
X75171Y42477D1*
X75219Y42381D1*
X75314Y42286D1*
X75411Y42237D1*
X75602D1*
X75697Y42286D1*
X75793Y42381D1*
X75841Y42477D1*
Y42620D1*
X75602D1*
X76149Y42907D2*
Y42237D1*
Y42620D2*
X76198Y42763D1*
X76293Y42860D1*
X76389Y42907D1*
X76533D1*
X76842Y42620D2*
X77415D1*
Y42716D1*
X77368Y42812D1*
X77320Y42860D1*
X77224Y42907D1*
X77080D1*
X76985Y42860D1*
X76889Y42763D1*
X76842Y42620D1*
Y42525D1*
X76889Y42381D1*
X76985Y42286D1*
X77080Y42237D1*
X77224D1*
X77320Y42286D1*
X77415Y42381D1*
X77724Y42620D2*
X78298D1*
Y42716D1*
X78250Y42812D1*
X78203Y42860D1*
X78107Y42907D1*
X77963D1*
X77868Y42860D1*
X77772Y42763D1*
X77724Y42620D1*
Y42525D1*
X77772Y42381D1*
X77868Y42286D1*
X77963Y42237D1*
X78107D1*
X78203Y42286D1*
X78298Y42381D1*
X78607Y42907D2*
Y42237D1*
Y42716D2*
X78750Y42860D1*
X78847Y42907D1*
X78989D1*
X79085Y42860D1*
X79133Y42716D1*
Y42237D1*
X85061Y43242D2*
Y42237D1*
X85492D1*
X85635Y42286D1*
X85683Y42333D1*
X85731Y42428D1*
Y42572D1*
X85683Y42668D1*
X85635Y42716D1*
X85492Y42763D1*
X85635Y42812D1*
X85683Y42860D1*
X85731Y42955D1*
Y43051D1*
X85683Y43146D1*
X85635Y43194D1*
X85492Y43242D1*
X85061D1*
Y42763D2*
X85492D1*
X86039Y43242D2*
Y42237D1*
X86348Y42907D2*
Y42428D1*
X86396Y42286D1*
X86492Y42237D1*
X86635D1*
X86731Y42286D1*
X86874Y42428D1*
Y42907D2*
Y42237D1*
X87183Y42620D2*
X87757D1*
Y42716D1*
X87709Y42812D1*
X87662Y42860D1*
X87566Y42907D1*
X87422D1*
X87327Y42860D1*
X87231Y42763D1*
X87183Y42620D1*
Y42525D1*
X87231Y42381D1*
X87327Y42286D1*
X87422Y42237D1*
X87566D1*
X87662Y42286D1*
X87757Y42381D1*
X95186Y42763D2*
X95616D1*
X95759Y42812D1*
X95808Y42860D1*
X95856Y42955D1*
Y43051D1*
X95808Y43146D1*
X95759Y43194D1*
X95616Y43242D1*
X95186D1*
Y42237D1*
X95521Y42763D2*
X95856Y42237D1*
X96164Y42620D2*
X96738D1*
Y42716D1*
X96690Y42812D1*
X96643Y42860D1*
X96547Y42907D1*
X96403D1*
X96308Y42860D1*
X96212Y42763D1*
X96164Y42620D1*
Y42525D1*
X96212Y42381D1*
X96308Y42286D1*
X96403Y42237D1*
X96547D1*
X96643Y42286D1*
X96738Y42381D1*
X97620Y43242D2*
Y42237D1*
Y42763D2*
X97525Y42860D1*
X97429Y42907D1*
X97286D1*
X97190Y42860D1*
X97094Y42763D1*
X97047Y42620D1*
Y42525D1*
X97094Y42381D1*
X97190Y42286D1*
X97286Y42237D1*
X97429D1*
X97525Y42286D1*
X97620Y42381D1*
X105966Y43003D2*
X105918Y43098D1*
X105822Y43194D1*
X105727Y43242D1*
X105536D1*
X105439Y43194D1*
X105344Y43098D1*
X105296Y43003D1*
X105248Y42860D1*
Y42620D1*
X105296Y42477D1*
X105344Y42381D1*
X105439Y42286D1*
X105536Y42237D1*
X105727D1*
X105822Y42286D1*
X105918Y42381D1*
X105966Y42477D1*
Y42620D1*
X105727D1*
X106274Y42907D2*
Y42237D1*
Y42620D2*
X106323Y42763D1*
X106418Y42860D1*
X106514Y42907D1*
X106658D1*
X106967Y42620D2*
X107540D1*
Y42716D1*
X107493Y42812D1*
X107445Y42860D1*
X107349Y42907D1*
X107205D1*
X107110Y42860D1*
X107014Y42763D1*
X106967Y42620D1*
Y42525D1*
X107014Y42381D1*
X107110Y42286D1*
X107205Y42237D1*
X107349D1*
X107445Y42286D1*
X107540Y42381D1*
X107849Y42620D2*
X108423D1*
Y42716D1*
X108375Y42812D1*
X108328Y42860D1*
X108232Y42907D1*
X108088D1*
X107993Y42860D1*
X107897Y42763D1*
X107849Y42620D1*
Y42525D1*
X107897Y42381D1*
X107993Y42286D1*
X108088Y42237D1*
X108232D1*
X108328Y42286D1*
X108423Y42381D1*
X108732Y42907D2*
Y42237D1*
Y42716D2*
X108875Y42860D1*
X108972Y42907D1*
X109114D1*
X109210Y42860D1*
X109258Y42716D1*
Y42237D1*
X115186Y43242D2*
Y42237D1*
X115617D1*
X115760Y42286D1*
X115808Y42333D1*
X115856Y42428D1*
Y42572D1*
X115808Y42668D1*
X115760Y42716D1*
X115617Y42763D1*
X115760Y42812D1*
X115808Y42860D1*
X115856Y42955D1*
Y43051D1*
X115808Y43146D1*
X115760Y43194D1*
X115617Y43242D1*
X115186D1*
Y42763D2*
X115617D1*
X116164Y43242D2*
Y42237D1*
X116473Y42907D2*
Y42428D1*
X116521Y42286D1*
X116617Y42237D1*
X116760D1*
X116856Y42286D1*
X116999Y42428D1*
Y42907D2*
Y42237D1*
X117308Y42620D2*
X117882D1*
Y42716D1*
X117834Y42812D1*
X117787Y42860D1*
X117691Y42907D1*
X117547D1*
X117452Y42860D1*
X117356Y42763D1*
X117308Y42620D1*
Y42525D1*
X117356Y42381D1*
X117452Y42286D1*
X117547Y42237D1*
X117691D1*
X117787Y42286D1*
X117882Y42381D1*
X4141Y30669D2*
D86*
Y30095D1*
X4179Y29981D1*
X4256Y29904D1*
X4371Y29866D1*
X4447D1*
X4562Y29904D1*
X4639Y29981D1*
X4677Y30095D1*
Y30669D1*
X5460Y30554D2*
X5384Y30631D1*
X5269Y30669D1*
X5116D1*
X5001Y30631D1*
X4924Y30554D1*
Y30478D1*
X4963Y30401D1*
X5001Y30363D1*
X5077Y30325D1*
X5307Y30248D1*
X5384Y30210D1*
X5422Y30172D1*
X5460Y30095D1*
Y29981D1*
X5384Y29904D1*
X5269Y29866D1*
X5116D1*
X5001Y29904D1*
X4924Y29981D1*
X5707Y30669D2*
Y29866D1*
X6052D1*
X6167Y29904D1*
X6205Y29943D1*
X6243Y30019D1*
Y30134D1*
X6205Y30210D1*
X6167Y30248D1*
X6052Y30287D1*
X6167Y30325D1*
X6205Y30363D1*
X6243Y30439D1*
Y30516D1*
X6205Y30592D1*
X6167Y30631D1*
X6052Y30669D1*
X5707D1*
Y30287D2*
X6052D1*
M02*
